<svg width="15" height="17" viewBox="0 0 15 17" fill="none" xmlns="http://www.w3.org/2000/svg">
<path d="M11.2 16.0626H3.20001C2.31635 16.0626 1.6 15.3434 1.6 14.4563V4.01564H0V2.40938H3.20001V1.60626C3.20001 0.719145 3.91635 0 4.80001 0H9.60002C10.4837 0 11.2 0.719145 11.2 1.60626V2.40938H14.4V4.01564H12.8V14.4563C12.8 15.3434 12.0837 16.0626 11.2 16.0626ZM3.20001 4.01564V14.4563H11.2V4.01564H3.20001ZM4.80001 1.60626V2.40938H9.60002V1.60626H4.80001ZM9.60002 12.85H8.00001V5.6219H9.60002V12.85ZM6.40001 12.85H4.80001V5.6219H6.40001V12.85Z" fill="#FD423C"/>
</svg>
