<svg width="17" height="18" viewBox="0 0 17 18" fill="none" xmlns="http://www.w3.org/2000/svg">
<mask id="path-1-inside-1" fill="white">
<path d="M7.15656 2.69336H1.59035C1.16856 2.69336 0.764049 2.86157 0.465801 3.16098C0.167554 3.4604 0 3.86649 0 4.28992V15.4659C0 15.8893 0.167554 16.2954 0.465801 16.5948C0.764049 16.8942 1.16856 17.0624 1.59035 17.0624H12.7228C13.1446 17.0624 13.5491 16.8942 13.8473 16.5948C14.1456 16.2954 14.3131 15.8893 14.3131 15.4659V9.8779"/>
</mask>
<path d="M1.59035 2.69336V1.19336V2.69336ZM0 4.28992H-1.5H0ZM0 15.4659H-1.5H0ZM7.15656 1.19336H1.59035V4.19336H7.15656V1.19336ZM1.59035 1.19336C0.768842 1.19336 -0.0178286 1.52103 -0.596927 2.10239L1.52853 4.21957C1.54593 4.20211 1.56828 4.19336 1.59035 4.19336V1.19336ZM-0.596927 2.10239C-1.17583 2.68356 -1.5 3.47055 -1.5 4.28992H1.5C1.5 4.26243 1.51094 4.23723 1.52853 4.21957L-0.596927 2.10239ZM-1.5 4.28992V15.4659H1.5V4.28992H-1.5ZM-1.5 15.4659C-1.5 16.2852 -1.17583 17.0722 -0.596927 17.6534L1.52853 15.5362C1.51093 15.5186 1.5 15.4934 1.5 15.4659H-1.5ZM-0.596927 17.6534C-0.0178292 18.2348 0.768841 18.5624 1.59035 18.5624V15.5624C1.56828 15.5624 1.54593 15.5537 1.52853 15.5362L-0.596927 17.6534ZM1.59035 18.5624H12.7228V15.5624H1.59035V18.5624ZM12.7228 18.5624C13.5443 18.5624 14.3309 18.2348 14.91 17.6534L12.7846 15.5362C12.7672 15.5537 12.7448 15.5624 12.7228 15.5624V18.5624ZM14.91 17.6534C15.4889 17.0722 15.8131 16.2853 15.8131 15.4659H12.8131C12.8131 15.4934 12.8022 15.5186 12.7846 15.5362L14.91 17.6534ZM15.8131 15.4659V9.8779H12.8131V15.4659H15.8131Z" fill="white" mask="url(#path-1-inside-1)"/>
<path d="M13.1208 1.49599C13.4371 1.17841 13.8662 1 14.3136 1C14.7609 1 15.19 1.17841 15.5063 1.49599C15.8226 1.81356 16.0004 2.24429 16.0004 2.69341C16.0004 3.14253 15.8226 3.57325 15.5063 3.89083L7.95217 11.4745L4.77148 12.2728L5.56666 9.07965L13.1208 1.49599Z" stroke="white" stroke-width="1.5" stroke-linejoin="round"/>
</svg>
