<svg width="24" height="17" viewBox="0 0 24 17" fill="none" xmlns="http://www.w3.org/2000/svg">
<path d="M12.063 12.0488H10.4517V8.69727H7.30957V12.0488H5.69824V4.22852H7.30957V7.39746H10.4517V4.22852H12.063V12.0488ZM13.4756 12.0488V4.22852H15.8818C16.5693 4.22852 17.1834 4.38428 17.7241 4.6958C18.2684 5.00374 18.6927 5.44417 18.9971 6.01709C19.3014 6.58643 19.4536 7.23454 19.4536 7.96143V8.32129C19.4536 9.04818 19.3032 9.6945 19.0024 10.2603C18.7052 10.826 18.2845 11.2646 17.7402 11.5762C17.196 11.8877 16.5819 12.0452 15.8979 12.0488H13.4756ZM15.0869 5.53369V10.7544H15.8657C16.4959 10.7544 16.9775 10.5485 17.3105 10.1367C17.6436 9.72493 17.8136 9.1359 17.8208 8.36963V7.95605C17.8208 7.16113 17.6561 6.55957 17.3267 6.15137C16.9972 5.73958 16.5156 5.53369 15.8818 5.53369H15.0869Z" fill="#fff"/>
<rect x="0.75" y="0.798828" width="22.5" height="14.5" rx="3.25" stroke="#fff" stroke-width="1.5"/>
</svg>
