<svg width="8" height="21.000000000000004" xmlns="http://www.w3.org/2000/svg" fill="none">
 <g>
  <title>Layer 1</title>
  <rect x="3.25" y="1.51706" width="1.5" height="18" fill="#ffffff" id="svg_1"/>
  <path d="m4.39921,2.91876c-0.22114,0.21355 -0.57727,0.21355 -0.79841,0l-2.06014,-1.98954c-0.36034,-0.34799 -0.10779,-0.94728 0.3992,-0.94728l4.12027,0c0.50699,0 0.75954,0.59928 0.3992,0.94728l-2.06014,1.98954l0.00002,0z" fill="#FD7B38" id="svg_3" stroke="null"/>
  <path transform="rotate(180 4 19.4515)" d="m4.3992,20.83984c-0.22113,0.21355 -0.57727,0.21355 -0.7984,0l-2.06014,-1.98955c-0.36034,-0.34799 -0.10779,-0.94727 0.3992,-0.94727l4.12028,0c0.50699,0 0.75954,0.59928 0.3992,0.94727l-2.06014,1.98955z" fill="#FD7B38" id="svg_4" stroke="null"/>
  <path fill="white" opacity="NaN" d="m4.16752,3.62869" id="svg_5"/>
 </g>

</svg>