<svg width="17" height="17" viewBox="0 0 17 17" fill="none" xmlns="http://www.w3.org/2000/svg">
<mask id="path-1-inside-1" fill="white">
<path d="M0 1.04883V6.38216H5.31263"/>
</mask>
<path d="M0 6.38216H-1.5V7.88216H0V6.38216ZM-1.5 1.04883V6.38216H1.5V1.04883H-1.5ZM0 7.88216H5.31263V4.88216H0V7.88216Z" fill="#FD7B38" mask="url(#path-1-inside-1)"/>
<mask id="path-3-inside-2" fill="white">
<path d="M1.22631 10.7072C1.80041 12.3431 2.88855 13.7474 4.32677 14.7084C5.76499 15.6695 7.47538 16.1353 9.20022 16.0356C10.9251 15.9359 12.5709 15.2762 13.8898 14.1559C15.2087 13.0355 16.1292 11.5152 16.5125 9.82396C16.8959 8.13275 16.7214 6.36227 16.0153 4.77929C15.3092 3.1963 14.1098 1.88657 12.5977 1.04744C11.0857 0.2083 9.34295 -0.114786 7.6321 0.126862C5.92125 0.368509 4.33497 1.1618 3.11227 2.3872L0.959106 4.54883"/>
</mask>
<path d="M3.11227 2.3872L2.05044 1.32771L2.04953 1.32862L3.11227 2.3872ZM-0.189062 11.2039C0.492372 13.1456 1.78434 14.8136 3.49337 15.9556L5.16017 13.4612C3.99277 12.6811 3.10846 11.5405 2.64168 10.2105L-0.189062 11.2039ZM3.49337 15.9556C5.2025 17.0977 7.23578 17.6516 9.28675 17.5331L9.1137 14.5381C7.71498 14.6189 6.32748 14.2413 5.16017 13.4612L3.49337 15.9556ZM9.28675 17.5331C11.3377 17.4146 13.294 16.6302 14.8609 15.2991L12.9187 13.0127C11.8479 13.9223 10.5124 14.4573 9.1137 14.5381L9.28675 17.5331ZM14.8609 15.2991C16.4278 13.968 17.5205 12.1627 17.9754 10.1556L15.0497 9.49235C14.7379 10.8677 13.9896 12.103 12.9187 13.0127L14.8609 15.2991ZM17.9754 10.1556C18.4304 8.14849 18.2233 6.04729 17.3852 4.16824L14.6454 5.39034C15.2194 6.67725 15.3614 8.117 15.0497 9.49235L17.9754 10.1556ZM17.3852 4.16824C16.547 2.2891 15.1226 0.733169 13.3256 -0.264125L11.8698 2.359C13.0969 3.03998 14.0714 4.10351 14.6454 5.39034L17.3852 4.16824ZM13.3256 -0.264125C11.5285 -1.26147 9.45658 -1.64572 7.42231 -1.3584L7.84188 1.61212C9.22931 1.41615 10.6429 1.67807 11.8698 2.359L13.3256 -0.264125ZM7.42231 -1.3584C5.38808 -1.07107 3.50289 -0.127946 2.05044 1.32771L4.1741 3.44669C5.16705 2.45154 6.45442 1.80809 7.84188 1.61212L7.42231 -1.3584ZM2.04953 1.32862L-0.103632 3.49025L2.02185 5.60741L4.17501 3.44578L2.04953 1.32862Z" fill="#FD7B38" mask="url(#path-3-inside-2)"/>
<path d="M7.74756 5.37305V9.37309H11.732" stroke="#FD7B38" stroke-width="1.5"/>
</svg>
