<svg width="20" height="15" viewBox="0 0 20 15" fill="none" xmlns="http://www.w3.org/2000/svg">
<path d="M9.59961 6.4668V15.0001L14.9329 10.7335L9.59961 6.4668Z" fill="white"/>
<path d="M13.8662 6.4668V15.0001L19.1995 10.7335L13.8662 6.4668Z" fill="white"/>
<path fill-rule="evenodd" clip-rule="evenodd" d="M2 1.5H15.0667C15.3428 1.5 15.5667 1.72386 15.5667 2V5.98117H17.0667V2C17.0667 0.895431 16.1712 0 15.0667 0H2C0.895431 0 0 0.895432 0 2V12.27C0 13.3746 0.895432 14.27 2 14.27H8.5332V12.77H2C1.72386 12.77 1.5 12.5461 1.5 12.27V2C1.5 1.72386 1.72386 1.5 2 1.5Z" fill="white"/>
</svg>
