<svg width="24" height="24" viewBox="0 0 24 24" fill="none" xmlns="http://www.w3.org/2000/svg">
<rect opacity="0.6" x="24" width="24" height="24" rx="4" transform="rotate(90 24 0)" fill="#464647"/>
<path d="M9.1712 9.17157L8.4212 9.17157L8.4212 8.42157L9.1712 8.42157L9.1712 9.17157ZM8.4212 14.8284L8.4212 9.17157L9.9212 9.17157L9.9212 14.8284L8.4212 14.8284ZM9.1712 8.42157L14.8281 8.42157L14.8281 9.92157L9.1712 9.92157L9.1712 8.42157Z" fill="white"/>
<path d="M12.0003 11.9997L11.2503 11.9997L11.2503 11.2497L12.0003 11.2497L12.0003 11.9997ZM11.2503 17.6566L11.2503 11.9997L12.7503 11.9997L12.7503 17.6566L11.2503 17.6566ZM12.0003 11.2497L17.6572 11.2497L17.6572 12.7497L12.0003 12.7497L12.0003 11.2497Z" fill="white"/>
</svg>
