<svg width="24" height="24" viewBox="0 0 24 24" fill="none" xmlns="http://www.w3.org/2000/svg">
<rect opacity="0.6" x="24" width="24" height="24" rx="4" transform="rotate(90 24 0)" fill="#464647"/>
<path d="M12 8L11.4697 7.46967L12 6.93934L12.5303 7.46967L12 8ZM7.46967 11.4697L11.4697 7.46967L12.5303 8.53033L8.53033 12.5303L7.46967 11.4697ZM12.5303 7.46967L16.5303 11.4697L15.4697 12.5303L11.4697 8.53033L12.5303 7.46967Z" fill="white"/>
<path d="M12 12L11.4697 11.4697L12 10.9393L12.5303 11.4697L12 12ZM7.46967 15.4697L11.4697 11.4697L12.5303 12.5303L8.53033 16.5303L7.46967 15.4697ZM12.5303 11.4697L16.5303 15.4697L15.4697 16.5303L11.4697 12.5303L12.5303 11.4697Z" fill="white"/>
</svg>
