<svg width="24" height="16" viewBox="0 0 24 16" fill="none" xmlns="http://www.w3.org/2000/svg">
<path d="M9.75342 9.94824C9.75342 9.64388 9.646 9.41113 9.43115 9.25C9.21631 9.08529 8.82959 8.91341 8.271 8.73438C7.7124 8.55176 7.27018 8.37272 6.94434 8.19727C6.05632 7.71745 5.6123 7.07113 5.6123 6.2583C5.6123 5.83577 5.73047 5.4598 5.9668 5.13037C6.20671 4.79736 6.54867 4.53776 6.99268 4.35156C7.44027 4.16536 7.94157 4.07227 8.49658 4.07227C9.05518 4.07227 9.5529 4.17432 9.98975 4.37842C10.4266 4.57894 10.765 4.86361 11.0049 5.23242C11.2484 5.60124 11.3701 6.02018 11.3701 6.48926H9.75879C9.75879 6.13118 9.646 5.85368 9.42041 5.65674C9.19482 5.45622 8.87793 5.35596 8.46973 5.35596C8.07585 5.35596 7.76969 5.4401 7.55127 5.6084C7.33285 5.77311 7.22363 5.99154 7.22363 6.26367C7.22363 6.5179 7.35075 6.73096 7.60498 6.90283C7.86279 7.07471 8.24056 7.23584 8.73828 7.38623C9.65495 7.66195 10.3228 8.00391 10.7417 8.41211C11.1606 8.82031 11.3701 9.32878 11.3701 9.9375C11.3701 10.6143 11.1141 11.146 10.6021 11.5327C10.09 11.9159 9.40072 12.1074 8.53418 12.1074C7.93262 12.1074 7.38477 11.9982 6.89062 11.7798C6.39648 11.5578 6.01872 11.2552 5.75732 10.8721C5.49951 10.4889 5.37061 10.0449 5.37061 9.54004H6.9873C6.9873 10.403 7.50293 10.8345 8.53418 10.8345C8.91732 10.8345 9.21631 10.7575 9.43115 10.6035C9.646 10.446 9.75342 10.2275 9.75342 9.94824ZM12.4658 12V4.17969H14.8721C15.5596 4.17969 16.1737 4.33545 16.7144 4.64697C17.2586 4.95492 17.6829 5.39535 17.9873 5.96826C18.2917 6.5376 18.4438 7.18571 18.4438 7.9126V8.27246C18.4438 8.99935 18.2935 9.64567 17.9927 10.2114C17.6955 10.7772 17.2747 11.2158 16.7305 11.5273C16.1862 11.8389 15.5721 11.9964 14.8882 12H12.4658ZM14.0771 5.48486V10.7056H14.856C15.4862 10.7056 15.9678 10.4997 16.3008 10.0879C16.6338 9.67611 16.8039 9.08708 16.811 8.3208V7.90723C16.811 7.1123 16.6463 6.51074 16.3169 6.10254C15.9875 5.69076 15.5059 5.48486 14.8721 5.48486H14.0771Z" fill="#fff"/>
<rect x="0.75" y="0.75" width="22.5" height="14.5" rx="3.25" stroke="#fff" stroke-width="1.5"/>
</svg>
