<svg width="23" height="21" viewBox="0 0 23 21" fill="none" xmlns="http://www.w3.org/2000/svg">
<path d="M15.3027 10.7453C14.273 9.13888 12.5193 8.17969 10.6114 8.17969C8.70345 8.17969 6.94971 9.13888 5.92016 10.7453L3.43891 14.6161C3.02723 15.2582 2.83728 16.0002 2.88948 16.7612C2.94168 17.5224 3.23132 18.2313 3.72698 18.8116C4.22299 19.3914 4.87839 19.7877 5.62231 19.9578C6.36624 20.1278 7.12884 20.0552 7.82754 19.7481L7.87433 19.7273C9.63244 18.97 11.6414 18.9769 13.395 19.7481C13.8474 19.947 14.3266 20.0475 14.8102 20.0475C15.0731 20.0475 15.3376 20.0177 15.5997 19.958C16.3436 19.7881 16.999 19.3918 17.4952 18.8118C17.991 18.232 18.2809 17.523 18.3332 16.7616C18.3856 16.0002 18.1957 15.2584 17.784 14.6159L15.3027 10.7453Z" fill="#4D4D4D"/>
<path d="M4.10722 10.7414C4.84538 10.4578 5.40616 9.863 5.6862 9.06635C5.95279 8.30829 5.93097 7.45246 5.62457 6.65633C5.31799 5.86073 4.76035 5.21126 4.05432 4.82734C3.31266 4.42422 2.49786 4.35857 1.76092 4.64263C0.278313 5.21266 -0.402059 7.04479 0.244443 8.72765C0.760876 10.0671 1.96536 10.9126 3.18312 10.9126C3.49406 10.9126 3.80588 10.8575 4.10722 10.7414Z" fill="#4D4D4D"/>
<path d="M8.92166 7.7089C10.7751 7.7089 12.283 5.99095 12.283 3.8793C12.283 1.76713 10.7751 0.0488281 8.92166 0.0488281C7.0684 0.0488281 5.56065 1.76713 5.56065 3.8793C5.56065 5.99095 7.0684 7.7089 8.92166 7.7089Z" fill="#4D4D4D"/>
<path d="M14.7267 8.64953H14.7269C15.012 8.74416 15.3029 8.78938 15.5925 8.78938C16.9442 8.78938 18.2614 7.80557 18.7641 6.29363C19.0536 5.42331 19.0345 4.50305 18.7105 3.70256C18.3714 2.86454 17.7431 2.25627 16.941 1.98967C16.1388 1.72308 15.2713 1.83429 14.498 2.30254C13.7593 2.74983 13.1933 3.4756 12.9042 4.34592C12.294 6.18189 13.1116 8.1125 14.7267 8.64953Z" fill="#4D4D4D"/>
<path d="M21.8054 8.20215L21.8049 8.20162C20.5267 7.25745 18.6152 7.66668 17.5434 9.11437C16.4726 10.5628 16.6401 12.5099 17.9163 13.4548C18.3817 13.7996 18.9317 13.9644 19.4946 13.9644C20.4756 13.9644 21.4962 13.4637 22.1785 12.5429C23.2491 11.0946 23.0818 9.14737 21.8054 8.20215Z" fill="#4D4D4D"/>
</svg>
