<svg width="40" height="41" viewBox="0 0 40 41" fill="none" xmlns="http://www.w3.org/2000/svg">
<rect y="0.0488281" width="40" height="40" rx="20" fill="#404447"/>
<path d="M28.0633 27.116H12V25.1081L14.0079 24.1042V18.5824C13.955 17.166 14.2749 15.7604 14.9356 14.5064C15.5932 13.3433 16.7173 12.5174 18.0237 12.2374V10.0488H22.0395V12.2374C24.6287 12.8539 26.0554 15.1067 26.0554 18.5824V24.1042L28.0633 25.1081V27.116Z" fill="white"/>
<path opacity="0.4" d="M18.0137 28.041C18.0246 29.1493 18.9233 30.0435 20.0316 30.0489C20.1507 30.0465 20.2694 30.0331 20.386 30.0088H20.3951H20.4131H20.4282H20.4332C21.0775 29.8693 21.6155 29.4285 21.8789 28.8241C21.9804 28.5756 22.0316 28.3094 22.0295 28.041H18.0137Z" fill="white"/>
</svg>
