<svg width="48" height="49" viewBox="0 0 48 49" fill="none" xmlns="http://www.w3.org/2000/svg">
<circle cx="24" cy="24.0488" r="24" fill="#FD7B38"/>
<path d="M25.5757 30.0543C26.8703 30.4976 28.0135 30.78 29.656 31.2847C29.025 39.2576 21.4858 36.0913 25.5757 30.0543ZM32.3071 22.7302C32.2221 20.3363 31.8004 17.196 28.4418 17.6881C26.8673 18.099 25.704 19.8281 25.1569 22.8114C24.8564 24.4517 25.0311 26.754 25.3856 28.1342C25.7092 29.1068 25.5991 29.047 25.947 29.2317C27.2933 29.535 28.6262 29.8707 29.9835 30.2131C31.3623 29.2394 32.4948 24.0699 32.3071 22.7302ZM21.9421 22.5465C22.2962 21.1662 22.471 18.8638 22.1706 17.2237C21.6239 14.2403 20.4604 12.5109 18.8857 12.1003C15.5271 11.6082 15.1054 14.7484 15.0204 17.1425C14.8327 18.4819 15.9653 23.6517 17.3443 24.6253C18.7015 24.2829 20.0341 23.9475 21.3809 23.6439C21.7283 23.4594 21.6183 23.5191 21.9421 22.5465ZM17.6714 25.6972C18.3021 33.6699 25.8414 30.5037 21.7515 24.4667C20.4569 24.9101 19.3138 25.1925 17.6714 25.6972Z" fill="white"/>
</svg>
