<svg width="48" height="49" viewBox="0 0 48 49" fill="none" xmlns="http://www.w3.org/2000/svg">
<circle cx="24" cy="24.0491" r="24" fill="#FD7B38"/>
<path d="M25.5757 30.0545C26.8703 30.4979 28.0135 30.7803 29.656 31.285C29.025 39.2578 21.4858 36.0916 25.5757 30.0545ZM32.3071 22.7305C32.2221 20.3366 31.8004 17.1963 28.4418 17.6883C26.8673 18.0992 25.704 19.8283 25.1569 22.8116C24.8564 24.4519 25.0311 26.7543 25.3856 28.1344C25.7092 29.107 25.5991 29.0472 25.947 29.2319C27.2933 29.5352 28.6262 29.871 29.9835 30.2133C31.3623 29.2396 32.4948 24.0701 32.3071 22.7305ZM21.9421 22.5467C22.2962 21.1664 22.471 18.864 22.1706 17.2239C21.6239 14.2405 20.4604 12.5111 18.8857 12.1005C15.5271 11.6085 15.1054 14.7487 15.0204 17.1427C14.8327 18.4822 15.9653 23.652 17.3443 24.6255C18.7015 24.2832 20.0341 23.9477 21.3809 23.6441C21.7283 23.4596 21.6183 23.5193 21.9421 22.5467ZM17.6714 25.6974C18.3021 33.6702 25.8414 30.5039 21.7515 24.467C20.4569 24.9104 19.3138 25.1927 17.6714 25.6974Z" fill="white"/>
</svg>
