<svg width="44" height="61" viewBox="0 0 44 61" fill="none" xmlns="http://www.w3.org/2000/svg">
<path d="M43.2775 26.7586C43.0649 20.7725 42.0106 12.92 33.612 14.1504C29.675 15.1779 26.7661 19.5017 25.3979 26.9616C24.6465 31.0632 25.0835 36.8204 25.9698 40.2716C26.7791 42.7036 26.5039 42.5541 27.3737 43.016C30.7403 43.7744 34.0732 44.614 37.4672 45.4701C40.9151 43.0352 43.7468 30.1086 43.2775 26.7586ZM17.3591 26.2992C18.2447 22.8476 18.6817 17.0903 17.9306 12.9892C16.5635 5.52896 13.6542 1.20449 9.71653 0.177711C1.31801 -1.0527 0.263644 6.79965 0.0510465 12.7861C-0.418274 16.1355 2.41383 29.063 5.86207 31.4973C9.25582 30.6413 12.5882 29.8024 15.9559 29.0433C16.8247 28.5819 16.5494 28.7313 17.3591 26.2992Z" fill="#FD7B38"/>
<path d="M7.00159 34.1329C8.57883 54.0693 27.4312 46.1519 17.2041 31.0561C13.9669 32.1648 11.1086 32.8709 7.00159 34.1329Z" fill="#8B5135"/>
<path d="M27.0308 45.0593C30.2681 46.168 33.1266 46.8741 37.2337 48.1362C35.6559 68.0728 16.8035 60.1553 27.0308 45.0593Z" fill="#8B5135"/>
</svg>
