<?xml version="1.0" standalone="no"?>
<!DOCTYPE svg PUBLIC "-//W3C//DTD SVG 20010904//EN"
 "http://www.w3.org/TR/2001/REC-SVG-20010904/DTD/svg10.dtd">
<svg version="1.0" xmlns="http://www.w3.org/2000/svg"
 width="676.000000pt" height="355.000000pt" viewBox="0 0 676.000000 355.000000"
 preserveAspectRatio="xMidYMid meet">
<metadata>
Created by potrace 1.16, written by Peter Selinger 2001-2019
</metadata>
<g transform="translate(0.000000,355.000000) scale(0.100000,-0.100000)"
fill="#fff" stroke="none">
<path d="M1545 2931 c-69 -17 -116 -55 -151 -121 -18 -33 -19 -70 -22 -574 -3
-596 -3 -598 60 -665 17 -18 50 -42 72 -52 39 -18 110 -19 1866 -19 1746 0
1827 1 1865 19 22 10 55 33 72 51 64 65 64 69 61 666 -3 504 -4 541 -22 574
-26 49 -55 79 -101 103 l-40 22 -1815 2 c-998 0 -1828 -2 -1845 -6z m3676 -97
c18 -9 38 -32 50 -57 17 -40 19 -73 19 -562 0 -580 2 -565 -69 -612 l-34 -23
-1817 0 -1817 0 -34 23 c-71 47 -69 33 -69 609 0 574 1 580 64 619 30 18 84
19 1854 19 1635 0 1826 -2 1853 -16z"/>
<path d="M3916 2531 c-8 -15 -48 -120 -91 -236 -75 -205 -89 -235 -100 -223
-3 3 -43 111 -89 239 l-83 234 -67 3 c-36 2 -66 0 -66 -4 0 -4 57 -155 127
-336 l127 -328 57 0 57 0 40 103 c162 411 211 537 214 552 2 14 -7 17 -55 19
-54 2 -60 0 -71 -23z"/>
<path d="M2750 2215 l0 -335 215 0 215 0 0 60 0 60 -155 0 -155 0 0 275 0 275
-60 0 -60 0 0 -335z"/>
<path d="M3260 2215 l0 -335 60 0 60 0 0 335 0 335 -60 0 -60 0 0 -335z"/>
<path d="M4080 2215 l0 -335 255 0 255 0 0 60 0 60 -192 2 -193 3 0 80 0 80
173 3 173 2 -3 58 -3 57 -173 3 -173 2 3 73 3 72 188 3 187 2 0 55 0 55 -250
0 -250 0 0 -335z"/>
<path d="M1992 2471 c-115 -40 -182 -132 -182 -250 1 -199 193 -327 372 -248
107 48 164 146 156 266 -9 118 -77 202 -191 236 -65 19 -90 19 -155 -4z"/>
</g>
</svg>
