<svg width="40" height="41" viewBox="0 0 40 41" fill="none" xmlns="http://www.w3.org/2000/svg">
<rect y="0.0488281" width="40" height="40" rx="20" fill="#404447"/>
<path d="M17.0464 28.662H30V28.0352C29.8084 24.6334 26.9167 22.0234 23.5232 22.1894C20.1298 22.0234 17.238 24.6334 17.0464 28.0352V28.662Z" fill="white"/>
<path d="M21.2001 19.6476C21.8141 20.2633 22.6554 20.5958 23.5232 20.5655C24.391 20.5958 25.2323 20.2633 25.8463 19.6476C26.4603 19.0319 26.7918 18.1881 26.7616 17.3179C26.7913 16.4477 26.4596 15.6043 25.8458 14.9887C25.2319 14.373 24.3909 14.0404 23.5232 14.0702C22.6556 14.0404 21.8145 14.373 21.2007 14.9887C20.5868 15.6043 20.2551 16.4477 20.2848 17.3179C20.2546 18.1881 20.5861 19.0319 21.2001 19.6476Z" fill="white"/>
<path d="M10 25.6424H22.9537V25.0156C22.762 21.6139 19.8703 19.0039 16.4768 19.1698C13.0834 19.0039 10.1916 21.6139 10 25.0156V25.6424Z" fill="white"/>
<path d="M14.1537 16.6281C14.7677 17.2438 15.6091 17.5762 16.4768 17.546C17.3446 17.5762 18.1859 17.2438 18.7999 16.6281C19.4139 16.0123 19.7454 15.1686 19.7152 14.2983C19.7449 13.4282 19.4133 12.5848 18.7994 11.9691C18.1855 11.3535 17.3445 11.0209 16.4768 11.0507C15.6092 11.0209 14.7681 11.3535 14.1543 11.9691C13.5404 12.5848 13.2087 13.4282 13.2384 14.2983C13.2083 15.1686 13.5398 16.0123 14.1537 16.6281Z" fill="white"/>
</svg>
