<svg width="40" height="41" viewBox="0 0 40 41" fill="none" xmlns="http://www.w3.org/2000/svg">
<rect y="0.0488281" width="40" height="40" rx="20" fill="#404447"/>
<path d="M19.9744 30.0488L16.9829 27.0488H12.9943C11.8929 27.0488 11 26.1534 11 25.0488V12.0488C11 10.9443 11.8929 10.0488 12.9943 10.0488H26.9544C28.0558 10.0488 28.9487 10.9443 28.9487 12.0488V25.0488C28.9487 26.1534 28.0558 27.0488 26.9544 27.0488H22.9658L19.9744 30.0488ZM12.9943 12.0488V25.0488H17.9801L19.9744 27.0488L21.9687 25.0488H26.9544V12.0488H12.9943ZM23.963 23.0348H15.9858V22.6488C16.1038 20.5539 17.8846 18.9466 19.9744 19.0488C22.0641 18.9466 23.8449 20.5539 23.963 22.6488V23.0338V23.0348ZM19.9744 18.0488C19.44 18.0675 18.9218 17.8627 18.5437 17.4835C18.1656 17.1044 17.9615 16.5848 17.9801 16.0488C17.9618 15.513 18.166 14.9936 18.5441 14.6144C18.9221 14.2353 19.44 14.0305 19.9744 14.0488C20.5087 14.0305 21.0266 14.2353 21.4047 14.6144C21.7827 14.9936 21.9869 15.513 21.9687 16.0488C21.9872 16.5848 21.7831 17.1044 21.405 17.4835C21.0269 17.8627 20.5088 18.0675 19.9744 18.0488Z" fill="white"/>
</svg>
