<svg width="21" height="21" viewBox="0 0 21 21" fill="none" xmlns="http://www.w3.org/2000/svg">
<path d="M3.13051 3.17933C3.13051 2.30931 4.44923 0.0488281 6.95625 0.0488281C9.44891 0.0488281 10.7911 2.30931 10.7911 3.17933C10.782 3.17933 10.765 3.18846 10.7559 3.18846C9.29499 3.57978 8.34671 1.98844 8.3128 1.9193C8.15888 1.66886 7.83279 1.64147 7.63452 1.82409C5.79144 3.53673 3.33008 3.20542 3.13051 3.17933Z" fill="#4C4C4C"/>
<path d="M7.85236 2.7793C5.86971 4.33542 3.53096 4.10976 3.05225 4.04845C2.9466 5.63327 4.47924 7.87419 6.95625 7.87419C9.4437 7.87419 10.9724 5.61762 10.8603 4.04845C9.70849 4.34846 8.60759 3.72367 7.85236 2.7793Z" fill="#4C4C4C"/>
<path d="M10.1794 9.61523H3.26094C1.46221 9.61523 0 11.0774 0 12.8762V15.9193C0 16.2793 0.29218 16.5715 0.652188 16.5715H8.61411C7.79887 14.1023 8.42627 11.4609 10.1794 9.61523Z" fill="#4C4C4C"/>
<path d="M15.2182 8.74414C12.102 8.74414 9.5663 11.2798 9.5663 14.396C9.5663 17.5122 12.102 20.0479 15.2182 20.0479C18.3343 20.0479 20.87 17.5135 20.87 14.396C20.87 11.2785 18.3343 8.74414 15.2182 8.74414ZM15.2182 18.3091C14.8582 18.3091 14.566 18.017 14.566 17.6569C14.566 17.2969 14.8582 17.0048 15.2182 17.0048C15.5782 17.0048 15.8704 17.2969 15.8704 17.6569C15.8704 18.017 15.5782 18.3091 15.2182 18.3091ZM16.5147 14.533C15.946 14.9699 15.8704 15.373 15.8704 15.9182C15.8704 16.2782 15.5782 16.5704 15.2182 16.5704C14.1394 16.5704 14.4108 14.5043 15.7203 13.4986C15.9499 13.3225 16.0882 13.0342 16.0882 12.729C16.0882 12.2099 15.6982 11.7873 15.2182 11.7873C14.7382 11.7873 14.3481 12.2099 14.3481 12.7303C14.3481 13.0903 14.056 13.3825 13.696 13.3825C13.3359 13.3825 13.0438 13.0903 13.0438 12.7303C13.0438 11.4912 14.0194 10.4842 15.2182 10.4842C16.4169 10.4842 17.3926 11.4925 17.3926 12.7303C17.3913 13.4373 17.0639 14.1117 16.5147 14.533Z" fill="#4C4C4C"/>
</svg>
