<svg width="9" height="21" viewBox="0 0 9 21" fill="none" xmlns="http://www.w3.org/2000/svg">
<path d="M4.19351 3.41577C5.12327 3.41577 5.87698 2.66205 5.87698 1.7323C5.87698 0.802544 5.12327 0.0488281 4.19351 0.0488281C3.26376 0.0488281 2.51004 0.802544 2.51004 1.7323C2.51004 2.66205 3.26376 3.41577 4.19351 3.41577Z" fill="#4D4D4D"/>
<path d="M4.77998 4.21695C4.36051 4.13179 3.90444 4.13553 3.49244 4.23264C0.693629 4.5606 -0.215153 7.80017 0.0414572 10.2703C0.152767 11.3382 1.83624 11.3494 1.72381 10.2703C1.63043 9.37009 1.67039 8.01158 2.14888 7.04602C2.14888 8.21963 2.14888 9.39324 2.14888 10.5665C2.14888 10.6079 2.15299 10.6468 2.15485 10.6868C2.15373 10.7058 2.14925 10.7219 2.14925 10.7413C2.14925 13.5349 2.14439 16.3273 2.02898 19.1187C1.9778 20.3595 3.90182 20.3547 3.95262 19.1187C4.04301 16.9309 4.0658 14.7421 4.07103 12.5529C4.16217 12.5589 4.25331 12.5589 4.34445 12.5536C4.35005 14.7428 4.37209 16.9317 4.46173 19.1187C4.51291 20.3547 6.43693 20.3595 6.38538 19.1187C6.26996 16.3273 6.26585 13.5349 6.26585 10.7413C6.26585 10.6546 6.25427 10.5758 6.23672 10.5C6.2341 9.28716 6.18779 8.07321 6.20198 6.86113C6.77497 7.83117 6.82726 9.3107 6.7279 10.2695C6.6151 11.3479 8.29894 11.3371 8.41025 10.2695C8.67284 7.74825 7.72035 4.42463 4.77998 4.21695Z" fill="#4D4D4D"/>
</svg>
