<svg width="20" height="16" viewBox="0 0 20 16" fill="none" xmlns="http://www.w3.org/2000/svg">
<path d="M19.8858 5.35066C19.788 5.23134 19.6421 5.16169 19.4889 5.16169H17.5424C17.062 3.89473 16.4362 2.65337 15.7249 2.18479C13.2642 0.566007 6.73736 0.566007 4.27667 2.18479C3.56483 2.65389 2.9416 3.89678 2.45867 5.16169H0.512138C0.357481 5.16169 0.212041 5.23134 0.115252 5.35066C0.0179508 5.46947 -0.0209697 5.62669 0.0107812 5.77776L0.2991 7.1748C0.348263 7.41294 0.558228 7.58296 0.800457 7.58296H1.37709C0.820429 8.22514 0.550547 9.03377 0.546962 9.8429C0.543377 10.8425 0.922852 11.7459 1.61676 12.385C1.62444 12.3917 1.63213 12.3963 1.6393 12.4029V14.3577C1.6393 14.7812 1.98343 15.1258 2.40746 15.1258H4.20293C4.62695 15.1258 4.97109 14.7812 4.97109 14.3577V13.5721H15.0295V14.3577C15.0295 14.7812 15.3736 15.1258 15.7976 15.1258H17.5931C18.0161 15.1258 18.3613 14.7812 18.3613 14.3577V12.4414C19.0977 11.7669 19.4495 10.839 19.4541 9.91255C19.4572 9.07576 19.175 8.23744 18.5856 7.58193H19.2006C19.4439 7.58193 19.6538 7.41191 19.702 7.17327L19.9908 5.77674C20.0205 5.62669 19.9831 5.4705 19.8858 5.35066ZM5.12012 3.46763C7.0815 2.1766 12.9191 2.1766 14.8794 3.46763C15.2604 3.71754 15.7505 4.72794 16.1996 5.9652H3.80092C4.24902 4.72845 4.73911 3.71856 5.12012 3.46763ZM2.82279 10.0355C2.82279 9.20072 3.4998 8.52473 4.33403 8.52473C5.16928 8.52473 5.84527 9.20072 5.84527 10.0355C5.84527 10.8702 5.16928 11.5467 4.33403 11.5467C3.4998 11.5467 2.82279 10.8702 2.82279 10.0355ZM15.6865 11.5467C14.8523 11.5467 14.1753 10.8702 14.1753 10.0355C14.1753 9.20072 14.8523 8.52473 15.6865 8.52473C16.5218 8.52473 17.1978 9.20072 17.1978 10.0355C17.1978 10.8702 16.5207 11.5467 15.6865 11.5467Z" fill="#4C4C4C"/>
</svg>
