<svg width="48" height="49" viewBox="0 0 48 49" fill="none" xmlns="http://www.w3.org/2000/svg">
<circle cx="24" cy="24.0508" r="24" fill="#FD413C"/>
<path d="M32.9487 26.1024C32.6738 22.5231 31.0073 20.2801 29.5371 18.3008C28.1758 16.4683 27 14.8859 27 12.5516C27 12.3641 26.895 12.1928 26.7285 12.1068C26.5615 12.0204 26.3608 12.0346 26.209 12.1449C24.001 13.7249 22.1587 16.3878 21.5152 18.9286C21.0684 20.6975 21.0093 22.6861 21.001 23.9995C18.9619 23.564 18.5 20.514 18.4951 20.4807C18.4722 20.3225 18.3755 20.1849 18.2349 20.1097C18.0928 20.0355 17.9258 20.0301 17.7817 20.1014C17.6748 20.1531 15.1572 21.4323 15.0107 26.5399C15.0005 26.7098 15 26.8802 15 27.0506C15 32.0127 19.0376 36.05 24 36.05C24.0068 36.0505 24.0142 36.0515 24.02 36.05C24.022 36.05 24.0239 36.05 24.0263 36.05C28.9766 36.0358 33 32.0039 33 27.0506C33 26.8011 32.9487 26.1024 32.9487 26.1024ZM24 35.0501C22.3457 35.0501 21 33.6166 21 31.8545C21 31.7945 20.9995 31.7339 21.0039 31.6597C21.0239 30.9166 21.165 30.4093 21.3198 30.0719C21.6099 30.6949 22.1284 31.2676 22.9707 31.2676C23.2471 31.2676 23.4707 31.044 23.4707 30.7677C23.4707 30.0558 23.4854 29.2346 23.6626 28.4934C23.8204 27.8362 24.1973 27.137 24.6749 26.5765C24.8872 27.304 25.3013 27.8928 25.7056 28.4675C26.2843 29.2897 26.8824 30.1398 26.9874 31.5894C26.9937 31.6753 27.0001 31.7618 27.0001 31.8545C27 33.6166 25.6543 35.0501 24 35.0501Z" fill="white"/>
</svg>
