<svg width="17" height="21" viewBox="0 0 17 21" fill="none" xmlns="http://www.w3.org/2000/svg">
<path d="M16.0633 17.118H0V15.1101L2.00791 14.1061V8.58439C1.95502 7.16793 2.2749 5.7624 2.93556 4.50834C3.59319 3.34527 4.71727 2.51938 6.02372 2.2394V0.0507812H10.0395V2.2394C12.6287 2.85583 14.0554 5.1087 14.0554 8.58439V14.1061L16.0633 15.1101V17.118Z" fill="white"/>
<path opacity="0.4" d="M6.01367 18.043C6.02463 19.1512 6.9233 20.0454 8.03162 20.0509C8.15074 20.0484 8.26937 20.035 8.38601 20.0107H8.39505H8.41312H8.42818H8.4332C9.07755 19.8713 9.61551 19.4304 9.87889 18.8261C9.98042 18.5776 10.0316 18.3114 10.0295 18.043H6.01367Z" fill="white"/>
</svg>
