<svg width="46" height="60" viewBox="0 0 46 60" fill="none" xmlns="http://www.w3.org/2000/svg">
<path d="M45.3876 35.1292C44.6924 26.1808 40.4782 20.5733 36.7605 15.6249C33.318 11.0439 30.3448 7.08784 30.3448 1.25214C30.3448 0.783391 30.0793 0.354953 29.6583 0.140149C29.2359 -0.0759449 28.7285 -0.0405543 28.3446 0.235305C22.7611 4.18523 18.1025 10.8425 16.4751 17.1946C15.3454 21.6169 15.1959 26.5884 15.1749 29.8719C10.0187 28.7831 8.85062 21.158 8.83829 21.0749C8.78021 20.6794 8.53579 20.3352 8.18018 20.1472C7.82091 19.9617 7.39857 19.9482 7.03431 20.1265C6.76393 20.2558 0.397564 23.4539 0.027144 36.2228C0.0011849 36.6476 0 37.0736 0 37.4996C0 49.9047 10.21 59.9981 22.7586 59.9981C22.7759 59.9993 22.7944 60.0017 22.8092 59.9981C22.8142 59.9981 22.8191 59.9981 22.8252 59.9981C35.3431 59.9626 45.5172 49.8828 45.5172 37.4996C45.5172 36.8758 45.3876 35.1292 45.3876 35.1292ZM22.7586 57.4982C18.5753 57.4982 15.1724 53.9145 15.1724 49.5093C15.1724 49.3592 15.1712 49.2078 15.1823 49.0223C15.2329 47.1645 15.5898 45.8963 15.9812 45.0528C16.7147 46.6104 18.0259 48.0422 20.1558 48.0422C20.8547 48.0422 21.4202 47.4831 21.4202 46.7922C21.4202 45.0126 21.4573 42.9595 21.9055 41.1065C22.3044 39.4636 23.2575 37.7156 24.4652 36.3144C25.0022 38.1331 26.0494 39.6051 27.0717 41.0418C28.5349 43.0973 30.0474 45.2225 30.3129 48.8465C30.3289 49.0613 30.3451 49.2774 30.3451 49.5093C30.3448 53.9144 26.9419 57.4982 22.7586 57.4982Z" fill="#FD413C"/>
</svg>
