<svg width="19" height="18" viewBox="0 0 19 18" fill="none" xmlns="http://www.w3.org/2000/svg">
<path d="M17.5239 17.0004H2.20869C1.98622 17.0004 1.80566 16.8198 1.80566 16.5974C1.80566 16.3749 1.98622 16.1943 2.20869 16.1943H17.5239C17.7463 16.1943 17.9269 16.3749 17.9269 16.5974C17.9269 16.8198 17.7463 17.0004 17.5239 17.0004Z" fill="#818181" stroke="#818181" stroke-width="0.5"/>
<path d="M7.57444 15.3868C7.05775 15.3868 6.54187 15.1901 6.14852 14.7976L1.58943 10.2377C0.803523 9.45175 0.803523 8.17334 1.58943 7.38743L7.85898 1.11789C8.01616 0.960705 8.27168 0.960705 8.42886 1.11789L15.2683 7.95732C15.3441 8.03309 15.386 8.13546 15.386 8.24266C15.386 8.34987 15.3433 8.45224 15.2683 8.52801L8.99875 14.7976C8.607 15.1901 8.09032 15.3868 7.57444 15.3868ZM6.71921 14.2277C7.19075 14.6976 7.95651 14.6992 8.42967 14.2277L14.4147 8.24347L8.14432 1.97312L2.15932 7.95732C1.68777 8.42886 1.68777 9.19623 2.15932 9.66778L6.71921 14.2277Z" fill="#818181" stroke="#818181" stroke-width="0.5"/>
<path d="M15.9121 15.389C14.8006 15.389 13.897 14.4846 13.897 13.3738C13.897 12.4066 15.2995 10.3277 15.5808 9.92067C15.7308 9.70223 16.0943 9.70223 16.2434 9.92067C16.5247 10.3277 17.9273 12.4066 17.9273 13.3738C17.9273 14.4846 17.0237 15.389 15.9121 15.389ZM15.9121 10.8783C15.3318 11.7851 14.703 12.9337 14.703 13.3738C14.703 14.0404 15.2455 14.5829 15.9121 14.5829C16.5787 14.5829 17.1212 14.0404 17.1212 13.3738C17.1212 12.9329 16.4925 11.7843 15.9121 10.8783Z" fill="#818181" stroke="#818181" stroke-width="0.5"/>
<path d="M14.6945 8.93985H1.43477C1.2123 8.93985 1.03174 8.75929 1.03174 8.53682C1.03174 8.31435 1.2123 8.13379 1.43477 8.13379H14.6945C14.917 8.13379 15.0975 8.31435 15.0975 8.53682C15.0975 8.75929 14.9178 8.93985 14.6945 8.93985Z" fill="#818181" stroke="#818181" stroke-width="0.5"/>
</svg>
