<svg width="18" height="16" viewBox="0 0 18 16" fill="none" xmlns="http://www.w3.org/2000/svg">
<path d="M15.1111 2.66667H12.4444V1.77778C12.4444 1.30628 12.2571 0.854097 11.9237 0.520699C11.5903 0.187301 11.1382 0 10.6667 0H7.11111C6.63962 0 6.18743 0.187301 5.85403 0.520699C5.52064 0.854097 5.33333 1.30628 5.33333 1.77778V2.66667H2.66667C1.95942 2.66667 1.28115 2.94762 0.781049 3.44772C0.280952 3.94781 0 4.62609 0 5.33333V13.3333C0 14.0406 0.280952 14.7189 0.781049 15.219C1.28115 15.719 1.95942 16 2.66667 16H15.1111C15.8184 16 16.4966 15.719 16.9967 15.219C17.4968 14.7189 17.7778 14.0406 17.7778 13.3333V5.33333C17.7778 4.62609 17.4968 3.94781 16.9967 3.44772C16.4966 2.94762 15.8184 2.66667 15.1111 2.66667ZM7.11111 1.77778H10.6667V2.66667H7.11111V1.77778ZM16 13.3333C16 13.5691 15.9064 13.7952 15.7397 13.9619C15.573 14.1286 15.3469 14.2222 15.1111 14.2222H2.66667C2.43092 14.2222 2.20483 14.1286 2.03813 13.9619C1.87143 13.7952 1.77778 13.5691 1.77778 13.3333V8.34667L5.93778 9.77778C6.03216 9.79058 6.12784 9.79058 6.22222 9.77778H11.5556C11.652 9.776 11.7477 9.76104 11.84 9.73333L16 8.34667V13.3333ZM16 6.47111L11.4133 8H6.36444L1.77778 6.47111V5.33333C1.77778 5.09759 1.87143 4.87149 2.03813 4.70479C2.20483 4.53809 2.43092 4.44444 2.66667 4.44444H15.1111C15.3469 4.44444 15.573 4.53809 15.7397 4.70479C15.9064 4.87149 16 5.09759 16 5.33333V6.47111Z" fill="#818181"/>
</svg>
