<svg width="60" height="46" viewBox="0 0 60 46" fill="none" xmlns="http://www.w3.org/2000/svg">
<path opacity="0.4" d="M57.9929 7.82727C56.7359 7.03539 55.1909 6.96534 53.8739 7.63539L49.4278 9.88006C47.7838 10.7085 46.7638 12.3836 46.7638 14.2476V31.7481C46.7638 33.612 47.7838 35.2841 49.4278 36.1186L53.8709 38.3603C54.4739 38.6709 55.1189 38.8202 55.7639 38.8202C56.5379 38.8202 57.3059 38.6009 57.9929 38.1714C59.2499 37.3826 59.9999 36.0151 59.9999 34.5166V11.4851C59.9999 9.98666 59.2499 8.61915 57.9929 7.82727Z" fill="#FD7B38"/>
<path d="M29.7154 45.5H12.3392C5.07311 45.5 6.10352e-05 40.4898 6.10352e-05 33.3173V12.6827C6.10352e-05 5.50711 5.07311 0.5 12.3392 0.5H29.7154C36.9814 0.5 42.0545 5.50711 42.0545 12.6827V33.3173C42.0545 40.4898 36.9814 45.5 29.7154 45.5Z" fill="#FD7B38"/>
<path fill-rule="evenodd" clip-rule="evenodd" d="M30.0933 24.7046C30.4792 24.9097 30.7769 25.2333 30.9864 25.557C31.3944 26.226 31.3614 27.046 30.9644 27.769L30.1925 29.0638C29.7845 29.7543 29.0237 30.1859 28.2408 30.1859C27.8548 30.1859 27.4248 30.078 27.0719 29.8622C26.7852 29.6788 26.4544 29.614 26.1016 29.614C25.0099 29.614 24.0947 30.5096 24.0616 31.5778C24.0616 32.8186 23.0471 33.7897 21.7791 33.7897H20.2794C19.0003 33.7897 17.9858 32.8186 17.9858 31.5778C17.9638 30.5096 17.0486 29.614 15.9569 29.614C15.593 29.614 15.2622 29.6788 14.9866 29.8622C14.6337 30.078 14.1926 30.1859 13.8177 30.1859C13.0238 30.1859 12.2629 29.7543 11.8549 29.0638L11.0941 27.769C10.6861 27.0676 10.6641 26.226 11.072 25.557C11.2485 25.2333 11.5793 24.9097 11.9542 24.7046C12.2629 24.5536 12.4614 24.3054 12.6489 24.0141C13.2002 23.0862 12.8694 21.8669 11.9321 21.3166C10.8405 20.7016 10.4876 19.3313 11.1162 18.2631L11.8549 16.9899C12.4945 15.9217 13.8618 15.544 14.9645 16.1698C15.9238 16.6878 17.1699 16.3425 17.7322 15.4253C17.9087 15.1232 18.0079 14.7995 17.9858 14.4758C17.9638 14.055 18.0851 13.6558 18.2946 13.3321C18.7026 12.6631 19.4414 12.2315 20.2463 12.21H21.8011C22.6171 12.21 23.3559 12.6631 23.7639 13.3321C23.9624 13.6558 24.0947 14.055 24.0616 14.4758C24.0396 14.7995 24.1388 15.1232 24.3152 15.4253C24.8776 16.3425 26.1236 16.6878 27.094 16.1698C28.1856 15.544 29.564 15.9217 30.1925 16.9899L30.9313 18.2631C31.5709 19.3313 31.218 20.7016 30.1153 21.3166C29.178 21.8669 28.8472 23.0862 29.4096 24.0141C29.586 24.3054 29.7845 24.5536 30.0933 24.7046ZM17.9087 23.0108C17.9087 24.7048 19.3091 26.0536 21.0403 26.0536C22.7715 26.0536 24.1388 24.7048 24.1388 23.0108C24.1388 21.3168 22.7715 19.9573 21.0403 19.9573C19.3091 19.9573 17.9087 21.3168 17.9087 23.0108Z" fill="#403634"/>
<path opacity="0.7" d="M21.0403 26.0533C19.3091 26.0533 17.9087 24.7046 17.9087 23.0106C17.9087 21.3166 19.3091 19.957 21.0403 19.957C22.7715 19.957 24.1388 21.3166 24.1388 23.0106C24.1388 24.7046 22.7715 26.0533 21.0403 26.0533Z" fill="#FD7B38"/>
</svg>
