<svg width="60" height="72" viewBox="0 0 60 72" fill="none" xmlns="http://www.w3.org/2000/svg">
<path fill-rule="evenodd" clip-rule="evenodd" d="M58.7086 61.3028C59.1294 61.5263 59.454 61.8793 59.6825 62.2322C60.1274 62.9617 60.0913 63.8558 59.6584 64.6441L58.8168 66.0559C58.3719 66.8089 57.5423 67.2795 56.6886 67.2795C56.2678 67.2795 55.7989 67.1618 55.4141 66.9265C55.1015 66.7265 54.7408 66.6559 54.3561 66.6559C53.1658 66.6559 52.1678 67.6324 52.1317 68.7972C52.1317 70.1502 51.0256 71.209 49.6429 71.209H48.0077C46.6129 71.209 45.5068 70.1502 45.5068 68.7972C45.4827 67.6324 44.4848 66.6559 43.2945 66.6559C42.8977 66.6559 42.537 66.7265 42.2364 66.9265C41.8516 67.1618 41.3707 67.2795 40.9619 67.2795C40.0962 67.2795 39.2666 66.8089 38.8217 66.0559L37.9921 64.6441C37.5472 63.8793 37.5232 62.9617 37.9681 62.2322C38.1604 61.8793 38.5211 61.5263 38.9299 61.3028C39.2666 61.1381 39.483 60.8675 39.6874 60.5498C40.2886 59.538 39.9279 58.2085 38.9059 57.6085C37.7156 56.9379 37.3308 55.4437 38.0161 54.279L38.8217 52.8907C39.5191 51.7259 41.01 51.3141 42.2123 51.9965C43.2584 52.5613 44.617 52.1848 45.2302 51.1847C45.4226 50.8553 45.5308 50.5024 45.5068 50.1494C45.4827 49.6906 45.615 49.2552 45.8434 48.9023C46.2883 48.1728 47.0939 47.7022 47.9716 47.6787H49.6669C50.5567 47.6787 51.3622 48.1728 51.8071 48.9023C52.0235 49.2552 52.1678 49.6906 52.1317 50.1494C52.1077 50.5024 52.2159 50.8553 52.4083 51.1847C53.0215 52.1848 54.3801 52.5613 55.4382 51.9965C56.6285 51.3141 58.1315 51.7259 58.8168 52.8907L59.6224 54.279C60.3197 55.4437 59.935 56.9379 58.7326 57.6085C57.7106 58.2085 57.3499 59.538 57.9631 60.5498C58.1555 60.8675 58.3719 61.1381 58.7086 61.3028ZM45.4226 59.4556C45.4226 61.3028 46.9496 62.7734 48.8373 62.7734C50.725 62.7734 52.2159 61.3028 52.2159 59.4556C52.2159 57.6085 50.725 56.1261 48.8373 56.1261C46.9496 56.1261 45.4226 57.6085 45.4226 59.4556Z" fill="#3A6539"/>
<path opacity="0.7" d="M48.8373 62.7733C46.9496 62.7733 45.4226 61.3027 45.4226 59.4555C45.4226 57.6084 46.9496 56.126 48.8373 56.126C50.725 56.126 52.2159 57.6084 52.2159 59.4555C52.2159 61.3027 50.725 62.7733 48.8373 62.7733Z" fill="#2E3A34"/>
<path fill-rule="evenodd" clip-rule="evenodd" d="M39.5977 14.2204C39.5977 21.6261 33.573 27.6508 26.1673 27.6508C18.7617 27.6508 12.737 21.6261 12.737 14.2204C12.737 6.81478 18.7617 0.790039 26.1673 0.790039C33.573 0.790039 39.5977 6.81478 39.5977 14.2204ZM44.1666 34.1521C44.1724 34.1535 44.1834 34.1576 44.1891 34.1594C48.665 35.6219 51.8039 39.5869 52.2704 44.1987C51.233 43.994 50.1607 43.8867 49.0634 43.8867C39.9676 43.8867 32.594 51.2603 32.594 60.3561C32.594 63.4633 33.4545 66.3696 34.9502 68.8495H4.99331C2.23565 68.8495 0 66.6139 0 63.8562V45.4545C0 40.3214 3.15938 35.396 8.16827 34.1505C10.0013 33.6947 15.5072 32.9227 15.6227 32.9227C16.1099 32.9227 16.5646 33.2247 16.7401 33.7064L24.8004 55.822C25.2654 57.0977 27.0698 57.0977 27.5347 55.822L35.5951 33.7064C35.8125 33.1099 36.4585 32.7898 37.063 32.9758C37.063 32.9758 42.418 33.725 44.1666 34.1521ZM29.2071 32.5538C28.8854 32.2032 28.4151 32.0269 27.9394 32.0269H24.3909C23.9152 32.0269 23.4447 32.2034 23.1232 32.5538C22.6253 33.0964 22.5529 33.8803 22.9064 34.4929L24.8034 37.3525L23.9154 44.8436L25.6641 49.4955C25.8346 49.9634 26.4962 49.9634 26.6667 49.4955L28.4154 44.8436L27.5274 37.3525L29.4243 34.4929C29.7775 33.8803 29.7051 33.0964 29.2071 32.5538Z" fill="#4AA541"/>
</svg>
