<svg width="54" height="64" viewBox="0 0 54 64" fill="none" xmlns="http://www.w3.org/2000/svg">
<path d="M26.7998 24.3202C32.2541 24.3202 36.6914 19.883 36.6914 14.4287C36.6914 8.97437 32.2541 4.53711 26.7998 4.53711C21.3455 4.53711 16.9083 8.97437 16.9083 14.4287C16.9083 19.883 21.3455 24.3202 26.7998 24.3202Z" fill="#8b3637"/>
<path d="M40.073 29.114C40.0687 29.1127 40.0606 29.1096 40.0564 29.1086C38.7685 28.794 34.8246 28.2423 34.8246 28.2423C34.3793 28.1052 33.9036 28.341 33.7434 28.7803L27.8069 45.0686C27.4645 46.0082 26.1355 46.0082 25.7931 45.0686L19.8566 28.7803C19.7273 28.4256 19.3925 28.2031 19.0337 28.2031C18.9486 28.2031 14.8935 28.7717 13.5434 29.1074C9.85434 30.0247 7.52745 33.6524 7.52745 37.4329V50.9858C7.52745 53.0169 9.17401 54.6634 11.205 54.6634H42.3916C44.4226 54.6634 46.0692 53.0169 46.0692 50.9858V37.3878C46.069 33.6237 43.651 30.2831 40.073 29.114Z" fill="#fd413c"/>
<path d="M29.0386 27.931C28.8017 27.6728 28.4553 27.543 28.105 27.543H25.4915C25.1411 27.543 24.7946 27.6729 24.5578 27.931C24.1911 28.3306 24.1377 28.908 24.3982 29.3592L25.7953 31.4653L25.1413 36.9825L26.4292 40.4087C26.5548 40.7533 27.042 40.7533 27.1676 40.4087L28.4555 36.9825L27.8015 31.4653L29.1986 29.3592C29.4587 28.908 29.4054 28.3306 29.0386 27.931Z" fill="#fd413c"/>
<path d="M42.1279 2H51.6239V11.4931" stroke="#fd413c" stroke-width="3" stroke-linejoin="round"/>
<path d="M11.8721 62L2.3761 62L2.3761 52.5069" stroke="#fd413c" stroke-width="3" stroke-linejoin="round"/>
<path d="M12.2755 2H2.77946V11.4931" stroke="#fd413c" stroke-width="3" stroke-linejoin="round"/>
<path d="M41.7245 62L51.2205 62L51.2205 52.5069" stroke="#fd413c" stroke-width="3" stroke-linejoin="round"/>
</svg>
