<svg width="19" height="18" viewBox="0 0 19 18" fill="none" xmlns="http://www.w3.org/2000/svg">
<path fill-rule="evenodd" clip-rule="evenodd" d="M8.66052 17C8.66052 16.5858 8.99631 16.25 9.41052 16.25H17.8211C18.2353 16.25 18.5711 16.5858 18.5711 17C18.5711 17.4142 18.2353 17.75 17.8211 17.75H9.41052C8.99631 17.75 8.66052 17.4142 8.66052 17Z" fill="#818181"/>
<path fill-rule="evenodd" clip-rule="evenodd" d="M15.0176 1.75C14.6908 1.75 14.3773 1.87984 14.1462 2.11096L2.61175 13.6454L2.03079 15.9692L4.35461 15.3883L15.8891 3.85382C16.0035 3.73938 16.0943 3.60352 16.1562 3.454C16.2181 3.30448 16.25 3.14423 16.25 2.98239C16.25 2.82055 16.2181 2.6603 16.1562 2.51077C16.0943 2.36125 16.0035 2.2254 15.8891 2.11096C15.7746 1.99652 15.6388 1.90574 15.4892 1.84381C15.3397 1.78188 15.1795 1.75 15.0176 1.75ZM13.0855 1.0503C13.598 0.537876 14.293 0.25 15.0176 0.25C15.3764 0.25 15.7318 0.320675 16.0633 0.457991C16.3948 0.595306 16.696 0.796572 16.9497 1.0503C17.2034 1.30402 17.4047 1.60524 17.542 1.93675C17.6793 2.26826 17.75 2.62357 17.75 2.98239C17.75 3.34121 17.6793 3.69652 17.542 4.02803C17.4047 4.35954 17.2034 4.66075 16.9497 4.91448L5.26838 16.5958C5.17226 16.6919 5.05182 16.7601 4.91995 16.7931L1.18192 17.7276C0.926336 17.7915 0.655971 17.7166 0.469686 17.5303C0.283401 17.344 0.208514 17.0737 0.272409 16.8181L1.20692 13.0801C1.23988 12.9482 1.30807 12.8278 1.40419 12.7316L13.0855 1.0503Z" fill="#818181"/>
</svg>
