<svg width="16" height="16" viewBox="0 0 16 16" fill="none" xmlns="http://www.w3.org/2000/svg">
<path d="M8.65463 0V1.80231H12.923L9.75463 4.97072C8.73763 4.21622 7.47847 3.76975 6.11491 3.76975C2.7376 3.76975 -0.000244141 6.50756 -0.000244141 9.88488C-0.000244141 13.2622 2.7376 16 6.11488 16C9.49216 16 12.23 13.2622 12.23 9.88488C12.23 8.52131 11.7835 7.26213 11.029 6.24512L14.1974 3.07675V7.34516H15.9998V0L8.65463 0ZM6.11488 13.986C3.84988 13.986 2.01372 12.1498 2.01372 9.88484C2.01372 7.61984 3.84988 5.78369 6.11488 5.78369C8.37988 5.78369 10.216 7.61984 10.216 9.88484C10.216 12.1499 8.37988 13.986 6.11488 13.986Z" fill="#818181"/>
</svg>
