<svg width="18" height="18" viewBox="0 0 18 18" fill="none" xmlns="http://www.w3.org/2000/svg">
<path fill-rule="evenodd" clip-rule="evenodd" d="M2.6001 8.25C3.01431 8.25 3.3501 8.58579 3.3501 9V16.25H14.6501V9C14.6501 8.58579 14.9859 8.25 15.4001 8.25C15.8143 8.25 16.1501 8.58579 16.1501 9V17C16.1501 17.4142 15.8143 17.75 15.4001 17.75H2.6001C2.18588 17.75 1.8501 17.4142 1.8501 17V9C1.8501 8.58579 2.18588 8.25 2.6001 8.25Z" fill="#818181"/>
<path fill-rule="evenodd" clip-rule="evenodd" d="M0.25 5C0.25 4.58579 0.585786 4.25 1 4.25H17C17.4142 4.25 17.75 4.58579 17.75 5V9C17.75 9.41421 17.4142 9.75 17 9.75H1C0.585786 9.75 0.25 9.41421 0.25 9V5ZM1.75 5.75V8.25H16.25V5.75H1.75Z" fill="#818181"/>
<path fill-rule="evenodd" clip-rule="evenodd" d="M9 4.25C9.41421 4.25 9.75 4.58579 9.75 5V17C9.75 17.4142 9.41421 17.75 9 17.75C8.58579 17.75 8.25 17.4142 8.25 17V5C8.25 4.58579 8.58579 4.25 9 4.25Z" fill="#818181"/>
<path fill-rule="evenodd" clip-rule="evenodd" d="M9.09284 2.63856C9.68675 1.55874 10.7829 0.25 12.6 0.25C13.3294 0.25 14.0288 0.539731 14.5446 1.05546C15.0603 1.57118 15.35 2.27065 15.35 3C15.35 3.72935 15.0603 4.42882 14.5446 4.94454C14.0288 5.46027 13.3294 5.75 12.6 5.75H9.00001C8.77531 5.75 8.56245 5.64926 8.42 5.47549C8.27755 5.30173 8.2205 5.07324 8.26457 4.85291L9.00001 5C8.26457 4.85291 8.26452 4.85319 8.26457 4.85291L8.26511 4.85024L8.26596 4.84609L8.26859 4.83348L8.27771 4.79161C8.28554 4.75654 8.29695 4.70741 8.31224 4.64622C8.3428 4.524 8.3891 4.35273 8.45375 4.14858C8.58219 3.74299 8.78721 3.19426 9.09284 2.63856ZM10.0045 4.25H12.6C12.9315 4.25 13.2495 4.1183 13.4839 3.88388C13.7183 3.64946 13.85 3.33152 13.85 3C13.85 2.66848 13.7183 2.35054 13.4839 2.11612C13.2495 1.8817 12.9315 1.75 12.6 1.75C11.6171 1.75 10.9133 2.44126 10.4072 3.36144C10.2393 3.66664 10.1066 3.97512 10.0045 4.25Z" fill="#818181"/>
<path fill-rule="evenodd" clip-rule="evenodd" d="M5.3999 1.75C5.06838 1.75 4.75044 1.8817 4.51602 2.11612C4.2816 2.35054 4.1499 2.66848 4.1499 3C4.1499 3.33152 4.2816 3.64946 4.51602 3.88388C4.75044 4.1183 5.06838 4.25 5.3999 4.25H7.99538C7.89336 3.97512 7.7606 3.66664 7.59274 3.36144C7.08664 2.44126 6.38283 1.75 5.3999 1.75ZM8.9999 5C9.73534 4.85291 9.73529 4.85266 9.73523 4.85238L9.7348 4.85024L9.73395 4.84609L9.73132 4.83348L9.7222 4.79161C9.71437 4.75654 9.70296 4.70741 9.68767 4.64622C9.65711 4.524 9.61081 4.35273 9.54616 4.14858C9.41772 3.74299 9.2127 3.19426 8.90706 2.63856C8.31316 1.55874 7.21698 0.25 5.3999 0.25C4.67056 0.25 3.97108 0.539731 3.45536 1.05546C2.93963 1.57118 2.6499 2.27065 2.6499 3C2.6499 3.72935 2.93963 4.42882 3.45536 4.94454C3.97108 5.46027 4.67056 5.75 5.3999 5.75H8.9999C9.2246 5.75 9.43746 5.64926 9.57991 5.47549C9.72236 5.30173 9.7793 5.07271 9.73523 4.85238L8.9999 5Z" fill="#818181"/>
</svg>
