<svg width="20" height="16" viewBox="0 0 20 16" fill="none" xmlns="http://www.w3.org/2000/svg">
<path fill-rule="evenodd" clip-rule="evenodd" d="M17 1.5H3C2.17157 1.5 1.5 2.17157 1.5 3V13C1.5 13.8284 2.17157 14.5 3 14.5H17C17.8284 14.5 18.5 13.8284 18.5 13V3C18.5 2.17157 17.8284 1.5 17 1.5ZM3 0C1.34315 0 0 1.34315 0 3V13C0 14.6569 1.34315 16 3 16H17C18.6569 16 20 14.6569 20 13V3C20 1.34315 18.6569 0 17 0H3Z" fill="#818181"/>
<path d="M6.77305 13H5V4H6.77305V13Z" fill="#818181"/>
<path d="M8.42199 13V4H11.0697C11.8262 4 12.502 4.17926 13.0969 4.53777C13.6958 4.89217 14.1627 5.39904 14.4976 6.05838C14.8325 6.7136 15 7.45948 15 8.29602V8.71017C15 9.5467 14.8345 10.2905 14.5035 10.9416C14.1765 11.5927 13.7136 12.0975 13.1147 12.456C12.5158 12.8146 11.84 12.9959 11.0875 13H8.42199ZM10.195 5.50206V11.5103H11.052C11.7455 11.5103 12.2754 11.2734 12.6418 10.7995C13.0083 10.3255 13.1954 9.64767 13.2033 8.7658V8.28984C13.2033 7.375 13.0221 6.68269 12.6596 6.21291C12.2971 5.73901 11.7671 5.50206 11.0697 5.50206H10.195Z" fill="#818181"/>
</svg>
