<svg width="16" height="13" viewBox="0 0 16 13" fill="none" xmlns="http://www.w3.org/2000/svg">
<path fill-rule="evenodd" clip-rule="evenodd" d="M14.4 1.5H1.6C1.57717 1.5 1.55333 1.50799 1.53066 1.53066C1.50799 1.55333 1.5 1.57717 1.5 1.6V11.2C1.5 11.2228 1.50799 11.2467 1.53066 11.2693C1.55333 11.292 1.57717 11.3 1.6 11.3H14.4C14.4228 11.3 14.4467 11.292 14.4693 11.2693C14.492 11.2467 14.5 11.2228 14.5 11.2V1.6C14.5 1.57717 14.492 1.55333 14.4693 1.53066C14.4467 1.50799 14.4228 1.5 14.4 1.5ZM14.4 0H1.6C0.72 0 0 0.72 0 1.6V11.2C0 12.08 0.72 12.8 1.6 12.8H14.4C15.28 12.8 16 12.08 16 11.2V1.6C16 0.72 15.28 0 14.4 0Z" fill="#818181"/>
<path fill-rule="evenodd" clip-rule="evenodd" d="M3.24328 0.800781L0.800049 0.800781L8.00005 6.40078L15.2001 0.800781H12.7568L8.00005 4.50049L3.24328 0.800781Z" fill="#818181"/>
</svg>
