<svg width="16" height="16" viewBox="0 0 16 16" fill="none" xmlns="http://www.w3.org/2000/svg">
<path d="M5.10413 5.05057C4.15023 5.8611 3.80067 7.3393 4.62433 8.52517C5.3951 9.63489 6.366 10.6056 7.47547 11.376C8.66138 12.1995 10.1395 11.8498 10.95 10.8959L10.959 10.9001C11.9942 11.3796 13.0937 11.7083 14.2222 11.8758V14.2222L14.2213 14.2222L14.2187 14.2222C7.13024 14.2323 1.7702 8.80989 1.77779 1.78097V1.77778H4.12388L4.12404 1.77882C4.29155 2.90724 4.62009 4.00581 5.09968 5.04096L5.10413 5.05057ZM14.2213 16H15.1111C15.602 16 16 15.602 16 15.1111V11.1091C16 10.6686 15.6774 10.2945 15.2416 10.2298L14.4823 10.1171C13.522 9.97463 12.5871 9.69504 11.7062 9.28698L11.037 8.97698C10.6492 8.79734 10.1885 8.91911 9.94007 9.2669L9.63712 9.69105C9.37161 10.0628 8.86469 10.1763 8.48946 9.91576C7.55409 9.26624 6.73429 8.4466 6.08446 7.51102C5.82383 7.13577 5.93738 6.62878 6.30919 6.36326L6.73313 6.0605C7.08097 5.8121 7.20276 5.3513 7.02308 4.96347L6.71274 4.29363C6.30466 3.4128 6.02509 2.478 5.88254 1.51777L5.76981 0.758364C5.70513 0.322631 5.33107 0 4.89056 0H0.888898C0.397978 0 9.08996e-06 0.397969 9.08996e-06 0.888889V1.77905C-0.00863054 9.78477 6.14243 16.0114 14.2213 16Z" fill="#818181"/>
</svg>
