<svg width="14" height="14" viewBox="0 0 14 14" fill="none" xmlns="http://www.w3.org/2000/svg">
<path d="M7 14C3.13401 14 0 10.866 0 7C0 3.13401 3.13401 0 7 0C10.866 0 14 3.13401 14 7C13.9958 10.8642 10.8642 13.9958 7 14ZM1.4 7.1204C1.43312 10.2013 3.94878 12.6767 7.02978 12.6602C10.1108 12.6436 12.5997 10.1412 12.5997 7.0602C12.5997 3.97915 10.1108 1.47684 7.02978 1.4602C3.94878 1.44372 1.43312 3.91913 1.4 7V7.1204ZM7.7 10.5H6.3V7.7H3.5V6.3H6.3V3.5H7.7V6.3H10.5V7.7H7.7V10.5Z" fill="white"/>
</svg>
