<svg width="17" height="18" viewBox="0 0 17 18" fill="none" xmlns="http://www.w3.org/2000/svg">
<path d="M1.45605 5.06186L8.12589 1L14.9266 5.06186L8.12589 8.6248L1.45605 5.06186Z" fill="#FD7B38"/>
<path d="M1 12.9795V5.23242L8.12587 9.02073V16.9384L1 12.9795Z" fill="#FD7B38"/>
<path d="M8.41756 16.8744L8.12592 9.02132L15.2518 5.0625V12.8744L8.41756 16.8744Z" fill="#FD7B38"/>
<path d="M15.2517 12.1866V5.85247C15.2515 5.57478 15.1782 5.30205 15.0392 5.06163C14.9002 4.82121 14.7005 4.62157 14.46 4.48272L8.91763 1.31567C8.67691 1.17668 8.40384 1.10352 8.12587 1.10352C7.8479 1.10352 7.57483 1.17668 7.33411 1.31567L1.79176 4.48272C1.55128 4.62157 1.35153 4.82121 1.21256 5.06163C1.07359 5.30205 1.00028 5.57478 1 5.85247V12.1866C1.00028 12.4643 1.07359 12.737 1.21256 12.9774C1.35153 13.2178 1.55128 13.4175 1.79176 13.5563L7.33411 16.7234C7.57483 16.8624 7.8479 16.9355 8.12587 16.9355C8.40384 16.9355 8.67691 16.8624 8.91763 16.7234L14.46 13.5563C14.7005 13.4175 14.9002 13.2178 15.0392 12.9774C15.1782 12.737 15.2515 12.4643 15.2517 12.1866Z" stroke="#9A5736" stroke-width="2" stroke-linecap="round" stroke-linejoin="round"/>
<path d="M1.21381 5.0293L8.1259 9.0277L15.038 5.0293" stroke="#9A5736" stroke-width="2" stroke-linecap="round" stroke-linejoin="round"/>
<path d="M8.12592 17.0005V9.01953" stroke="#9A5736" stroke-width="2" stroke-linecap="round" stroke-linejoin="round"/>
</svg>
