<svg width="23" height="18" viewBox="0 0 23 18" fill="none" xmlns="http://www.w3.org/2000/svg">
<mask id="path-1-inside-1" fill="white">
<path d="M22.1197 4.1056C21.6728 3.82404 21.1235 3.79914 20.6552 4.03738L19.0744 4.83548C18.4898 5.13003 18.1272 5.72563 18.1272 6.38837V12.6108C18.1272 13.2735 18.4898 13.868 19.0744 14.1648L20.6541 14.9618C20.8685 15.0722 21.0979 15.1253 21.3272 15.1253C21.6024 15.1253 21.8755 15.0473 22.1197 14.8946C22.5667 14.6142 22.8333 14.1279 22.8333 13.5951V5.40617C22.8333 4.87338 22.5667 4.38716 22.1197 4.1056Z"/>
</mask>
<path d="M20.6552 4.03738L21.3312 5.37641L21.3354 5.3743L20.6552 4.03738ZM19.0744 4.83548L19.7494 6.17502L19.7504 6.1745L19.0744 4.83548ZM19.0744 14.1648L18.3954 15.5023L18.3987 15.504L19.0744 14.1648ZM20.6541 14.9618L21.3411 13.6283L21.3298 13.6226L20.6541 14.9618ZM22.1197 14.8946L22.9148 16.1666L22.9171 16.1652L22.1197 14.8946ZM22.9193 2.83644C22.0263 2.2739 20.915 2.22224 19.975 2.70046L21.3354 5.3743C21.3371 5.37341 21.3367 5.37384 21.3344 5.37434C21.3322 5.37481 21.3293 5.37511 21.3262 5.37496C21.323 5.37482 21.3204 5.37427 21.3188 5.37375C21.3171 5.37321 21.3176 5.37308 21.3202 5.37475L22.9193 2.83644ZM19.9792 2.69835L18.3983 3.49646L19.7504 6.1745L21.3312 5.3764L19.9792 2.69835ZM18.3994 3.49594C17.2995 4.05016 16.6272 5.1698 16.6272 6.38837H19.6272C19.6272 6.28147 19.6801 6.20991 19.7494 6.17502L18.3994 3.49594ZM16.6272 6.38837V12.6108H19.6272V6.38837H16.6272ZM16.6272 12.6108C16.6272 13.8312 17.3008 14.9467 18.3954 15.5023L19.7533 12.8272C19.6788 12.7894 19.6272 12.7158 19.6272 12.6108H16.6272ZM18.3987 15.504L19.9785 16.301L21.3298 13.6226L19.75 12.8255L18.3987 15.504ZM19.9672 16.2952C20.3982 16.5173 20.8637 16.6253 21.3272 16.6253V13.6253C21.3285 13.6253 21.3314 13.6255 21.3351 13.6264C21.339 13.6273 21.3412 13.6284 21.3411 13.6283L19.9672 16.2952ZM21.3272 16.6253C21.8889 16.6253 22.4367 16.4654 22.9148 16.1666L21.3247 13.6227C21.3186 13.6265 21.3162 13.6269 21.3178 13.6264C21.3194 13.626 21.3227 13.6253 21.3272 13.6253V16.6253ZM22.9171 16.1652C23.8073 15.6065 24.3333 14.6369 24.3333 13.5951H21.3333C21.3333 13.6098 21.33 13.6162 21.3292 13.6177C21.3286 13.6188 21.3281 13.6195 21.3274 13.6202C21.3269 13.6208 21.3255 13.6222 21.3224 13.6241L22.9171 16.1652ZM24.3333 13.5951V5.40617H21.3333V13.5951H24.3333ZM24.3333 5.40617C24.3333 4.3639 23.8071 3.39573 22.9193 2.83644L21.3202 5.37475C21.3239 5.37706 21.3257 5.37883 21.3266 5.37978C21.3276 5.3808 21.3283 5.38186 21.3291 5.38316C21.3301 5.38499 21.3333 5.39154 21.3333 5.40617H24.3333Z" fill="#818181" mask="url(#path-1-inside-1)"/>
<mask id="path-3-inside-2" fill="white">
<path d="M12.0654 17.5H5.88724C3.30375 17.5 1.5 15.7186 1.5 13.1684V5.83164C1.5 3.2803 3.30375 1.5 5.88724 1.5H12.0654C14.6489 1.5 16.4527 3.2803 16.4527 5.83164V13.1684C16.4527 15.7186 14.6489 17.5 12.0654 17.5Z"/>
</mask>
<path d="M12.0654 16H5.88724V19H12.0654V16ZM5.88724 16C4.9481 16 4.24338 15.682 3.77873 15.2232C3.31545 14.7657 3 14.0792 3 13.1684H0C0 14.8078 0.586426 16.2871 1.67089 17.3579C2.75399 18.4273 4.24289 19 5.88724 19V16ZM3 13.1684V5.83164H0V13.1684H3ZM3 5.83164C3 4.92016 3.31553 4.23372 3.77864 3.77652C4.24315 3.31794 4.94785 3 5.88724 3V0C4.24315 0 2.75422 0.572217 1.67099 1.64162C0.586346 2.71241 0 4.19179 0 5.83164H3ZM5.88724 3H12.0654V0H5.88724V3ZM12.0654 3C13.0048 3 13.7095 3.31794 14.174 3.77652C14.6371 4.23372 14.9527 4.92016 14.9527 5.83164H17.9527C17.9527 4.19179 17.3663 2.71241 16.2817 1.64162C15.1985 0.572217 13.7095 0 12.0654 0V3ZM14.9527 5.83164V13.1684H17.9527V5.83164H14.9527ZM14.9527 13.1684C14.9527 14.0792 14.6372 14.7657 14.174 15.2232C13.7093 15.682 13.0046 16 12.0654 16V19C13.7098 19 15.1987 18.4273 16.2818 17.3579C17.3663 16.2871 17.9527 14.8078 17.9527 13.1684H14.9527Z" fill="#818181" mask="url(#path-3-inside-2)"/>
<path d="M17 1L1 17" stroke="#818181" stroke-width="1.5" stroke-linecap="round" stroke-linejoin="round"/>
</svg>
