<svg width="22" height="16" viewBox="0 0 22 16" fill="none" xmlns="http://www.w3.org/2000/svg">
<mask id="path-1-inside-1" fill="white">
<path d="M20.6197 2.6056C20.1728 2.32404 19.6234 2.29914 19.1552 2.53738L17.5743 3.33548C16.9898 3.63003 16.6271 4.22563 16.6271 4.88837V11.1108C16.6271 11.7735 16.9898 12.368 17.5743 12.6648L19.1541 13.4618C19.3685 13.5722 19.5978 13.6253 19.8272 13.6253C20.1024 13.6253 20.3754 13.5473 20.6197 13.3946C21.0666 13.1142 21.3333 12.6279 21.3333 12.0951V3.90617C21.3333 3.37338 21.0666 2.88716 20.6197 2.6056Z"/>
</mask>
<path d="M19.1552 2.53738L19.8312 3.87641L19.8353 3.8743L19.1552 2.53738ZM17.5743 3.33548L18.2493 4.67502L18.2504 4.6745L17.5743 3.33548ZM17.5743 12.6648L16.8954 14.0023L16.8987 14.004L17.5743 12.6648ZM19.1541 13.4618L19.8411 12.1283L19.8298 12.1226L19.1541 13.4618ZM20.6197 13.3946L21.4148 14.6666L21.417 14.6652L20.6197 13.3946ZM21.4192 1.33644C20.5263 0.7739 19.4149 0.72224 18.475 1.20046L19.8353 3.8743C19.8371 3.87341 19.8367 3.87384 19.8344 3.87434C19.8322 3.87481 19.8293 3.87511 19.8261 3.87496C19.823 3.87482 19.8204 3.87427 19.8188 3.87375C19.817 3.87321 19.8175 3.87308 19.8202 3.87475L21.4192 1.33644ZM18.4791 1.19835L16.8983 1.99646L18.2504 4.6745L19.8312 3.8764L18.4791 1.19835ZM16.8993 1.99594C15.7995 2.55016 15.1271 3.6698 15.1271 4.88837H18.1271C18.1271 4.78147 18.1801 4.70991 18.2493 4.67502L16.8993 1.99594ZM15.1271 4.88837V11.1108H18.1271V4.88837H15.1271ZM15.1271 11.1108C15.1271 12.3312 15.8008 13.4467 16.8954 14.0023L18.2533 11.3272C18.1788 11.2894 18.1271 11.2158 18.1271 11.1108H15.1271ZM16.8987 14.004L18.4784 14.801L19.8298 12.1226L18.25 11.3255L16.8987 14.004ZM18.4671 14.7952C18.8982 15.0173 19.3636 15.1253 19.8272 15.1253V12.1253C19.8285 12.1253 19.8314 12.1255 19.8351 12.1264C19.839 12.1273 19.8412 12.1284 19.8411 12.1283L18.4671 14.7952ZM19.8272 15.1253C20.3889 15.1253 20.9367 14.9654 21.4148 14.6666L19.8246 12.1227C19.8185 12.1265 19.8161 12.1269 19.8177 12.1264C19.8193 12.126 19.8227 12.1253 19.8272 12.1253V15.1253ZM21.417 14.6652C22.3073 14.1065 22.8333 13.1369 22.8333 12.0951H19.8333C19.8333 12.1098 19.83 12.1162 19.8292 12.1177C19.8286 12.1188 19.828 12.1195 19.8274 12.1202C19.8269 12.1208 19.8255 12.1222 19.8224 12.1241L21.417 14.6652ZM22.8333 12.0951V3.90617H19.8333V12.0951H22.8333ZM22.8333 3.90617C22.8333 2.8639 22.307 1.89573 21.4192 1.33644L19.8202 3.87475C19.8238 3.87706 19.8257 3.87883 19.8266 3.87978C19.8275 3.8808 19.8283 3.88186 19.829 3.88316C19.83 3.88499 19.8333 3.89154 19.8333 3.90617H22.8333Z" fill="#818181" mask="url(#path-1-inside-1)"/>
<mask id="path-3-inside-2" fill="white">
<path d="M10.5654 16H4.38724C1.80375 16 0 14.2186 0 11.6684V4.33164C0 1.7803 1.80375 0 4.38724 0H10.5654C13.1489 0 14.9527 1.7803 14.9527 4.33164V11.6684C14.9527 14.2186 13.1489 16 10.5654 16Z"/>
</mask>
<path d="M10.5654 14.5H4.38724V17.5H10.5654V14.5ZM4.38724 14.5C3.4481 14.5 2.74338 14.182 2.27873 13.7232C1.81545 13.2657 1.5 12.5792 1.5 11.6684H-1.5C-1.5 13.3078 -0.913574 14.7871 0.170894 15.8579C1.25399 16.9273 2.74289 17.5 4.38724 17.5V14.5ZM1.5 11.6684V4.33164H-1.5V11.6684H1.5ZM1.5 4.33164C1.5 3.42016 1.81553 2.73372 2.27864 2.27652C2.74315 1.81794 3.44785 1.5 4.38724 1.5V-1.5C2.74315 -1.5 1.25422 -0.927783 0.170988 0.141616C-0.913654 1.21241 -1.5 2.69179 -1.5 4.33164H1.5ZM4.38724 1.5H10.5654V-1.5H4.38724V1.5ZM10.5654 1.5C11.5048 1.5 12.2095 1.81794 12.674 2.27652C13.1371 2.73372 13.4527 3.42016 13.4527 4.33164H16.4527C16.4527 2.69179 15.8663 1.21241 14.7817 0.141616C13.6985 -0.927783 12.2095 -1.5 10.5654 -1.5V1.5ZM13.4527 4.33164V11.6684H16.4527V4.33164H13.4527ZM13.4527 11.6684C13.4527 12.5792 13.1372 13.2657 12.674 13.7232C12.2093 14.182 11.5046 14.5 10.5654 14.5V17.5C12.2098 17.5 13.6987 16.9273 14.7818 15.8579C15.8663 14.7871 16.4527 13.3078 16.4527 11.6684H13.4527Z" fill="#818181" mask="url(#path-3-inside-2)"/>
</svg>
