<svg width="22" height="16" viewBox="0 0 22 16" fill="none" xmlns="http://www.w3.org/2000/svg">
<mask id="path-1-inside-1_6971_7617" fill="white">
<path d="M20.6198 2.6056C20.1728 2.32404 19.6235 2.29914 19.1552 2.53738L17.5744 3.33548C16.9899 3.63003 16.6272 4.22563 16.6272 4.88837V11.1108C16.6272 11.7735 16.9899 12.368 17.5744 12.6648L19.1542 13.4618C19.3686 13.5722 19.5979 13.6253 19.8272 13.6253C20.1024 13.6253 20.3755 13.5473 20.6198 13.3946C21.0667 13.1142 21.3334 12.6279 21.3334 12.0951V3.90617C21.3334 3.37338 21.0667 2.88716 20.6198 2.6056Z"/>
</mask>
<path d="M19.1552 2.53738L19.8313 3.87641L19.8354 3.8743L19.1552 2.53738ZM17.5744 3.33548L18.2494 4.67502L18.2504 4.6745L17.5744 3.33548ZM17.5744 12.6648L16.8955 14.0023L16.8987 14.004L17.5744 12.6648ZM19.1542 13.4618L19.8412 12.1283L19.8298 12.1226L19.1542 13.4618ZM20.6198 13.3946L21.4149 14.6666L21.4171 14.6652L20.6198 13.3946ZM21.4193 1.33644C20.5263 0.7739 19.415 0.72224 18.475 1.20046L19.8354 3.8743C19.8371 3.87341 19.8368 3.87384 19.8345 3.87434C19.8322 3.87481 19.8294 3.87511 19.8262 3.87496C19.823 3.87482 19.8205 3.87427 19.8188 3.87375C19.8171 3.87321 19.8176 3.87308 19.8202 3.87475L21.4193 1.33644ZM18.4792 1.19835L16.8984 1.99646L18.2504 4.6745L19.8313 3.8764L18.4792 1.19835ZM16.8994 1.99594C15.7996 2.55016 15.1272 3.6698 15.1272 4.88837H18.1272C18.1272 4.78147 18.1802 4.70991 18.2494 4.67502L16.8994 1.99594ZM15.1272 4.88837V11.1108H18.1272V4.88837H15.1272ZM15.1272 11.1108C15.1272 12.3312 15.8009 13.4467 16.8955 14.0023L18.2534 11.3272C18.1789 11.2894 18.1272 11.2158 18.1272 11.1108H15.1272ZM16.8987 14.004L18.4785 14.801L19.8298 12.1226L18.2501 11.3255L16.8987 14.004ZM18.4672 14.7952C18.8983 15.0173 19.3637 15.1253 19.8272 15.1253V12.1253C19.8285 12.1253 19.8314 12.1255 19.8352 12.1264C19.839 12.1273 19.8412 12.1284 19.8411 12.1283L18.4672 14.7952ZM19.8272 15.1253C20.3889 15.1253 20.9367 14.9654 21.4149 14.6666L19.8247 12.1227C19.8186 12.1265 19.8162 12.1269 19.8178 12.1264C19.8194 12.126 19.8228 12.1253 19.8272 12.1253V15.1253ZM21.4171 14.6652C22.3073 14.1065 22.8334 13.1369 22.8334 12.0951H19.8334C19.8334 12.1098 19.8301 12.1162 19.8293 12.1177C19.8287 12.1188 19.8281 12.1195 19.8275 12.1202C19.8269 12.1208 19.8255 12.1222 19.8224 12.1241L21.4171 14.6652ZM22.8334 12.0951V3.90617H19.8334V12.0951H22.8334ZM22.8334 3.90617C22.8334 2.8639 22.3071 1.89573 21.4193 1.33644L19.8202 3.87475C19.8239 3.87706 19.8258 3.87883 19.8266 3.87978C19.8276 3.8808 19.8284 3.88186 19.8291 3.88316C19.8301 3.88499 19.8334 3.89154 19.8334 3.90617H22.8334Z" fill="white" mask="url(#path-1-inside-1_6971_7617)"/>
<mask id="path-3-inside-2_6971_7617" fill="white">
<path d="M10.5654 16H4.38724C1.80375 16 0 14.2186 0 11.6684V4.33164C0 1.7803 1.80375 0 4.38724 0H10.5654C13.1489 0 14.9527 1.7803 14.9527 4.33164V11.6684C14.9527 14.2186 13.1489 16 10.5654 16Z"/>
</mask>
<path d="M10.5654 14.5H4.38724V17.5H10.5654V14.5ZM4.38724 14.5C3.4481 14.5 2.74338 14.182 2.27873 13.7232C1.81545 13.2657 1.5 12.5792 1.5 11.6684H-1.5C-1.5 13.3078 -0.913574 14.7871 0.170894 15.8579C1.25399 16.9273 2.74289 17.5 4.38724 17.5V14.5ZM1.5 11.6684V4.33164H-1.5V11.6684H1.5ZM1.5 4.33164C1.5 3.42016 1.81553 2.73372 2.27864 2.27652C2.74315 1.81794 3.44785 1.5 4.38724 1.5V-1.5C2.74315 -1.5 1.25422 -0.927783 0.170988 0.141616C-0.913654 1.21241 -1.5 2.69179 -1.5 4.33164H1.5ZM4.38724 1.5H10.5654V-1.5H4.38724V1.5ZM10.5654 1.5C11.5048 1.5 12.2095 1.81794 12.674 2.27652C13.1371 2.73372 13.4527 3.42016 13.4527 4.33164H16.4527C16.4527 2.69179 15.8663 1.21241 14.7817 0.141616C13.6985 -0.927783 12.2095 -1.5 10.5654 -1.5V1.5ZM13.4527 4.33164V11.6684H16.4527V4.33164H13.4527ZM13.4527 11.6684C13.4527 12.5792 13.1372 13.2657 12.674 13.7232C12.2093 14.182 11.5046 14.5 10.5654 14.5V17.5C12.2098 17.5 13.6987 16.9273 14.7818 15.8579C15.8663 14.7871 16.4527 13.3078 16.4527 11.6684H13.4527Z" fill="white" mask="url(#path-3-inside-2_6971_7617)"/>
</svg>
