<svg width="25" height="18" viewBox="0 0 25 18" fill="none" xmlns="http://www.w3.org/2000/svg">
<rect x="0.5" y="0.5" width="24" height="17" rx="3.5" stroke="white"/>
<path d="M5.88965 9.74561V12H4.57129V5.60156H7.06738C7.54785 5.60156 7.96973 5.68945 8.33301 5.86523C8.69922 6.04102 8.98047 6.2915 9.17676 6.6167C9.37305 6.93896 9.47119 7.30664 9.47119 7.71973C9.47119 8.34668 9.25586 8.8418 8.8252 9.20508C8.39746 9.56543 7.8042 9.74561 7.04541 9.74561H5.88965ZM5.88965 8.67773H7.06738C7.41602 8.67773 7.68115 8.5957 7.86279 8.43164C8.04736 8.26758 8.13965 8.0332 8.13965 7.72852C8.13965 7.41504 8.04736 7.16162 7.86279 6.96826C7.67822 6.7749 7.42334 6.67529 7.09814 6.66943H5.88965V8.67773ZM15.1973 6.66943H13.2373V12H11.9189V6.66943H9.98535V5.60156H15.1973V6.66943ZM17.3506 10.9409H20.5762V12H15.7026V11.2266L18.8667 6.66943H15.707V5.60156H20.5059V6.35742L17.3506 10.9409Z" fill="white"/>
</svg>
