<svg width="25" height="25" viewBox="0 0 25 25" fill="none" xmlns="http://www.w3.org/2000/svg">
<g filter="url(#filter0_d_6681_7980)">
<path d="M10.4291 14.871H9.32184V10.403L8 10.8322V9.88967L10.3103 9.02336H10.4291V14.871Z" fill="white"/>
<path d="M16 12.4565C16 13.264 15.8404 13.8817 15.5211 14.3095C15.2018 14.7373 14.7344 14.9512 14.1188 14.9512C13.5109 14.9512 13.046 14.7413 12.7241 14.3215C12.4023 13.9017 12.2375 13.3001 12.2299 12.5167V11.4418C12.2299 10.6263 12.3908 10.0073 12.7126 9.58486C13.037 9.1624 13.5032 8.95117 14.1111 8.95117C14.719 8.95117 15.1839 9.16106 15.5057 9.58085C15.8276 9.99796 15.9923 10.5982 16 11.3817V12.4565ZM14.8927 11.2774C14.8927 10.7934 14.8289 10.4418 14.7011 10.2226C14.576 10.0006 14.3793 9.88967 14.1111 9.88967C13.8506 9.88967 13.6577 9.99529 13.5326 10.2065C13.41 10.4151 13.3448 10.7426 13.3372 11.1891V12.6089C13.3372 13.0849 13.3985 13.4391 13.5211 13.6718C13.6462 13.9017 13.8455 14.0167 14.1188 14.0167C14.3895 14.0167 14.5849 13.9057 14.705 13.6838C14.825 13.4619 14.8876 13.1223 14.8927 12.6651V11.2774Z" fill="white"/>
<mask id="path-2-inside-1_6681_7980" fill="white">
<path d="M19.4848 14.6095C18.9106 16.2454 17.8225 17.6497 16.3843 18.6108C14.9461 19.5718 13.2357 20.0376 11.5108 19.938C9.78599 19.8383 8.14013 19.1786 6.82124 18.0582C5.50235 16.9378 4.58187 15.4175 4.19851 13.7263C3.81515 12.0351 3.98967 10.2646 4.69577 8.68163C5.40187 7.09865 6.6013 5.78892 8.11334 4.94978C9.62538 4.11064 11.3681 3.78756 13.079 4.02921C14.7898 4.27085 16.3761 5.06414 17.5988 6.28954L19.752 8.45117"/>
</mask>
<path d="M17.5988 6.28954L18.6606 5.23006L18.6615 5.23097L17.5988 6.28954ZM20.9001 15.1063C20.2187 17.048 18.9267 18.7159 17.2177 19.8579L15.5509 17.3636C16.7183 16.5835 17.6026 15.4429 18.0694 14.1128L20.9001 15.1063ZM17.2177 19.8579C15.5086 21 13.4753 21.554 11.4243 21.4355L11.5974 18.4404C12.9961 18.5213 14.3836 18.1436 15.5509 17.3636L17.2177 19.8579ZM11.4243 21.4355C9.37336 21.3169 7.41709 20.5325 5.85011 19.2014L7.79237 16.915C8.86317 17.8246 10.1986 18.3596 11.5974 18.4404L11.4243 21.4355ZM5.85011 19.2014C4.28324 17.8704 3.1906 16.065 2.73563 14.0579L5.6614 13.3947C5.97315 14.77 6.72146 16.0053 7.79237 16.915L5.85011 19.2014ZM2.73563 14.0579C2.28067 12.0508 2.48771 9.94963 3.32587 8.07058L6.06567 9.29268C5.49163 10.5796 5.34964 12.0193 5.6614 13.3947L2.73563 14.0579ZM3.32587 8.07058C4.16408 6.19144 5.58844 4.63551 7.38546 3.63822L8.84122 6.26134C7.61416 6.94232 6.63966 8.00586 6.06567 9.29268L3.32587 8.07058ZM7.38546 3.63822C9.18258 2.64087 11.2545 2.25662 13.2887 2.54395L12.8692 5.51446C11.4818 5.3185 10.0682 5.58042 8.84122 6.26134L7.38546 3.63822ZM13.2887 2.54395C15.323 2.83127 17.2082 3.7744 18.6606 5.23006L16.537 7.34903C15.544 6.35389 14.2566 5.71043 12.8692 5.51446L13.2887 2.54395ZM18.6615 5.23097L20.8147 7.39259L18.6892 9.50975L16.5361 7.34812L18.6615 5.23097Z" fill="white" mask="url(#path-2-inside-1_6681_7980)"/>
<path d="M20.7109 10.686V7.33981C20.7109 7.17714 20.5271 7.08251 20.3947 7.17706L17.0485 9.56722C16.9122 9.66456 16.9488 9.87626 17.1098 9.92227L20.456 10.8783C20.5838 10.9148 20.7109 10.8189 20.7109 10.686Z" fill="white"/>
</g>
<defs>
<filter id="filter0_d_6681_7980" x="0" y="0.951172" width="24.7109" height="24" filterUnits="userSpaceOnUse" color-interpolation-filters="sRGB">
<feFlood flood-opacity="0" result="BackgroundImageFix"/>
<feColorMatrix in="SourceAlpha" type="matrix" values="0 0 0 0 0 0 0 0 0 0 0 0 0 0 0 0 0 0 127 0" result="hardAlpha"/>
<feOffset dy="1"/>
<feGaussianBlur stdDeviation="2"/>
<feComposite in2="hardAlpha" operator="out"/>
<feColorMatrix type="matrix" values="0 0 0 0 0 0 0 0 0 0 0 0 0 0 0 0 0 0 0.5 0"/>
<feBlend mode="normal" in2="BackgroundImageFix" result="effect1_dropShadow_6681_7980"/>
<feBlend mode="normal" in="SourceGraphic" in2="effect1_dropShadow_6681_7980" result="shape"/>
</filter>
</defs>
</svg>
