<svg width="25" height="25" viewBox="0 0 25 25" fill="none" xmlns="http://www.w3.org/2000/svg">
<g filter="url(#filter0_d_6681_7975)">
<path d="M11.4291 14.871H10.3218V10.403L9 10.8322V9.88967L11.3103 9.02336H11.4291V14.871Z" fill="white"/>
<path d="M17 12.4565C17 13.264 16.8404 13.8817 16.5211 14.3095C16.2018 14.7373 15.7344 14.9512 15.1188 14.9512C14.5109 14.9512 14.046 14.7413 13.7241 14.3215C13.4023 13.9017 13.2375 13.3001 13.2299 12.5167V11.4418C13.2299 10.6263 13.3908 10.0073 13.7126 9.58486C14.037 9.1624 14.5032 8.95117 15.1111 8.95117C15.719 8.95117 16.1839 9.16106 16.5057 9.58085C16.8276 9.99796 16.9923 10.5982 17 11.3817V12.4565ZM15.8927 11.2774C15.8927 10.7934 15.8289 10.4418 15.7011 10.2226C15.576 10.0006 15.3793 9.88967 15.1111 9.88967C14.8506 9.88967 14.6577 9.99529 14.5326 10.2065C14.41 10.4151 14.3448 10.7426 14.3372 11.1891V12.6089C14.3372 13.0849 14.3985 13.4391 14.5211 13.6718C14.6462 13.9017 14.8455 14.0167 15.1188 14.0167C15.3895 14.0167 15.5849 13.9057 15.705 13.6838C15.825 13.4619 15.8876 13.1223 15.8927 12.6651V11.2774Z" fill="white"/>
<mask id="path-2-inside-1_6681_7975" fill="white">
<path d="M5.22619 14.6095C5.80029 16.2454 6.88843 17.6497 8.32665 18.6108C9.76487 19.5718 11.4753 20.0376 13.2001 19.938C14.9249 19.8383 16.5708 19.1786 17.8897 18.0582C19.2086 16.9378 20.1291 15.4175 20.5124 13.7263C20.8958 12.0351 20.7213 10.2646 20.0152 8.68163C19.3091 7.09865 18.1096 5.78892 16.5976 4.94978C15.0856 4.11064 13.3428 3.78756 11.632 4.02921C9.92113 4.27085 8.33485 5.06414 7.11215 6.28954L4.95898 8.45117"/>
</mask>
<path d="M7.11215 6.28954L6.05032 5.23006L6.04941 5.23097L7.11215 6.28954ZM3.81082 15.1063C4.49225 17.048 5.78422 18.7159 7.49325 19.8579L9.16005 17.3636C7.99264 16.5835 7.10833 15.4429 6.64156 14.1128L3.81082 15.1063ZM7.49325 19.8579C9.20238 21 11.2357 21.554 13.2866 21.4355L13.1136 18.4404C11.7149 18.5213 10.3274 18.1436 9.16005 17.3636L7.49325 19.8579ZM13.2866 21.4355C15.3376 21.3169 17.2939 20.5325 18.8608 19.2014L16.9186 16.915C15.8478 17.8246 14.5123 18.3596 13.1136 18.4404L13.2866 21.4355ZM18.8608 19.2014C20.4277 17.8704 21.5203 16.065 21.9753 14.0579L19.0495 13.3947C18.7378 14.77 17.9895 16.0053 16.9186 16.915L18.8608 19.2014ZM21.9753 14.0579C22.4303 12.0508 22.2232 9.94963 21.3851 8.07058L18.6453 9.29268C19.2193 10.5796 19.3613 12.0193 19.0495 13.3947L21.9753 14.0579ZM21.3851 8.07058C20.5469 6.19144 19.1225 4.63551 17.3255 3.63822L15.8697 6.26134C17.0968 6.94232 18.0713 8.00586 18.6453 9.29268L21.3851 8.07058ZM17.3255 3.63822C15.5284 2.64087 13.4565 2.25662 11.4222 2.54395L11.8418 5.51446C13.2292 5.3185 14.6428 5.58042 15.8697 6.26134L17.3255 3.63822ZM11.4222 2.54395C9.38796 2.83127 7.50276 3.7744 6.05032 5.23006L8.17398 7.34903C9.16693 6.35389 10.4543 5.71043 11.8418 5.51446L11.4222 2.54395ZM6.04941 5.23097L3.89625 7.39259L6.02172 9.50975L8.17489 7.34812L6.04941 5.23097Z" fill="white" mask="url(#path-2-inside-1_6681_7975)"/>
<path d="M4 10.686V7.33981C4 7.17714 4.18387 7.08251 4.31625 7.17706L7.66246 9.56722C7.79874 9.66456 7.76219 9.87626 7.60116 9.92227L4.25494 10.8783C4.12718 10.9148 4 10.8189 4 10.686Z" fill="white"/>
</g>
<defs>
<filter id="filter0_d_6681_7975" x="0" y="0.951172" width="24.7109" height="24" filterUnits="userSpaceOnUse" color-interpolation-filters="sRGB">
<feFlood flood-opacity="0" result="BackgroundImageFix"/>
<feColorMatrix in="SourceAlpha" type="matrix" values="0 0 0 0 0 0 0 0 0 0 0 0 0 0 0 0 0 0 127 0" result="hardAlpha"/>
<feOffset dy="1"/>
<feGaussianBlur stdDeviation="2"/>
<feComposite in2="hardAlpha" operator="out"/>
<feColorMatrix type="matrix" values="0 0 0 0 0 0 0 0 0 0 0 0 0 0 0 0 0 0 0.5 0"/>
<feBlend mode="normal" in2="BackgroundImageFix" result="effect1_dropShadow_6681_7975"/>
<feBlend mode="normal" in="SourceGraphic" in2="effect1_dropShadow_6681_7975" result="shape"/>
</filter>
</defs>
</svg>
