<svg width="16" height="16" viewBox="0 0 16 16" fill="none" xmlns="http://www.w3.org/2000/svg">
<path d="M7.97872 0.75C9.40798 0.75 10.8053 1.17495 11.994 1.97133C13.1827 2.76773 14.1095 3.8999 14.6569 5.22489C15.2043 6.5499 15.3475 8.00802 15.0685 9.41478C14.7894 10.8215 14.1006 12.1134 13.0895 13.1272C12.0784 14.141 10.7904 14.8312 9.38859 15.1108C7.98676 15.3904 6.53369 15.2469 5.21306 14.6984C3.89241 14.1499 2.76331 13.2209 1.96877 12.0286C1.17421 10.8363 0.75 9.43436 0.75 8C0.75 6.07654 1.51208 4.23225 2.86795 2.87277C4.22375 1.51335 6.06219 0.75 7.97872 0.75Z" stroke="#FD7B38" stroke-width="1.5"/>
<path d="M7.9782 7.54688C8.24807 7.54688 8.4691 7.76658 8.4691 8.04041C8.4691 8.31424 8.24807 8.53395 7.9782 8.53395C7.70834 8.53395 7.4873 8.31424 7.4873 8.04041C7.4873 7.76658 7.70834 7.54688 7.9782 7.54688Z" stroke="#FD7B38"/>
<path fill-rule="evenodd" clip-rule="evenodd" d="M7.97852 6.77539C7.28097 6.77539 6.71777 7.34201 6.71777 8.03816C6.71777 8.73431 7.28097 9.30093 7.97852 9.30093C8.67606 9.30093 9.23926 8.73431 9.23926 8.03816C9.23926 7.34201 8.67606 6.77539 7.97852 6.77539Z" fill="#FD7B38"/>
<path fill-rule="evenodd" clip-rule="evenodd" d="M8.29576 4.156C8.23699 4.052 8.13288 4 8.02878 4C7.92467 4 7.82057 4.052 7.76179 4.156L6.91631 5.65199C6.80039 5.85711 6.94816 6.11138 7.1833 6.11138H8.87426C9.10939 6.11138 9.25717 5.85711 9.14124 5.65199L8.29576 4.156Z" fill="#FD7B38"/>
<path fill-rule="evenodd" clip-rule="evenodd" d="M7.76185 11.8733C7.82063 11.9773 7.92473 12.0293 8.02884 12.0293C8.13295 12.0293 8.23705 11.9773 8.29583 11.8733L9.1413 10.3773C9.25723 10.1722 9.10945 9.91791 8.87432 9.91791H7.18336C6.94822 9.91791 6.80045 10.1722 6.91637 10.3773L7.76185 11.8733Z" fill="#FD7B38"/>
<path fill-rule="evenodd" clip-rule="evenodd" d="M4.15558 7.82252C4.05186 7.88145 4 7.98584 4 8.09022C4 8.1946 4.05186 8.29899 4.15558 8.35792L5.6476 9.20565C5.85217 9.32188 6.10577 9.17371 6.10577 8.93795V7.24249C6.10577 7.00672 5.85217 6.85856 5.6476 6.97479L4.15558 7.82252Z" fill="#FD7B38"/>
<path fill-rule="evenodd" clip-rule="evenodd" d="M11.8522 8.3583C11.8995 8.33147 11.9388 8.29255 11.9661 8.24552C11.9934 8.19849 12.0078 8.14504 12.0078 8.09061C12.0078 8.03618 11.9934 7.98273 11.9661 7.9357C11.9388 7.88867 11.8995 7.84976 11.8522 7.82292L10.3593 6.97554C10.3126 6.94901 10.2598 6.93523 10.2062 6.93555C10.1525 6.93588 10.0999 6.9503 10.0535 6.97739C10.0072 7.00448 9.96869 7.04328 9.94195 7.08992C9.91521 7.13657 9.90114 7.18943 9.90114 7.24323V8.93984C9.90114 8.99364 9.91521 9.0465 9.94195 9.09314C9.96869 9.13979 10.0072 9.17859 10.0535 9.20568C10.0999 9.23277 10.1525 9.24719 10.2062 9.24752C10.2598 9.24784 10.3126 9.23405 10.3593 9.20753L11.8522 8.3583Z" fill="#FD7B38"/>
<path d="M11.3897 8.09142L10.3624 7.5077V8.67514L11.3897 8.09142ZM12.0078 8.09142C12.0078 8.1958 11.956 8.30019 11.8522 8.35912L10.3602 9.20685C10.1556 9.32309 9.90205 9.17492 9.90205 8.93915V7.24369C9.90205 7.00793 10.1556 6.85976 10.3602 6.97599L11.8522 7.82372C11.956 7.88265 12.0078 7.98704 12.0078 8.09142Z" fill="#FD7B38"/>
<path fill-rule="evenodd" clip-rule="evenodd" d="M10.3624 7.5077V8.67514L11.3897 8.09142L10.3624 7.5077ZM11.8522 8.35912C11.956 8.30019 12.0078 8.1958 12.0078 8.09142C12.0078 7.98704 11.956 7.88265 11.8522 7.82372L10.3602 6.97599C10.1556 6.85976 9.90205 7.00793 9.90205 7.24369V8.93915C9.90205 9.17492 10.1556 9.32309 10.3602 9.20685L11.8522 8.35912Z" fill="#FD7B38"/>
</svg>
