<svg width="16" height="16" viewBox="0 0 16 16" fill="none" xmlns="http://www.w3.org/2000/svg">
<path d="M7.97872 0.75C9.40798 0.75 10.8053 1.17495 11.994 1.97133C13.1827 2.76773 14.1095 3.8999 14.6569 5.22489C15.2043 6.5499 15.3475 8.00802 15.0685 9.41478C14.7894 10.8215 14.1006 12.1134 13.0895 13.1272C12.0784 14.141 10.7904 14.8312 9.38859 15.1108C7.98675 15.3904 6.53369 15.2469 5.21306 14.6984C3.89241 14.1499 2.76331 13.2209 1.96877 12.0286C1.17421 10.8363 0.75 9.43436 0.75 8C0.75 6.07654 1.51208 4.23225 2.86795 2.87277C4.22375 1.51335 6.06219 0.75 7.97872 0.75Z" stroke="#818181" stroke-width="1.5"/>
<path d="M7.97869 7.54688C8.24855 7.54688 8.46959 7.76658 8.46959 8.04041C8.46959 8.31424 8.24855 8.53395 7.97869 8.53395C7.70883 8.53395 7.48779 8.31424 7.48779 8.04041C7.48779 7.76658 7.70883 7.54688 7.97869 7.54688Z" stroke="#818181"/>
<path fill-rule="evenodd" clip-rule="evenodd" d="M7.97852 6.77539C7.28097 6.77539 6.71777 7.34201 6.71777 8.03816C6.71777 8.73431 7.28097 9.30093 7.97852 9.30093C8.67606 9.30093 9.23926 8.73431 9.23926 8.03816C9.23926 7.34201 8.67606 6.77539 7.97852 6.77539Z" fill="#818181"/>
<path fill-rule="evenodd" clip-rule="evenodd" d="M8.29674 4.15795C8.23797 4.05395 8.13386 4.00195 8.02975 4.00195C7.92565 4.00195 7.82154 4.05395 7.76277 4.15795L6.91729 5.65395C6.80137 5.85907 6.94914 6.11334 7.18428 6.11334H8.87523C9.11037 6.11334 9.25814 5.85907 9.14222 5.65395L8.29674 4.15795Z" fill="#818181"/>
<path fill-rule="evenodd" clip-rule="evenodd" d="M7.76283 11.8753C7.8216 11.9793 7.92571 12.0312 8.02982 12.0312C8.13392 12.0312 8.23803 11.9793 8.2968 11.8753L9.14228 10.3793C9.2582 10.1741 9.11043 9.91987 8.87529 9.91987H7.18434C6.9492 9.91987 6.80143 10.1741 6.91735 10.3793L7.76283 11.8753Z" fill="#818181"/>
<path fill-rule="evenodd" clip-rule="evenodd" d="M4.15607 7.82447C4.05235 7.88341 4.00049 7.98779 4.00049 8.09217C4.00049 8.19656 4.05235 8.30094 4.15607 8.35987L5.64809 9.2076C5.85266 9.32384 6.10626 9.17567 6.10626 8.9399V7.24444C6.10626 7.00868 5.85266 6.86051 5.64809 6.97674L4.15607 7.82447Z" fill="#818181"/>
<path fill-rule="evenodd" clip-rule="evenodd" d="M11.8527 8.36026C11.9 8.33342 11.9392 8.2945 11.9666 8.24747C11.9939 8.20045 12.0083 8.14699 12.0083 8.09256C12.0083 8.03814 11.9939 7.98468 11.9666 7.93765C11.9392 7.89063 11.9 7.85171 11.8527 7.82487L10.3598 6.97749C10.3131 6.95097 10.2603 6.93718 10.2067 6.93751C10.153 6.93783 10.1004 6.95226 10.054 6.97934C10.0076 7.00643 9.96917 7.04523 9.94244 7.09188C9.9157 7.13852 9.90163 7.19138 9.90163 7.24518V8.94179C9.90163 8.99559 9.9157 9.04845 9.94244 9.0951C9.96917 9.14174 10.0076 9.18054 10.054 9.20763C10.1004 9.23472 10.153 9.24914 10.2067 9.24947C10.2603 9.24979 10.3131 9.23601 10.3598 9.20948L11.8527 8.36026Z" fill="#818181"/>
<path d="M11.3897 8.09337L10.3624 7.50965V8.6771L11.3897 8.09337ZM12.0078 8.09337C12.0078 8.19776 11.956 8.30214 11.8522 8.36107L10.3602 9.2088C10.1556 9.32504 9.90205 9.17687 9.90205 8.94111V7.24564C9.90205 7.00988 10.1556 6.86171 10.3602 6.97794L11.8522 7.82568C11.956 7.88461 12.0078 7.98899 12.0078 8.09337Z" fill="#818181"/>
<path fill-rule="evenodd" clip-rule="evenodd" d="M10.3624 7.50965V8.6771L11.3897 8.09337L10.3624 7.50965ZM11.8522 8.36107C11.956 8.30214 12.0078 8.19776 12.0078 8.09337C12.0078 7.98899 11.956 7.88461 11.8522 7.82568L10.3602 6.97794C10.1556 6.86171 9.90205 7.00988 9.90205 7.24564V8.94111C9.90205 9.17687 10.1556 9.32504 10.3602 9.2088L11.8522 8.36107Z" fill="#818181"/>
</svg>
