<svg width="20" height="18" viewBox="0 0 20 18" fill="none" xmlns="http://www.w3.org/2000/svg">
<path d="M16.6387 10.0488H2.73763C1.77797 10.0488 1 10.8268 1 11.7865V15.2617C1 16.2214 1.77797 16.9994 2.73763 16.9994H16.6387C17.5984 16.9994 18.3763 16.2214 18.3763 15.2617V11.7865C18.3763 10.8268 17.5984 10.0488 16.6387 10.0488Z" fill="#FD7B38" stroke="#FD7B38" stroke-width="1.5" stroke-linecap="round" stroke-linejoin="round"/>
<path d="M16.6387 1H2.73763C1.77797 1 1 1.77797 1 2.73763V6.2129C1 7.17257 1.77797 7.95054 2.73763 7.95054H16.6387C17.5984 7.95054 18.3763 7.17257 18.3763 6.2129V2.73763C18.3763 1.77797 17.5984 1 16.6387 1Z" fill="#FD7B38" stroke="#FD7B38" stroke-width="1.5" stroke-linecap="round" stroke-linejoin="round"/>
<circle cx="4.76479" cy="4.62044" r="0.723957" fill="#8C5236"/>
<circle cx="4.76479" cy="13.6693" r="0.723957" fill="#8C5236"/>
<rect x="7.15363" y="3.89648" width="7.60155" height="1.44791" rx="0.723957" fill="#8C5236"/>
<rect x="7.15363" y="12.9453" width="7.60155" height="1.44791" rx="0.723957" fill="#8C5236"/>
</svg>
