<svg width="16" height="16" viewBox="0 0 16 16" fill="none" xmlns="http://www.w3.org/2000/svg">
<path fill-rule="evenodd" clip-rule="evenodd" d="M6.39405 15.1953C5.9665 15.1953 5.61989 14.8487 5.61989 14.4212L5.61989 10.3783L1.57703 10.3783C1.14948 10.3783 0.802874 10.0317 0.802874 9.60413C0.802874 9.17658 1.14948 8.82997 1.57703 8.82997L6.39405 8.82997C6.82161 8.82997 7.16821 9.17658 7.16821 9.60413L7.16821 14.4212C7.16821 14.8487 6.82161 15.1953 6.39405 15.1953Z" fill="white"/>
<path fill-rule="evenodd" clip-rule="evenodd" d="M0.226782 15.7713C-0.0755453 15.469 -0.0755452 14.9788 0.226782 14.6765L5.84664 9.05662C6.14897 8.75429 6.63914 8.75429 6.94147 9.05662C7.2438 9.35894 7.2438 9.84912 6.94147 10.1514L1.32161 15.7713C1.01928 16.0736 0.529111 16.0736 0.226782 15.7713Z" fill="white"/>
<path fill-rule="evenodd" clip-rule="evenodd" d="M15.1965 6.39381C15.1965 6.82137 14.8499 7.16797 14.4224 7.16797L9.60535 7.16797C9.1778 7.16797 8.83119 6.82137 8.83119 6.39381L8.83119 1.57679C8.83119 1.14923 9.1778 0.802628 9.60535 0.802629C10.0329 0.802629 10.3795 1.14923 10.3795 1.57679L10.3795 5.61965L14.4224 5.61965C14.8499 5.61965 15.1965 5.96625 15.1965 6.39381Z" fill="white"/>
<path fill-rule="evenodd" clip-rule="evenodd" d="M9.05808 6.94122C8.75575 6.63889 8.75575 6.14872 9.05808 5.84639L14.6779 0.226538C14.9803 -0.0757895 15.4704 -0.0757895 15.7728 0.226538C16.0751 0.528867 16.0751 1.01904 15.7728 1.32137L10.1529 6.94122C9.85058 7.24355 9.36041 7.24355 9.05808 6.94122Z" fill="white"/>
</svg>
