<svg width="23" height="16" viewBox="0 0 23 16" fill="none" xmlns="http://www.w3.org/2000/svg">
<rect x="0.5" y="0.5" width="21.2222" height="15" rx="3.5" stroke="#FD7B38"/>
<path d="M4.88965 9.94092H7.68896V11H3.57129V4.60156H4.88965V9.94092ZM9.70605 11H8.43164V6.24512H9.70605V11ZM8.35693 5.01465C8.35693 4.82422 8.41992 4.66748 8.5459 4.54443C8.6748 4.42139 8.84912 4.35986 9.06885 4.35986C9.28564 4.35986 9.4585 4.42139 9.5874 4.54443C9.71631 4.66748 9.78076 4.82422 9.78076 5.01465C9.78076 5.20801 9.71484 5.36621 9.58301 5.48926C9.4541 5.6123 9.28271 5.67383 9.06885 5.67383C8.85498 5.67383 8.68213 5.6123 8.55029 5.48926C8.42139 5.36621 8.35693 5.20801 8.35693 5.01465ZM12.5361 9.44873L13.4194 6.24512H14.7466L13.1426 11H11.9297L10.3257 6.24512H11.6528L12.5361 9.44873ZM17.436 11.0879C16.7388 11.0879 16.1704 10.874 15.731 10.4463C15.2944 10.0186 15.0762 9.44873 15.0762 8.73682V8.61377C15.0762 8.13623 15.1685 7.70996 15.353 7.33496C15.5376 6.95703 15.7983 6.66699 16.1353 6.46484C16.4751 6.25977 16.8618 6.15723 17.2954 6.15723C17.9458 6.15723 18.457 6.3623 18.8291 6.77246C19.2041 7.18262 19.3916 7.76416 19.3916 8.51709V9.03564H16.3638C16.4048 9.34619 16.5278 9.59521 16.7329 9.78271C16.9409 9.97021 17.2031 10.064 17.5195 10.064C18.0088 10.064 18.3911 9.88672 18.6665 9.53223L19.2905 10.231C19.1001 10.5005 18.8423 10.7114 18.5171 10.8638C18.1919 11.0132 17.8315 11.0879 17.436 11.0879ZM17.291 7.18555C17.0391 7.18555 16.834 7.27051 16.6758 7.44043C16.5205 7.61035 16.4209 7.85352 16.377 8.16992H18.1436V8.06885C18.1377 7.7876 18.0615 7.5708 17.915 7.41846C17.7686 7.26318 17.5605 7.18555 17.291 7.18555Z" fill="#FD7B38"/>
</svg>
