<svg width="27" height="16" viewBox="0 0 27 16" fill="none" xmlns="http://www.w3.org/2000/svg">
<g clip-path="url(#clip0_8794_8799)">
<path d="M3.61141 13.1108H1.05141C0.850271 13.1108 0.685699 12.9462 0.685699 12.7451V1.05138C0.685699 0.85024 0.850271 0.685669 1.05141 0.685669H17.7828C18.0937 0.685669 18.3954 0.822812 18.6057 1.05138L22.8571 5.79653C23.1588 6.12567 23.5154 6.39081 23.9268 6.58281L25.216 7.16795C25.7463 7.40567 26.0846 7.93595 26.0846 8.5211V12.7542C26.0846 12.9554 25.92 13.12 25.7188 13.12H23.0491" stroke="white" stroke-width="1.5" stroke-miterlimit="10"/>
<path d="M18.6423 13.1108H8.01828" stroke="white" stroke-width="1.5" stroke-miterlimit="10"/>
<path d="M5.81485 15.3142C7.03177 15.3142 8.01828 14.3277 8.01828 13.1108C8.01828 11.8939 7.03177 10.9073 5.81485 10.9073C4.59793 10.9073 3.61142 11.8939 3.61142 13.1108C3.61142 14.3277 4.59793 15.3142 5.81485 15.3142Z" stroke="white" stroke-width="1.5" stroke-miterlimit="10"/>
<path d="M20.8457 15.3142C22.0626 15.3142 23.0491 14.3277 23.0491 13.1108C23.0491 11.8939 22.0626 10.9073 20.8457 10.9073C19.6288 10.9073 18.6423 11.8939 18.6423 13.1108C18.6423 14.3277 19.6288 15.3142 20.8457 15.3142Z" stroke="white" stroke-width="1.5" stroke-miterlimit="10"/>
<path d="M7.35999 2.57825V7.68911" stroke="white" stroke-width="1.5" stroke-miterlimit="10"/>
<path d="M9.91083 5.12915H4.80911" stroke="white" stroke-width="1.5" stroke-miterlimit="10"/>
<path d="M15.5966 3.6571H17.108C17.1234 3.6571 17.1387 3.66492 17.1464 3.67273L20.1003 7.22829C20.131 7.25955 20.108 7.31425 20.0619 7.31425H15.5966C15.5659 7.31425 15.5428 7.2908 15.5428 7.25955V3.71181C15.5428 3.68055 15.5659 3.6571 15.5966 3.6571Z" stroke="white" stroke-width="1.5" stroke-miterlimit="10"/>
</g>
<defs>
<clipPath id="clip0_8794_8799">
<rect width="26.7703" height="16" fill="white"/>
</clipPath>
</defs>
</svg>
