<svg width="26" height="16" viewBox="0 0 26 16" fill="none" xmlns="http://www.w3.org/2000/svg">
<path d="M6.48208 10.6677H10.3579C10.3579 13.4936 7.59321 15.7247 4.64477 14.7798C3.35866 14.3773 2.31752 13.3362 1.90632 12.0501C0.961418 9.10162 3.19243 6.33691 6.01838 6.33691C7.07701 6.33691 8.1094 6.73062 8.89682 7.43055L6.31585 10.3265C6.21086 10.4577 6.29835 10.6677 6.48208 10.6677Z" stroke="#818181" stroke-width="1.5" stroke-miterlimit="10"/>
<path d="M10.4717 5.68093L17.6196 3.30994C17.6284 3.30994 17.6284 3.31869 17.6284 3.31869L12.7464 10.6592H6.29835C6.19336 10.6592 6.13212 10.5367 6.21086 10.4579L10.4717 5.68093ZM10.4717 5.68093C10.4629 5.68093 10.4717 5.68093 10.4717 5.68093Z" stroke="#818181" stroke-width="1.5" stroke-miterlimit="10"/>
<path d="M9.42177 3.30994L12.7027 10.5804" stroke="#818181" stroke-width="1.5" stroke-miterlimit="10"/>
<path d="M7.89943 3.30994H11.4428" stroke="#818181" stroke-width="1.5" stroke-miterlimit="10"/>
<path d="M19.6844 1L17.1384 1.9274L20.8218 10.9039" stroke="#818181" stroke-width="1.5" stroke-miterlimit="10"/>
<path d="M20.7256 14.9985C23.1174 14.9985 25.0563 13.0595 25.0563 10.6677C25.0563 8.27587 23.1174 6.33691 20.7256 6.33691C18.3337 6.33691 16.3948 8.27587 16.3948 10.6677C16.3948 13.0595 18.3337 14.9985 20.7256 14.9985Z" stroke="#818181" stroke-width="1.5" stroke-miterlimit="10"/>
</svg>
