<svg width="18" height="18" viewBox="0 0 18 18" fill="none" xmlns="http://www.w3.org/2000/svg">
<path d="M8.92005 10.8001C9.95282 10.8001 10.79 9.96283 10.79 8.93006C10.79 7.89729 9.95282 7.06006 8.92005 7.06006C7.88728 7.06006 7.05005 7.89729 7.05005 8.93006C7.05005 9.96283 7.88728 10.8001 8.92005 10.8001Z" stroke="#818181" stroke-width="1.5" stroke-miterlimit="10"/>
<path d="M9.00005 14.2C11.8719 14.2 14.2 11.8719 14.2 9.00005C14.2 6.12817 11.8719 3.80005 9.00005 3.80005C6.12817 3.80005 3.80005 6.12817 3.80005 9.00005C3.80005 11.8719 6.12817 14.2 9.00005 14.2Z" stroke="#818181" stroke-width="1.5" stroke-miterlimit="10"/>
<path d="M9 17C13.4183 17 17 13.4183 17 9C17 4.58172 13.4183 1 9 1C4.58172 1 1 4.58172 1 9C1 13.4183 4.58172 17 9 17Z" stroke="#818181" stroke-width="1.5" stroke-miterlimit="10"/>
<path d="M9.91003 10.51L11.63 13.44" stroke="#818181" stroke-width="1.5" stroke-miterlimit="10"/>
<path d="M6.41003 4.55005L8.02003 7.28005" stroke="#818181" stroke-width="1.5" stroke-miterlimit="10"/>
<path d="M8.01997 10.5701L6.33997 13.4501" stroke="#818181" stroke-width="1.5" stroke-miterlimit="10"/>
<path d="M11.58 4.46997L9.91003 7.33997" stroke="#818181" stroke-width="1.5" stroke-miterlimit="10"/>
<path d="M10.79 8.95996H14.16" stroke="#818181" stroke-width="1.5" stroke-miterlimit="10"/>
<path d="M3.76001 8.95996H7.05001" stroke="#818181" stroke-width="1.5" stroke-miterlimit="10"/>
</svg>
