<svg width="29" height="16" viewBox="0 0 29 16" fill="none" xmlns="http://www.w3.org/2000/svg">
<path d="M22.2011 14.9999C23.9166 14.9999 25.3073 13.6092 25.3073 11.8937C25.3073 10.1782 23.9166 8.78748 22.2011 8.78748C20.4856 8.78748 19.0949 10.1782 19.0949 11.8937C19.0949 13.6092 20.4856 14.9999 22.2011 14.9999Z" stroke="white" stroke-width="1.5" stroke-miterlimit="10"/>
<path d="M6.40744 14.9999C8.12296 14.9999 9.51366 13.6092 9.51366 11.8937C9.51366 10.1782 8.12296 8.78748 6.40744 8.78748C4.69191 8.78748 3.30121 10.1782 3.30121 11.8937C3.30121 13.6092 4.69191 14.9999 6.40744 14.9999Z" stroke="white" stroke-width="1.5" stroke-miterlimit="10"/>
<path d="M19.0949 11.8936H9.51367" stroke="white" stroke-width="1.5" stroke-miterlimit="10"/>
<path d="M3.31873 11.8937H2.39999C1.63 11.8937 1 11.2637 1 10.4937V7.9212C1 7.43121 1.315 7.01121 1.78749 6.87121L5.76872 5.67247C6.32871 5.50622 6.82746 5.17372 7.20371 4.71872L9.65369 1.75249C10.0474 1.28 10.6337 1 11.2462 1H20.1536C20.9149 1 21.6236 1.385 22.0349 2.03249L23.6973 4.63998C23.9423 5.02497 24.2836 5.33997 24.6773 5.56747L26.8298 6.76621C27.3286 7.04621 27.6348 7.57121 27.6436 8.13995L27.6611 10.5287C27.6698 11.2812 27.0573 11.9024 26.2961 11.9024H25.2811" stroke="white" stroke-width="1.5" stroke-miterlimit="10"/>
</svg>
