<svg width="31" height="16" viewBox="0 0 31 16" fill="none" xmlns="http://www.w3.org/2000/svg">
<g clip-path="url(#clip0_8778_8698)">
<path d="M21.632 12.8H19.3097V1.59081C19.3097 1.08795 19.712 0.685669 20.2149 0.685669H23.232C24.5943 0.685669 25.8743 1.3531 26.6606 2.46853L28.2332 4.72681C29.0103 5.8331 29.4217 7.14967 29.4217 8.50281V12.8H26.3863" stroke="#818181" stroke-width="1.5" stroke-miterlimit="10"/>
<path d="M26.3863 12.8365H30.784" stroke="#818181" stroke-width="1.5" stroke-miterlimit="10"/>
<path d="M14.1349 12.8365H21.5954" stroke="#818181" stroke-width="1.5" stroke-miterlimit="10"/>
<path d="M7.3783 12.8365H9.92915" stroke="#818181" stroke-width="1.5" stroke-miterlimit="10"/>
<path d="M0 12.8365H2.47771" stroke="#818181" stroke-width="1.5" stroke-miterlimit="10"/>
<path d="M12 15C13.1046 15 14 14.1046 14 13C14 11.8954 13.1046 11 12 11C10.8954 11 10 11.8954 10 13C10 14.1046 10.8954 15 12 15Z" stroke="#818181" stroke-width="1.5" stroke-miterlimit="10"/>
<path d="M5 15C6.10457 15 7 14.1046 7 13C7 11.8954 6.10457 11 5 11C3.89543 11 3 11.8954 3 13C3 14.1046 3.89543 15 5 15Z" stroke="#818181" stroke-width="1.5" stroke-miterlimit="10"/>
<path d="M24 15C25.1046 15 26 14.1046 26 13C26 11.8954 25.1046 11 24 11C22.8954 11 22 11.8954 22 13C22 14.1046 22.8954 15 24 15Z" stroke="#818181" stroke-width="1.5" stroke-miterlimit="10"/>
<path d="M22.1531 2.85254H23.744C24.256 2.85254 24.7314 3.0994 25.0149 3.51997L26.7063 5.94283C26.816 6.09825 26.7063 6.31768 26.5143 6.31768H22.0069C21.696 6.31768 21.4491 6.07083 21.4491 5.75997V3.56568C21.44 3.17254 21.76 2.85254 22.1531 2.85254Z" stroke="#818181" stroke-width="1.5" stroke-miterlimit="10"/>
</g>
<defs>
<clipPath id="clip0_8778_8698">
<rect width="30.784" height="16" fill="#818181"/>
</clipPath>
</defs>
</svg>
