<svg width="25" height="15" viewBox="0 0 25 15" fill="none" xmlns="http://www.w3.org/2000/svg">
<path d="M3.61 12.0299H1.32C1.14 12.0299 1 11.8799 1 11.7099V1.24993C1 1.06993 1.15 0.929932 1.32 0.929932H16.28C16.56 0.929932 16.83 1.04993 17.01 1.25993L20.82 5.49993C21.09 5.79993 21.41 6.02993 21.77 6.19993L22.92 6.71993C23.39 6.93993 23.7 7.40993 23.7 7.92993V11.7099C23.7 11.8899 23.55 12.0299 23.38 12.0299H20.99" stroke="white" stroke-width="1.5" stroke-miterlimit="10"/>
<path d="M17.05 12.0299H7.56" stroke="white" stroke-width="1.5" stroke-miterlimit="10"/>
<path d="M5.58002 13.9999C6.66802 13.9999 7.55002 13.1179 7.55002 12.0299C7.55002 10.9419 6.66802 10.0599 5.58002 10.0599C4.49202 10.0599 3.61002 10.9419 3.61002 12.0299C3.61002 13.1179 4.49202 13.9999 5.58002 13.9999Z" stroke="white" stroke-width="1.5" stroke-miterlimit="10"/>
<path d="M19.03 13.9999C20.118 13.9999 21 13.1179 21 12.0299C21 10.9419 20.118 10.0599 19.03 10.0599C17.942 10.0599 17.06 10.9419 17.06 12.0299C17.06 13.1179 17.942 13.9999 19.03 13.9999Z" stroke="white" stroke-width="1.5" stroke-miterlimit="10"/>
<path d="M11.25 0.919922V12.0299" stroke="white" stroke-width="1.5" stroke-miterlimit="10"/>
<path d="M18.45 2.84998H16.1C15.65 2.84998 15.28 3.21998 15.28 3.66998V5.64998C15.28 6.09998 15.65 6.46998 16.1 6.46998H22.41" stroke="white" stroke-width="1.5" stroke-miterlimit="10"/>
</svg>
