<svg width="78" height="45" viewBox="0 0 78 45" fill="none" xmlns="http://www.w3.org/2000/svg">
<rect opacity="0.4" x="0.75" y="0.75" width="76.3846" height="43.5" rx="3.25" stroke="#818181" stroke-width="1.5"/>
<path fill-rule="evenodd" clip-rule="evenodd" d="M6 4C4.89543 4 4 4.89543 4 6V39.0769C4 40.1815 4.89543 41.0769 6 41.0769H71.9615C73.0661 41.0769 73.9615 40.1815 73.9615 39.0769V6C73.9615 4.89543 73.0661 4 71.9615 4H6ZM5.90638 5.68359C5.79592 5.68359 5.70638 5.77314 5.70638 5.88359V7.25141C5.70638 7.36186 5.79592 7.45141 5.90638 7.45141H7.29629C7.40674 7.45141 7.49629 7.36186 7.49629 7.25141V5.88359C7.49629 5.77314 7.40674 5.68359 7.29629 5.68359H5.90638ZM70.5488 5.88359C70.5488 5.77314 70.6383 5.68359 70.7488 5.68359H72.1387C72.2491 5.68359 72.3387 5.77314 72.3387 5.88359V7.25141C72.3387 7.36186 72.2491 7.45141 72.1387 7.45141H70.7488C70.6383 7.45141 70.5488 7.36186 70.5488 7.25141V5.88359ZM5.90638 37.707C5.79592 37.707 5.70638 37.7966 5.70638 37.907V39.2748C5.70638 39.3853 5.79592 39.4748 5.90638 39.4748H7.29629C7.40674 39.4748 7.49629 39.3853 7.49629 39.2748V37.907C7.49629 37.7966 7.40674 37.707 7.29629 37.707H5.90638ZM70.5488 37.907C70.5488 37.7966 70.6383 37.707 70.7488 37.707H72.1387C72.2491 37.707 72.3387 37.7966 72.3387 37.907V39.2748C72.3387 39.3853 72.2491 39.4748 72.1387 39.4748H70.7488C70.6383 39.4748 70.5488 39.3853 70.5488 39.2748V37.907ZM11.0488 25.8027H14.9014L15.6411 28H17.9775L13.9858 17.3359H11.9497L7.97998 28H10.3164L11.0488 25.8027ZM14.3081 24.0229H11.6421L12.9678 20.0312L14.3081 24.0229ZM18.9736 17.3359V28H23.1191C24.3301 27.9902 25.2627 27.7217 25.917 27.1943C26.5713 26.667 26.8984 25.8906 26.8984 24.8652C26.8984 24.2646 26.7397 23.7568 26.4224 23.3418C26.1099 22.9268 25.6802 22.6509 25.1333 22.5142C25.6118 22.3286 25.9854 22.0381 26.2539 21.6426C26.5225 21.2422 26.6567 20.7808 26.6567 20.2583C26.6567 19.3013 26.3223 18.5762 25.6533 18.083C24.9844 17.585 24.0029 17.3359 22.709 17.3359H18.9736ZM21.1709 26.2349V23.3564H23.1851C24.1958 23.3711 24.7012 23.8667 24.7012 24.8433C24.7012 25.2778 24.5547 25.6196 24.2617 25.8687C23.9736 26.1128 23.5708 26.2349 23.0532 26.2349H21.1709ZM22.7969 21.8037H21.1709V19.1157H22.709C23.3145 19.1157 23.7563 19.2231 24.0347 19.438C24.3179 19.6479 24.4595 19.9946 24.4595 20.478C24.4595 21.3423 23.9053 21.7842 22.7969 21.8037ZM35.6509 27.1577C36.4175 26.4985 36.8423 25.5952 36.9253 24.4478H34.728C34.6792 25.0972 34.4863 25.5781 34.1494 25.8906C33.8174 26.1982 33.312 26.3521 32.6333 26.3521C31.8813 26.3521 31.3296 26.0859 30.978 25.5537C30.6313 25.0215 30.458 24.1792 30.458 23.0269V22.2212C30.4678 21.1177 30.6533 20.3047 31.0146 19.7822C31.3809 19.2549 31.9302 18.9912 32.6626 18.9912C33.3364 18.9912 33.8369 19.1475 34.1641 19.46C34.4961 19.7676 34.689 20.2656 34.7427 20.9541H36.9399C36.8228 19.7627 36.3882 18.8374 35.6362 18.1782C34.8843 17.519 33.8931 17.1895 32.6626 17.1895C31.7739 17.1895 30.9927 17.3994 30.3188 17.8193C29.6499 18.2344 29.1348 18.8325 28.7734 19.6138C28.4121 20.395 28.2314 21.2983 28.2314 22.3237V22.9756C28.2314 24.582 28.6221 25.8467 29.4033 26.7695C30.1895 27.6875 31.2661 28.1465 32.6333 28.1465C33.8833 28.1465 34.8892 27.8169 35.6509 27.1577ZM38.2217 24.2866H42.3452V22.5801H38.2217V24.2866ZM46.9814 28H49.0981V17.3213H48.8711L44.4546 18.9033V20.6245L46.9814 19.8408V28ZM52.5698 28H59.8794V26.2935H55.2944L57.7188 23.7373C58.3828 23.0098 58.8516 22.3726 59.125 21.8257C59.3984 21.2788 59.5352 20.7417 59.5352 20.2144C59.5352 19.2524 59.23 18.5078 58.6196 17.9805C58.0142 17.4531 57.1621 17.1895 56.0635 17.1895C55.3457 17.1895 54.7036 17.3433 54.1372 17.6509C53.5708 17.9536 53.1313 18.3735 52.8188 18.9106C52.5112 19.4478 52.3574 20.041 52.3574 20.6904H54.4814C54.4814 20.1533 54.6182 19.7212 54.8916 19.394C55.1699 19.062 55.5483 18.896 56.0269 18.896C56.4712 18.896 56.813 19.0327 57.0522 19.3062C57.2915 19.5747 57.4111 19.9458 57.4111 20.4194C57.4111 20.7661 57.2964 21.1323 57.0669 21.5181C56.8423 21.9038 56.4932 22.3555 56.0195 22.873L52.5698 26.5498V28ZM64.4644 21.7305H63.3364V23.3857H64.457C65.6289 23.3857 66.2148 23.918 66.2148 24.9824C66.2148 25.4219 66.0708 25.7759 65.7827 26.0444C65.4995 26.3081 65.1064 26.4399 64.6035 26.4399C64.1641 26.4399 63.793 26.313 63.4902 26.0591C63.1924 25.8052 63.0435 25.478 63.0435 25.0776H60.9268C60.9268 26.0005 61.2637 26.7427 61.9375 27.3042C62.6162 27.8657 63.4878 28.1465 64.5522 28.1465C65.6899 28.1465 66.603 27.8608 67.2915 27.2896C67.9849 26.7183 68.3315 25.959 68.3315 25.0117C68.3315 24.4258 68.1826 23.918 67.8848 23.4883C67.5918 23.0586 67.145 22.7363 66.5444 22.5215C67.0278 22.3018 67.4185 21.9868 67.7163 21.5767C68.0142 21.1665 68.1631 20.7173 68.1631 20.229C68.1631 19.2817 67.8433 18.5396 67.2036 18.0024C66.564 17.4604 65.6802 17.1895 64.5522 17.1895C63.9028 17.1895 63.3071 17.314 62.7651 17.563C62.228 17.812 61.8081 18.1587 61.5054 18.603C61.2075 19.0425 61.0586 19.5405 61.0586 20.0972H63.1753C63.1753 19.7407 63.312 19.4526 63.5854 19.2329C63.8589 19.0083 64.1982 18.896 64.6035 18.896C65.0527 18.896 65.4043 19.0156 65.6582 19.2549C65.917 19.4941 66.0464 19.8286 66.0464 20.2583C66.0464 20.7026 65.917 21.0591 65.6582 21.3276C65.3994 21.5962 65.0015 21.7305 64.4644 21.7305Z" fill="#818181"/>
</svg>
