<svg width="33" height="16" viewBox="0 0 33 16" fill="none" xmlns="http://www.w3.org/2000/svg">
<g clip-path="url(#clip0_9097_8514)">
<path d="M27.9976 13.2894H30.6006C31.0606 13.2894 31.4422 12.9175 31.4422 12.4478V10.4514C31.4422 8.5921 29.9352 7.09486 28.0856 7.09486H24.367L22.4196 2.29975C22.0281 1.35051 21.1083 0.724214 20.0807 0.734L15.7554 0.753572C15.2954 0.753572 14.9138 1.13522 14.9138 1.59516L14.9333 6.25327C14.9333 6.72299 14.5615 7.09486 14.0917 7.09486H1.57554C1.1156 7.09486 0.733948 7.46672 0.733948 7.93645V12.4575C0.733948 12.9175 1.10581 13.2991 1.57554 13.2991H4.06116" stroke="#818181" stroke-width="1.5" stroke-miterlimit="10"/>
<path d="M8.00488 13.2893H24.2006" stroke="#818181" stroke-width="1.5" stroke-miterlimit="10"/>
<path d="M17.5951 3.54256V5.59761C17.5951 5.66611 17.6538 5.72482 17.7321 5.72482H20.9027C20.9712 5.72482 21.0202 5.65632 20.9908 5.59761L20.1786 3.74807C20.1786 3.74807 19.9144 3.4447 19.7089 3.4447H17.693C17.644 3.4447 17.5951 3.49363 17.5951 3.54256Z" stroke="#818181" stroke-width="1.5" stroke-miterlimit="10"/>
<path d="M6.02813 15.2562C7.11446 15.2562 7.9951 14.3756 7.9951 13.2892C7.9951 12.2029 7.11446 11.3223 6.02813 11.3223C4.9418 11.3223 4.06116 12.2029 4.06116 13.2892C4.06116 14.3756 4.9418 15.2562 6.02813 15.2562Z" stroke="#818181" stroke-width="1.5" stroke-miterlimit="10"/>
<path d="M26.1676 15.2562C27.2539 15.2562 28.1346 14.3756 28.1346 13.2892C28.1346 12.2029 27.2539 11.3223 26.1676 11.3223C25.0813 11.3223 24.2006 12.2029 24.2006 13.2892C24.2006 14.3756 25.0813 15.2562 26.1676 15.2562Z" stroke="#818181" stroke-width="1.5" stroke-miterlimit="10"/>
</g>
<defs>
<clipPath id="clip0_9097_8514">
<rect width="32.1761" height="16" fill="#818181"/>
</clipPath>
</defs>
</svg>
