<svg width="12" height="16" viewBox="0 0 12 16" fill="none" xmlns="http://www.w3.org/2000/svg">
<circle cx="5.33341" cy="2.66667" r="1.91667" stroke="#818181" stroke-width="1.5" stroke-linecap="round" stroke-linejoin="round"/>
<path d="M7.31665 2.89062H10.2678" stroke="#818181" stroke-width="1.5" stroke-linecap="round" stroke-linejoin="round"/>
<line x1="0.75" y1="2.80469" x2="2.80556" y2="2.80469" stroke="#818181" stroke-width="1.5" stroke-linecap="round" stroke-linejoin="round"/>
<path d="M1.83325 14.2207H2.61103C2.88717 14.2207 3.11103 13.9969 3.11103 13.7208V12.4432C3.11103 9.33226 7.55547 9.33226 7.55547 12.4432V13.7207C7.55547 13.9969 7.77933 14.2207 8.05547 14.2207H8.83325C9.10939 14.2207 9.33325 13.9971 9.33325 13.721V8.8874C9.33325 3.90885 1.33325 4 1.33325 8.8874V13.7207C1.33325 13.9969 1.55711 14.2207 1.83325 14.2207Z" stroke="#818181" stroke-width="1.5"/>
<rect x="4.44434" y="11.5547" width="1.77778" height="4.44444" rx="0.888889" fill="#818181"/>
</svg>
