<svg width="18" height="13" viewBox="0 0 18 13" fill="none" xmlns="http://www.w3.org/2000/svg">
<rect x="0.75" y="0.75" width="16.5" height="11.5" rx="1.25" stroke="#818181" stroke-width="1.5"/>
<path d="M5.16699 8.99805H4.1792V5.19043L3 5.55615V4.75293L5.06104 4.01465H5.16699V8.99805Z" fill="#818181"/>
<path d="M10.1982 8.99805H6.78711V8.32129L8.39697 6.60547C8.618 6.36393 8.78092 6.15316 8.88574 5.97314C8.99284 5.79313 9.04639 5.62223 9.04639 5.46045C9.04639 5.23942 8.99056 5.06624 8.87891 4.94092C8.76725 4.81331 8.60775 4.74951 8.40039 4.74951C8.17708 4.74951 8.00049 4.82699 7.87061 4.98193C7.743 5.1346 7.6792 5.33626 7.6792 5.58691H6.68799C6.68799 5.28385 6.75977 5.007 6.90332 4.75635C7.04915 4.5057 7.25423 4.30973 7.51855 4.16846C7.78288 4.0249 8.08252 3.95312 8.41748 3.95312C8.93018 3.95312 9.3278 4.07617 9.61035 4.32227C9.89518 4.56836 10.0376 4.91585 10.0376 5.36475C10.0376 5.61084 9.9738 5.86149 9.84619 6.1167C9.71859 6.37191 9.49984 6.66927 9.18994 7.00879L8.05859 8.20166H10.1982V8.99805Z" fill="#818181"/>
<path d="M11.8115 6.07227H12.3379C12.5885 6.07227 12.7743 6.0096 12.895 5.88428C13.0158 5.75895 13.0762 5.59261 13.0762 5.38525C13.0762 5.18473 13.0158 5.02865 12.895 4.91699C12.7765 4.80534 12.6125 4.74951 12.4028 4.74951C12.2137 4.74951 12.0553 4.80192 11.9277 4.90674C11.8001 5.00928 11.7363 5.14372 11.7363 5.31006H10.7485C10.7485 5.05029 10.818 4.81787 10.957 4.61279C11.0983 4.40544 11.2943 4.24365 11.5449 4.12744C11.7979 4.01123 12.0758 3.95312 12.3789 3.95312C12.9053 3.95312 13.3177 4.07959 13.6162 4.33252C13.9147 4.58317 14.064 4.92952 14.064 5.37158C14.064 5.59945 13.9945 5.80908 13.8555 6.00049C13.7165 6.19189 13.5342 6.33887 13.3086 6.44141C13.5889 6.54167 13.7974 6.69206 13.9341 6.89258C14.0731 7.0931 14.1426 7.33008 14.1426 7.60352C14.1426 8.04557 13.9808 8.3999 13.6572 8.6665C13.3359 8.93311 12.9098 9.06641 12.3789 9.06641C11.8822 9.06641 11.4754 8.93538 11.1587 8.67334C10.8442 8.4113 10.687 8.06494 10.687 7.63428H11.6748C11.6748 7.82113 11.7443 7.9738 11.8833 8.09229C12.0246 8.21077 12.1978 8.27002 12.4028 8.27002C12.6375 8.27002 12.821 8.2085 12.9531 8.08545C13.0876 7.96012 13.1548 7.79492 13.1548 7.58984C13.1548 7.0931 12.8813 6.84473 12.3345 6.84473H11.8115V6.07227Z" fill="#818181"/>
</svg>
