<svg width="13" height="17" viewBox="0 0 13 17" fill="none" xmlns="http://www.w3.org/2000/svg">
<path d="M10.8347 13.2655H1.93132C1.41909 13.2655 1 12.8464 1 12.3341V4.30618C1 2.4808 2.4808 1 4.30618 1H8.45054C10.2759 1 11.7567 2.4808 11.7567 4.30618V12.3341C11.766 12.8464 11.3469 13.2655 10.8347 13.2655Z" stroke="white" stroke-width="1.5" stroke-miterlimit="10"/>
<path d="M4.47374 11.1979C4.9058 11.1979 5.25605 10.8477 5.25605 10.4156C5.25605 9.98355 4.9058 9.6333 4.47374 9.6333C4.04169 9.6333 3.69144 9.98355 3.69144 10.4156C3.69144 10.8477 4.04169 11.1979 4.47374 11.1979Z" fill="white"/>
<path d="M8.3481 11.1979C8.78016 11.1979 9.13041 10.8477 9.13041 10.4156C9.13041 9.98355 8.78016 9.6333 8.3481 9.6333C7.91605 9.6333 7.5658 9.98355 7.5658 10.4156C7.5658 10.8477 7.91605 11.1979 8.3481 11.1979Z" fill="white"/>
<path d="M9.1304 6.5227H3.66356C3.4121 6.5227 3.20721 6.31781 3.20721 6.06635V5.01396C3.20721 4.02676 4.00815 3.22583 4.99534 3.22583H7.79861C8.78581 3.22583 9.58674 4.02676 9.58674 5.01396V6.07566C9.58674 6.32712 9.38185 6.5227 9.1304 6.5227Z" stroke="white" stroke-width="1.5" stroke-miterlimit="10"/>
<path fill-rule="evenodd" clip-rule="evenodd" d="M5.87633 13.5254L4.13255 17H2.38879L4.47611 12.8253L5.87633 13.5254Z" fill="white"/>
<path fill-rule="evenodd" clip-rule="evenodd" d="M7.26351 13.5254L9.00729 17H10.751L8.66372 12.8253L7.26351 13.5254Z" fill="white"/>
</svg>
