<svg width="23" height="16" viewBox="0 0 23 16" fill="none" xmlns="http://www.w3.org/2000/svg">
<g clip-path="url(#clip0_8765_8653)">
<path d="M3.81257 13.2662C2.08457 13.2662 0.685715 11.9588 0.685715 10.3497V3.60224C0.685715 1.9931 2.08457 0.685669 3.81257 0.685669H11.2731C13.0011 0.685669 14.4 1.9931 14.4 3.60224V10.3497C14.4 11.9588 13.0011 13.2662 11.2731 13.2662H8.05486" stroke="white" stroke-width="1.5" stroke-miterlimit="10"/>
<path d="M15.4697 13.2662H11.4286" stroke="white" stroke-width="1.5" stroke-miterlimit="10"/>
<path d="M14.4091 4.47083H17.0972C17.4903 4.47083 17.8651 4.6354 18.1303 4.92797L20.9554 8.01825C21.1931 8.27425 21.3211 8.61254 21.3211 8.95997V11.8674C21.3211 12.6445 20.6903 13.2663 19.9223 13.2663H19.8583" stroke="white" stroke-width="1.5" stroke-miterlimit="10"/>
<path d="M17.664 15.3142C18.8759 15.3142 19.8583 14.3318 19.8583 13.1199C19.8583 11.9081 18.8759 10.9257 17.664 10.9257C16.4521 10.9257 15.4697 11.9081 15.4697 13.1199C15.4697 14.3318 16.4521 15.3142 17.664 15.3142Z" stroke="white" stroke-width="1.5" stroke-miterlimit="10"/>
<path d="M5.86972 15.3142C7.08159 15.3142 8.064 14.3318 8.064 13.1199C8.064 11.9081 7.08159 10.9257 5.86972 10.9257C4.65785 10.9257 3.67543 11.9081 3.67543 13.1199C3.67543 14.3318 4.65785 15.3142 5.86972 15.3142Z" stroke="white" stroke-width="1.5" stroke-miterlimit="10"/>
<path d="M14.4091 8.43884H21.3211" stroke="white" stroke-width="1.5" stroke-miterlimit="10"/>
</g>
<defs>
<clipPath id="clip0_8765_8653">
<rect width="22.0069" height="16" fill="white"/>
</clipPath>
</defs>
</svg>
