<svg width="20" height="16" viewBox="0 0 20 16" fill="none" xmlns="http://www.w3.org/2000/svg">
<g clip-path="url(#clip0_8775_8685)">
<path d="M3.28227 13.7966H2.51427C1.50856 13.7966 0.685699 12.9737 0.685699 11.968V4.97371C0.685699 3.968 1.50856 3.14514 2.51427 3.14514H13.0011C15.9908 3.14514 18.4137 5.568 18.4137 8.55771V12.8823C18.4137 13.3851 18.0023 13.7966 17.4994 13.7966H16.3383" stroke="white" stroke-width="1.5" stroke-miterlimit="10"/>
<path d="M13.312 13.7965H6.30856" stroke="white" stroke-width="1.5" stroke-miterlimit="10"/>
<path d="M3.51086 0.804565V3.14514" stroke="white" stroke-width="1.5" stroke-miterlimit="10"/>
<path d="M8.17371 5.42163V10.3131" stroke="white" stroke-width="1.5" stroke-miterlimit="10"/>
<path d="M12.9646 5.28455V10.176" stroke="white" stroke-width="1.5" stroke-miterlimit="10"/>
<path d="M8.17371 0.804565V3.14514" stroke="white" stroke-width="1.5" stroke-miterlimit="10"/>
<path d="M12.9646 0.749634V3.08106" stroke="white" stroke-width="1.5" stroke-miterlimit="10"/>
<path d="M15.5794 0.685669H0.246857" stroke="white" stroke-width="1.5" stroke-miterlimit="10"/>
<path d="M4.8 15.3142C5.63821 15.3142 6.31772 14.6347 6.31772 13.7965C6.31772 12.9583 5.63821 12.2788 4.8 12.2788C3.96179 12.2788 3.28229 12.9583 3.28229 13.7965C3.28229 14.6347 3.96179 15.3142 4.8 15.3142Z" stroke="white" stroke-width="1.5" stroke-miterlimit="10"/>
<path d="M14.8297 15.3142C15.6679 15.3142 16.3474 14.6347 16.3474 13.7965C16.3474 12.9583 15.6679 12.2788 14.8297 12.2788C13.9915 12.2788 13.312 12.9583 13.312 13.7965C13.312 14.6347 13.9915 15.3142 14.8297 15.3142Z" stroke="white" stroke-width="1.5" stroke-miterlimit="10"/>
<path d="M17.408 5.42163H3.96801C3.71201 5.42163 3.51086 5.62277 3.51086 5.87877V9.86506C3.51086 10.1211 3.71201 10.3222 3.96801 10.3222H18.4137C18.4137 10.3131 18.7794 7.17706 17.408 5.42163Z" stroke="white" stroke-width="1.5" stroke-miterlimit="10"/>
</g>
<defs>
<clipPath id="clip0_8775_8685">
<rect width="19.1451" height="16" fill="white"/>
</clipPath>
</defs>
</svg>
