<svg width="18" height="20" viewBox="0 0 18 20" fill="none" xmlns="http://www.w3.org/2000/svg">
<path d="M13 4C13.3956 4 13.7822 3.8827 14.1111 3.66294C14.44 3.44318 14.6964 3.13082 14.8478 2.76537C14.9991 2.39992 15.0387 1.99778 14.9616 1.60982C14.8844 1.22186 14.6939 0.865492 14.4142 0.585787C14.1345 0.306082 13.7781 0.115601 13.3902 0.0384303C13.0022 -0.0387401 12.6001 0.000866562 12.2346 0.152242C11.8692 0.303617 11.5568 0.559962 11.3371 0.88886C11.1173 1.21776 11 1.60444 11 2C11 2.53043 11.2107 3.03914 11.5858 3.41421C11.9609 3.78929 12.4696 4 13 4ZM9.7 15.4C9.29919 15.9248 8.77468 16.3422 8.17328 16.615C7.57188 16.8878 6.9123 17.0074 6.25342 16.9632C5.59454 16.919 4.95684 16.7124 4.39725 16.3618C3.83766 16.0111 3.37357 15.5274 3.04643 14.9538C2.71928 14.3802 2.53923 13.7345 2.52237 13.0743C2.50551 12.4142 2.65235 11.7601 2.94978 11.1705C3.24722 10.5809 3.686 10.0742 4.22696 9.69542C4.76792 9.31668 5.39423 9.07777 6.05 9C6.31522 8.97083 6.55798 8.83749 6.72489 8.62933C6.8918 8.42116 6.96917 8.15522 6.94 7.89C6.91083 7.62478 6.77749 7.38202 6.56933 7.21511C6.36116 7.04821 6.09522 6.97083 5.83 7C4.2387 7.08885 2.74787 7.8062 1.68548 8.99424C0.623086 10.1823 0.0761533 11.7437 0.165001 13.335C0.253848 14.9263 0.971198 16.4171 2.15924 17.4795C3.34728 18.5419 4.9087 19.0888 6.5 19C7.43147 19 8.35015 18.7831 9.18328 18.3666C10.0164 17.95 10.7411 17.3452 11.3 16.6C11.4591 16.3878 11.5275 16.1211 11.49 15.8586C11.4524 15.596 11.3122 15.3591 11.1 15.2C10.8878 15.0409 10.6211 14.9725 10.3586 15.0101C10.096 15.0476 9.85913 15.1878 9.7 15.4ZM16.5 17H15.5V12C15.5 11.7348 15.3946 11.4804 15.2071 11.2929C15.0196 11.1054 14.7652 11 14.5 11H9.93L11.62 6.34V6.03C11.6249 5.9701 11.6249 5.9099 11.62 5.85C11.6257 5.7868 11.6257 5.72321 11.62 5.66C11.5939 5.60134 11.5639 5.54454 11.53 5.49C11.5 5.43545 11.463 5.38503 11.42 5.34C11.3771 5.28913 11.3265 5.24527 11.27 5.21C11.27 5.21 11.27 5.15 11.19 5.13L6.71 2.55H6.59C6.52869 2.52408 6.46508 2.50399 6.4 2.49H6C5.93052 2.50436 5.86327 2.5279 5.8 2.56H5.69L3 4.13C2.80882 4.23831 2.65863 4.40657 2.57265 4.60877C2.48666 4.81098 2.46968 5.03588 2.52431 5.24871C2.57894 5.46154 2.70214 5.65045 2.87489 5.78625C3.04763 5.92204 3.26029 5.99717 3.48 6C3.66193 6.00479 3.84173 5.95985 4 5.87L6.23 4.57L9.47 6.45L7.58 11.66C7.57514 11.7132 7.57514 11.7668 7.58 11.82C7.57063 11.8796 7.57063 11.9404 7.58 12C7.59843 12.1283 7.62515 12.2552 7.66 12.38L7.77 12.53C7.79725 12.5892 7.83445 12.6434 7.88 12.69C7.92275 12.7257 7.96978 12.7559 8.02 12.78C8.07951 12.8258 8.14311 12.8659 8.21 12.9C8.319 12.9396 8.43405 12.9599 8.55 12.96H13.55V17.96C13.55 18.2252 13.6554 18.4796 13.8429 18.6671C14.0304 18.8546 14.2848 18.96 14.55 18.96H16.55C16.8152 18.96 17.0696 18.8546 17.2571 18.6671C17.4446 18.4796 17.55 18.2252 17.55 17.96C17.55 17.6948 17.4446 17.4404 17.2571 17.2529C17.0696 17.0654 16.8152 16.96 16.55 16.96L16.5 17Z" fill="white"/>
</svg>
