<svg width="24" height="17" viewBox="0 0 24 17" fill="none" xmlns="http://www.w3.org/2000/svg">
<path d="M12 16.8498C10.0318 16.8743 8.08404 16.4496 6.3048 15.6078C4.92563 14.9349 3.68718 14.0056 2.6556 12.8694C1.56292 11.6948 0.702561 10.3238 0.12 8.82903L0 8.44983L0.126 8.07063C0.708978 6.57715 1.56748 5.20655 2.6568 4.03023C3.68801 2.8942 4.92605 1.96486 6.3048 1.29183C8.08406 0.450134 10.0319 0.0253614 12 0.0498282C13.9681 0.0254037 15.9159 0.450175 17.6952 1.29183C19.0744 1.96471 20.3129 2.89406 21.3444 4.03023C22.4392 5.20329 23.2998 6.57467 23.88 8.07063L24 8.44983L23.874 8.82903C21.9915 13.7296 17.249 16.933 12 16.8498ZM12 2.44983C7.91504 2.32182 4.1657 4.69994 2.5404 8.44983C4.16544 12.1999 7.91495 14.5782 12 14.4498C16.0849 14.5775 19.834 12.1995 21.4596 8.44983C19.8364 4.69812 16.0857 2.31912 12 2.44983ZM12 12.0498C10.2688 12.0613 8.77124 10.8467 8.42516 9.15036C8.07908 7.45405 8.98112 5.74986 10.5785 5.08222C12.1758 4.41459 14.0223 4.96999 14.9863 6.40804C15.9502 7.84608 15.7624 9.76512 14.538 10.989C13.8676 11.6673 12.9537 12.0493 12 12.0498Z" fill="#FD7B38"/>
</svg>
