<svg width="24" height="25" viewBox="0 0 24 25" fill="none" xmlns="http://www.w3.org/2000/svg">
<path opacity="0.7" d="M21.3333 24.0488H2.66667C1.19391 24.0488 0 22.8549 0 21.3822V2.71549C0 1.24274 1.19391 0.0488281 2.66667 0.0488281H21.3333C22.8061 0.0488281 24 1.24274 24 2.71549V21.3822C24 22.8549 22.8061 24.0488 21.3333 24.0488ZM2.66667 2.71549V21.3822H21.3333V2.71549H2.66667ZM20 18.7155H4L8 13.3822L9.33333 14.7155L13.3333 9.38216L20 18.7155ZM7.33333 10.7155C6.22876 10.7155 5.33333 9.82006 5.33333 8.7155C5.33333 7.61093 6.22876 6.7155 7.33333 6.7155C8.4379 6.7155 9.33333 7.61093 9.33333 8.7155C9.33333 9.82006 8.4379 10.7155 7.33333 10.7155Z" fill="white"/>
</svg>
