<svg width="24" height="24" viewBox="0 0 24 24" fill="none" xmlns="http://www.w3.org/2000/svg">
<path d="M11.8903 9.60742C13.2486 9.60742 14.352 10.7118 14.352 12.0769C14.352 13.4421 13.2486 14.5465 11.8903 14.5465C10.5321 14.5465 9.42871 13.4421 9.42871 12.0769C9.42871 10.7118 10.5321 9.60742 11.8903 9.60742Z" stroke="#FD7B38"/>
<path fill-rule="evenodd" clip-rule="evenodd" d="M11.8902 8.29688C9.80538 8.29688 8.12207 9.9904 8.12207 12.0711C8.12207 14.1518 9.80538 15.8453 11.8902 15.8453C13.9751 15.8453 15.6584 14.1518 15.6584 12.0711C15.6584 9.9904 13.9751 8.29688 11.8902 8.29688Z" fill="#FD7B38"/>
<path fill-rule="evenodd" clip-rule="evenodd" d="M12.8402 0.466251C12.6645 0.155417 12.3534 0 12.0422 0C11.7311 0 11.4199 0.155417 11.2442 0.466251L8.71724 4.93753C8.37076 5.5506 8.81244 6.31057 9.51522 6.31057H14.5692C15.272 6.31057 15.7137 5.5506 15.3672 4.93753L12.8402 0.466251Z" fill="#FD7B38"/>
<path fill-rule="evenodd" clip-rule="evenodd" d="M11.2448 23.5337C11.4204 23.8446 11.7316 24 12.0428 24C12.3539 24 12.6651 23.8446 12.8407 23.5337L15.3677 19.0625C15.7142 18.4494 15.2725 17.6894 14.5697 17.6894H9.51576C8.81298 17.6894 8.3713 18.4494 8.71778 19.0625L11.2448 23.5337Z" fill="#FD7B38"/>
<path fill-rule="evenodd" clip-rule="evenodd" d="M0.465011 11.4249C0.155003 11.601 0 11.913 0 12.225C0 12.537 0.155003 12.8489 0.465011 13.0251L4.9244 15.5588C5.53584 15.9062 6.29379 15.4634 6.29379 14.7587V9.69124C6.29379 8.98659 5.53584 8.54374 4.9244 8.89114L0.465011 11.4249Z" fill="#FD7B38"/>
<path fill-rule="evenodd" clip-rule="evenodd" d="M23.4696 13.0278C23.6108 12.9476 23.7282 12.8312 23.8098 12.6907C23.8915 12.5501 23.9346 12.3904 23.9346 12.2277C23.9346 12.065 23.8915 11.9052 23.8098 11.7647C23.7282 11.6241 23.6108 11.5078 23.4696 11.4276L19.0075 8.89492C18.8679 8.81564 18.7101 8.77444 18.5497 8.77541C18.3894 8.77638 18.2321 8.81949 18.0935 8.90045C17.9549 8.98141 17.84 9.09738 17.7601 9.2368C17.6801 9.37621 17.6381 9.5342 17.6381 9.695V14.7659C17.6381 14.9267 17.6801 15.0847 17.7601 15.2241C17.84 15.3635 17.9549 15.4795 18.0935 15.5604C18.2321 15.6414 18.3894 15.6845 18.5497 15.6855C18.7101 15.6864 18.8679 15.6452 19.0075 15.566L23.4696 13.0278Z" fill="#FD7B38"/>
<path d="M22.0872 12.2301L19.0166 10.4855V13.9748L22.0872 12.2301ZM23.9346 12.2301C23.9346 12.5421 23.7796 12.8541 23.4696 13.0302L19.0102 15.5639C18.3987 15.9113 17.6408 15.4685 17.6408 14.7638V9.69638C17.6408 8.99172 18.3987 8.54887 19.0102 8.89627L23.4696 11.43C23.7796 11.6061 23.9346 11.9181 23.9346 12.2301Z" fill="#FD7B38"/>
<path fill-rule="evenodd" clip-rule="evenodd" d="M19.0166 10.4855V13.9748L22.0872 12.2301L19.0166 10.4855ZM23.4696 13.0302C23.7796 12.8541 23.9346 12.5421 23.9346 12.2301C23.9346 11.9181 23.7796 11.6061 23.4696 11.43L19.0102 8.89627C18.3987 8.54887 17.6408 8.99172 17.6408 9.69638V14.7638C17.6408 15.4685 18.3987 15.9113 19.0102 15.5639L23.4696 13.0302Z" fill="#FD7B38"/>
</svg>
