<svg width="24" height="24" viewBox="0 0 24 24" fill="none" xmlns="http://www.w3.org/2000/svg">
<g opacity="0.7">
<path d="M11.8899 9.60742C13.2481 9.60742 14.3515 10.7118 14.3515 12.0769C14.3515 13.4421 13.2481 14.5465 11.8899 14.5465C10.5316 14.5465 9.42822 13.4421 9.42822 12.0769C9.42822 10.7118 10.5316 9.60742 11.8899 9.60742Z" stroke="white"/>
<path fill-rule="evenodd" clip-rule="evenodd" d="M11.8899 8.29688C9.80501 8.29688 8.1217 9.9904 8.1217 12.0711C8.1217 14.1518 9.80501 15.8453 11.8899 15.8453C13.9747 15.8453 15.658 14.1518 15.658 12.0711C15.658 9.9904 13.9747 8.29688 11.8899 8.29688Z" fill="white"/>
<path fill-rule="evenodd" clip-rule="evenodd" d="M12.8404 0.466251C12.6647 0.155417 12.3535 0 12.0424 0C11.7312 0 11.4201 0.155417 11.2444 0.466251L8.71742 4.93753C8.37094 5.5506 8.81262 6.31057 9.5154 6.31057H14.5694C15.2722 6.31057 15.7138 5.5506 15.3674 4.93753L12.8404 0.466251Z" fill="white"/>
<path fill-rule="evenodd" clip-rule="evenodd" d="M11.2448 23.5337C11.4205 23.8446 11.7317 24 12.0428 24C12.354 24 12.6651 23.8446 12.8408 23.5337L15.3678 19.0625C15.7143 18.4494 15.2726 17.6894 14.5698 17.6894H9.51582C8.81304 17.6894 8.37136 18.4494 8.71784 19.0625L11.2448 23.5337Z" fill="white"/>
<path fill-rule="evenodd" clip-rule="evenodd" d="M0.465011 11.4249C0.155003 11.601 0 11.913 0 12.225C0 12.537 0.155003 12.8489 0.465011 13.0251L4.9244 15.5588C5.53584 15.9062 6.29379 15.4634 6.29379 14.7587V9.69124C6.29379 8.98659 5.53584 8.54374 4.9244 8.89114L0.465011 11.4249Z" fill="white"/>
<path fill-rule="evenodd" clip-rule="evenodd" d="M23.4695 13.0278C23.6107 12.9476 23.7281 12.8312 23.8098 12.6907C23.8915 12.5501 23.9345 12.3904 23.9345 12.2277C23.9345 12.065 23.8915 11.9052 23.8098 11.7647C23.7281 11.6241 23.6107 11.5078 23.4695 11.4276L19.0074 8.89492C18.8679 8.81564 18.71 8.77444 18.5497 8.77541C18.3893 8.77638 18.232 8.81949 18.0934 8.90045C17.9549 8.98141 17.8399 9.09738 17.76 9.2368C17.6801 9.37621 17.638 9.5342 17.638 9.695V14.7659C17.638 14.9267 17.6801 15.0847 17.76 15.2241C17.8399 15.3635 17.9549 15.4795 18.0934 15.5604C18.232 15.6414 18.3893 15.6845 18.5497 15.6855C18.71 15.6864 18.8679 15.6452 19.0074 15.566L23.4695 13.0278Z" fill="white"/>
<path d="M22.0868 12.2301L19.0162 10.4855V13.9748L22.0868 12.2301ZM23.9342 12.2301C23.9342 12.5421 23.7792 12.8541 23.4692 13.0302L19.0098 15.5639C18.3984 15.9113 17.6404 15.4685 17.6404 14.7638V9.69638C17.6404 8.99172 18.3984 8.54887 19.0098 8.89627L23.4692 11.43C23.7792 11.6061 23.9342 11.9181 23.9342 12.2301Z" fill="white"/>
<path fill-rule="evenodd" clip-rule="evenodd" d="M19.0162 10.4855V13.9748L22.0868 12.2301L19.0162 10.4855ZM23.4692 13.0302C23.7792 12.8541 23.9342 12.5421 23.9342 12.2301C23.9342 11.9181 23.7792 11.6061 23.4692 11.43L19.0098 8.89627C18.3984 8.54887 17.6404 8.99172 17.6404 9.69638V14.7638C17.6404 15.4685 18.3984 15.9113 19.0098 15.5639L23.4692 13.0302Z" fill="white"/>
</g>
</svg>
