<svg width="24" height="25" viewBox="0 0 24 25" fill="none" xmlns="http://www.w3.org/2000/svg">
<path d="M14.2512 24.0488H9.74924C9.16808 24.0488 8.66524 23.6564 8.54087 23.1056L8.03749 20.8448C7.36596 20.5594 6.72922 20.2024 6.13898 19.7804L3.86696 20.4824C3.31287 20.6539 2.71052 20.4276 2.41989 19.9388L0.163946 16.1576C-0.123504 15.6686 -0.0244719 15.0518 0.40265 14.6708L2.16511 13.1108C2.08496 12.4042 2.08496 11.6911 2.16511 10.9844L0.40265 9.42803C-0.025101 9.04687 -0.124173 8.42929 0.163946 7.94003L2.41494 4.15643C2.70558 3.66767 3.30792 3.44139 3.86201 3.61283L6.13404 4.31483C6.43589 4.09782 6.75013 3.8975 7.07525 3.71483C7.38735 3.54406 7.70854 3.38944 8.03749 3.25163L8.54211 0.993228C8.66587 0.442391 9.16817 0.0494214 9.74924 0.0488281H14.2512C14.8323 0.0494214 15.3346 0.442391 15.4584 0.993228L15.9679 3.25283C16.3152 3.40105 16.6534 3.56852 16.9809 3.75443C17.2867 3.92576 17.5824 4.11366 17.8664 4.31723L20.1397 3.61523C20.6934 3.44443 21.295 3.67062 21.5855 4.15883L23.8365 7.94243C24.124 8.43141 24.0249 9.04824 23.5978 9.42923L21.8354 10.9892C21.9155 11.6959 21.9155 12.409 21.8354 13.1156L23.5978 14.6756C24.0249 15.0566 24.124 15.6734 23.8365 16.1624L21.5855 19.946C21.295 20.4342 20.6934 20.6604 20.1397 20.4896L17.8664 19.7876C17.5788 19.9932 17.2799 20.1835 16.971 20.3576C16.6467 20.5399 16.3123 20.7046 15.9692 20.8508L15.4584 23.1056C15.3341 23.656 14.8319 24.0484 14.2512 24.0488ZM11.9953 7.24883C9.263 7.24883 7.04804 9.39786 7.04804 12.0488C7.04804 14.6998 9.263 16.8488 11.9953 16.8488C14.7276 16.8488 16.9425 14.6998 16.9425 12.0488C16.9425 9.39786 14.7276 7.24883 11.9953 7.24883Z" fill="#FD7B38"/>
<circle cx="12" cy="12.0488" r="2" fill="#FD7B38"/>
</svg>
