<svg width="19" height="25" viewBox="0 0 19 25" fill="none" xmlns="http://www.w3.org/2000/svg">
<path opacity="0.7" d="M16.625 24.0488H2.375C1.06332 24.0488 0 22.9744 0 21.6489V2.44977C0 1.12434 1.06332 0.0498738 2.375 0.0498738H10.6875C10.6981 0.0484796 10.7089 0.0484796 10.7196 0.0498738H10.7267C10.7379 0.0534234 10.7494 0.0558352 10.7611 0.0570735C10.8658 0.0638571 10.9692 0.0844301 11.0687 0.118271H11.0865H11.1043H11.1186C11.1405 0.133781 11.1611 0.151035 11.1803 0.169869C11.3097 0.227974 11.4276 0.309284 11.5282 0.409858L18.6532 7.60954C18.7528 7.71128 18.8332 7.8304 18.8908 7.96113C18.9014 7.98753 18.9097 8.01273 18.9181 8.04033L18.9299 8.07392C18.9631 8.17399 18.9827 8.27813 18.9881 8.38351C18.9892 8.39547 18.992 8.4072 18.9964 8.41831V8.42551C18.9984 8.43337 18.9996 8.44141 19 8.44951V21.6489C19 22.2854 18.7498 22.8958 18.3044 23.3459C17.859 23.796 17.2549 24.0488 16.625 24.0488ZM5.9375 16.8491L2.375 21.6489H16.625L10.6875 13.2493L7.125 18.0491L5.9375 16.8491ZM5.34375 10.8494C4.37235 10.8507 3.58112 11.6383 3.56515 12.6197C3.54918 13.6012 4.31436 14.4146 5.2852 14.4482C6.25603 14.4818 7.07449 13.7232 7.125 12.7429V13.0909V12.6493C7.125 11.6553 6.32751 10.8494 5.34375 10.8494ZM10.6875 2.44977V8.44951H16.625L10.6875 2.44977Z" fill="white"/>
</svg>
