<svg width="24" height="19" viewBox="0 0 24 19" fill="none" xmlns="http://www.w3.org/2000/svg">
<g opacity="0.7">
<path d="M23.1972 2.98013C22.6944 2.66338 22.0764 2.63536 21.5496 2.90338L19.7712 3.80124C19.1136 4.13261 18.7056 4.80266 18.7056 5.54825V12.5484C18.7056 13.294 19.1136 13.9629 19.7712 14.2967L21.5484 15.1933C21.7896 15.3176 22.0476 15.3773 22.3056 15.3773C22.6152 15.3773 22.9224 15.2896 23.1972 15.1178C23.7 14.8023 24 14.2552 24 13.6559V4.44327C24 3.84388 23.7 3.29688 23.1972 2.98013Z" fill="white"/>
<path d="M11.8861 18.0488H4.93565C2.02922 18.0488 0 16.0448 0 13.1757V4.92192C0 2.05167 2.02922 0.0488281 4.93565 0.0488281H11.8861C14.7925 0.0488281 16.8218 2.05167 16.8218 4.92192V13.1757C16.8218 16.0448 14.7925 18.0488 11.8861 18.0488Z" fill="white"/>
</g>
</svg>
