<svg width="284" height="189" viewBox="0 0 284 189" fill="none" xmlns="http://www.w3.org/2000/svg">
<path d="M273.075 135.875C274.751 133.047 276.009 130.061 276.847 126.971L283.553 125.714L283.606 118.328L283.658 110.942L277.004 109.528C276.218 106.438 275.013 103.399 273.389 100.571L277.214 94.9661L272.027 89.6757L266.84 84.3852L261.129 88.1043C258.3 86.4281 255.313 85.171 252.222 84.3329L250.965 77.6281L243.577 77.5758L236.19 77.5234L234.775 84.1757C231.684 84.9614 228.645 86.1662 225.816 87.79L220.21 83.9662L214.918 89.1519L209.626 94.3376L213.346 100.047C211.67 102.876 210.412 105.861 209.574 108.952L202.867 110.209L202.815 117.595L202.763 124.98L209.417 126.395C210.203 129.485 211.408 132.523 213.032 135.352L209.207 140.956L214.394 146.247L219.581 151.537L225.292 147.818C228.121 149.494 231.107 150.752 234.199 151.59L235.456 158.294L242.844 158.347L250.231 158.399L251.646 151.747C254.737 150.961 257.776 149.756 260.605 148.133L266.211 151.956L271.503 146.771L276.794 141.585L273.075 135.875ZM230.269 130.637C223.248 123.514 223.353 112.042 230.531 105.023C237.657 98.0042 249.131 98.109 256.151 105.285C263.172 112.409 263.067 123.88 255.89 130.899C248.764 137.866 237.29 137.761 230.269 130.637Z" fill="url(#paint0_linear_1586_2026)"/>
<path d="M97.5038 76.2139C98.5517 74.0139 99.2328 71.6567 99.652 69.2996L104.525 67.8329L104.001 62.333L103.477 56.833L98.4469 56.3092C97.661 54.0568 96.5084 51.9092 95.0937 49.9188L97.5038 45.4664L93.26 41.9569L89.0161 38.4474L85.0866 41.6426C82.8861 40.595 80.5284 39.914 78.1707 39.495L76.7037 34.6236L71.2024 35.1474L65.7011 35.6712L65.1772 40.6998C62.9242 41.4855 60.7761 42.6378 58.7852 44.0521L54.3317 41.6426L50.8214 45.8854L47.311 50.1283L50.507 54.0568C49.4592 56.2568 48.7781 58.6139 48.3589 60.9711L43.4863 62.4377L44.0103 67.9377L44.5342 73.4377L49.564 73.9615C50.3499 76.2139 51.5025 78.3615 52.9171 80.3519L50.507 84.8043L54.7509 88.3138L58.9947 91.8233L62.9242 88.6281C65.1248 89.6757 67.4825 90.3566 69.8402 90.7757L71.3072 95.6471L76.8085 95.1233L82.3098 94.5995L82.8337 89.5709C85.0866 88.7852 87.2347 87.6328 89.2257 86.2186L93.6791 88.6281L97.1895 84.3852L100.7 80.1424L97.5038 76.2139ZM65.3343 75.5853C59.5711 70.8186 58.7852 62.2806 63.553 56.5187C68.3208 50.7568 76.8609 49.9711 82.6241 54.7378C88.3874 59.5044 89.1733 68.0425 84.4055 73.8043C79.5853 79.5662 71.0452 80.3519 65.3343 75.5853Z" fill="url(#paint1_linear_1586_2026)"/>
<path d="M260.604 187.313H260.132V154.366C260.132 147.033 254.159 141.061 246.824 141.061H212.926C205.329 141.061 199.146 134.88 199.146 127.285V65.7901C199.146 58.4568 193.173 52.4854 185.838 52.4854H99.4941V52.014H185.891C193.488 52.014 199.67 58.1949 199.67 65.7901V127.337C199.67 134.671 205.643 140.642 212.978 140.642H246.877C254.474 140.642 260.656 146.823 260.656 154.418V187.313H260.604Z" fill="url(#paint2_linear_1586_2026)"/>
<path d="M121.657 31.2189C121.657 31.2189 126.896 52.014 114.322 57.7235C101.747 63.433 104.157 53.0092 104.157 53.0092C104.157 53.0092 99.0229 51.595 113.012 43.6331C119.666 39.8617 121.657 31.2189 121.657 31.2189Z" fill="#BBD070"/>
<path d="M154.559 32.9997C154.559 32.9997 157.127 51.1234 133.392 58.9805C109.606 66.8376 106.253 76.7899 106.253 76.7899C106.253 76.7899 105.467 36.614 154.559 32.9997Z" fill="#97A43C"/>
<path d="M106.094 69.4043C99.0736 66.7329 115.787 52.2759 128.676 52.6949C141.565 53.0616 150.262 57.8282 158.907 55.8377C158.854 55.8377 140.779 82.6567 106.094 69.4043Z" fill="#48753A"/>
<path d="M129.779 81.4519C130.199 76.0043 130.461 70.871 130.618 66.1044C129.308 65.4234 127.684 64.5853 126.426 64.0092C122.497 62.1235 116.995 59.6092 113.485 57.9854C111.442 57.0425 109.398 56.3616 109.398 56.3616C109.398 56.3616 95.357 54.9997 94.2043 55.1044C93.8376 55.1044 92.1086 55.733 89.8033 56.6235C84.8259 58.5092 75.238 62.3854 73.6662 63.4853C71.4132 65.1092 63.3971 104.447 63.1875 107.118C62.9779 109.737 74.0853 113.247 84.4068 115.971C84.4068 119.952 84.302 125.556 84.2496 130.637C84.2496 131.528 84.1972 132.366 84.1972 133.204H129.255C129.203 132.314 129.151 131.475 129.098 130.637C129.098 130.533 129.098 130.428 129.098 130.323C128.941 126.866 128.26 120.685 128.417 114.661C128.417 114.661 128.312 108.323 128.941 105.599C129.046 93.4471 129.779 81.4519 129.779 81.4519ZM72.6183 104.604C72.6707 99.4709 79.5342 89.9376 79.5342 89.9376C79.5342 89.9376 79.8486 89.7804 79.8486 89.8328L80.2153 89.7804L81.2632 88.7852C81.5252 89.6757 83.7781 102.561 84.302 110.052C77.91 108.795 72.5659 107.014 72.6183 104.604Z" fill="#DBD8E3"/>
<path d="M130.616 130.585C130.302 128.437 130.04 126.342 129.778 124.247C129.778 124.247 129.778 124.247 129.778 124.195C129.673 123.514 129.621 122.833 129.516 122.152C129.516 122.099 129.516 122.099 129.516 122.047C129.202 119.166 128.887 116.39 128.73 113.876C128.573 111.938 128.73 110.052 128.992 108.219C129.778 95.2805 130.145 81.7139 130.145 81.7139C130.564 76.1616 130.773 70.9235 130.93 66.0521C130.93 66.0521 113.274 57.7236 111.702 57.2521C111.702 57.2521 115.055 65.1092 117.57 82.6568C118.513 89.4139 120.347 100.78 121.604 112.357C122.286 118.59 123.648 124.98 124.643 130.637C124.8 131.528 124.958 132.366 125.062 133.204H130.983C130.826 132.261 130.721 131.423 130.616 130.585Z" fill="#323657"/>
<path d="M101.223 109.842C101.904 103.295 102.533 96.7995 102.218 93.2376C99.8083 64.533 92.8923 56.9378 91.8969 55.8378C91.111 56.1521 88.1769 57.252 87.3386 57.5663C82.6232 59.3997 73.0353 62.8044 71.7254 63.7473C69.4725 65.3711 60.618 106.595 60.3561 109.266C60.1989 111.047 71.7254 114.818 83.5139 118.223C83.4091 121.471 83.7235 126.028 82.6232 130.742C82.4137 131.58 82.1517 132.104 82.0993 133.256L98.4984 133.204C98.6032 132.366 98.708 131.528 98.8128 130.637C99.1271 128.071 99.4415 125.452 99.7559 122.676C104.681 123.933 108.034 124.771 108.034 124.771C108.034 124.771 112.645 116.966 114.007 113.771C114.321 113.142 108.348 111.728 101.223 109.842ZM80.0036 99.9423C79.8464 94.0757 79.8988 89.99 79.8988 89.99C80.4751 91.9804 81.261 97.7423 81.9945 103.452C79.5844 102.247 80.0036 101.147 80.0036 99.9423Z" fill="#323657"/>
<path d="M93.5215 55.5235C93.5215 55.5235 95.3029 52.1711 94.8313 42.5855C94.6741 39.9141 108.768 48.8711 108.768 48.8711C108.768 48.8711 108.716 49.7616 108.663 51.0188C108.663 51.5426 108.663 52.1187 108.663 52.6949C108.663 52.8521 108.663 53.0092 108.663 53.1664C108.663 53.4283 108.663 53.6902 108.663 53.9521C108.663 54.2664 108.663 54.5806 108.716 54.8949C108.716 55.2616 108.768 55.5759 108.768 55.8902C108.82 56.4663 109.187 57.514 109.292 57.7759C109.921 59.1901 98.7608 59.2949 93.5215 55.5235Z" fill="#EEA987"/>
<path d="M105.31 61.5996L107.929 65.1091C107.929 65.1091 106.41 67.152 103.686 65.6329L105.31 61.5996Z" fill="#E8734D"/>
<path d="M107.197 65.2663C107.197 65.2663 116.733 88.4709 114.689 118.014L111.703 123.461L108.297 118.799C108.297 118.799 107.773 79.6186 105.049 65.1615L107.197 65.2663Z" fill="#E8734D"/>
<path d="M108.087 58.352L105.31 61.5996C105.31 61.5996 100.857 60.7616 99.5467 58.4044C98.2369 56.0997 108.087 58.352 108.087 58.352Z" fill="#EEA987"/>
<path d="M108.715 55.5235C108.715 55.5235 108.401 57.9854 105.31 61.5997L108.663 66.1568L110.497 56.7283L108.715 55.5235Z" fill="#C4C1CC"/>
<path d="M94.3596 52.5378C94.3596 52.5378 100.804 59.8187 105.31 61.5996L103.214 66.7853L92.8926 55.4711L94.3596 52.5378Z" fill="#C4C1CC"/>
<path d="M160.69 118.537C160.69 118.537 152.15 110.209 146.491 108.847C143.872 108.219 140.466 104.604 137.218 100.414C136.17 99.0519 135.122 97.5852 134.074 96.1186C130.092 90.3567 126.949 84.8567 126.949 84.8567C126.949 84.8567 115.16 71.0282 124.643 64.8997C124.643 64.8997 128.678 64.7949 130.931 65.9997C133.236 67.2568 138.108 77.4187 138.894 79.1996C139.733 80.9806 148.692 97.7424 149.268 98.109C149.844 98.4757 150.892 99.8376 154.455 101.776C158.856 104.133 165.72 111.047 165.72 111.047L160.69 118.537Z" fill="#323657"/>
<path d="M119.563 128.175C119.563 128.175 118.358 128.123 117.834 127.861C117.834 127.861 116.943 127.285 116.262 126.918C116.052 126.814 115.843 126.709 115.738 126.656C115.214 126.447 114.009 126.133 112.856 125.295C111.756 124.456 108.036 120.999 108.036 120.999L110.394 117.333L111.494 113.718C111.494 113.718 120.034 114.556 121.187 115.237C121.292 115.29 121.396 115.395 121.501 115.447C122.392 116.128 122.811 117.018 123.23 117.385C123.387 117.542 124.907 119.114 124.802 119.795C124.697 120.685 124.226 121.261 123.702 121.523C123.702 121.523 123.387 123.252 122.497 124.037C122.497 124.037 122.287 125.661 120.872 126.29C120.977 126.342 120.558 127.966 119.563 128.175Z" fill="#EFAA88"/>
<path d="M105.939 17.8094C105.939 17.8094 121.395 14.0904 118.147 33.6807C114.898 53.2711 111.178 54.8425 101.747 50.9664C92.3167 47.0378 92.9978 34.5188 92.4214 28.3903C91.8451 22.2617 101.014 18.1237 105.939 17.8094Z" fill="#EEA886"/>
<path d="M97.8172 31.3761C97.6076 29.6475 94.1496 29.0713 93.9401 31.638C93.6781 34.2046 95.6166 38.7094 96.8741 38.2903C98.1315 37.8189 98.1315 33.7332 97.8172 31.3761Z" fill="#EEA886"/>
<path d="M93.3127 38.395C93.3127 38.395 93.6271 32.2141 95.88 32.0046C98.1329 31.795 98.4997 34.2569 98.4997 34.2569L100.753 34.676C100.753 34.676 99.9667 29.2808 102.167 28.3379C104.42 27.3427 116.733 31.1141 118.514 29.4903C120.295 27.8665 119.3 16.9713 115.999 15.5046C112.698 14.038 103.687 10.8428 97.1375 15.3999C97.1375 15.3999 92.0029 14.8761 91.2694 19.0665C90.6931 23.1522 91.8981 35.3569 93.3127 38.395Z" fill="#16202E"/>
<path d="M114.479 113.718L108.087 124.718C108.087 124.718 91.1639 120.371 87.2344 119.271L96.246 108.533C96.246 108.48 109.554 111.518 114.479 113.718Z" fill="#323657"/>
<path d="M108.664 54.8425C100.386 54.0045 97.1377 47.614 97.1377 47.614C102.377 52.7997 108.612 52.6426 108.612 52.6426C108.612 52.7997 108.612 52.9568 108.612 53.114C108.612 53.3759 108.612 53.6378 108.612 53.8997C108.664 54.2664 108.664 54.5806 108.664 54.8425Z" fill="#A77860"/>
<path d="M223.3 152.166C222.829 151.59 222.148 151.171 221.309 151.171C220.209 151.171 219.214 151.852 218.899 152.899C218.795 153.161 218.795 153.423 218.742 153.685C218.742 153.999 218.795 154.313 218.899 154.575C219.057 155.047 219.371 155.413 219.738 155.728C220.104 155.99 220.576 156.199 221.047 156.252C221.1 156.252 221.205 156.252 221.257 156.252C221.309 156.252 221.362 156.252 221.362 156.252H221.414C221.676 156.252 221.886 156.199 222.148 156.094C223.091 155.728 223.772 154.837 223.824 153.737C223.772 153.161 223.615 152.637 223.3 152.166ZM221.886 155.466C221.729 155.518 221.519 155.571 221.362 155.571C221.309 155.571 221.257 155.571 221.257 155.571C221.1 155.571 220.89 155.518 220.733 155.466C220.524 155.413 220.314 155.309 220.104 155.152C220.052 155.099 220 155.047 219.895 154.994C219.528 154.628 219.319 154.156 219.371 153.633C219.371 153.475 219.371 153.371 219.423 153.213C219.423 153.161 219.476 153.109 219.476 153.004C219.738 152.271 220.471 151.694 221.309 151.694C221.938 151.694 222.462 152.009 222.776 152.428C223.038 152.742 223.196 153.161 223.143 153.58C223.143 154.523 222.619 155.204 221.886 155.466Z" fill="#4DA8F2"/>
<path d="M126.478 104.657C136.118 114.557 148.797 127.023 148.797 127.023L153.774 117.595C153.774 117.595 142.51 104.342 134.86 95.5424C132.503 96.6947 128.207 99.4709 126.478 104.657Z" fill="#EEA886"/>
<path d="M120.558 118.014C120.558 118.014 123.126 119.271 123.807 119.847C124.488 120.423 127.212 122.466 127.893 122.937C128.574 123.409 126.898 124.771 121.973 122.675C117.1 120.476 120.558 118.014 120.558 118.014Z" fill="#EEA886"/>
<path d="M120.767 89.6757L116.261 131.633H175.675L180.181 89.6757H120.767Z" fill="url(#paint3_linear_1586_2026)"/>
<path d="M179.081 129.695H119.195L123.754 87.2662H183.639L179.081 129.695ZM119.719 129.223H178.662L183.115 87.7377H124.173L119.719 129.223Z" fill="url(#paint4_linear_1586_2026)"/>
<path d="M111.57 131.584H121.473V127.812H111.57V131.584Z" fill="#FFC955"/>
<path d="M177.507 131.528H16.083V134.095H177.507V131.528Z" fill="#FFC955"/>
<path d="M18.5455 131.528H16.083V134.095H18.5455V131.528Z" fill="#FFC955"/>
<path d="M21.0601 131.528H18.5977V134.095H21.0601V131.528Z" fill="#FFC955"/>
<path d="M23.5221 131.528H21.0596V134.095H23.5221V131.528Z" fill="#FFC955"/>
<path d="M26.0377 131.528H23.5752V134.095H26.0377V131.528Z" fill="#FFC955"/>
<path d="M28.5006 131.528H26.0381V134.095H28.5006V131.528Z" fill="#FFC955"/>
<path d="M30.9635 131.528H28.501V134.095H30.9635V131.528Z" fill="#FFC955"/>
<path d="M33.4771 131.528H31.0146V134.095H33.4771V131.528Z" fill="#FFC955"/>
<path d="M35.94 131.528H33.4775V134.095H35.94V131.528Z" fill="#FFC955"/>
<path d="M38.4547 131.528H35.9922V134.095H38.4547V131.528Z" fill="#FFC955"/>
<path d="M40.9176 131.528H38.4551V134.095H40.9176V131.528Z" fill="#FFC955"/>
<path d="M43.3795 131.528H40.917V134.095H43.3795V131.528Z" fill="#FFC955"/>
<path d="M45.8951 131.528H43.4326V134.095H45.8951V131.528Z" fill="#FFC955"/>
<path d="M48.358 131.528H45.8955V134.095H48.358V131.528Z" fill="#FFC955"/>
<path d="M50.8726 131.528H48.4102V134.095H50.8726V131.528Z" fill="#FFC955"/>
<path d="M53.3346 131.528H50.8721V134.095H53.3346V131.528Z" fill="#FFC955"/>
<path d="M55.7974 131.528H53.335V134.095H55.7974V131.528Z" fill="#FFC955"/>
<path d="M58.3121 131.528H55.8496V134.095H58.3121V131.528Z" fill="#FFC955"/>
<path d="M60.774 131.528H58.3115V134.095H60.774V131.528Z" fill="#FFC955"/>
<path d="M63.2896 131.528H60.8271V134.095H63.2896V131.528Z" fill="#FFC955"/>
<path d="M65.7525 131.528H63.29V134.095H65.7525V131.528Z" fill="#FFC955"/>
<path d="M68.2154 131.528H65.7529V134.095H68.2154V131.528Z" fill="#FFC955"/>
<path d="M70.7291 131.528H68.2666V134.095H70.7291V131.528Z" fill="#FFC955"/>
<path d="M73.192 131.528H70.7295V134.095H73.192V131.528Z" fill="#FFC955"/>
<path d="M75.7076 131.528H73.2451V134.095H75.7076V131.528Z" fill="#FFC955"/>
<path d="M78.1685 131.528H75.7061V134.095H78.1685V131.528Z" fill="#FFC955"/>
<path d="M80.6314 131.528H78.1689V134.095H80.6314V131.528Z" fill="#FFC955"/>
<path d="M83.1471 131.528H80.6846V134.095H83.1471V131.528Z" fill="#FFC955"/>
<path d="M85.6099 131.528H83.1475V134.095H85.6099V131.528Z" fill="#FFC955"/>
<path d="M88.1236 131.528H85.6611V134.095H88.1236V131.528Z" fill="#FFC955"/>
<path d="M90.5865 131.528H88.124V134.095H90.5865V131.528Z" fill="#FFC955"/>
<path d="M93.0494 131.528H90.5869V134.095H93.0494V131.528Z" fill="#FFC955"/>
<path d="M95.5631 131.528H93.1006V134.095H95.5631V131.528Z" fill="#FFC955"/>
<path d="M98.026 131.528H95.5635V134.095H98.026V131.528Z" fill="#FFC955"/>
<path d="M100.542 131.528H98.0791V134.095H100.542V131.528Z" fill="#FFC955"/>
<path d="M103.004 131.528H100.542V134.095H103.004V131.528Z" fill="#FFC955"/>
<path d="M105.518 131.528H103.056V134.095H105.518V131.528Z" fill="#FFC955"/>
<path d="M107.981 131.528H105.519V134.095H107.981V131.528Z" fill="#FFC955"/>
<path d="M110.444 131.528H107.981V134.095H110.444V131.528Z" fill="#FFC955"/>
<path d="M112.958 131.528H110.495V134.095H112.958V131.528Z" fill="#FFC955"/>
<path d="M115.42 131.528H112.958V134.095H115.42V131.528Z" fill="#FFC955"/>
<path d="M117.936 131.528H115.474V134.095H117.936V131.528Z" fill="#FFC955"/>
<path d="M120.399 131.528H117.937V134.095H120.399V131.528Z" fill="#FFC955"/>
<path d="M122.86 131.528H120.397V134.095H122.86V131.528Z" fill="#FFC955"/>
<path d="M125.376 131.528H122.913V134.095H125.376V131.528Z" fill="#FFC955"/>
<path d="M127.838 131.528H125.376V134.095H127.838V131.528Z" fill="#FFC955"/>
<path d="M130.352 131.528H127.89V134.095H130.352V131.528Z" fill="#FFC955"/>
<path d="M132.815 131.528H130.353V134.095H132.815V131.528Z" fill="#FFC955"/>
<path d="M135.278 131.528H132.815V134.095H135.278V131.528Z" fill="#FFC955"/>
<path d="M137.792 131.528H135.329V134.095H137.792V131.528Z" fill="#FFC955"/>
<path d="M140.255 131.528H137.793V134.095H140.255V131.528Z" fill="#FFC955"/>
<path d="M142.77 131.528H140.308V134.095H142.77V131.528Z" fill="#FFC955"/>
<path d="M145.233 131.528H142.771V134.095H145.233V131.528Z" fill="#FFC955"/>
<path d="M147.695 131.528H145.232V134.095H147.695V131.528Z" fill="#FFC955"/>
<path d="M150.21 131.528H147.747V134.095H150.21V131.528Z" fill="#FFC955"/>
<path d="M152.672 131.528H150.21V134.095H152.672V131.528Z" fill="#FFC955"/>
<path d="M155.188 131.528H152.726V134.095H155.188V131.528Z" fill="#FFC955"/>
<path d="M157.65 131.528H155.188V134.095H157.65V131.528Z" fill="#FFC955"/>
<path d="M160.113 131.528H157.65V134.095H160.113V131.528Z" fill="#FFC955"/>
<path d="M162.628 131.528H160.165V134.095H162.628V131.528Z" fill="#FFC955"/>
<path d="M165.089 131.528H162.627V134.095H165.089V131.528Z" fill="#FFC955"/>
<path d="M167.604 131.528H165.142V134.095H167.604V131.528Z" fill="#FFC955"/>
<path d="M170.067 131.528H167.604V134.095H170.067V131.528Z" fill="#FFC955"/>
<path d="M172.529 131.528H170.066V134.095H172.529V131.528Z" fill="#FFC955"/>
<path d="M175.045 131.528H172.582V134.095H175.045V131.528Z" fill="#FFC955"/>
<path d="M177.506 131.528H175.044V134.095H177.506V131.528Z" fill="#FFC955"/>
<path d="M276.217 186.056H136.327V188.623H276.217V186.056Z" fill="#FFC955"/>
<path d="M144.92 109.947C144.448 112.304 145.549 114.452 147.33 114.871C149.164 115.237 150.997 113.666 151.469 111.309C151.941 108.952 150.84 106.752 149.059 106.385C147.278 106.018 145.391 107.642 144.92 109.947Z" fill="#FFD255"/>
<path d="M258.246 93.3424C258.246 93.3424 259.608 95.6471 260.184 96.0662C260.97 96.59 260.499 97.1138 260.079 97.1138C259.713 97.1138 257.827 97.2709 257.407 96.7995C256.988 96.3281 256.779 94.9138 256.412 94.5471C256.045 94.1805 255.626 92.7138 256.621 92.3471C257.46 91.9281 258.246 93.3424 258.246 93.3424Z" fill="#6069A8"/>
<path d="M257.618 92.2948C257.618 92.2948 259.19 95.0185 259.452 95.4376C259.714 95.8566 258.928 95.8566 258.456 95.6471C257.985 95.4376 256.779 93.4995 256.57 93.1328C256.36 92.7138 256.518 92.2424 256.518 92.2424L257.618 92.2948Z" fill="#202338"/>
<path d="M256.046 93.7614L256.413 96.59H256.57L256.517 94.5471L256.046 93.7614Z" fill="#6069A8"/>
<path d="M244.624 93.3424C244.624 93.3424 245.986 95.6471 246.562 96.0662C247.348 96.59 246.877 97.1138 246.457 97.1138C246.091 97.1138 244.204 97.2709 243.785 96.7995C243.366 96.3281 243.157 94.9138 242.79 94.5472C242.423 94.1805 242.004 92.6614 242.999 92.3472C243.838 91.9805 244.624 93.3424 244.624 93.3424Z" fill="#6069A8"/>
<path d="M244.101 92.2947C244.101 92.2947 245.568 95.0185 245.882 95.3852C246.144 95.8042 245.358 95.8042 244.887 95.5947C244.415 95.3852 243.21 93.4471 243.001 93.0804C242.791 92.6614 242.948 92.1899 242.948 92.1899L244.101 92.2947Z" fill="#202338"/>
<path d="M242.477 93.7614L242.791 96.5899H243L242.948 94.5471L242.477 93.7614Z" fill="#6069A8"/>
<path d="M238.546 72.1805L250.963 77.8376C250.963 77.8376 252.325 78.309 252.483 79.8281C252.954 84.6471 256.569 92.2423 256.569 92.2423C257.722 92.8185 257.617 92.2947 257.617 92.2947C256.884 89.9899 255.993 80.3519 255.679 76.5281C255.626 75.69 255.574 75.1662 255.574 74.9567C255.574 74.8519 255.417 74.6948 255.207 74.4853C253.53 73.1234 246.51 70.2424 246.51 70.2424C241.27 70.1377 238.546 72.1805 238.546 72.1805Z" fill="#202338"/>
<path d="M236.241 74.6424C236.608 77.9947 241.428 77.6281 241.428 77.6281H247.244C247.244 77.6281 245.724 81.0328 245.148 83.8614C244.519 86.8994 243.052 92.2423 243.052 92.2423C243.052 92.2423 243.157 92.3994 244.205 92.347C244.205 92.347 248.763 83.2852 250.492 80.9804C250.859 80.509 251.959 77.8376 252.116 76.2138C252.169 75.69 252.116 75.2709 251.959 75.1138C251.749 74.9566 251.278 74.6424 250.702 74.2233C248.868 73.0709 245.724 71.29 243.995 70.9233C241.637 70.3995 237.918 69.4043 237.918 69.4043C237.918 69.4043 235.822 71.29 236.241 74.6424Z" fill="#202338"/>
<path d="M240.171 48.8188C240.171 48.8188 239.28 47.195 239.752 45.414C240.171 43.6855 241.795 41.9045 244.205 42.6902C246.615 43.476 248.502 45.3617 247.087 47.5093C245.672 49.6569 248.397 50.5997 247.663 51.6473C246.982 52.6426 247.244 53.7426 247.506 53.9521C247.821 54.214 248.764 55.0521 248.659 56.0473C248.554 57.0425 244.048 53.114 244.048 53.114C244.048 53.114 241.533 48.1902 240.171 48.8188Z" fill="#464240"/>
<path d="M247.454 69.8757C247.454 69.8757 247.087 71.6043 237.813 69.4043C237.813 69.4043 240.905 68.3567 247.454 69.8757Z" fill="#EB4747"/>
<path d="M237.709 69.9282C237.552 70.1901 237.447 70.452 237.29 70.7663C240.695 70.871 244.048 70.9758 247.454 71.0805C246.93 69.2996 247.087 66.8377 247.192 65.0044C247.297 62.752 248.554 61.1806 248.397 58.9282C249.078 59.033 249.183 59.033 249.864 59.1377C248.816 56.2044 248.502 54.7901 245.306 53.6378C244.258 53.2711 243.577 53.2187 242.477 53.2711C238.809 53.5854 237.656 53.6378 235.875 56.9378C238.704 57.4092 238.233 58.4044 239.123 61.233C239.543 62.5949 239.962 64.1663 239.752 65.5806C239.49 67.0472 237.709 68.6186 237.709 69.9282Z" fill="#5F8CC9"/>
<path d="M243.577 54.3188C242.057 54.0569 242.372 53.2188 242.372 53.2188C242.372 53.2188 242.424 52.7474 242.476 52.1712C242.476 52.014 242.476 51.8569 242.476 51.6997C242.476 51.4378 242.476 51.1759 242.424 50.9664C242.319 49.9712 245.148 50.5474 245.148 50.5474C245.148 50.5474 244.991 52.5902 245.358 53.2188C245.83 53.7426 245.096 54.5807 243.577 54.3188Z" fill="#EEA886"/>
<path d="M240.695 53.1664C240.695 53.1664 243.734 56.6759 244.887 57.514C244.887 57.514 246.197 56.3616 245.358 53.2711C245.358 53.2711 243.891 52.5378 240.695 53.1664Z" fill="#EEA886"/>
<path d="M240.799 44.7331C240.799 44.7331 239.227 47.7712 240.799 50.6521C242.371 53.5331 245.462 49.395 245.672 48.9236C245.881 48.4521 246.929 45.676 244.833 44.8379C242.685 43.9998 241.271 43.895 240.799 44.7331Z" fill="#EEA886"/>
<path d="M241.324 45.7808C241.324 45.7808 240.224 47.195 240.119 48.2427C240.119 48.2427 239.7 46.2522 240.905 44.3141C242.11 42.376 245.254 44.2093 245.673 44.9951C246.092 45.7808 247.297 46.4617 245.254 49.7093C245.254 49.7617 241.534 47.195 241.324 45.7808Z" fill="#464240"/>
<path d="M243.839 50.9664C243.839 50.9664 243.577 51.5426 242.477 52.1187C242.477 51.9616 242.477 51.8045 242.477 51.6473C242.529 51.6473 243.262 51.5426 243.839 50.9664Z" fill="#A77860"/>
<path d="M227.857 67.152C227.857 67.152 227.124 67.4663 226.757 67.3091C226.39 67.152 225.867 67.152 225.657 67.152C225.447 67.152 224.714 66.8901 224.714 67.152C224.714 67.4139 225.919 67.6234 226.128 67.7282C226.39 67.8329 225.395 68.3567 225.343 68.5663C225.238 68.7758 226.338 70.3472 226.914 69.8758C227.543 69.4567 227.857 68.5663 227.962 68.5139C228.067 68.4615 228.434 68.1996 228.434 68.1996L227.857 67.152Z" fill="#EEA886"/>
<path d="M225.448 68.4615C225.448 68.4615 223.667 69.9282 223.667 70.1377C223.614 70.3473 223.719 70.452 223.929 70.2949C224.086 70.1901 225.658 68.933 225.658 68.933C225.658 68.933 223.876 71.0282 223.824 71.1853C223.771 71.2901 223.981 71.4472 224.033 71.3949C224.138 71.3425 226.024 69.352 226.024 69.352C226.024 69.352 224.4 71.2901 224.348 71.4472C224.348 71.552 224.557 71.7091 224.662 71.552C224.819 71.3949 226.444 69.7187 226.444 69.7187C226.444 69.7187 225.343 71.2377 225.396 71.3425C225.448 71.4472 225.553 71.6044 225.867 71.1853C226.129 70.7663 226.863 69.9282 226.863 69.9282L225.448 68.4615Z" fill="#EEA886"/>
<path d="M246.563 77.5757H241.376C241.376 77.5757 236.608 77.9424 236.189 74.59C235.822 71.2377 237.761 69.4044 237.761 69.4044C237.761 69.4044 240.275 70.0853 242.476 70.6091C243.576 70.3996 244.938 70.2424 246.458 70.2424C246.458 70.2424 255.836 73.3329 255.522 74.9567C255.574 75.0091 251.697 72.9139 246.563 77.5757Z" fill="#FFC955"/>
<path d="M243.211 71.8139L253.113 71.6567L248.084 74.171L243.211 71.8139Z" fill="#5E5853"/>
<path d="M246.3 70.5044C246.3 70.5044 244.047 71.3425 241.323 70.6091L241.218 69.6139L246.824 69.9282L246.3 70.5044Z" fill="#5F8CC9"/>
<path d="M248.084 74.171L243.211 72.2853V71.8139L248.503 73.6996L248.084 74.171Z" fill="#91887F"/>
<path d="M246.248 70.9758C246.196 71.3425 246.615 71.6044 246.93 71.4472L247.506 71.1853C247.663 71.1329 247.768 70.9234 247.768 70.7663C247.506 69.2472 247.034 63.433 247.768 62.4377C248.03 62.0711 248.239 61.7568 248.292 61.4425C248.763 62.6996 249.392 64.3758 249.654 65.2663L254.317 71.4996L255.889 71.9186C253.95 67.2044 252.378 64.6901 252.378 64.6901C252.064 63.852 251.173 61.3901 250.44 59.1901C249.968 57.7759 249.497 56.5187 249.235 55.7854C249.13 55.4187 248.868 55.1568 248.554 54.9473C247.82 54.5283 246.615 53.8473 245.515 53.3235C245.463 53.3235 245.463 53.2711 245.41 53.2711C247.453 56.414 246.668 65.3187 246.248 70.9758Z" fill="#EDDAD3"/>
<path d="M238.493 53.533C237.812 53.6378 236.188 55.2616 235.297 56.8854C234.302 58.7187 233.254 60.8139 232.52 61.5472C231.106 62.8044 227.176 67.3091 226.967 67.2044C226.914 67.152 228.067 68.5663 228.172 68.6186C228.224 68.671 234.616 63.1187 235.245 62.2806C235.821 61.4949 237.393 58.1425 237.864 58.1949C237.917 58.2473 238.441 59.5044 239.017 61.2853C239.017 61.3377 239.017 61.3377 239.069 61.3901C239.436 62.6472 239.384 64.0091 239.227 65.5282C239.069 66.6805 238.231 68.5663 237.707 69.5091C237.655 69.6139 237.655 69.8234 237.707 69.9805C237.76 70.0853 237.812 70.1377 237.864 70.1901L239.751 70.871L240.17 71.0281C240.484 71.1329 240.798 71.0805 241.06 70.9234C241.27 70.7662 241.427 70.5567 241.427 70.2948C241.846 67.0996 242.37 63.7996 242.789 62.5949C244.623 57.1473 242.056 53.114 242.056 53.114C242.056 53.114 239.122 53.3235 238.493 53.533Z" fill="#EDDAD3"/>
<path d="M248.081 74.171L251.067 66.1567L260.551 66.3139L257.721 73.6996L248.081 74.171Z" fill="#6E6760"/>
<path d="M254.108 69.7187C253.793 70.2949 253.898 70.9234 254.317 71.1329C254.736 71.3425 255.26 71.0282 255.575 70.452C255.889 69.8758 255.784 69.2472 255.365 69.0377C254.946 68.8282 254.37 69.1425 254.108 69.7187Z" fill="#807066"/>
<path d="M244.1 47.7712C244.1 47.7712 244.728 48.714 244.152 49.5521C243.576 50.3902 244.309 51.1759 244.414 52.014C244.519 52.8521 242.056 55.1568 244.833 56.3092C247.558 57.4616 248.448 55.5759 247.767 54.5283C247.086 53.4806 246.562 52.6426 246.51 51.1235C246.405 49.6045 245.881 47.2474 244.1 47.7712Z" fill="#464240"/>
<path d="M230.687 43.8427H236.397V47.9807V48.8712L235.507 47.9807H230.687V43.8427Z" fill="#FFCB55"/>
<path d="M198.514 107.485C198.514 107.485 186.044 119.376 192.122 128.595C198.199 137.814 201.029 129.747 201.029 129.747C201.029 129.747 205.115 131.004 199.038 119.585C196.156 114.19 198.514 107.485 198.514 107.485Z" fill="#BBD070"/>
<path d="M175.467 94.5994C175.467 94.5994 165.932 105.809 178.663 121.314C191.395 136.818 189.456 145.042 189.456 145.042C189.456 145.042 207.165 118.066 175.467 94.5994Z" fill="#97A43C"/>
<path d="M192.331 140.328C198.251 141.532 193.483 124.299 184.577 119.009C175.67 113.771 167.706 113.247 162.729 108.166C162.729 108.218 163.095 134.461 192.331 140.328Z" fill="#48753A"/>
<path d="M153.564 147.923C153.564 147.923 153.826 147.242 153.879 147.137C153.931 147.032 154.193 146.875 154.508 146.718C154.822 146.561 155.346 146.456 155.398 146.509C155.451 146.561 155.503 146.561 155.608 146.666C155.66 146.823 155.66 146.98 155.66 146.98C155.66 146.98 155.817 147.137 155.765 147.294C155.765 147.294 155.922 147.451 155.817 147.661C155.817 147.661 155.975 147.818 155.87 147.923C155.87 147.923 155.608 148.08 155.503 148.185C155.398 148.29 154.874 148.604 154.246 148.813C154.298 148.761 153.669 148.813 153.564 147.923Z" fill="#EEA886"/>
<path d="M154.51 147.556C154.51 147.556 154.51 147.923 154.458 148.028C154.405 148.132 155.191 148.342 155.191 148.342C155.191 148.342 154.982 147.556 154.51 147.556Z" fill="#CF8C6C"/>
<path d="M139.784 183.175L140.151 182.127L141.618 182.337L141.356 183.332L139.784 183.175Z" fill="#3B3F66"/>
<path d="M151.732 183.07L151.837 183.647L153.409 183.385L153.357 182.494L151.732 183.07Z" fill="#555C94"/>
<path d="M148.272 166.518C148.272 166.518 148.062 167.775 147.748 169.242C147.695 169.504 147.643 169.766 147.59 169.975C147.328 171.337 147.067 172.647 146.962 172.961C146.752 173.589 141.827 182.546 141.827 182.546C141.827 182.546 139.836 182.389 139.731 182.127C139.731 182.127 143.818 172.385 143.818 172.07C143.818 171.704 144.342 161.751 144.342 161.751C144.342 161.751 148.167 165.942 148.272 166.518Z" fill="#354C70"/>
<path d="M150.526 161.123C150.526 161.123 152.464 170.918 152.621 171.651C152.778 172.385 153.512 182.442 153.512 182.442C153.512 182.442 153.093 183.332 151.469 183.018C151.469 183.018 149.32 172.228 149.111 171.861C148.377 170.447 144.919 163.689 144.605 162.694C144.291 161.699 144.343 160.599 144.343 160.599C144.343 160.599 146.963 159.132 150.526 161.123Z" fill="#354C70"/>
<path d="M149.741 148.447C149.741 148.447 150.58 150.542 150.789 150.49C150.999 150.437 153.409 147.609 153.409 147.609C153.409 147.609 154.509 148.971 154.352 149.128C154.142 149.337 151.313 154.104 150.894 153.999C150.527 153.894 148.746 151.013 148.746 151.013C148.746 151.013 148.641 148.813 149.741 148.447Z" fill="#DEB135"/>
<path d="M146.126 144.466C146.126 144.466 148.326 146.142 148.903 146.771C149.479 147.452 151.156 150.175 151.051 151.014C150.579 154.156 150.37 156.88 150.37 159.028C150.37 160.913 150.946 161.385 150.579 161.385C150.16 161.437 144.659 163.375 143.873 163.637C143.873 163.637 144.397 157.037 144.659 156.252C144.921 155.466 143.821 147.504 146.126 144.466Z" fill="#F2C344"/>
<path d="M160.169 141.271L160.64 143.733L161.112 146.194C161.112 146.194 158.335 145.304 155.139 145.933L154.929 144.833L154.72 143.733C157.916 143.156 160.169 141.271 160.169 141.271Z" fill="#D9D0C4"/>
<path d="M151.837 183.647C151.837 183.647 153.042 183.437 153.095 183.385C153.147 183.332 153.409 182.861 153.566 182.966C153.776 183.07 153.776 183.647 153.933 183.751C154.09 183.856 155.557 184.799 155.714 185.008C155.872 185.166 156.972 185.061 157.129 185.375C157.234 185.689 157.286 186.423 155.662 186.213C154.038 186.056 152.204 186.318 151.837 186.108C151.471 185.899 151.733 184.118 151.837 183.647Z" fill="#84BDFF"/>
<path d="M139.788 183.175C139.788 183.175 140.993 183.123 141.046 183.123C141.098 183.07 141.413 182.651 141.57 182.756C141.727 182.861 141.675 183.437 141.832 183.542C141.989 183.647 143.246 184.851 143.404 185.061C143.561 185.27 144.661 185.323 144.713 185.637C144.766 185.951 144.661 186.685 143.089 186.266C141.517 185.847 139.631 185.794 139.317 185.532C139.055 185.323 139.579 183.594 139.788 183.175Z" fill="#84BDFF"/>
<path d="M149.321 161.594C149.321 161.594 149.478 162.17 149.688 162.328C149.897 162.432 148.587 163.742 148.587 163.742C148.587 163.742 148.063 162.537 148.063 162.432C148.063 162.275 149.321 161.594 149.321 161.594Z" fill="#EEA987"/>
<path d="M145.183 147.032C145.183 147.032 143.611 154.47 143.507 155.204C143.402 155.937 148.065 162.799 148.065 162.799L149.637 161.856C149.637 161.856 145.864 154.942 145.864 154.628C145.864 154.313 147.698 148.342 147.698 148.342C147.698 148.342 148.432 147.032 147.122 146.404C145.707 145.775 145.183 147.032 145.183 147.032Z" fill="#FFD255"/>
<path d="M150.212 162.066C150.212 162.066 150.736 164.58 150.683 165.366C150.631 166.151 147.749 164.161 147.907 163.375L150.212 162.066Z" fill="#3C5780"/>
<path d="M146.124 144.466C146.124 144.466 150.106 148.813 149.844 148.29C148.953 146.561 148.377 146.299 148.377 145.985C148.377 145.723 148.482 145.042 148.482 144.78C148.534 144.309 148.534 143.942 148.534 143.942C148.534 143.942 146.543 141.166 146.648 142.109C146.753 143.052 146.124 144.466 146.124 144.466Z" fill="#EEA886"/>
<path d="M149.897 139.333C149.897 139.333 150.421 140.59 150.473 140.904C150.473 141.218 150.421 141.428 150.473 141.794C150.526 142.161 150.84 142.894 150.788 143.104C150.735 143.366 150.211 143.209 150.159 143.628C150.106 144.047 149.687 144.833 149.53 144.833C149.059 144.885 147.172 144.099 147.015 143.733C146.91 143.313 146.229 141.166 146.02 140.747C145.81 140.328 149.321 138.023 149.635 138.704C149.897 139.333 149.897 139.333 149.897 139.333Z" fill="#EEA886"/>
<path d="M145.13 140.275C144.868 139.175 146.125 139.07 146.125 139.07C146.125 139.07 146.963 138.128 148.902 138.232C150.841 138.337 150.526 140.904 150.526 140.904C150.526 140.904 149.164 140.694 148.588 140.851C148.588 140.851 148.535 141.951 148.588 142.213L147.854 142.161C147.854 142.161 147.959 141.218 147.592 141.166C147.225 141.113 147.121 143.209 146.492 143.68C146.492 143.68 146.492 143.523 146.387 143.366C146.23 143.156 146.073 142.737 145.863 142.318C145.549 141.637 145.234 140.851 145.13 140.275Z" fill="#16202E"/>
<path d="M148.065 141.375C148.065 141.375 147.803 140.642 147.122 141.113C146.651 141.48 147.122 142.685 147.594 142.685C148.065 142.685 148.275 142.004 148.065 141.375Z" fill="#EEA886"/>
<path d="M146.86 143.366C146.86 143.366 146.965 143.732 147.07 143.837C147.175 143.942 147.646 144.309 148.537 144.623L148.484 145.409C148.432 145.409 146.755 144.78 146.86 143.366Z" fill="#C48A6F"/>
<path d="M153.931 145.828H153.879V148.761H153.931V145.828Z" fill="#96CBFF"/>
<path d="M153.984 145.828H153.932V148.761H153.984V145.828Z" fill="#95CAFF"/>
<path d="M154.036 145.828H153.983V148.761H154.036V145.828Z" fill="#94C9FF"/>
<path d="M154.036 145.828H153.983V148.761H154.036V145.828Z" fill="#93C9FF"/>
<path d="M154.088 145.828H154.035V148.761H154.088V145.828Z" fill="#92C8FF"/>
<path d="M154.088 145.828H154.035V148.761H154.088V145.828Z" fill="#91C7FF"/>
<path d="M154.141 145.828H154.089V148.761H154.141V145.828Z" fill="#90C6FF"/>
<path d="M154.141 145.828H154.089V148.761H154.141V145.828Z" fill="#8FC6FF"/>
<path d="M154.194 145.828H154.142V148.761H154.194V145.828Z" fill="#8EC5FF"/>
<path d="M154.246 145.828H154.193V148.761H154.246V145.828Z" fill="#8DC4FF"/>
<path d="M154.246 145.828H154.193V148.761H154.246V145.828Z" fill="#8CC3FF"/>
<path d="M154.298 145.828H154.246V148.761H154.298V145.828Z" fill="#8BC2FF"/>
<path d="M154.298 145.828H154.246V148.761H154.298V145.828Z" fill="#8AC2FF"/>
<path d="M154.35 145.828H154.298V148.761H154.35V145.828Z" fill="#89C1FF"/>
<path d="M154.402 145.828H154.35V148.761H154.402V145.828Z" fill="#88C0FF"/>
<path d="M154.402 145.828H154.35V148.761H154.402V145.828Z" fill="#87BFFF"/>
<path d="M154.456 145.828H154.403V148.761H154.456V145.828Z" fill="#86BFFF"/>
<path d="M154.456 145.828H154.403V148.761H154.456V145.828Z" fill="#85BEFF"/>
<path d="M154.507 145.828H154.455V148.761H154.507V145.828Z" fill="#84BDFF"/>
<path d="M154.507 145.828H154.455V148.761H154.507V145.828Z" fill="#83BCFF"/>
<path d="M154.56 145.828H154.508V148.761H154.56V145.828Z" fill="#82BBFF"/>
<path d="M154.613 145.828H154.561V148.761H154.613V145.828Z" fill="#81BBFF"/>
<path d="M154.613 145.828H154.561V148.761H154.613V145.828Z" fill="#80BAFF"/>
<path d="M154.665 145.828H154.612V148.761H154.665V145.828Z" fill="#7FB9FF"/>
<path d="M154.665 145.828H154.612V148.761H154.665V145.828Z" fill="#7EB8FF"/>
<path d="M154.716 145.828H154.664V148.761H154.716V145.828Z" fill="#7DB7FF"/>
<path d="M154.77 145.828H154.718V148.761H154.77V145.828Z" fill="#7CB7FF"/>
<path d="M154.77 145.828H154.718V148.761H154.77V145.828Z" fill="#7BB6FF"/>
<path d="M154.822 145.828H154.77V148.761H154.822V145.828Z" fill="#7AB5FF"/>
<path d="M154.822 145.828H154.77V148.761H154.822V145.828Z" fill="#79B4FF"/>
<path d="M154.875 145.828H154.822V148.761H154.875V145.828Z" fill="#78B4FF"/>
<path d="M154.875 145.828H154.822V148.761H154.875V145.828Z" fill="#77B3FF"/>
<path d="M154.926 145.828H154.874V148.761H154.926V145.828Z" fill="#76B2FF"/>
<path d="M154.979 145.828H154.927V148.761H154.979V145.828Z" fill="#74B1FF"/>
<path d="M154.979 145.828H154.927V148.761H154.979V145.828Z" fill="#73B0FF"/>
<path d="M155.031 145.828H154.979V148.761H155.031V145.828Z" fill="#72B0FF"/>
<path d="M155.031 145.828H154.979V148.761H155.031V145.828Z" fill="#71AFFF"/>
<path d="M155.085 145.828H155.032V148.761H155.085V145.828Z" fill="#70AEFF"/>
<path d="M155.136 145.828H155.084V148.761H155.136V145.828Z" fill="#6FADFF"/>
<path d="M155.136 145.828H155.084V148.761H155.136V145.828Z" fill="#6EADFF"/>
<path d="M155.189 145.828H155.137V148.761H155.189V145.828Z" fill="#6DACFF"/>
<path d="M155.189 145.828H155.137V148.761H155.189V145.828Z" fill="#6CABFF"/>
<path d="M155.241 145.828H155.188V148.761H155.241V145.828Z" fill="#6BAAFF"/>
<path d="M155.241 145.828H155.188V148.761H155.241V145.828Z" fill="#6AA9FF"/>
<path d="M155.294 145.828H155.241V148.761H155.294V145.828Z" fill="#69A9FF"/>
<path d="M155.345 145.828H155.293V148.761H155.345V145.828Z" fill="#68A8FF"/>
<path d="M155.345 145.828H155.293V148.761H155.345V145.828Z" fill="#67A7FF"/>
<path d="M155.399 145.828H155.347V148.761H155.399V145.828Z" fill="#66A6FF"/>
<path d="M155.399 145.828H155.347V148.761H155.399V145.828Z" fill="#65A6FF"/>
<path d="M155.451 145.828H155.398V148.761H155.451V145.828Z" fill="#64A5FF"/>
<path d="M155.451 145.828H155.398V148.761H155.451V145.828Z" fill="#63A4FF"/>
<path d="M155.504 145.828H155.451V148.761H155.504V145.828Z" fill="#62A3FF"/>
<path d="M155.555 145.828H155.503V148.761H155.555V145.828Z" fill="#61A2FF"/>
<path d="M155.555 145.828H155.503V148.761H155.555V145.828Z" fill="#60A2FF"/>
<path d="M155.608 145.828H155.556V148.761H155.608V145.828Z" fill="#5FA1FF"/>
<path d="M155.608 145.828H155.556V148.761H155.608V145.828Z" fill="#5EA0FF"/>
<path d="M155.66 145.828H155.607V148.761H155.66V145.828Z" fill="#5D9FFF"/>
<path d="M155.714 145.828H155.661V148.761H155.714V145.828Z" fill="#5C9EFF"/>
<path d="M155.714 145.828H155.661V148.761H155.714V145.828Z" fill="#5B9EFF"/>
<path d="M155.765 145.828H155.713V148.761H155.765V145.828Z" fill="#5A9DFF"/>
<path d="M155.765 145.828H155.713V148.761H155.765V145.828Z" fill="#599CFF"/>
<path d="M155.818 145.828H155.766V148.761H155.818V145.828Z" fill="#589BFF"/>
<path d="M155.818 145.828H155.766V148.761H155.818V145.828Z" fill="#579BFF"/>
<path d="M155.87 145.828H155.817V148.761H155.87V145.828Z" fill="#569AFF"/>
<path d="M155.923 145.828H155.87V148.761H155.923V145.828Z" fill="#5599FF"/>
<path d="M155.296 146.509C155.296 146.509 154.51 146.928 154.562 147.085C154.615 147.242 154.72 147.242 154.72 147.242L154.458 147.556C154.458 147.556 154.405 147.87 154.772 147.818C154.772 147.818 154.72 148.08 155.034 148.028C155.034 148.028 155.086 148.237 155.244 148.237C155.401 148.237 155.925 147.923 155.925 147.923C155.925 147.923 155.977 147.818 155.872 147.661C155.872 147.661 155.977 147.451 155.82 147.294C155.82 147.294 155.872 147.137 155.715 146.98C155.715 146.98 155.768 146.613 155.453 146.509C155.401 146.456 155.348 146.509 155.296 146.509Z" fill="#DB9C7C"/>
<path d="M152.569 143.628H152.517V146.456H152.569V143.628Z" fill="#96CBFF"/>
<path d="M152.622 143.628H152.569V146.456H152.622V143.628Z" fill="#95CAFF"/>
<path d="M152.673 143.628H152.621V146.456H152.673V143.628Z" fill="#94C9FF"/>
<path d="M152.725 143.628H152.673V146.456H152.725V143.628Z" fill="#93C9FF"/>
<path d="M152.779 143.628H152.727V146.456H152.779V143.628Z" fill="#92C8FF"/>
<path d="M152.831 143.628H152.778V146.456H152.831V143.628Z" fill="#91C7FF"/>
<path d="M152.883 143.628H152.831V146.456H152.883V143.628Z" fill="#90C6FF"/>
<path d="M152.935 143.628H152.883V146.456H152.935V143.628Z" fill="#8FC6FF"/>
<path d="M152.988 143.628H152.936V146.456H152.988V143.628Z" fill="#8EC5FF"/>
<path d="M153.04 143.628H152.987V146.456H153.04V143.628Z" fill="#8DC4FF"/>
<path d="M153.093 143.628H153.041V146.456H153.093V143.628Z" fill="#8CC3FF"/>
<path d="M153.145 143.628H153.093V146.456H153.145V143.628Z" fill="#8BC2FF"/>
<path d="M153.198 143.628H153.146V146.456H153.198V143.628Z" fill="#8AC2FF"/>
<path d="M153.25 143.628H153.197V146.456H153.25V143.628Z" fill="#89C1FF"/>
<path d="M153.302 143.628H153.25V146.456H153.302V143.628Z" fill="#88C0FF"/>
<path d="M153.354 143.628H153.302V146.456H153.354V143.628Z" fill="#87BFFF"/>
<path d="M153.354 143.628H153.302V146.456H153.354V143.628Z" fill="#86BFFF"/>
<path d="M153.408 143.628H153.355V146.456H153.408V143.628Z" fill="#85BEFF"/>
<path d="M153.46 143.628H153.407V146.456H153.46V143.628Z" fill="#84BDFF"/>
<path d="M153.512 143.628H153.46V146.456H153.512V143.628Z" fill="#83BCFF"/>
<path d="M153.564 143.628H153.512V146.456H153.564V143.628Z" fill="#82BBFF"/>
<path d="M153.617 143.628H153.564V146.456H153.617V143.628Z" fill="#81BBFF"/>
<path d="M153.669 143.628H153.616V146.456H153.669V143.628Z" fill="#80BAFF"/>
<path d="M153.722 143.628H153.67V146.456H153.722V143.628Z" fill="#7FB9FF"/>
<path d="M153.774 143.628H153.722V146.456H153.774V143.628Z" fill="#7EB8FF"/>
<path d="M153.827 143.628H153.774V146.456H153.827V143.628Z" fill="#7DB7FF"/>
<path d="M153.879 143.628H153.826V146.456H153.879V143.628Z" fill="#7CB7FF"/>
<path d="M153.931 143.628H153.879V146.456H153.931V143.628Z" fill="#7BB6FF"/>
<path d="M153.983 143.628H153.931V146.456H153.983V143.628Z" fill="#7AB5FF"/>
<path d="M154.037 143.628H153.984V146.456H154.037V143.628Z" fill="#79B4FF"/>
<path d="M154.089 143.628H154.036V146.456H154.089V143.628Z" fill="#78B4FF"/>
<path d="M154.141 143.628H154.089V146.456H154.141V143.628Z" fill="#77B3FF"/>
<path d="M154.193 143.628H154.141V146.456H154.193V143.628Z" fill="#76B2FF"/>
<path d="M154.246 143.628H154.193V146.456H154.246V143.628Z" fill="#74B1FF"/>
<path d="M154.298 143.628H154.245V146.456H154.298V143.628Z" fill="#73B0FF"/>
<path d="M154.298 143.628H154.245V146.456H154.298V143.628Z" fill="#72B0FF"/>
<path d="M154.349 143.628H154.297V146.456H154.349V143.628Z" fill="#71AFFF"/>
<path d="M154.403 143.628H154.351V146.456H154.403V143.628Z" fill="#70AEFF"/>
<path d="M154.456 143.628H154.403V146.456H154.456V143.628Z" fill="#6FADFF"/>
<path d="M154.507 143.628H154.455V146.456H154.507V143.628Z" fill="#6EADFF"/>
<path d="M154.56 143.628H154.508V146.456H154.56V143.628Z" fill="#6DACFF"/>
<path d="M154.612 143.628H154.56V146.456H154.612V143.628Z" fill="#6CABFF"/>
<path d="M154.664 143.628H154.611V146.456H154.664V143.628Z" fill="#6BAAFF"/>
<path d="M154.717 143.628H154.665V146.456H154.717V143.628Z" fill="#6AA9FF"/>
<path d="M154.77 143.628H154.718V146.456H154.77V143.628Z" fill="#69A9FF"/>
<path d="M154.822 143.628H154.77V146.456H154.822V143.628Z" fill="#68A8FF"/>
<path d="M154.875 143.628H154.822V146.456H154.875V143.628Z" fill="#67A7FF"/>
<path d="M154.926 143.628H154.874V146.456H154.926V143.628Z" fill="#66A6FF"/>
<path d="M154.978 143.628H154.926V146.456H154.978V143.628Z" fill="#65A6FF"/>
<path d="M155.032 143.628H154.979V146.456H155.032V143.628Z" fill="#64A5FF"/>
<path d="M155.084 143.628H155.031V146.456H155.084V143.628Z" fill="#63A4FF"/>
<path d="M155.136 143.628H155.084V146.456H155.136V143.628Z" fill="#62A3FF"/>
<path d="M155.189 143.628H155.137V146.456H155.189V143.628Z" fill="#61A2FF"/>
<path d="M155.241 143.628H155.188V146.456H155.241V143.628Z" fill="#60A2FF"/>
<path d="M155.293 143.628H155.24V146.456H155.293V143.628Z" fill="#5FA1FF"/>
<path d="M155.293 143.628H155.24V146.456H155.293V143.628Z" fill="#5EA0FF"/>
<path d="M155.346 143.628H155.294V146.456H155.346V143.628Z" fill="#5D9FFF"/>
<path d="M155.398 143.628H155.346V146.456H155.398V143.628Z" fill="#5C9EFF"/>
<path d="M155.451 143.628H155.398V146.456H155.451V143.628Z" fill="#5B9EFF"/>
<path d="M155.503 143.628H155.45V146.456H155.503V143.628Z" fill="#5A9DFF"/>
<path d="M155.555 143.628H155.503V146.456H155.555V143.628Z" fill="#599CFF"/>
<path d="M155.607 143.628H155.555V146.456H155.607V143.628Z" fill="#589BFF"/>
<path d="M155.661 143.628H155.608V146.456H155.661V143.628Z" fill="#579BFF"/>
<path d="M155.713 143.628H155.66V146.456H155.713V143.628Z" fill="#569AFF"/>
<path d="M155.765 143.628H155.713V146.456H155.765V143.628Z" fill="#5599FF"/>
<path d="M153.877 147.085C153.877 147.085 154.506 147.085 154.82 147.19C154.873 147.242 154.978 147.242 154.978 147.347C154.978 147.451 154.873 147.556 154.611 147.556C154.349 147.556 153.982 147.713 153.982 147.713C153.982 147.713 153.72 147.713 153.877 147.085Z" fill="#EEA886"/>
<path d="M147.802 169.242C147.75 169.504 147.697 169.766 147.645 169.975L146.073 165.785C146.283 166.204 147.802 169.242 147.802 169.242Z" fill="#293B57"/>
<path d="M60.4086 119.166H35.3122C33.4784 119.166 31.959 117.647 31.959 115.814V76.2663C31.959 74.433 33.4784 72.9139 35.3122 72.9139H60.3562C62.1899 72.9139 63.7093 74.433 63.7093 76.2663V115.814C63.7617 117.647 62.2423 119.166 60.4086 119.166Z" fill="#FFBF36"/>
<path d="M60.3566 102.771H58.7324V115.29H60.3566V102.771Z" fill="#E3F2FF"/>
<path d="M57.1086 104.185H55.4844V115.29H57.1086V104.185Z" fill="#E3F2FF"/>
<path d="M53.5461 105.966H51.9219V115.238H53.5461V105.966Z" fill="#E3F2FF"/>
<path d="M49.9318 108.271H48.3076V115.238H49.9318V108.271Z" fill="#E3F2FF"/>
<path d="M38.5113 106.804L38.1445 106.699L41.2357 97.9519L47.9945 96.171L50.4046 86.6377L55.5915 84.3329L56.7442 76.9473L57.1109 76.9996L55.9059 84.5948L50.7189 86.8996L48.3088 96.4853L41.5501 98.2662L38.5113 106.804Z" fill="#E3F2FF"/>
<path d="M48.9346 95.6996C49.3013 96.1186 49.2489 96.7472 48.7774 97.1139C48.3582 97.4805 47.7295 97.4281 47.3628 96.9567C46.996 96.5377 47.0484 95.9091 47.5199 95.5424C47.9391 95.2281 48.5678 95.2805 48.9346 95.6996Z" fill="#FFC955"/>
<path d="M48.8828 97.271C48.3588 97.69 47.6253 97.6376 47.2062 97.1138C46.787 96.59 46.8394 95.8567 47.3634 95.4376C47.8873 95.0186 48.6208 95.071 49.04 95.5948C49.4591 96.1186 49.4067 96.8519 48.8828 97.271ZM47.6253 95.6995C47.2586 95.9614 47.2062 96.4852 47.5205 96.8519C47.7825 97.2186 48.3064 97.2709 48.6732 96.9567C49.04 96.6948 49.0923 96.171 48.778 95.8043C48.4636 95.49 47.9397 95.4376 47.6253 95.6995Z" fill="#E3F2FF"/>
<path d="M51.3467 86.2186C51.7134 86.6376 51.661 87.2662 51.1895 87.6328C50.7703 87.9995 50.1416 87.9471 49.7749 87.4757C49.4081 87.0567 49.4605 86.4281 49.932 86.0614C50.3512 85.6948 51.0323 85.7471 51.3467 86.2186Z" fill="#FFC955"/>
<path d="M51.3447 87.7901C50.8208 88.2091 50.0873 88.1567 49.6681 87.6329C49.249 87.1091 49.3013 86.3758 49.8253 85.9567C50.3492 85.5377 51.0827 85.5901 51.5019 86.1139C51.921 86.5853 51.8686 87.371 51.3447 87.7901ZM50.0349 86.2186C49.6681 86.4805 49.6157 87.0043 49.9301 87.371C50.192 87.7377 50.716 87.7901 51.0827 87.4758C51.4495 87.2139 51.5019 86.6901 51.1875 86.3234C50.9255 85.9567 50.4016 85.9044 50.0349 86.2186Z" fill="#E3F2FF"/>
<path d="M56.4805 83.8615C56.8472 84.2805 56.7948 84.9091 56.3233 85.2757C55.9041 85.6424 55.2754 85.59 54.9087 85.1186C54.5419 84.6995 54.5943 84.071 55.0658 83.7043C55.485 83.3376 56.1137 83.39 56.4805 83.8615Z" fill="#FFC955"/>
<path d="M56.4267 85.4329C55.9028 85.852 55.1693 85.7996 54.7501 85.2758C54.331 84.752 54.3834 84.0187 54.9073 83.5996C55.4312 83.1806 56.1648 83.233 56.5839 83.7568C57.0554 84.2282 56.9507 85.0139 56.4267 85.4329ZM55.1693 83.8615C54.8025 84.1234 54.7501 84.6472 55.0645 85.0139C55.3265 85.3806 55.8504 85.4329 56.2171 85.1187C56.5839 84.8568 56.6363 84.3329 56.3219 83.9663C56.06 83.5996 55.536 83.5472 55.1693 83.8615Z" fill="#E3F2FF"/>
<path d="M42.2285 97.5853C42.5952 98.0043 42.5429 98.6329 42.0713 98.9996C41.6522 99.3662 41.0235 99.3139 40.6567 98.8424C40.2899 98.4234 40.3423 97.7948 40.8139 97.4281C41.233 97.0615 41.8617 97.1662 42.2285 97.5853Z" fill="#FFC955"/>
<path d="M42.1757 99.1566C41.6518 99.5757 40.9183 99.5233 40.4992 98.9995C40.08 98.4757 40.1324 97.7424 40.6563 97.3233C41.1803 96.9043 41.9138 96.9566 42.3329 97.4805C42.7521 97.9519 42.6997 98.7376 42.1757 99.1566ZM40.9183 97.5852C40.5515 97.8471 40.4992 98.3709 40.8135 98.7376C41.0755 99.1043 41.5994 99.1566 41.9662 98.8424C42.3329 98.5804 42.3853 98.0566 42.071 97.69C41.7566 97.3233 41.2327 97.3233 40.9183 97.5852Z" fill="#E3F2FF"/>
<path d="M44.7417 88.1045H36.0968C35.6776 88.1045 35.3633 87.7902 35.3633 87.3712V86.7426C35.3633 86.3236 35.6776 86.0093 36.0968 86.0093H44.7417C45.1608 86.0093 45.4752 86.3236 45.4752 86.7426V87.3712C45.4752 87.7902 45.1608 88.1045 44.7417 88.1045Z" fill="#EBEBEB"/>
<path d="M44.7417 84.4378H36.0968C35.6776 84.4378 35.3633 84.1235 35.3633 83.7045V83.0759C35.3633 82.6569 35.6776 82.3426 36.0968 82.3426H44.7417C45.1608 82.3426 45.4752 82.6569 45.4752 83.0759V83.7045C45.4752 84.1235 45.1608 84.4378 44.7417 84.4378Z" fill="#EBEBEB"/>
<path d="M28.0823 89.7804C28.0823 89.7804 27.768 92.6613 28.3443 93.3947C28.3443 93.3947 26.9297 93.0804 26.6153 92.6089C26.301 92.1375 28.0823 89.7804 28.0823 89.7804Z" fill="#16202E"/>
<path d="M36.9365 98.9994C36.9365 98.9994 37.4604 98.6327 37.5128 98.5804C37.6176 98.528 37.8795 98.528 38.1415 98.5804C38.4559 98.6327 38.8226 98.7899 38.875 98.8423C38.875 98.8946 38.9274 98.947 38.9274 99.0518C38.9274 99.2089 38.8226 99.2613 38.8226 99.2613C38.8226 99.2613 38.875 99.4184 38.7702 99.5756C38.7702 99.5756 38.8226 99.7327 38.6654 99.8375C38.6654 99.8375 38.7178 99.9946 38.5606 100.047C38.5606 100.047 38.2987 100.047 38.1939 100.047C38.0891 100.047 37.5652 99.9946 37.0412 99.8899C37.0412 99.9946 36.4649 99.8899 36.9365 98.9994Z" fill="#EEA886"/>
<path d="M37.8247 99.2614C37.8247 99.2614 37.6675 99.5233 37.5627 99.5757C37.4579 99.6281 37.9818 100.152 37.9818 100.152C37.9818 100.152 38.139 99.4709 37.8247 99.2614Z" fill="#CF8C6C"/>
<path d="M36.6211 99.0519C36.6211 99.0519 36.9355 98.9995 37.1451 98.9472C37.3546 98.8424 37.0927 99.9424 37.0927 99.9424C37.0927 99.9424 36.6211 99.6281 36.3068 99.5757C35.9924 99.5757 36.6211 99.0519 36.6211 99.0519Z" fill="#EEA886"/>
<path d="M23.2631 128.28C23.2631 128.28 24.2585 129.747 24.6253 130.061C24.6253 130.061 25.3064 130.428 25.3588 130.742C25.4112 131.318 25.4112 131.633 24.5205 131.633C23.5774 131.633 23.0011 131.633 22.8439 131.056C22.6867 130.48 22.3724 130.061 22.3724 130.061L22.32 131.528H22.1104C22.1104 131.528 22.0056 130.061 22.0056 129.852C22.0056 129.642 21.8484 128.856 22.32 128.49C22.6867 128.123 23.2631 128.28 23.2631 128.28Z" fill="#162D40"/>
<path d="M24.729 130.166C24.729 130.166 24.2051 130.323 23.6288 130.166C23.0525 130.009 22.4761 128.595 22.2666 128.49L22.1094 127.914H23.262C23.262 127.914 23.262 128.333 23.4716 128.699C23.6812 129.014 24.729 130.166 24.729 130.166Z" fill="#162D40"/>
<path d="M29.8113 127.704C29.8113 127.704 29.9684 128.071 30.2304 128.437C30.44 128.699 31.0687 129.852 31.3831 129.904C31.645 129.956 32.5357 130.114 32.6405 130.637C32.6929 131.109 32.7453 131.475 31.907 131.528C31.0163 131.58 30.44 131.633 30.0208 131.004C29.6017 130.375 28.9206 129.956 28.9206 129.956V131.58H28.6062C28.6062 131.58 28.449 129.904 28.3443 129.799C28.2395 129.695 28.0299 128.385 28.8158 127.756C29.6541 127.075 29.8113 127.704 29.8113 127.704Z" fill="#162D40"/>
<path d="M31.3843 129.956C31.3843 129.956 30.5984 130.166 30.284 129.956C29.9696 129.747 28.9742 128.018 28.6074 127.914C28.6074 127.914 28.9218 127.233 29.7601 127.756C29.8125 127.704 31.1747 129.642 31.3843 129.956Z" fill="#162D40"/>
<path d="M22.7914 103.766C22.7914 103.766 21.6911 105.18 21.3768 106.909C21.0624 108.585 21.534 114.347 21.534 115.185C21.534 116.023 20.8004 118.642 20.9576 120.214C21.1148 121.785 21.9531 128.385 21.9531 128.385L23.8393 128.333C23.8393 128.333 23.4725 121.209 23.5773 120.528C23.6821 119.847 23.9964 117.018 24.0488 116.756C24.1012 116.495 26.2494 109.266 26.2494 108.009C26.197 106.857 25.4635 101.776 22.7914 103.766Z" fill="#1D3B54"/>
<path d="M28.3426 104.342C28.3426 104.342 30.1764 111.256 30.386 112.199C30.5955 113.142 31.0147 114.399 31.0147 114.609C31.0147 114.766 30.8051 117.752 30.8051 117.752L30.2812 127.809H28.395C28.395 127.809 27.7663 121.418 27.6615 120.109C27.5567 118.799 28.3426 116.809 28.1854 116.285C27.9759 115.761 25.0418 109.423 25.0418 109.423C25.0418 109.423 22.7889 102.352 28.3426 104.342Z" fill="#1D3B54"/>
<path d="M27.7678 93.9709C27.7678 93.9709 28.5013 94.0233 29.0253 94.6518C29.5492 95.228 30.0731 96.1709 30.2303 96.4852C30.3875 96.7994 32.3784 99.6804 32.4832 99.7851C32.588 99.8375 33.4787 99.628 34.1598 99.5756C35.3125 99.4709 37.0414 98.8947 37.0414 98.8947L37.3034 100.204C37.3034 100.204 33.0596 101.566 32.1165 101.304C30.9114 100.99 28.187 97.4804 28.187 97.4804C28.187 97.4804 26.1436 95.0709 27.7678 93.9709Z" fill="#EDDAD3"/>
<path d="M26.5115 93.4995C26.5115 93.4995 27.4546 93.9186 27.769 94.0233C28.0833 94.0757 29.3408 95.7519 29.6028 96.3281C29.8123 96.9043 29.6028 97.8471 29.1312 98.8947C28.6597 99.9423 29.1312 100.309 28.9216 101.357C28.7121 102.404 28.7121 105.285 28.7645 105.861C28.8169 106.438 22.7392 107.538 21.5342 106.49C21.5342 106.49 22.3725 103.766 23.3156 102.771C23.5251 102.561 23.5251 101.095 23.3679 100.728C23.2108 100.361 21.5866 97.6376 21.5866 97.6376C21.5866 97.6376 21.4818 94.8614 22.1629 94.3376C22.7916 93.8662 24.4682 93.709 24.7302 93.6043C25.0445 93.4471 25.9352 93.3947 26.5115 93.4995Z" fill="#EDDAD3"/>
<path d="M26.8252 95.5948L27.4016 94.9138L26.93 93.1329C26.93 93.1329 26.7205 94.1281 26.8252 95.5948Z" fill="#D1C0BA"/>
<path d="M23.2616 93.9709C23.2616 93.9709 22.0566 93.6566 21.3755 94.9137C20.6944 96.2233 20.8515 96.9042 20.6944 97.5328C20.5372 98.109 19.9085 102.038 19.8561 102.195C19.8037 102.352 19.2273 104.342 19.2797 104.971C19.3321 105.599 19.9085 110.209 19.9085 110.366C19.9085 110.523 21.0087 110.209 21.0087 110.209C21.0087 110.209 20.9563 105.495 21.0087 105.076C21.0611 104.709 21.0611 102.614 21.3755 102.09C21.6898 101.566 22.3709 98.3185 22.5281 98.0042C22.7377 97.7423 24.2571 94.3899 23.2616 93.9709Z" fill="#EEA886"/>
<path d="M26.9814 92.3995C26.9814 92.3995 26.7719 94.128 26.8242 94.7042C26.8242 94.7042 25.8288 95.6994 24.7285 93.5518C24.7285 93.5518 25.2001 92.6614 24.8333 91.509C24.5189 90.3042 26.9814 92.3995 26.9814 92.3995Z" fill="#EEA886"/>
<path d="M26.8252 94.7042V95.5947L25.7773 94.6519L26.8252 94.7042Z" fill="#EEA886"/>
<path d="M26.8247 95.5946L26.3532 95.0184L24.7814 93.447L24.2051 93.7089L26.8247 95.5946Z" fill="#D1C0BA"/>
<path d="M27.4002 94.9138L28.1338 95.1233L26.9287 93.1328L27.4002 94.9138Z" fill="#FAE6DE"/>
<path d="M26.3532 95.0185L25.7245 96.0661L24.2051 93.6566L24.8338 93.3423L26.3532 95.0185Z" fill="#FAE6DE"/>
<path d="M29.7059 99.2613C29.7059 99.2613 29.9155 97.6899 29.7059 96.7471C29.7059 96.7471 29.5487 97.5328 29.2344 98.6852L29.7059 99.2613Z" fill="#D1C0BA"/>
<path d="M22.4238 99.0518C22.4238 99.0518 23.0525 96.9042 23.1049 96.7994C23.1049 96.7994 23.0525 98.7899 22.7906 99.7328C22.7906 99.7328 22.581 99.3137 22.4238 99.0518Z" fill="#D1C0BA"/>
<path d="M46.5761 88.2614L36.3594 101.147L36.7261 101.409L46.5761 88.2614Z" fill="#54281A"/>
<path d="M38.8231 98.8947C38.8231 98.8947 38.0372 98.8423 38.0372 98.947C37.9849 99.0518 38.0896 99.1042 38.0896 99.1042L37.7753 99.2089C37.7753 99.2089 37.6181 99.4185 37.8801 99.5232C37.8801 99.5232 37.7229 99.6804 37.9849 99.7851C37.9849 99.7851 37.9325 99.9423 38.0372 99.9947C38.142 100.047 38.666 100.099 38.666 100.099C38.666 100.099 38.7708 100.047 38.7708 99.8899C38.7708 99.8899 38.9279 99.7851 38.8755 99.628C38.8755 99.628 38.9803 99.5232 38.9279 99.3137C38.9279 99.3137 39.1899 99.0518 38.9803 98.8423C38.8755 98.8947 38.8231 98.8947 38.8231 98.8947Z" fill="#DB9C7C"/>
<path d="M37.5667 98.6329C37.5667 98.6329 38.0382 98.8948 38.1954 99.1567C38.2478 99.2091 38.2478 99.2614 38.2478 99.3138C38.1954 99.3662 38.0906 99.3662 37.881 99.2614C37.6714 99.1567 37.3571 99.1043 37.3571 99.1043C37.3571 99.1043 37.1475 98.9472 37.5667 98.6329Z" fill="#EEA886"/>
<path d="M26.1952 86.5328C26.1952 86.5328 27.9242 86.4804 28.2385 88.5233C28.5529 90.5661 27.8194 92.3471 27.5574 92.6614C27.2431 92.9756 25.5665 92.7137 25.1473 91.6661C24.7282 90.6185 24.1519 89.8328 24.2566 88.8899C24.2566 87.9995 24.0471 86.4804 26.1952 86.5328Z" fill="#EEA886"/>
<path d="M28.292 89.309C28.292 89.309 28.7635 86.7424 26.4582 86.3233C24.1529 85.8519 23.367 87.4233 23.1574 88.3662C22.9479 89.309 23.2098 91.928 23.2098 91.928C23.2098 91.928 24.7292 93.2899 25.6723 93.6042C25.6723 93.6042 24.8864 90.8281 25.2008 88.7852C25.2008 88.7852 27.0869 89.0995 28.292 88.7852C28.292 88.7852 28.292 89.2043 28.292 89.309Z" fill="#16202E"/>
<path d="M26.9293 92.7661C26.9293 92.7661 26.3529 92.7661 25.5146 92.2423C25.5146 92.2423 26.091 92.9756 26.8769 93.2375C26.8769 93.2375 26.9293 92.8709 26.9293 92.7661Z" fill="#A77860"/>
<path d="M23.5013 105.978L16.8311 107.067L17.6334 111.978L24.3036 110.889L23.5013 105.978Z" fill="#366E9C"/>
<path d="M19.6992 111.885C19.6992 111.885 19.5944 111.728 19.5944 111.623C19.5944 111.623 19.5944 111.466 19.5944 111.309C19.5944 111.256 19.5944 111.256 19.5944 111.204C19.5944 111.099 19.4896 110.89 19.542 110.68C19.542 110.418 19.8564 109.423 19.8564 109.423H20.4327L21.009 109.371C21.009 109.371 21.6901 110.628 21.6901 110.89V110.942C21.6901 111.152 21.5854 111.256 21.5854 111.361C21.5854 111.414 21.4806 111.728 21.3758 111.78C21.2186 111.833 21.1138 111.833 21.009 111.78C21.009 111.78 20.7471 111.885 20.5375 111.833C20.5375 111.833 20.2755 111.937 20.0659 111.833C20.1183 111.937 19.8564 112.042 19.6992 111.885Z" fill="#EEA886"/>
<path d="M23.2625 93.9709C23.2625 93.9709 22.0575 93.6566 21.3763 94.9137C20.6952 96.2233 20.6952 96.7995 20.5904 97.428C20.4857 98.0042 19.6998 101.618 19.6474 101.776C19.595 101.933 19.333 104.185 19.333 104.971C19.333 105.599 19.4378 109.633 19.4378 109.79C19.4378 109.947 21.324 109.528 21.324 109.528C21.324 109.528 21.1144 105.809 21.1668 105.39C21.2192 105.023 21.2716 103.033 21.4811 102.457C21.6907 101.776 22.5814 98.3709 22.7386 98.0566C22.8958 97.7947 24.258 94.3899 23.2625 93.9709Z" fill="#EDDAD3"/>
<path d="M84.4051 129.118L84.5099 127.966C84.5099 127.966 82.8857 127.966 82.7285 128.071C82.7285 128.071 82.8857 129.013 82.8857 129.171C82.9381 129.328 84.4051 129.118 84.4051 129.118Z" fill="#5C544D"/>
<path d="M81.6803 131.476C83.6188 131.476 84.5095 131.58 84.7191 131.266C84.9287 130.952 84.4047 128.961 84.4047 128.961C84.4047 128.961 83.9332 129.118 82.8329 129.014C82.8329 129.014 82.3614 129.59 81.8899 129.852C81.4183 130.114 80.6848 130.218 80.4228 130.48C80.2657 130.69 79.7417 131.528 81.6803 131.476Z" fill="#3C4145"/>
<path d="M73.6121 129.118L73.7169 127.966C73.7169 127.966 72.0927 127.966 71.9355 128.071C71.9355 128.071 72.0927 129.014 72.0927 129.171C72.0927 129.328 73.6121 129.118 73.6121 129.118Z" fill="#5C544D"/>
<path d="M70.8356 131.476C72.7742 131.423 73.6649 131.58 73.8744 131.266C74.084 130.952 73.5601 128.961 73.5601 128.961C73.5601 128.961 73.1409 129.118 71.9883 129.014C71.9883 129.014 71.5167 129.59 71.0452 129.852C70.5737 130.114 68.8971 130.323 68.5827 130.585C68.4779 130.795 68.1636 131.58 70.8356 131.476Z" fill="#3C4145"/>
<path d="M82.2037 103.242C82.2037 103.242 82.9896 105.652 82.8848 107.695C82.78 109.738 83.3039 111.99 83.5135 114.137C83.7755 116.547 84.7185 122.204 84.7709 123.514C84.8233 124.771 84.6138 128.909 84.6138 128.909L82.6752 128.961C82.6752 128.961 81.051 119.061 80.6319 118.014C80.2127 117.018 78.117 109.79 78.0122 108.952C77.9598 108.114 82.2037 103.242 82.2037 103.242Z" fill="#DBD8E3"/>
<path d="M74.0306 103.661C74.0306 103.661 72.9827 109.319 72.8255 110.576C72.6683 111.833 72.6159 116.652 72.5111 117.438C72.4587 118.223 72.0396 127.757 71.6729 128.909H74.1877C74.1877 128.909 76.0739 121.995 76.0739 118.695C76.0739 115.395 77.5409 111.571 78.484 109.423C79.4271 107.276 81.6276 107.223 82.2039 103.19C82.2039 103.242 74.8165 102.352 74.0306 103.661Z" fill="#DBD8E3"/>
<path d="M79.0604 84.3329C79.0604 84.3329 77.1218 83.5996 76.1788 85.1186C75.2881 86.6377 75.3405 89.6233 76.3359 89.99C77.3314 90.3567 78.7984 90.1472 79.3224 89.2567C79.8463 88.3138 80.2654 86.9519 80.2654 86.0615C80.2654 85.1186 79.5843 84.5948 79.0604 84.3329Z" fill="#EEA886"/>
<path d="M76.7037 89.8852C76.7037 89.8852 76.8085 90.409 76.6513 90.6709C76.4942 90.9328 79.1138 90.9328 79.1138 90.9328C79.1138 90.9328 79.3234 89.5709 79.7425 88.3662C80.1617 87.2138 76.7037 89.8852 76.7037 89.8852Z" fill="#EEA886"/>
<path d="M79.7434 88.3662C79.7434 88.3662 79.5862 88.6805 78.8527 88.5234C78.1192 88.4186 77.2285 87.4234 76.9141 87.3186C76.5998 87.2138 76.5998 87.0567 76.5998 87.0567L76.3902 87.3186H76.0758C76.0758 87.3186 76.3902 86.4281 75.9187 86.1138C75.4471 85.7472 76.3902 83.2853 78.7479 84.1234C78.7479 84.1234 80.4245 84.4377 80.5293 85.4853C80.6341 86.5853 80.1625 87.8424 79.7434 88.3662Z" fill="#FCCCA2"/>
<path d="M76.4941 90.6186C76.4941 90.6186 76.4941 90.1472 76.7037 90.0948C76.9133 90.0424 79.1138 89.8329 79.3758 89.9377V90.5139C79.4282 90.5139 78.9042 90.8282 76.4941 90.6186Z" fill="#E2D2CA"/>
<path d="M76.6504 86.69C76.7028 86.5329 77.122 86.009 77.2791 86.5329C77.4363 87.0567 77.0172 87.79 76.8076 87.6852C76.5456 87.6852 76.5456 87.109 76.6504 86.69Z" fill="#EEA886"/>
<path d="M76.4944 90.6186C76.4944 90.6186 75.2894 91.0376 73.8747 91.6662C73.8747 91.6662 72.2505 92.2424 72.0934 94.0233C71.9886 94.9662 70.9931 99.9947 70.7835 100.414C70.574 100.833 68.3734 107.642 68.2686 107.799C68.2163 107.957 70.1024 108.742 70.2072 108.69C70.312 108.638 72.3553 102.457 72.5649 102.038C72.5649 102.038 73.7176 98.3709 73.7699 97.7947C73.7699 97.7947 73.8223 99.3661 73.8747 99.7852C73.9271 100.204 72.8269 108.742 72.8793 109.004C72.9317 109.266 77.909 109.528 79.9 109.318C81.8909 109.109 83.5151 108.638 83.5151 108.638C83.5151 108.638 81.9433 101.88 81.9957 101.147C82.1005 99.5233 82.6244 96.4328 82.6244 96.4328L84.2486 99.4709L82.1529 104.814L82.6244 106.438C82.6244 106.438 86.5015 100.571 86.6063 100.047C86.7111 99.5233 86.3967 98.8423 86.1872 98.3709C85.9776 97.9519 84.6678 94.5995 84.3534 94.1281C84.039 93.6566 83.5151 91.7709 82.2053 91.2471C81.1574 90.8281 79.3236 90.4614 79.3236 90.4614L76.4944 90.6186Z" fill="#63A4FF"/>
<path d="M75.4315 104.508L66.3467 102.179L64.7199 108.522L73.8047 110.851L75.4315 104.508Z" fill="#F25F54"/>
<path d="M67.5342 109.161C67.5342 109.161 67.2722 109.58 67.1674 109.685C67.0626 109.79 67.377 109.895 67.5342 109.737C67.6914 109.633 67.5342 109.161 67.5342 109.161Z" fill="#C98462"/>
<path d="M69.4225 110.576C69.4225 110.576 69.5797 110.419 69.6321 110.314C69.6321 110.314 69.6845 110.104 69.7368 110C69.7368 109.947 69.7368 109.895 69.7892 109.895C69.8416 109.79 69.9464 109.58 69.9988 109.319C70.0512 109.057 70.156 107.904 70.156 107.904L69.4749 107.747L68.8985 107.642C68.8985 107.642 67.6935 108.847 67.5887 109.109V109.161C67.5363 109.371 67.5887 109.528 67.5887 109.633C67.5887 109.685 67.5887 110.104 67.6935 110.157C67.8507 110.261 67.9555 110.261 68.0603 110.261C68.0603 110.261 68.3222 110.471 68.5318 110.419C68.5318 110.419 68.7938 110.628 69.0557 110.523C69.0033 110.523 69.2653 110.68 69.4225 110.576Z" fill="#DE9D7D"/>
<path d="M72.1964 103.242C72.1964 103.242 70.5723 108.114 70.2579 108.638C70.2579 108.638 69.0528 108.376 68.3193 107.747L70.1007 102.457L72.1964 103.242Z" fill="#63A4FF"/>
<path d="M218.061 110.89C218.061 110.89 224.086 93.29 212.612 87.8424C201.138 82.3948 191.445 90.2519 189.611 94.5471C187.777 98.7899 188.249 106.595 189.821 111.99C191.393 117.385 191.183 125.661 187.777 128.385C184.372 131.161 180.128 135.718 180.338 145.042C180.442 150.804 203.076 130.271 203.076 130.271L218.061 110.89Z" fill="#252E3B"/>
<path d="M201.925 131.79C201.925 131.79 192.494 133.885 188.774 136.085C185.054 138.285 176.724 148.29 176.724 152.637C176.724 156.932 213.032 160.966 213.032 160.966L219.896 186.056C219.896 186.056 238.233 181.604 240.434 177.885C242.634 174.166 233.466 147.556 231.894 142.214C230.322 136.714 223.72 132.89 216.071 131.842C208.474 130.742 201.925 131.79 201.925 131.79Z" fill="#63A4FF"/>
<path d="M215.442 131.685C215.442 131.685 215.232 143.104 206.168 143.471C197.104 143.785 198.99 132.523 198.99 132.523C198.99 132.523 205.644 129.852 215.442 131.685Z" fill="#EEA886"/>
<path d="M219.319 97.2185C219.319 97.2185 222.515 115.604 213.399 128.909C203.916 142.633 219.319 97.2185 219.319 97.2185Z" fill="#252E3B"/>
<path d="M213.503 123.618C213.503 123.618 212.874 129.066 213.922 132.471C214.97 135.875 200.038 135.98 200.038 133.152C200.038 129.956 201.557 127.337 200.143 121.89C198.728 116.442 213.503 123.618 213.503 123.618Z" fill="#EEA886"/>
<path d="M201.923 124.299C201.923 124.299 206.638 129.223 212.663 124.823C212.663 124.823 212.14 127.966 207.843 128.385C203.495 128.804 201.923 124.299 201.923 124.299Z" fill="#A77860"/>
<path d="M207.843 90.8281C207.843 90.8281 219.737 94.3376 218.06 110.89C216.384 127.39 208.577 126.552 207.843 126.709C207.11 126.814 197.889 127.442 194.955 107.38C192.021 87.2662 207.843 90.8281 207.843 90.8281Z" fill="#EEA886"/>
<path d="M204.754 98.1614C204.754 98.1614 211.251 108.48 218.062 110.837C218.062 110.837 221.782 93.5519 206.431 89.9376C191.079 86.3233 193.489 107.38 194.642 112.985C194.59 113.037 197.786 104.761 204.754 98.1614Z" fill="#252E3B"/>
<path d="M196.057 96.6423C196.057 96.6423 199.462 90.0423 205.225 89.7281C210.989 89.4138 214.394 94.4423 214.394 94.4423C214.394 94.4423 212.141 88.8376 205.225 88.8376C198.31 88.8376 196.057 96.6423 196.057 96.6423Z" fill="#88C0FF"/>
<path d="M219.476 148.499L223.511 186.056H170.384L166.35 148.499H219.476Z" fill="url(#paint5_linear_1586_2026)"/>
<path d="M222.252 184.747H168.601L164.515 146.718H218.165L222.252 184.747ZM169.02 184.328H221.728L217.746 147.242H165.039L169.02 184.328Z" fill="url(#paint6_linear_1586_2026)"/>
<path d="M198.256 166.675C198.728 169.032 197.627 171.232 195.846 171.599C194.012 171.966 192.179 170.394 191.707 168.037C191.235 165.68 192.336 163.48 194.117 163.113C195.898 162.747 197.732 164.318 198.256 166.675Z" fill="#FFD255"/>
<path d="M187.672 73.3329C183.167 73.3329 179.499 69.6663 179.499 65.1616C179.499 60.6568 183.167 56.9902 187.672 56.9902C192.178 56.9902 195.846 60.6568 195.846 65.1616C195.846 69.6663 192.178 73.3329 187.672 73.3329ZM187.672 57.4616C183.429 57.4616 179.971 60.9187 179.971 65.1616C179.971 69.4044 183.429 72.8615 187.672 72.8615C191.916 72.8615 195.374 69.4044 195.374 65.1616C195.374 60.9187 191.916 57.4616 187.672 57.4616Z" fill="url(#paint7_linear_1586_2026)"/>
<path d="M43.4341 156.461V155.78C44.7963 155.78 46.2109 155.728 47.5731 155.675L47.6255 156.356C46.2109 156.409 44.7963 156.461 43.4341 156.461ZM39.2426 156.409C37.8804 156.356 36.4658 156.304 35.0511 156.199L35.1035 155.518C36.5181 155.623 37.8804 155.675 39.2426 155.728V156.409ZM51.7646 156.094L51.7122 155.413C53.0744 155.309 54.4891 155.152 55.8513 154.994L55.9561 155.675C54.5415 155.78 53.1268 155.937 51.7646 156.094ZM30.8597 155.885C29.445 155.728 28.0304 155.571 26.7206 155.361L26.8254 154.68C28.1352 154.89 29.5498 155.099 30.9121 155.204L30.8597 155.885ZM60.0951 154.994L59.9904 154.313C61.3526 154.104 62.7148 153.842 64.077 153.528L64.2342 154.209C62.8196 154.523 61.405 154.785 60.0951 154.994ZM22.6339 154.523C21.2193 154.209 19.8571 153.79 18.5996 153.371L18.8092 152.69C20.0666 153.109 21.3765 153.528 22.7911 153.842L22.6339 154.523ZM68.2685 153.318L68.1113 152.637C69.3688 152.323 70.731 152.009 72.1456 151.59L72.3028 152.271C70.8882 152.69 69.5259 153.004 68.2685 153.318ZM14.6701 151.799C13.3603 151.171 12.1553 150.49 11.0026 149.756L11.3694 149.18C12.4696 149.913 13.6747 150.594 14.9321 151.223L14.6701 151.799ZM76.3371 151.223L76.1275 150.542C76.7038 150.385 77.2802 150.228 77.8565 150.071C78.6424 149.861 79.3759 149.652 80.1618 149.442L80.3714 150.123C79.6378 150.333 78.852 150.542 78.0661 150.752C77.4897 150.856 76.9134 151.013 76.3371 151.223ZM112.593 150.594C111.336 149.966 110.026 149.442 108.769 149.023L108.978 148.342C110.236 148.814 111.545 149.337 112.855 149.966L112.593 150.594ZM84.3533 148.971L84.1961 148.29C85.7155 147.923 87.0253 147.609 88.2827 147.347L88.4399 148.028C87.1825 148.29 85.8727 148.604 84.3533 148.971ZM104.787 147.871C103.424 147.556 102.062 147.347 100.7 147.19L100.752 146.509C102.115 146.666 103.529 146.875 104.891 147.19L104.787 147.871ZM92.4742 147.347L92.3694 146.666C93.8364 146.456 95.1987 146.352 96.5609 146.352V147.033C95.3035 147.085 93.9412 147.19 92.4742 147.347ZM7.70182 147.085C6.65395 146.142 5.71087 145.042 4.87258 143.942L5.44891 143.523C6.23481 144.623 7.17789 145.618 8.17336 146.561L7.70182 147.085ZM2.67206 140.38C2.04334 139.123 1.5718 137.814 1.15265 136.452L1.83377 136.242C2.20052 137.604 2.72445 138.861 3.30078 140.066L2.67206 140.38ZM0.261967 132.261C0.104787 130.899 0 129.485 0 128.071H0.681113C0.681113 129.485 0.7859 130.847 0.94308 132.209L0.261967 132.261ZM0.890687 123.933L0.209573 123.88C0.366753 122.518 0.576327 121.104 0.838293 119.742L1.51941 119.899C1.25744 121.209 1.04787 122.623 0.890687 123.933ZM2.51488 115.814L1.83377 115.604C2.51488 113.142 3.19599 111.676 3.19599 111.623L3.82471 111.885C3.82471 111.938 3.19599 113.457 2.51488 115.814Z" fill="#C2BEBC"/>
<path d="M223.404 31.4808C223.404 31.4808 222.252 30.4332 220.156 28.9141L220.575 28.3379C222.671 29.9094 223.876 30.957 223.876 30.957L223.404 31.4808ZM216.751 26.5046C215.598 25.7189 214.445 24.9856 213.24 24.2523L213.607 23.6761C214.812 24.4094 216.017 25.1427 217.17 25.9284L216.751 26.5046ZM209.625 22.2094C208.42 21.5285 207.163 20.8999 205.905 20.3237L206.219 19.6951C207.477 20.2713 208.734 20.9523 209.939 21.5808L209.625 22.2094ZM202.133 18.5951C200.823 18.0713 199.565 17.5475 198.256 17.0761L198.465 16.3951C199.775 16.8666 201.085 17.3904 202.395 17.9142L202.133 18.5951ZM149.32 17.757V17.0761C150.683 17.0237 152.045 16.919 153.407 16.7094L153.512 17.3904C152.097 17.5999 150.683 17.757 149.32 17.757ZM145.076 17.5475C143.714 17.3904 142.352 17.1285 140.937 16.7094L141.095 16.0285C142.457 16.3951 143.819 16.6571 145.129 16.8142L145.076 17.5475ZM157.598 16.4475L157.389 15.7666C157.86 15.6094 158.28 15.5047 158.751 15.3475C159.642 15.0333 160.532 14.7713 161.371 14.5094L161.58 15.1904C160.69 15.4523 159.851 15.7142 158.961 15.9761C158.542 16.1332 158.07 16.2904 157.598 16.4475ZM194.326 15.819C193.016 15.3999 191.654 15.0856 190.292 14.7713L190.449 14.0904C191.811 14.4047 193.174 14.7713 194.483 15.138L194.326 15.819ZM136.955 15.3999C135.75 14.9285 134.493 14.3523 133.131 13.7237L133.445 13.0952C134.807 13.7237 136.012 14.2999 137.217 14.7713L136.955 15.3999ZM165.615 14.1952L165.457 13.5142C166.82 13.2523 168.234 12.9904 169.597 12.8333L169.701 13.5142C168.339 13.7237 166.977 13.9333 165.615 14.1952ZM186.258 13.9856C184.895 13.7761 183.481 13.5666 182.171 13.4618L182.223 12.7809C183.586 12.938 185 13.0952 186.362 13.3047L186.258 13.9856ZM64.024 13.3047L63.6572 12.7285C64.8623 11.9428 66.0673 11.2095 67.22 10.5285L67.5867 11.1047C66.4341 11.7856 65.229 12.519 64.024 13.3047ZM173.84 13.1999L173.788 12.519C175.15 12.4666 176.565 12.4142 177.979 12.4666V13.1475C176.617 13.1475 175.203 13.1475 173.84 13.1999ZM129.411 11.7857C128.206 11.1571 127.053 10.4761 125.743 9.7428L126.11 9.11424C127.42 9.84757 128.573 10.4761 129.725 11.1571L129.411 11.7857ZM71.1495 9.00947L70.8351 8.38091C72.0925 7.69996 73.35 7.01901 74.555 6.44282L74.8694 7.07139C73.612 7.69996 72.4069 8.32853 71.1495 9.00947ZM122.128 7.75234C120.766 7.01901 119.561 6.39044 118.461 5.81425L118.775 5.18569C119.875 5.76187 121.133 6.39044 122.495 7.12377L122.128 7.75234ZM78.5893 5.34283L78.3274 4.71426C79.6372 4.13807 80.947 3.61427 82.2045 3.14284L82.4664 3.77141C81.209 4.24283 79.8992 4.76664 78.5893 5.34283ZM114.688 4.08569C113.378 3.5095 112.069 3.03808 110.811 2.61903L111.021 1.93808C112.331 2.35713 113.588 2.82856 114.95 3.40474L114.688 4.08569ZM86.3959 2.51427L86.1864 1.83332C87.5486 1.41428 88.9108 1.09999 90.273 0.838091L90.4302 1.51904C89.1204 1.78094 87.7581 2.09523 86.3959 2.51427ZM106.829 1.51904C105.467 1.20476 104.105 0.995233 102.743 0.838091L102.795 0.157142C104.157 0.314284 105.572 0.523807 106.934 0.838091L106.829 1.51904ZM94.5169 0.890471L94.4645 0.209523C95.8791 0.0523807 97.2937 0 98.656 0V0.680949C97.2937 0.628568 95.8791 0.733329 94.5169 0.890471Z" fill="#C2BEBC"/>
<path d="M136.798 158.242L119.299 153.161L124.538 151.59L136.798 158.242Z" fill="#D6D6D6"/>
<path d="M136.796 158.242L130.247 151.694L126.213 152.48L136.796 158.242Z" fill="#E8E8E8"/>
<path d="M123.333 154.314L123.49 156.356L136.798 158.242L123.333 154.314Z" fill="#C2C2C2"/>
<path d="M48.8291 24.8808L64.2327 16.238L58.941 15.8713L48.8291 24.8808Z" fill="#D6D6D6"/>
<path d="M48.8291 24.8808L53.5445 17.2332L57.5264 17.1284L48.8291 24.8808Z" fill="#E8E8E8"/>
<path d="M60.67 18.2285L60.9844 20.1665L48.8291 24.8808L60.67 18.2285Z" fill="#C2C2C2"/>
<defs>
<linearGradient id="paint0_linear_1586_2026" x1="202.755" y1="117.931" x2="283.646" y2="117.931" gradientUnits="userSpaceOnUse">
<stop stop-color="#DBDBDB"/>
<stop offset="0.875" stop-color="#BDBDBD"/>
</linearGradient>
<linearGradient id="paint1_linear_1586_2026" x1="43.9093" y1="68.2353" x2="103.996" y2="62.0608" gradientUnits="userSpaceOnUse">
<stop stop-color="#CDCDCD"/>
<stop offset="1" stop-color="#DADADA"/>
</linearGradient>
<linearGradient id="paint2_linear_1586_2026" x1="99.501" y1="119.701" x2="260.6" y2="119.701" gradientUnits="userSpaceOnUse">
<stop stop-color="#F47B20"/>
<stop offset="1" stop-color="#F15623"/>
</linearGradient>
<linearGradient id="paint3_linear_1586_2026" x1="116.276" y1="110.635" x2="180.189" y2="110.635" gradientUnits="userSpaceOnUse">
<stop stop-color="#F47B20"/>
<stop offset="1" stop-color="#F15623"/>
</linearGradient>
<linearGradient id="paint4_linear_1586_2026" x1="119.201" y1="108.467" x2="183.631" y2="108.467" gradientUnits="userSpaceOnUse">
<stop stop-color="#F47B20"/>
<stop offset="1" stop-color="#F15623"/>
</linearGradient>
<linearGradient id="paint5_linear_1586_2026" x1="166.33" y1="167.286" x2="223.536" y2="167.286" gradientUnits="userSpaceOnUse">
<stop stop-color="#F47B20"/>
<stop offset="1" stop-color="#F15623"/>
</linearGradient>
<linearGradient id="paint6_linear_1586_2026" x1="164.533" y1="165.766" x2="222.255" y2="165.766" gradientUnits="userSpaceOnUse">
<stop stop-color="#F47B20"/>
<stop offset="1" stop-color="#F15623"/>
</linearGradient>
<linearGradient id="paint7_linear_1586_2026" x1="179.481" y1="65.1497" x2="195.84" y2="65.1497" gradientUnits="userSpaceOnUse">
<stop stop-color="#F47B20"/>
<stop offset="1" stop-color="#F15623"/>
</linearGradient>
</defs>
</svg>
