<svg width="68" height="51" viewBox="0 0 68 51" fill="none" xmlns="http://www.w3.org/2000/svg">
  <path fill-rule="evenodd" clip-rule="evenodd"
        d="M33.9899 0.00615355C27.4883 0.00615355 21.0018 2.20931 15.7193 6.61455C12.54 9.26602 10.0827 12.4922 8.37615 16.0249C8.13931 16.0025 7.90883 15.9515 7.66566 15.9515C3.41917 15.9515 0 19.3496 0 23.5699V32.9858C0 37.206 3.41917 40.6042 7.66566 40.6042C7.90885 40.6042 8.13932 40.5518 8.37615 40.5307C8.6817 41.1601 8.99784 41.7849 9.35415 42.3987C10.747 44.8694 14.4682 42.7541 13.0313 40.3082C7.1478 30.1801 9.42635 17.3461 18.4402 9.82889C27.4543 2.31155 40.5474 2.31155 49.5614 9.82889C58.5755 17.3461 60.854 30.1799 54.9704 40.3082L54.907 40.413L54.8646 40.5179C54.8646 40.5179 52.0071 46.8005 46.396 46.8005L39.2932 46.7374C38.6271 45.7706 37.5611 45.0974 36.2882 45.0974H31.7096C29.6567 45.0974 28.0052 46.7442 28.0052 48.7845C28.0052 50.0431 28.8087 50.9987 30.6475 50.9987L46.3959 51C54.8162 51 58.4579 42.7843 58.6237 42.4041V42.3817C58.9768 41.7733 59.2877 41.1485 59.5911 40.5246C59.8385 40.547 60.0796 40.5981 60.3344 40.5981C64.5808 40.5981 68 37.2 68 32.9797V23.5639C68 19.3436 64.5808 15.9454 60.3344 15.9454C60.0891 15.9454 59.8575 15.9857 59.6186 16.0189C57.916 12.4859 55.4661 9.26008 52.2863 6.60843C47.004 2.20319 40.4903 0 33.9885 0L33.9899 0.00615355ZM24.7509 13.3914C23.1006 13.2843 21.5933 13.6311 20.2761 15.0096C16.7637 18.6847 14.5938 23.6868 14.5938 29.0138C14.5938 33.4078 16.0714 38.3314 18.5604 38.5111C22.1065 38.7674 27.7023 36.4531 34.0008 36.4531C40.6755 36.4531 46.5655 39.0498 50.0586 38.4351C52.1755 38.0632 53.4133 33.034 53.4133 29.0138C53.4133 23.6868 51.2381 18.6847 47.7256 15.0096C44.2132 11.3343 39.3607 15.0096 34.0008 15.0096C30.651 15.0096 27.5011 13.5708 24.7509 13.3914ZM23.9642 22.4487C25.9223 22.4495 27.5095 24.0269 27.5102 25.973C27.5095 27.9191 25.9223 29.4964 23.9642 29.4971C22.0062 29.4964 20.419 27.9191 20.4183 25.973C20.419 24.0269 22.0062 22.4495 23.9642 22.4487ZM44.0378 22.4487C45.996 22.4495 47.5831 24.0269 47.5838 25.973C47.5831 27.9191 45.996 29.4964 44.0378 29.4971C42.0797 29.4964 40.4926 27.9191 40.4919 25.973C40.4926 24.0269 42.0797 22.4495 44.0378 22.4487Z"
        fill="#009BFF"/>
</svg>
