<svg width="310" height="90" viewBox="0 0 310 90" fill="none" xmlns="http://www.w3.org/2000/svg">
<path opacity="0.8" d="M0 21.0488C0 17.1828 3.13401 14.0488 7 14.0488H303C306.866 14.0488 310 17.1828 310 21.0488V77.0488H0V21.0488Z" fill="#404447"/>
<path d="M99 13.0486L128.699 13.0486L165.617 77.1508L136 77.1508L99 13.0486Z" fill="url(#paint0_linear)"/>
<path d="M225.007 12.909L254.706 12.909L291.624 77.0111L262.007 77.0112L225.007 12.909Z" fill="url(#paint1_linear)"/>
<path d="M120.692 13.0486L90.9938 13.0486L54.0755 77.1508L83.6923 77.1508L120.692 13.0486Z" fill="url(#paint2_linear)"/>
<path d="M123.007 12.909L152.706 12.909L189.624 77.0111L160.007 77.0112L123.007 12.909Z" fill="url(#paint3_linear)"/>
<path d="M100.685 12.909L70.9866 12.909L34.0683 77.0111L63.6851 77.0112L100.685 12.909Z" fill="url(#paint4_linear)"/>
<path d="M13.6203 44.7996C14.2182 44.1024 14.9061 43.4877 15.6659 42.9718L15.3768 40.4429L19.3508 39.0488L20.7008 41.2067C21.6172 41.1343 22.539 41.1848 23.442 41.3568L25.0239 39.3653L28.8178 41.1904L28.2505 43.6702C28.9476 44.2682 29.5621 44.9562 30.0779 45.7162L32.6063 45.427L34 49.4018L31.8426 50.7522C31.9149 51.6687 31.8645 52.5908 31.6926 53.4939L33.6836 55.0762L31.8698 58.871L29.3797 58.2981C28.7818 58.9953 28.0939 59.6099 27.3341 60.1259L27.6232 62.6548L23.6492 64.0488L22.2992 61.8909C21.3828 61.9633 20.461 61.9129 19.558 61.7409L17.9761 63.7324L14.1822 61.9073L14.7495 59.4275C14.0524 58.8295 13.4379 58.1414 12.9221 57.3814L10.3937 57.6706L9 53.6958L11.1574 52.3454C11.0851 51.4289 11.1355 50.5069 11.3074 49.6037L9.31639 48.0214L11.1411 44.2322L13.6203 44.7996ZM16.3805 49.0881C15.8931 50.1009 15.7169 51.2356 15.8742 52.3486C16.0316 53.4616 16.5155 54.503 17.2646 55.3409C18.0137 56.1788 18.9945 56.7757 20.0828 57.056C21.1712 57.3363 22.3182 57.2874 23.3787 56.9157C24.4393 56.5439 25.3658 55.8658 26.0411 54.9672C26.7163 54.0687 27.11 52.99 27.1722 51.8676C27.2344 50.7453 26.9625 49.6297 26.3907 48.662C25.819 47.6942 24.9731 46.9178 23.9602 46.431C22.6026 45.7793 21.0419 45.6931 19.6208 46.1913C18.1997 46.6895 17.0343 47.7313 16.3805 49.0881Z" fill="#383C40"/>
<path d="M6.80302 35.2957C7.03625 35.0229 7.30517 34.7827 7.60252 34.5817L7.48949 33.5933L9.04301 33.0488L9.57095 33.8911C9.92902 33.8634 10.2892 33.8833 10.642 33.9503L11.2609 33.1715L12.7442 33.8855L12.5209 34.8505C12.7941 35.0837 13.0347 35.3526 13.2363 35.65L14.2246 35.5369L14.7691 37.0905L13.9255 37.6184C13.9538 37.9765 13.9339 38.3367 13.8662 38.6895L14.6451 39.3084L13.9324 40.7916L12.9675 40.5683C12.7337 40.8415 12.4644 41.0822 12.1666 41.2837L12.281 42.2721L10.7275 42.8235L10.1995 41.9812C9.84141 42.0091 9.48116 41.9887 9.12847 41.9206L8.50955 42.6994L7.02633 41.9867L7.24826 41.0218C6.97579 40.7882 6.73566 40.5193 6.53422 40.2223L5.54587 40.3353L5 38.7777L5.84223 38.2497C5.81456 37.8917 5.83449 37.5315 5.90151 37.1787L5.12268 36.5598L5.8381 35.0738L6.80302 35.2957ZM7.88235 36.9719C7.6917 37.3677 7.62273 37.8111 7.68416 38.2461C7.74558 38.6811 7.93465 39.0881 8.22744 39.4156C8.52022 39.7432 8.90357 39.9765 9.32899 40.0861C9.75441 40.1957 10.2028 40.1767 10.6174 40.0314C11.032 39.8861 11.3942 39.6211 11.6581 39.27C11.9221 38.9188 12.076 38.4972 12.1003 38.0586C12.1246 37.62 12.0183 37.184 11.7948 36.8058C11.5713 36.4276 11.2406 36.1242 10.8446 35.9339C10.3144 35.6799 9.70511 35.6466 9.15032 35.8412C8.59552 36.0357 8.14053 36.4424 7.88511 36.9719H7.88235Z" fill="#35393E"/>
<path d="M32.9221 31.1996C33.0415 31.0596 33.1793 30.9364 33.3317 30.8332L33.2739 30.3271L34.0689 30.0488L34.3398 30.4804C34.5231 30.4654 34.7076 30.4756 34.888 30.5108L35.2031 30.1118L35.9624 30.4772L35.849 30.9728C35.9885 31.0928 36.1117 31.2304 36.2155 31.3823L36.7206 31.3246L37 32.1194L36.5694 32.3903C36.5833 32.5735 36.5731 32.7578 36.539 32.9384L36.938 33.2534L36.5726 34.0125L36.0758 33.8981C35.9566 34.0383 35.8188 34.1616 35.6662 34.2645L35.7251 34.7706L34.9301 35.0488L34.6591 34.6173C34.4758 34.6318 34.2914 34.6215 34.1109 34.5868L33.7958 34.9858L33.0365 34.6204L33.151 34.1248C33.0113 34.0052 32.888 33.8675 32.7845 33.7154L32.2783 33.7731L32 32.9783L32.4295 32.7053C32.4146 32.522 32.4248 32.3376 32.46 32.1572L32.0609 31.8422L32.4264 31.0831L32.9221 31.1975V31.1996ZM33.4745 32.0574C33.3772 32.2599 33.342 32.4867 33.3736 32.7091C33.4052 32.9315 33.5019 33.1396 33.6518 33.307C33.8016 33.4744 33.9976 33.5937 34.2152 33.6497C34.4328 33.7058 34.6621 33.696 34.8742 33.6218C35.0863 33.5476 35.2715 33.4121 35.4066 33.2326C35.5417 33.0531 35.6206 32.8376 35.6332 32.6133C35.6458 32.389 35.5916 32.166 35.4775 31.9725C35.3634 31.779 35.1944 31.6237 34.992 31.5261C34.8575 31.4613 34.7115 31.4236 34.5624 31.4153C34.4133 31.4069 34.264 31.428 34.1231 31.4773C33.9822 31.5267 33.8523 31.6033 33.741 31.7028C33.6297 31.8024 33.5392 31.9229 33.4745 32.0574Z" fill="#35393E"/>
<path d="M6.21304 81.7325C6.37053 81.5494 6.55126 81.3877 6.75064 81.2514L6.67482 80.587L7.71831 80.2217L8.07396 80.7882C8.31452 80.77 8.55644 80.7835 8.79351 80.8282L9.20705 80.3044L10.2037 80.7841L10.0534 81.4361C10.2375 81.5926 10.3994 81.7734 10.5345 81.9737L11.1989 81.8965L11.5642 82.94L11.0018 83.2956C11.0215 83.5362 11.008 83.7783 10.9618 84.0152L11.4856 84.4287L11.0018 85.4281L10.3512 85.2779C10.194 85.4613 10.0133 85.6231 9.81357 85.7589L9.88938 86.4234L8.84589 86.7886L8.49025 86.2221C8.2497 86.2417 8.00759 86.2283 7.77069 86.1821L7.35716 86.7059L6.35916 86.2262L6.50941 85.5756C6.32564 85.4188 6.16383 85.238 6.02833 85.038L5.36391 85.1138L5 84.0662L5.56655 83.7106C5.5476 83.47 5.56104 83.228 5.60652 82.991L5.08271 82.5775L5.56241 81.585L6.21304 81.7338V81.7325ZM6.93949 82.8587C6.81202 83.1244 6.76616 83.422 6.8077 83.7138C6.84923 84.0057 6.97631 84.2786 7.17287 84.4983C7.36944 84.7179 7.62668 84.8744 7.91212 84.948C8.19755 85.0215 8.49838 85.0088 8.77662 84.9115C9.05486 84.8143 9.29803 84.6367 9.47543 84.4013C9.65283 84.1659 9.7565 83.8832 9.77335 83.5889C9.7902 83.2946 9.71948 83.002 9.57011 82.7479C9.42074 82.4937 9.19943 82.2896 8.93411 82.1612C8.75741 82.0756 8.56556 82.0258 8.36956 82.0146C8.17357 82.0034 7.97729 82.031 7.79198 82.0958C7.60666 82.1606 7.43597 82.2613 7.28968 82.3922C7.14339 82.5231 7.02438 82.6817 6.93949 82.8587Z" fill="#2F3235"/>
<path d="M42.5262 21.3233C42.763 21.0476 43.0351 20.8043 43.3353 20.5996L43.2209 19.6002L44.7924 19.0488L45.3272 19.9021C45.6894 19.8737 46.0537 19.8937 46.4107 19.9614L47.0365 19.1743L48.5376 19.8938L48.3129 20.8753C48.5893 21.1114 48.8327 21.3836 49.0366 21.6844L50.036 21.57L50.5874 23.1415L49.7341 23.6763C49.762 24.0385 49.7416 24.4029 49.6735 24.7598L50.462 25.3856L49.7397 26.8867L48.7596 26.6607C48.5238 26.9373 48.2516 27.1808 47.9504 27.3843L48.0648 28.3851L46.4934 28.9365L45.9585 28.0846C45.5963 28.1125 45.232 28.0921 44.8751 28.024L44.2493 28.8124L42.7481 28.0901L42.9728 27.11C42.6972 26.8727 42.4538 26.6002 42.2491 26.2995L41.2497 26.4153L40.6984 24.8439L41.5516 24.309C41.5238 23.9463 41.5442 23.5815 41.6123 23.2242L40.8238 22.5997L41.5461 21.0986L42.5262 21.3233ZM43.6179 23.0188C43.4252 23.4192 43.3555 23.8679 43.4177 24.3079C43.4799 24.748 43.6712 25.1597 43.9675 25.491C44.2637 25.8223 44.6515 26.0583 45.0819 26.1692C45.5123 26.2801 45.9659 26.2608 46.3854 26.1139C46.8048 25.9669 47.1712 25.6989 47.4383 25.3437C47.7054 24.9884 47.8612 24.562 47.8859 24.1182C47.9105 23.6745 47.8031 23.2334 47.5771 22.8507C47.351 22.468 47.0166 22.161 46.6161 21.9684C46.0792 21.7103 45.4618 21.6759 44.8995 21.8729C44.3373 22.0698 43.8763 22.482 43.6179 23.0188Z" fill="#2F3235"/>
<defs>
<linearGradient id="paint0_linear" x1="110.133" y1="6.62077" x2="154.545" y2="83.5432" gradientUnits="userSpaceOnUse">
<stop stop-color="#35393E"/>
<stop offset="1" stop-color="#35393E" stop-opacity="0"/>
</linearGradient>
<linearGradient id="paint1_linear" x1="236.14" y1="6.48112" x2="280.552" y2="83.4036" gradientUnits="userSpaceOnUse">
<stop stop-color="#35393E"/>
<stop offset="1" stop-color="#35393E" stop-opacity="0"/>
</linearGradient>
<linearGradient id="paint2_linear" x1="109.559" y1="6.62077" x2="65.1476" y2="83.5432" gradientUnits="userSpaceOnUse">
<stop stop-color="#35393E"/>
<stop offset="1" stop-color="#35393E" stop-opacity="0"/>
</linearGradient>
<linearGradient id="paint3_linear" x1="134.14" y1="6.48112" x2="178.552" y2="83.4036" gradientUnits="userSpaceOnUse">
<stop stop-color="#35393E"/>
<stop offset="1" stop-color="#35393E" stop-opacity="0"/>
</linearGradient>
<linearGradient id="paint4_linear" x1="89.5517" y1="6.48112" x2="45.1404" y2="83.4036" gradientUnits="userSpaceOnUse">
<stop stop-color="#35393E"/>
<stop offset="1" stop-color="#35393E" stop-opacity="0"/>
</linearGradient>
</defs>
</svg>
