<svg width="25" height="24" xmlns="http://www.w3.org/2000/svg" xmlns:xlink="http://www.w3.org/1999/xlink" xmlns:svgjs="http://svgjs.com/svgjs" viewBox="1564 20 25 24"><svg width="17" height="16" xmlns="http://www.w3.org/2000/svg" xmlns:xlink="http://www.w3.org/1999/xlink" xmlns:svgjs="http://svgjs.com/svgjs" viewBox="0.5 0 16 16" fill="#161616" x="1568" y="24"><svg xmlns="http://www.w3.org/2000/svg" xmlns:xlink="http://www.w3.org/1999/xlink" width="17" height="16" viewBox="0.83 0.477 15.28 15.28"><path paint-order="stroke fill markers" fill-rule="evenodd" d="M8.47.477C4.258.477.83 3.904.83 8.117c0 4.213 3.428 7.64 7.64 7.64 4.213 0 7.64-3.427 7.64-7.64 0-4.213-3.427-7.64-7.64-7.64zm-6.966 7.64A6.974 6.974 0 0 1 8.47 1.151v13.933a6.974 6.974 0 0 1-6.966-6.967z"/></svg></svg><svg width="4" height="4" xmlns="http://www.w3.org/2000/svg" xmlns:xlink="http://www.w3.org/1999/xlink" xmlns:svgjs="http://svgjs.com/svgjs" viewBox="0 0.531 4 2.938" fill="#161616" x="1566" y="35"><svg xmlns="http://www.w3.org/2000/svg" xmlns:xlink="http://www.w3.org/1999/xlink" width="4" height="4" viewBox="0.271 0.848 3.232 2.373"><path paint-order="stroke fill markers" fill-rule="evenodd" d="M2.993.849l-.41.237L.546 2.262c-.24.138-.35.443-.221.688a.506.506 0 0 0 .702.204l1.364-.787.002-.001.412-.239.695-.4c.002-.002.002-.004.001-.006A8.36 8.36 0 0 1 3 .851a.004.004 0 0 0-.006-.002z"/></svg></svg><svg width="3" height="4" xmlns="http://www.w3.org/2000/svg" xmlns:xlink="http://www.w3.org/1999/xlink" xmlns:svgjs="http://svgjs.com/svgjs" viewBox="0.033 0 2.933 4" fill="#161616" x="1570" y="39"><svg xmlns="http://www.w3.org/2000/svg" xmlns:xlink="http://www.w3.org/1999/xlink" width="3" height="4" viewBox="0.366 0.083 2.374 3.237"><path paint-order="stroke fill markers" fill-rule="evenodd" d="M1.863.083L1.78.23.434 2.559a.507.507 0 0 0 .877.507L2.1 1.703V1.7l.328-.566.312-.54c0-.002 0-.005-.002-.006a8.386 8.386 0 0 1-.874-.506z"/></svg></svg><svg width="2" height="4" xmlns="http://www.w3.org/2000/svg" xmlns:xlink="http://www.w3.org/1999/xlink" xmlns:svgjs="http://svgjs.com/svgjs" viewBox="0.397 0 1.205 4" fill="#161616" x="1575" y="40"><svg xmlns="http://www.w3.org/2000/svg" xmlns:xlink="http://www.w3.org/1999/xlink" width="2" height="4" viewBox="0.964 0.456 1.014 3.363"><path paint-order="stroke fill markers" fill-rule="evenodd" d="M1.977.456c-.168.01-.336.017-.507.017-.17 0-.339-.007-.506-.017V3.285c0 .25.168.483.415.527a.507.507 0 0 0 .598-.5V1.74v-.003V.61.456z"/></svg></svg><svg width="3" height="4" xmlns="http://www.w3.org/2000/svg" xmlns:xlink="http://www.w3.org/1999/xlink" xmlns:svgjs="http://svgjs.com/svgjs" viewBox="0.036 0 2.928 4" fill="#161616" x="1580" y="39"><svg xmlns="http://www.w3.org/2000/svg" xmlns:xlink="http://www.w3.org/1999/xlink" width="3" height="4" viewBox="0.202 0.083 2.369 3.237"><path paint-order="stroke fill markers" fill-rule="evenodd" d="M1.72 1.197v-.003L1.096.117l-.02-.034C.798.27.507.438.205.59a.004.004 0 0 0-.002.005L1.63 3.066a.508.508 0 0 0 .78.123.52.52 0 0 0 .088-.647L1.72 1.197z"/></svg></svg><svg width="4" height="4" xmlns="http://www.w3.org/2000/svg" xmlns:xlink="http://www.w3.org/1999/xlink" xmlns:svgjs="http://svgjs.com/svgjs" viewBox="0 0.531 4 2.938" fill="#161616" x="1583" y="35"><svg xmlns="http://www.w3.org/2000/svg" xmlns:xlink="http://www.w3.org/1999/xlink" width="4" height="4" viewBox="0.438 0.848 3.231 2.373"><path paint-order="stroke fill markers" fill-rule="evenodd" d="M3.395 2.262l-1.339-.773-.002-.002-.917-.529-.19-.11c-.001 0-.003 0-.005.003-.15.3-.318.591-.503.87a.004.004 0 0 0 .001.005l2.473 1.428a.506.506 0 0 0 .702-.204c.129-.245.02-.55-.22-.688z"/></svg></svg><svg width="5" height="2" xmlns="http://www.w3.org/2000/svg" xmlns:xlink="http://www.w3.org/1999/xlink" xmlns:svgjs="http://svgjs.com/svgjs" viewBox="0 0.246 5 1.507" fill="#161616" x="1584" y="31"><svg xmlns="http://www.w3.org/2000/svg" xmlns:xlink="http://www.w3.org/1999/xlink" width="5" height="2" viewBox="0.81 0.61 3.363 1.014"><path paint-order="stroke fill markers" fill-rule="evenodd" d="M4.165 1.025C4.122.78 3.89.61 3.638.61H2.092 2.09.813A.004.004 0 0 0 .81.614a8.133 8.133 0 0 1 0 1.006c0 .002.001.004.003.004h2.853c.31 0 .555-.278.5-.599z"/></svg></svg><svg width="4" height="3" xmlns="http://www.w3.org/2000/svg" xmlns:xlink="http://www.w3.org/1999/xlink" xmlns:svgjs="http://svgjs.com/svgjs" viewBox="0 0.031 4 2.937" fill="#161616" x="1583" y="26"><svg xmlns="http://www.w3.org/2000/svg" xmlns:xlink="http://www.w3.org/1999/xlink" width="4" height="3" viewBox="0.438 0.012 3.234 2.375"><path paint-order="stroke fill markers" fill-rule="evenodd" d="M1.045 2.329L3.395.972c.217-.125.335-.388.249-.623A.507.507 0 0 0 2.913.08L1.549.867l-.002.001-1.107.64c-.002.001-.003.003-.001.005.185.28.354.572.505.874l.101-.058z"/></svg></svg><svg width="3" height="5" xmlns="http://www.w3.org/2000/svg" xmlns:xlink="http://www.w3.org/1999/xlink" xmlns:svgjs="http://svgjs.com/svgjs" viewBox="0 0.45 3 4.1" fill="#161616" x="1580" y="21"><svg xmlns="http://www.w3.org/2000/svg" xmlns:xlink="http://www.w3.org/1999/xlink" width="3" height="5" viewBox="0.202 0.915 2.367 3.235"><path paint-order="stroke fill markers" fill-rule="evenodd" d="M1.074 4.149c.002 0 .004 0 .006-.002l.11-.192 1.303-2.256c.125-.217.096-.503-.096-.664a.507.507 0 0 0-.768.133L.841 2.533l-.317.55-.322.557c0 .002 0 .004.002.005.3.151.591.319.87.504z"/></svg></svg><svg width="2" height="4" xmlns="http://www.w3.org/2000/svg" xmlns:xlink="http://www.w3.org/1999/xlink" xmlns:svgjs="http://svgjs.com/svgjs" viewBox="0.397 0 1.205 4" fill="#161616" x="1575" y="20"><svg xmlns="http://www.w3.org/2000/svg" xmlns:xlink="http://www.w3.org/1999/xlink" width="2" height="4" viewBox="0.964 0.415 1.013 3.363"><path paint-order="stroke fill markers" fill-rule="evenodd" d="M1.47 3.761c.17 0 .337.007.503.017.002 0 .004-.002.004-.004V2.498.949c0-.25-.168-.483-.415-.526a.507.507 0 0 0-.598.499V3.774c0 .002.002.004.004.004.166-.01.333-.017.502-.017z"/></svg></svg><svg width="3" height="5" xmlns="http://www.w3.org/2000/svg" xmlns:xlink="http://www.w3.org/1999/xlink" xmlns:svgjs="http://svgjs.com/svgjs" viewBox="0 0.45 3 4.099" fill="#161616" x="1570" y="21"><svg xmlns="http://www.w3.org/2000/svg" xmlns:xlink="http://www.w3.org/1999/xlink" width="3" height="5" viewBox="0.372 0.915 2.367 3.235"><path paint-order="stroke fill markers" fill-rule="evenodd" d="M1.861 4.148c.001.001.004.002.006 0 .279-.184.57-.352.87-.503a.004.004 0 0 0 .002-.005l-.64-1.107-.788-1.365a.507.507 0 0 0-.767-.133c-.192.16-.222.447-.097.664l1.414 2.449z"/></svg></svg><svg width="4" height="3" xmlns="http://www.w3.org/2000/svg" xmlns:xlink="http://www.w3.org/1999/xlink" xmlns:svgjs="http://svgjs.com/svgjs" viewBox="0 0.032 4 2.935" fill="#161616" x="1566" y="26"><svg xmlns="http://www.w3.org/2000/svg" xmlns:xlink="http://www.w3.org/1999/xlink" width="4" height="3" viewBox="0.269 0.013 3.234 2.373"><path paint-order="stroke fill markers" fill-rule="evenodd" d="M.545.972l1.341.774.515.298.592.341c.002.001.004 0 .005-.001.151-.301.32-.592.504-.87a.004.004 0 0 0-.001-.006L2.393.868 1.028.082a.507.507 0 0 0-.73.268C.21.584.327.847.544.972z"/></svg></svg><svg width="5" height="2" xmlns="http://www.w3.org/2000/svg" xmlns:xlink="http://www.w3.org/1999/xlink" xmlns:svgjs="http://svgjs.com/svgjs" viewBox="0 0.246 5 1.507" fill="#161616" x="1564" y="31"><svg xmlns="http://www.w3.org/2000/svg" width="5" height="2" viewBox="0.768 0.61 3.363 1.014"><path paint-order="stroke fill markers" fill-rule="evenodd" d="M2.852 1.624h1.275c.003 0 .004-.002.004-.004a8.618 8.618 0 0 1-.016-.503c0-.169.007-.336.016-.503 0-.002 0-.004-.003-.004h-.961-1.864c-.25 0-.483.169-.527.416a.507.507 0 0 0 .499.598h1.576z"/></svg></svg></svg>