<svg width="24" height="24" viewBox="0 0 24 24" fill="none" xmlns="http://www.w3.org/2000/svg">
<g clip-path="url(#clip0_22_5280)">
<path d="M5.25683 8.79419C3.48675 8.79419 2.05383 10.2271 2.05383 11.9972C2.05383 13.7673 3.48675 15.2002 5.25683 15.2002C7.02691 15.2002 8.45983 13.7673 8.45983 11.9972C8.45421 10.2327 7.02129 8.79981 5.25683 8.79419ZM5.25683 14.0763C4.11049 14.0763 3.17769 13.1491 3.17769 11.9972C3.17769 10.8509 4.10488 9.91805 5.25683 9.91805C6.40317 9.91805 7.33597 10.8452 7.33597 11.9972C7.33035 13.1435 6.40317 14.0707 5.25683 14.0763Z" fill="#DD281F"/>
<path d="M21.3842 9.69324H9.94895C9.63989 9.69324 9.38702 9.94611 9.38702 10.2552C9.38702 10.5642 9.63989 10.8171 9.94895 10.8171H21.3842C21.6933 10.8171 21.9462 10.5642 21.9462 10.2552C21.9462 9.94611 21.6933 9.69324 21.3842 9.69324Z" fill="#DD281F"/>
<path d="M16.1077 13.1772H9.94895C9.63989 13.1772 9.38702 13.4301 9.38702 13.7392C9.38702 14.0482 9.63427 14.3011 9.94895 14.3011H16.1077C16.4167 14.3011 16.6696 14.0482 16.6696 13.7392C16.6696 13.4301 16.4167 13.1772 16.1077 13.1772Z" fill="#DD281F"/>
<path d="M5.25683 0C3.48675 0 2.05383 1.43292 2.05383 3.20299C2.05383 4.97307 3.48675 6.40599 5.25683 6.40599C7.02691 6.40599 8.45983 4.97307 8.45983 3.20299C8.45421 1.43292 7.02129 0 5.25683 0ZM5.25683 5.27651C4.11049 5.27651 3.17769 4.34933 3.17769 3.19737C3.17769 2.04542 4.10488 1.11824 5.25683 1.11824C6.40317 1.11824 7.33597 2.04542 7.33597 3.19737C7.33035 4.34933 6.40317 5.27651 5.25683 5.27651Z" fill="#DD281F"/>
<path d="M21.3842 0.870972H9.94895C9.63989 0.870972 9.38702 1.12384 9.38702 1.4329C9.38702 1.74196 9.63989 1.99483 9.94895 1.99483H21.3842C21.6933 1.99483 21.9462 1.74196 21.9462 1.4329C21.9462 1.12384 21.6933 0.870972 21.3842 0.870972Z" fill="#DD281F"/>
<path d="M16.1077 4.41113H9.94895C9.63989 4.41113 9.38702 4.664 9.38702 4.97306C9.38702 5.28212 9.63427 5.53499 9.94895 5.53499H16.1077C16.4167 5.53499 16.6696 5.28212 16.6696 4.97306C16.6696 4.664 16.4167 4.41113 16.1077 4.41113Z" fill="#DD281F"/>
<path d="M5.25683 17.594C3.48675 17.594 2.05383 19.0269 2.05383 20.797C2.05383 22.5671 3.48675 24 5.25683 24C7.02691 24 8.45983 22.5671 8.45983 20.797C8.45421 19.0269 7.02129 17.594 5.25683 17.594ZM5.25683 22.8705C4.11049 22.8705 3.17769 21.9433 3.17769 20.7914C3.17769 19.645 4.10488 18.7122 5.25683 18.7122C6.40317 18.7122 7.33597 19.6394 7.33597 20.7914C7.33035 21.9433 6.40317 22.8705 5.25683 22.8705Z" fill="#DD281F"/>
<path d="M21.3842 18.4594H9.94895C9.63989 18.4594 9.38702 18.7122 9.38702 19.0213C9.38702 19.3303 9.63989 19.5832 9.94895 19.5832H21.3842C21.6933 19.5832 21.9462 19.3303 21.9462 19.0213C21.9462 18.7122 21.6933 18.4594 21.3842 18.4594Z" fill="#DD281F"/>
<path d="M16.1077 21.9995H9.94895C9.63989 21.9995 9.38702 22.2524 9.38702 22.5614C9.38702 22.8705 9.63989 23.1234 9.94895 23.1234H16.1077C16.4167 23.1234 16.6696 22.8705 16.6696 22.5614C16.6696 22.2524 16.4167 21.9995 16.1077 21.9995Z" fill="#DD281F"/>
</g>
<defs>
<clipPath id="clip0_22_5280">
<rect width="24" height="24" fill="white"/>
</clipPath>
</defs>
</svg>
