<svg width="24" height="24" viewBox="0 0 24 24" fill="none" xmlns="http://www.w3.org/2000/svg">
<g clip-path="url(#clip0_1916_2058)">
<circle cx="12" cy="12" r="12" fill="#F15B25"/>
<path fill-rule="evenodd" clip-rule="evenodd" d="M11.5111 4.98398C11.7809 4.71416 12.2184 4.71416 12.4882 4.98398L15.2519 7.74771C15.5217 8.01754 15.5217 8.45501 15.2519 8.72484C14.9821 8.99467 14.5446 8.99467 14.2748 8.72484L12.6906 7.1406V13.0728C12.6906 13.4544 12.3812 13.7637 11.9996 13.7637C11.618 13.7637 11.3087 13.4544 11.3087 13.0728V7.1406L9.72448 8.72484C9.45465 8.99467 9.01718 8.99467 8.74735 8.72484C8.47752 8.45501 8.47752 8.01754 8.74735 7.74771L11.5111 4.98398ZM6.47218 8.92721C6.85377 8.92721 7.16311 9.23655 7.16311 9.61814V15.1456C7.16311 15.5272 7.47246 15.8365 7.85405 15.8365H16.1452C16.5268 15.8365 16.8362 15.5272 16.8362 15.1456V9.61814C16.8362 9.23655 17.1455 8.92721 17.5271 8.92721C17.9087 8.92721 18.218 9.23655 18.218 9.61814V15.1456C18.218 16.2904 17.29 17.2184 16.1452 17.2184H7.85405C6.70928 17.2184 5.78125 16.2904 5.78125 15.1456V9.61814C5.78125 9.23655 6.09059 8.92721 6.47218 8.92721Z" fill="white"/>
</g>
<defs>
<clipPath id="clip0_1916_2058">
<rect width="24" height="24" fill="white"/>
</clipPath>
</defs>
</svg>
