<svg width="24" height="24" viewBox="0 0 24 24" fill="none" xmlns="http://www.w3.org/2000/svg">
<circle cx="12" cy="12" r="12" fill="#F15B25"/>
<path d="M16.816 11.4137C16.8181 10.1922 16.4061 9.00606 15.6471 8.04859C14.8882 7.09112 13.827 6.41883 12.6366 6.14132C11.4463 5.86382 10.197 5.99747 9.09241 6.52049C7.98782 7.04351 7.09311 7.92505 6.55414 9.02138C6.01517 10.1177 5.86374 11.3642 6.12454 12.5575C6.38533 13.7509 7.04297 14.8208 7.99023 15.5927C8.93749 16.3647 10.1185 16.7932 11.3407 16.8084C12.5629 16.8236 13.7542 16.4246 14.7204 15.6765L18.0468 18.9525L19 18L15.6736 14.7239C16.4115 13.7778 16.8134 12.6133 16.816 11.4137ZM11.408 15.467C10.6058 15.467 9.82162 15.2293 9.15461 14.7839C8.48761 14.3386 7.96774 13.7055 7.66075 12.9649C7.35376 12.2242 7.27343 11.4092 7.42994 10.623C7.58644 9.8367 7.97274 9.11447 8.53998 8.5476C9.10722 7.98074 9.82994 7.5947 10.6167 7.4383C11.4035 7.2819 12.219 7.36217 12.9602 7.66895C13.7013 7.97574 14.3348 8.49526 14.7805 9.16183C15.2261 9.82839 15.464 10.6121 15.464 11.4137C15.464 12.4887 15.0367 13.5197 14.276 14.2799C13.5154 15.04 12.4837 15.467 11.408 15.467Z" fill="white"/>
</svg>
