<svg width="160" height="42" viewBox="0 0 160 42" fill="none" xmlns="http://www.w3.org/2000/svg">
  <path
    d="M35.6008 18.3471L24.2372 12.2633C23.6467 11.9472 23.0064 11.9311 22.4521 12.1331L32.1334 21.8144L35.6008 18.3471Z"
    fill="#ffffff"/>
  <path
    d="M39.8387 20.6159L36.5654 18.8635L32.874 22.5548L36.5654 26.2462L39.8386 24.4937C41.387 23.6648 41.387 21.4448 39.8387 20.6159Z"
    fill="#ffffff"/>
  <path
    d="M21.5661 12.7275C21.2189 13.1091 21 13.6186 21 14.2023V30.9073C21 31.491 21.2189 32.0005 21.566 32.3821L31.3933 22.5548L21.5661 12.7275Z"
    fill="#ffffff"/>
  <path
    d="M22.4521 32.9764C23.0063 33.1785 23.6467 33.1624 24.2372 32.8462L35.6008 26.7625L32.1335 23.2952L22.4521 32.9764Z"
    fill="#ffffff"/>
  <path
    d="M48.0483 8.35361C48.6495 8.35361 49.1748 8.47005 49.6244 8.70295C50.0793 8.93043 50.4287 9.26082 50.6724 9.69412C50.9216 10.122 51.0461 10.623 51.0461 11.1971C51.0461 11.7712 50.9216 12.2695 50.6724 12.692C50.4287 13.1145 50.0793 13.4394 49.6244 13.6669C49.1748 13.889 48.6495 14 48.0483 14H46.204V8.35361H48.0483ZM48.0483 13.2444C48.709 13.2444 49.2155 13.0657 49.5675 12.7082C49.9196 12.3508 50.0956 11.8471 50.0956 11.1971C50.0956 10.5418 49.9196 10.0299 49.5675 9.66162C49.2155 9.29332 48.709 9.10917 48.0483 9.10917H47.1302V13.2444H48.0483ZM53.9058 14.0731C53.4833 14.0731 53.1015 13.9783 52.7602 13.7888C52.419 13.5938 52.1509 13.323 51.9559 12.9763C51.7609 12.6243 51.6635 12.2181 51.6635 11.7577C51.6635 11.3027 51.7637 10.8992 51.9641 10.5472C52.1645 10.1951 52.438 9.92431 52.7846 9.73474C53.1312 9.54517 53.5185 9.45039 53.9464 9.45039C54.3743 9.45039 54.7615 9.54517 55.1082 9.73474C55.4548 9.92431 55.7283 10.1951 55.9287 10.5472C56.1291 10.8992 56.2293 11.3027 56.2293 11.7577C56.2293 12.2127 56.1264 12.6162 55.9206 12.9682C55.7148 13.3203 55.4331 13.5938 55.0757 13.7888C54.7236 13.9783 54.3336 14.0731 53.9058 14.0731ZM53.9058 13.2688C54.1441 13.2688 54.3661 13.2119 54.572 13.0982C54.7832 12.9845 54.9538 12.8139 55.0838 12.5864C55.2138 12.3589 55.2788 12.0827 55.2788 11.7577C55.2788 11.4327 55.2165 11.1592 55.0919 10.9371C54.9673 10.7097 54.8021 10.539 54.5963 10.4253C54.3905 10.3116 54.1685 10.2547 53.9301 10.2547C53.6918 10.2547 53.4698 10.3116 53.2639 10.4253C53.0635 10.539 52.9038 10.7097 52.7846 10.9371C52.6655 11.1592 52.6059 11.4327 52.6059 11.7577C52.6059 12.2397 52.7277 12.6135 52.9715 12.8788C53.2206 13.1388 53.532 13.2688 53.9058 13.2688ZM63.1569 9.52351L61.7676 14H60.7927L59.8909 10.6934L58.9891 14H58.0142L56.6168 9.52351H57.5592L58.4935 13.1226L59.4441 9.52351H60.4109L61.3208 13.1063L62.247 9.52351H63.1569ZM66.1076 9.45039C66.4596 9.45039 66.7738 9.52351 67.05 9.66974C67.3317 9.81598 67.551 10.0326 67.7081 10.3197C67.8651 10.6067 67.9437 10.9534 67.9437 11.3596V14H67.0256V11.4977C67.0256 11.0969 66.9254 10.7909 66.725 10.5797C66.5246 10.363 66.2511 10.2547 65.9045 10.2547C65.5578 10.2547 65.2816 10.363 65.0758 10.5797C64.8754 10.7909 64.7752 11.0969 64.7752 11.4977V14H63.849V9.52351H64.7752V10.0353C64.9269 9.85119 65.1191 9.70766 65.352 9.60475C65.5903 9.50184 65.8422 9.45039 66.1076 9.45039ZM70.0512 7.98801V14H69.1251V7.98801H70.0512ZM73.2089 14.0731C72.7865 14.0731 72.4046 13.9783 72.0634 13.7888C71.7222 13.5938 71.4541 13.323 71.2591 12.9763C71.0641 12.6243 70.9666 12.2181 70.9666 11.7577C70.9666 11.3027 71.0668 10.8992 71.2672 10.5472C71.4676 10.1951 71.7411 9.92431 72.0878 9.73474C72.4344 9.54517 72.8217 9.45039 73.2496 9.45039C73.6774 9.45039 74.0647 9.54517 74.4113 9.73474C74.758 9.92431 75.0315 10.1951 75.2319 10.5472C75.4323 10.8992 75.5325 11.3027 75.5325 11.7577C75.5325 12.2127 75.4296 12.6162 75.2238 12.9682C75.0179 13.3203 74.7363 13.5938 74.3788 13.7888C74.0268 13.9783 73.6368 14.0731 73.2089 14.0731ZM73.2089 13.2688C73.4472 13.2688 73.6693 13.2119 73.8751 13.0982C74.0864 12.9845 74.257 12.8139 74.387 12.5864C74.5169 12.3589 74.5819 12.0827 74.5819 11.7577C74.5819 11.4327 74.5197 11.1592 74.3951 10.9371C74.2705 10.7097 74.1053 10.539 73.8995 10.4253C73.6937 10.3116 73.4716 10.2547 73.2333 10.2547C72.995 10.2547 72.7729 10.3116 72.5671 10.4253C72.3667 10.539 72.2069 10.7097 72.0878 10.9371C71.9686 11.1592 71.909 11.4327 71.909 11.7577C71.909 12.2397 72.0309 12.6135 72.2746 12.8788C72.5238 13.1388 72.8352 13.2688 73.2089 13.2688ZM76.1393 11.7414C76.1393 11.2919 76.2314 10.8938 76.4156 10.5472C76.6051 10.2005 76.8597 9.93243 77.1792 9.74286C77.5042 9.54788 77.8617 9.45039 78.2517 9.45039C78.6037 9.45039 78.9097 9.5208 79.1697 9.66162C79.4351 9.79702 79.6463 9.96764 79.8034 10.1735V9.52351H80.7377V14H79.8034V13.3338C79.6463 13.545 79.4324 13.7211 79.1616 13.8619C78.8908 14.0027 78.582 14.0731 78.2354 14.0731C77.8509 14.0731 77.4988 13.9756 77.1792 13.7806C76.8597 13.5802 76.6051 13.304 76.4156 12.952C76.2314 12.5945 76.1393 12.191 76.1393 11.7414ZM79.8034 11.7577C79.8034 11.449 79.7384 11.1809 79.6084 10.9534C79.4838 10.7259 79.3186 10.5526 79.1128 10.4334C78.907 10.3143 78.6849 10.2547 78.4466 10.2547C78.2083 10.2547 77.9863 10.3143 77.7804 10.4334C77.5746 10.5472 77.4067 10.7178 77.2767 10.9453C77.1522 11.1673 77.0899 11.4327 77.0899 11.7414C77.0899 12.0502 77.1522 12.321 77.2767 12.5539C77.4067 12.7868 77.5746 12.9655 77.7804 13.0901C77.9917 13.2092 78.2137 13.2688 78.4466 13.2688C78.6849 13.2688 78.907 13.2092 79.1128 13.0901C79.3186 12.9709 79.4838 12.7976 79.6084 12.5701C79.7384 12.3372 79.8034 12.0664 79.8034 11.7577ZM81.6455 11.7414C81.6455 11.2919 81.7375 10.8938 81.9217 10.5472C82.1112 10.2005 82.3658 9.93243 82.6854 9.74286C83.0103 9.54788 83.3705 9.45039 83.7659 9.45039C84.0584 9.45039 84.3454 9.51538 84.6271 9.64537C84.9141 9.76994 85.1416 9.93785 85.3095 10.1491V7.98801H86.2438V14H85.3095V13.3257C85.1579 13.5423 84.9466 13.7211 84.6758 13.8619C84.4104 14.0027 84.1044 14.0731 83.7578 14.0731C83.3678 14.0731 83.0103 13.9756 82.6854 13.7806C82.3658 13.5802 82.1112 13.304 81.9217 12.952C81.7375 12.5945 81.6455 12.191 81.6455 11.7414ZM85.3095 11.7577C85.3095 11.449 85.2445 11.1809 85.1145 10.9534C84.99 10.7259 84.8248 10.5526 84.6189 10.4334C84.4131 10.3143 84.1911 10.2547 83.9528 10.2547C83.7144 10.2547 83.4924 10.3143 83.2866 10.4334C83.0807 10.5472 82.9128 10.7178 82.7829 10.9453C82.6583 11.1673 82.596 11.4327 82.596 11.7414C82.596 12.0502 82.6583 12.321 82.7829 12.5539C82.9128 12.7868 83.0807 12.9655 83.2866 13.0901C83.4978 13.2092 83.7199 13.2688 83.9528 13.2688C84.1911 13.2688 84.4131 13.2092 84.6189 13.0901C84.8248 12.9709 84.99 12.7976 85.1145 12.5701C85.2445 12.3372 85.3095 12.0664 85.3095 11.7577ZM91.5124 14.0731C91.09 14.0731 90.7081 13.9783 90.3669 13.7888C90.0257 13.5938 89.7576 13.323 89.5626 12.9763C89.3676 12.6243 89.2701 12.2181 89.2701 11.7577C89.2701 11.3027 89.3703 10.8992 89.5707 10.5472C89.7711 10.1951 90.0446 9.92431 90.3913 9.73474C90.7379 9.54517 91.1252 9.45039 91.553 9.45039C91.9809 9.45039 92.3682 9.54517 92.7148 9.73474C93.0615 9.92431 93.335 10.1951 93.5354 10.5472C93.7358 10.8992 93.836 11.3027 93.836 11.7577C93.836 12.2127 93.7331 12.6162 93.5273 12.9682C93.3214 13.3203 93.0398 13.5938 92.6823 13.7888C92.3303 13.9783 91.9403 14.0731 91.5124 14.0731ZM91.5124 13.2688C91.7507 13.2688 91.9728 13.2119 92.1786 13.0982C92.3898 12.9845 92.5605 12.8139 92.6904 12.5864C92.8204 12.3589 92.8854 12.0827 92.8854 11.7577C92.8854 11.4327 92.8231 11.1592 92.6986 10.9371C92.574 10.7097 92.4088 10.539 92.203 10.4253C91.9972 10.3116 91.7751 10.2547 91.5368 10.2547C91.2985 10.2547 91.0764 10.3116 90.8706 10.4253C90.6702 10.539 90.5104 10.7097 90.3913 10.9371C90.2721 11.1592 90.2125 11.4327 90.2125 11.7577C90.2125 12.2397 90.3344 12.6135 90.5781 12.8788C90.8273 13.1388 91.1387 13.2688 91.5124 13.2688ZM97.0101 9.45039C97.3622 9.45039 97.6763 9.52351 97.9525 9.66974C98.2342 9.81598 98.4535 10.0326 98.6106 10.3197C98.7677 10.6067 98.8462 10.9534 98.8462 11.3596V14H97.9282V11.4977C97.9282 11.0969 97.828 10.7909 97.6276 10.5797C97.4272 10.363 97.1536 10.2547 96.807 10.2547C96.4604 10.2547 96.1841 10.363 95.9783 10.5797C95.7779 10.7909 95.6777 11.0969 95.6777 11.4977V14H94.7516V9.52351H95.6777V10.0353C95.8294 9.85119 96.0217 9.70766 96.2545 9.60475C96.4929 9.50184 96.7447 9.45039 97.0101 9.45039ZM103.219 10.2791V12.757C103.219 12.9249 103.256 13.0467 103.332 13.1226C103.414 13.193 103.549 13.2282 103.738 13.2282H104.307V14H103.576C103.159 14 102.839 13.9025 102.617 13.7075C102.395 13.5125 102.284 13.1957 102.284 12.757V10.2791H101.756V9.52351H102.284V8.41048H103.219V9.52351H104.307V10.2791H103.219ZM107.476 9.45039C107.817 9.45039 108.121 9.52351 108.386 9.66974C108.657 9.81598 108.868 10.0326 109.02 10.3197C109.177 10.6067 109.255 10.9534 109.255 11.3596V14H108.337V11.4977C108.337 11.0969 108.237 10.7909 108.037 10.5797C107.836 10.363 107.563 10.2547 107.216 10.2547C106.87 10.2547 106.593 10.363 106.388 10.5797C106.187 10.7909 106.087 11.0969 106.087 11.4977V14H105.161V7.98801H106.087V10.0435C106.244 9.85389 106.442 9.70766 106.68 9.60475C106.924 9.50184 107.189 9.45039 107.476 9.45039ZM114.54 11.6521C114.54 11.82 114.529 11.9716 114.507 12.107H111.087C111.114 12.4645 111.247 12.7516 111.485 12.9682C111.723 13.1849 112.016 13.2932 112.362 13.2932C112.861 13.2932 113.213 13.0847 113.418 12.6676H114.418C114.282 13.0792 114.036 13.4178 113.678 13.6832C113.326 13.9431 112.888 14.0731 112.362 14.0731C111.934 14.0731 111.55 13.9783 111.209 13.7888C110.873 13.5938 110.607 13.323 110.412 12.9763C110.223 12.6243 110.128 12.2181 110.128 11.7577C110.128 11.2973 110.22 10.8938 110.404 10.5472C110.594 10.1951 110.857 9.92431 111.192 9.73474C111.534 9.54517 111.924 9.45039 112.362 9.45039C112.785 9.45039 113.161 9.54246 113.492 9.72661C113.822 9.91077 114.079 10.1707 114.263 10.5065C114.448 10.8369 114.54 11.2188 114.54 11.6521ZM113.573 11.3596C113.567 11.0184 113.446 10.7449 113.207 10.539C112.969 10.3332 112.674 10.2303 112.322 10.2303C112.002 10.2303 111.729 10.3332 111.501 10.539C111.274 10.7394 111.138 11.013 111.095 11.3596H113.573Z"
    fill="#ffffff"/>
  <path
    d="M54.8427 22.1069C54.5547 21.5522 54.1547 21.1362 53.6427 20.8589C53.1307 20.5709 52.5387 20.4269 51.8667 20.4269C51.1307 20.4269 50.4747 20.5922 49.8987 20.9229C49.3227 21.2535 48.8694 21.7229 48.5387 22.3309C48.2187 22.9389 48.0587 23.6429 48.0587 24.4429C48.0587 25.2429 48.2187 25.9522 48.5387 26.5709C48.8694 27.1789 49.3227 27.6482 49.8987 27.9789C50.4747 28.3095 51.1307 28.4749 51.8667 28.4749C52.8587 28.4749 53.6641 28.1975 54.2827 27.6429C54.9014 27.0882 55.2801 26.3362 55.4187 25.3869H51.2427V23.9309H57.3707V25.3549C57.2534 26.2189 56.9441 27.0135 56.4427 27.7389C55.9521 28.4642 55.3067 29.0455 54.5067 29.4829C53.7174 29.9095 52.8374 30.1229 51.8667 30.1229C50.8214 30.1229 49.8667 29.8829 49.0027 29.4029C48.1387 28.9122 47.4507 28.2349 46.9387 27.3709C46.4374 26.5069 46.1867 25.5309 46.1867 24.4429C46.1867 23.3549 46.4374 22.3789 46.9387 21.5149C47.4507 20.6509 48.1387 19.9789 49.0027 19.4989C49.8774 19.0082 50.8321 18.7629 51.8667 18.7629C53.0507 18.7629 54.1014 19.0562 55.0187 19.6429C55.9467 20.2189 56.6187 21.0402 57.0347 22.1069H54.8427ZM62.9937 30.1709C62.1617 30.1709 61.4097 29.9842 60.7377 29.6109C60.0657 29.2269 59.5377 28.6935 59.1537 28.0109C58.7697 27.3175 58.5777 26.5175 58.5777 25.6109C58.5777 24.7149 58.7751 23.9202 59.1697 23.2269C59.5644 22.5335 60.1031 22.0002 60.7857 21.6269C61.4684 21.2535 62.2311 21.0669 63.0737 21.0669C63.9164 21.0669 64.6791 21.2535 65.3617 21.6269C66.0444 22.0002 66.5831 22.5335 66.9777 23.2269C67.3724 23.9202 67.5697 24.7149 67.5697 25.6109C67.5697 26.5069 67.3671 27.3015 66.9617 27.9949C66.5564 28.6882 66.0017 29.2269 65.2977 29.6109C64.6044 29.9842 63.8364 30.1709 62.9937 30.1709ZM62.9937 28.5869C63.4631 28.5869 63.9004 28.4749 64.3057 28.2509C64.7217 28.0269 65.0577 27.6909 65.3137 27.2429C65.5697 26.7949 65.6977 26.2509 65.6977 25.6109C65.6977 24.9709 65.5751 24.4322 65.3297 23.9949C65.0844 23.5469 64.7591 23.2109 64.3537 22.9869C63.9484 22.7629 63.5111 22.6509 63.0417 22.6509C62.5724 22.6509 62.1351 22.7629 61.7297 22.9869C61.3351 23.2109 61.0204 23.5469 60.7857 23.9949C60.5511 24.4322 60.4337 24.9709 60.4337 25.6109C60.4337 26.5602 60.6737 27.2962 61.1537 27.8189C61.6444 28.3309 62.2577 28.5869 62.9937 28.5869ZM73.1969 30.1709C72.3649 30.1709 71.6129 29.9842 70.9409 29.6109C70.2689 29.2269 69.7409 28.6935 69.3569 28.0109C68.9729 27.3175 68.7809 26.5175 68.7809 25.6109C68.7809 24.7149 68.9782 23.9202 69.3729 23.2269C69.7675 22.5335 70.3062 22.0002 70.9889 21.6269C71.6715 21.2535 72.4342 21.0669 73.2769 21.0669C74.1195 21.0669 74.8822 21.2535 75.5649 21.6269C76.2475 22.0002 76.7862 22.5335 77.1809 23.2269C77.5755 23.9202 77.7729 24.7149 77.7729 25.6109C77.7729 26.5069 77.5702 27.3015 77.1649 27.9949C76.7595 28.6882 76.2049 29.2269 75.5009 29.6109C74.8075 29.9842 74.0395 30.1709 73.1969 30.1709ZM73.1969 28.5869C73.6662 28.5869 74.1035 28.4749 74.5089 28.2509C74.9249 28.0269 75.2609 27.6909 75.5169 27.2429C75.7729 26.7949 75.9009 26.2509 75.9009 25.6109C75.9009 24.9709 75.7782 24.4322 75.5329 23.9949C75.2875 23.5469 74.9622 23.2109 74.5569 22.9869C74.1515 22.7629 73.7142 22.6509 73.2449 22.6509C72.7755 22.6509 72.3382 22.7629 71.9329 22.9869C71.5382 23.2109 71.2235 23.5469 70.9889 23.9949C70.7542 24.4322 70.6369 24.9709 70.6369 25.6109C70.6369 26.5602 70.8769 27.2962 71.3569 27.8189C71.8475 28.3309 72.4609 28.5869 73.1969 28.5869ZM83.128 21.0669C83.8106 21.0669 84.4133 21.2055 84.936 21.4829C85.4693 21.7495 85.8853 22.0855 86.184 22.4909V21.2109H88.024V30.1709C88.024 30.9815 87.8533 31.7015 87.512 32.3309C87.1706 32.9709 86.6746 33.4722 86.024 33.8349C85.384 34.1975 84.616 34.3789 83.72 34.3789C82.5253 34.3789 81.5333 34.0962 80.744 33.5309C79.9546 32.9762 79.5066 32.2189 79.4 31.2589H81.208C81.3466 31.7175 81.64 32.0855 82.088 32.3629C82.5466 32.6509 83.0906 32.7949 83.72 32.7949C84.456 32.7949 85.048 32.5709 85.496 32.1229C85.9546 31.6749 86.184 31.0242 86.184 30.1709V28.6989C85.8746 29.1149 85.4533 29.4669 84.92 29.7549C84.3973 30.0322 83.8 30.1709 83.128 30.1709C82.36 30.1709 81.656 29.9789 81.016 29.5949C80.3866 29.2002 79.8853 28.6562 79.512 27.9629C79.1493 27.2589 78.968 26.4642 78.968 25.5789C78.968 24.6935 79.1493 23.9095 79.512 23.2269C79.8853 22.5442 80.3866 22.0162 81.016 21.6429C81.656 21.2589 82.36 21.0669 83.128 21.0669ZM86.184 25.6109C86.184 25.0029 86.056 24.4749 85.8 24.0269C85.5546 23.5789 85.2293 23.2375 84.824 23.0029C84.4186 22.7682 83.9813 22.6509 83.512 22.6509C83.0426 22.6509 82.6053 22.7682 82.2 23.0029C81.7946 23.2269 81.464 23.5629 81.208 24.0109C80.9626 24.4482 80.84 24.9709 80.84 25.5789C80.84 26.1869 80.9626 26.7202 81.208 27.1789C81.464 27.6375 81.7946 27.9895 82.2 28.2349C82.616 28.4695 83.0533 28.5869 83.512 28.5869C83.9813 28.5869 84.4186 28.4695 84.824 28.2349C85.2293 28.0002 85.5546 27.6589 85.8 27.2109C86.056 26.7522 86.184 26.2189 86.184 25.6109ZM92.2437 18.1869V30.0269H90.4197V18.1869H92.2437ZM102.718 25.4029C102.718 25.7335 102.697 26.0322 102.654 26.2989H95.9185C95.9718 27.0029 96.2331 27.5682 96.7025 27.9949C97.1718 28.4215 97.7478 28.6349 98.4305 28.6349C99.4118 28.6349 100.105 28.2242 100.51 27.4029H102.478C102.212 28.2135 101.726 28.8802 101.022 29.4029C100.329 29.9149 99.4651 30.1709 98.4305 30.1709C97.5878 30.1709 96.8305 29.9842 96.1585 29.6109C95.4971 29.2269 94.9745 28.6935 94.5905 28.0109C94.2171 27.3175 94.0305 26.5175 94.0305 25.6109C94.0305 24.7042 94.2118 23.9095 94.5745 23.2269C94.9478 22.5335 95.4651 22.0002 96.1265 21.6269C96.7985 21.2535 97.5665 21.0669 98.4305 21.0669C99.2625 21.0669 100.004 21.2482 100.654 21.6109C101.305 21.9735 101.812 22.4855 102.174 23.1469C102.537 23.7975 102.718 24.5495 102.718 25.4029ZM100.814 24.8269C100.804 24.1549 100.564 23.6162 100.094 23.2109C99.6251 22.8055 99.0438 22.6029 98.3505 22.6029C97.7211 22.6029 97.1825 22.8055 96.7345 23.2109C96.2865 23.6055 96.0198 24.1442 95.9345 24.8269H100.814ZM116.446 22.2189C116.446 22.7842 116.312 23.3175 116.046 23.8189C115.779 24.3202 115.352 24.7309 114.766 25.0509C114.179 25.3602 113.427 25.5149 112.51 25.5149H110.494V30.0269H108.67V18.9069H112.51C113.363 18.9069 114.083 19.0562 114.67 19.3549C115.267 19.6429 115.71 20.0375 115.998 20.5389C116.296 21.0402 116.446 21.6002 116.446 22.2189ZM112.51 24.0269C113.203 24.0269 113.72 23.8722 114.062 23.5629C114.403 23.2429 114.574 22.7949 114.574 22.2189C114.574 21.0029 113.886 20.3949 112.51 20.3949H110.494V24.0269H112.51ZM120.009 18.1869V30.0269H118.185V18.1869H120.009ZM121.796 25.5789C121.796 24.6935 121.977 23.9095 122.34 23.2269C122.713 22.5442 123.215 22.0162 123.844 21.6429C124.484 21.2589 125.188 21.0669 125.956 21.0669C126.649 21.0669 127.252 21.2055 127.764 21.4829C128.287 21.7495 128.703 22.0855 129.012 22.4909V21.2109H130.852V30.0269H129.012V28.7149C128.703 29.1309 128.281 29.4775 127.748 29.7549C127.215 30.0322 126.607 30.1709 125.924 30.1709C125.167 30.1709 124.473 29.9789 123.844 29.5949C123.215 29.2002 122.713 28.6562 122.34 27.9629C121.977 27.2589 121.796 26.4642 121.796 25.5789ZM129.012 25.6109C129.012 25.0029 128.884 24.4749 128.628 24.0269C128.383 23.5789 128.057 23.2375 127.652 23.0029C127.247 22.7682 126.809 22.6509 126.34 22.6509C125.871 22.6509 125.433 22.7682 125.028 23.0029C124.623 23.2269 124.292 23.5629 124.036 24.0109C123.791 24.4482 123.668 24.9709 123.668 25.5789C123.668 26.1869 123.791 26.7202 124.036 27.1789C124.292 27.6375 124.623 27.9895 125.028 28.2349C125.444 28.4695 125.881 28.5869 126.34 28.5869C126.809 28.5869 127.247 28.4695 127.652 28.2349C128.057 28.0002 128.383 27.6589 128.628 27.2109C128.884 26.7522 129.012 26.2189 129.012 25.6109ZM141.184 21.2109L135.776 34.1709H133.888L135.68 29.8829L132.208 21.2109H134.24L136.72 27.9309L139.296 21.2109H141.184Z"
    fill="#ffffff"/>
  <rect x="0.5" y="0.5" width="159" height="41" rx="5.5" stroke="#ffffff"/>
</svg>
