<svg width="160" height="42" viewBox="0 0 160 42" fill="none" xmlns="http://www.w3.org/2000/svg">
  <path fill-rule="evenodd" clip-rule="evenodd"
        d="M43.6781 21.5487C43.6413 18.3188 46.6667 16.7696 46.8017 16.6917C45.1018 14.5008 42.4532 14.2002 41.5101 14.1663C39.2583 13.9643 37.1134 15.3354 35.9705 15.3354C34.8305 15.3354 33.0652 14.1957 31.1976 14.2245C28.7402 14.2569 26.4758 15.4841 25.2111 17.4226C22.6596 21.3231 24.5587 27.1041 27.0449 30.2703C28.2607 31.8175 29.7102 33.5589 31.6117 33.4952C33.4448 33.4314 34.1369 32.4501 36.3525 32.4501C38.568 32.4501 39.1906 33.4952 41.1295 33.4623C43.1004 33.4309 44.3501 31.8852 45.5561 30.3316C46.9512 28.5339 47.526 26.7934 47.5599 26.7049C47.5172 26.6876 43.7176 25.4046 43.6781 21.5487ZM40.0348 12.071C41.0432 10.992 41.7266 9.49249 41.5411 8C40.0853 8.05209 38.3234 8.85278 37.2787 9.93077C36.3426 10.8873 35.5237 12.4101 35.7431 13.8757C37.3665 13.9866 39.0228 13.148 40.0348 12.071Z"
        fill="#ffffff"/>
  <path
    d="M62.3051 12.3536C62.9063 12.3536 63.4317 12.4701 63.8812 12.703C64.3362 12.9304 64.6855 13.2608 64.9293 13.6941C65.1784 14.122 65.303 14.623 65.303 15.1971C65.303 15.7712 65.1784 16.2695 64.9293 16.692C64.6855 17.1145 64.3362 17.4394 63.8812 17.6669C63.4317 17.889 62.9063 18 62.3051 18H60.4609V12.3536H62.3051ZM62.3051 17.2444C62.9659 17.2444 63.4723 17.0657 63.8243 16.7082C64.1764 16.3508 64.3524 15.8471 64.3524 15.1971C64.3524 14.5418 64.1764 14.0299 63.8243 13.6616C63.4723 13.2933 62.9659 13.1092 62.3051 13.1092H61.3871V17.2444H62.3051ZM68.1626 18.0731C67.7401 18.0731 67.3583 17.9783 67.0171 17.7888C66.6759 17.5938 66.4078 17.323 66.2128 16.9763C66.0178 16.6243 65.9203 16.2181 65.9203 15.7577C65.9203 15.3027 66.0205 14.8992 66.2209 14.5472C66.4213 14.1951 66.6948 13.9243 67.0414 13.7347C67.3881 13.5452 67.7753 13.4504 68.2032 13.4504C68.6311 13.4504 69.0184 13.5452 69.365 13.7347C69.7116 13.9243 69.9852 14.1951 70.1856 14.5472C70.386 14.8992 70.4862 15.3027 70.4862 15.7577C70.4862 16.2127 70.3832 16.6162 70.1774 16.9682C69.9716 17.3203 69.69 17.5938 69.3325 17.7888C68.9804 17.9783 68.5905 18.0731 68.1626 18.0731ZM68.1626 17.2688C68.4009 17.2688 68.623 17.2119 68.8288 17.0982C69.04 16.9845 69.2106 16.8139 69.3406 16.5864C69.4706 16.3589 69.5356 16.0827 69.5356 15.7577C69.5356 15.4327 69.4733 15.1592 69.3488 14.9371C69.2242 14.7097 69.059 14.539 68.8532 14.4253C68.6474 14.3116 68.4253 14.2547 68.187 14.2547C67.9487 14.2547 67.7266 14.3116 67.5208 14.4253C67.3204 14.539 67.1606 14.7097 67.0414 14.9371C66.9223 15.1592 66.8627 15.4327 66.8627 15.7577C66.8627 16.2397 66.9846 16.6135 67.2283 16.8788C67.4775 17.1388 67.7889 17.2688 68.1626 17.2688ZM77.4137 13.5235L76.0245 18H75.0495L74.1477 14.6934L73.2459 18H72.271L70.8736 13.5235H71.8161L72.7504 17.1226L73.7009 13.5235H74.6677L75.5776 17.1063L76.5038 13.5235H77.4137ZM80.3644 13.4504C80.7165 13.4504 81.0306 13.5235 81.3068 13.6697C81.5885 13.816 81.8078 14.0326 81.9649 14.3197C82.122 14.6067 82.2005 14.9534 82.2005 15.3596V18H81.2825V15.4977C81.2825 15.0969 81.1823 14.7909 80.9819 14.5797C80.7815 14.363 80.508 14.2547 80.1613 14.2547C79.8147 14.2547 79.5385 14.363 79.3326 14.5797C79.1322 14.7909 79.032 15.0969 79.032 15.4977V18H78.1059V13.5235H79.032V14.0353C79.1837 13.8512 79.376 13.7077 79.6089 13.6047C79.8472 13.5018 80.099 13.4504 80.3644 13.4504ZM84.3081 11.988V18H83.3819V11.988H84.3081ZM87.4658 18.0731C87.0433 18.0731 86.6615 17.9783 86.3202 17.7888C85.979 17.5938 85.7109 17.323 85.5159 16.9763C85.3209 16.6243 85.2235 16.2181 85.2235 15.7577C85.2235 15.3027 85.3237 14.8992 85.5241 14.5472C85.7245 14.1951 85.998 13.9243 86.3446 13.7347C86.6912 13.5452 87.0785 13.4504 87.5064 13.4504C87.9343 13.4504 88.3215 13.5452 88.6682 13.7347C89.0148 13.9243 89.2883 14.1951 89.4887 14.5472C89.6891 14.8992 89.7893 15.3027 89.7893 15.7577C89.7893 16.2127 89.6864 16.6162 89.4806 16.9682C89.2748 17.3203 88.9931 17.5938 88.6357 17.7888C88.2836 17.9783 87.8936 18.0731 87.4658 18.0731ZM87.4658 17.2688C87.7041 17.2688 87.9261 17.2119 88.132 17.0982C88.3432 16.9845 88.5138 16.8139 88.6438 16.5864C88.7738 16.3589 88.8388 16.0827 88.8388 15.7577C88.8388 15.4327 88.7765 15.1592 88.6519 14.9371C88.5273 14.7097 88.3621 14.539 88.1563 14.4253C87.9505 14.3116 87.7285 14.2547 87.4901 14.2547C87.2518 14.2547 87.0298 14.3116 86.8239 14.4253C86.6235 14.539 86.4638 14.7097 86.3446 14.9371C86.2255 15.1592 86.1659 15.4327 86.1659 15.7577C86.1659 16.2397 86.2877 16.6135 86.5315 16.8788C86.7806 17.1388 87.092 17.2688 87.4658 17.2688ZM90.3962 15.7414C90.3962 15.2919 90.4882 14.8938 90.6724 14.5472C90.862 14.2005 91.1165 13.9324 91.4361 13.7429C91.7611 13.5479 92.1185 13.4504 92.5085 13.4504C92.8605 13.4504 93.1666 13.5208 93.4265 13.6616C93.6919 13.797 93.9032 13.9676 94.0602 14.1735V13.5235H94.9945V18H94.0602V17.3338C93.9032 17.545 93.6892 17.7211 93.4184 17.8619C93.1476 18.0027 92.8389 18.0731 92.4922 18.0731C92.1077 18.0731 91.7556 17.9756 91.4361 17.7806C91.1165 17.5802 90.862 17.304 90.6724 16.952C90.4882 16.5945 90.3962 16.191 90.3962 15.7414ZM94.0602 15.7577C94.0602 15.449 93.9952 15.1809 93.8652 14.9534C93.7407 14.7259 93.5755 14.5526 93.3697 14.4334C93.1638 14.3143 92.9418 14.2547 92.7035 14.2547C92.4652 14.2547 92.2431 14.3143 92.0373 14.4334C91.8315 14.5472 91.6636 14.7178 91.5336 14.9453C91.409 15.1673 91.3467 15.4327 91.3467 15.7414C91.3467 16.0502 91.409 16.321 91.5336 16.5539C91.6636 16.7868 91.8315 16.9655 92.0373 17.0901C92.2485 17.2092 92.4706 17.2688 92.7035 17.2688C92.9418 17.2688 93.1638 17.2092 93.3697 17.0901C93.5755 16.9709 93.7407 16.7976 93.8652 16.5701C93.9952 16.3372 94.0602 16.0664 94.0602 15.7577ZM95.9023 15.7414C95.9023 15.2919 95.9944 14.8938 96.1785 14.5472C96.3681 14.2005 96.6226 13.9324 96.9422 13.7429C97.2672 13.5479 97.6273 13.4504 98.0227 13.4504C98.3152 13.4504 98.6023 13.5154 98.8839 13.6454C99.171 13.7699 99.3984 13.9378 99.5664 14.1491V11.988H100.501V18H99.5664V17.3257C99.4147 17.5423 99.2035 17.7211 98.9327 17.8619C98.6673 18.0027 98.3612 18.0731 98.0146 18.0731C97.6246 18.0731 97.2672 17.9756 96.9422 17.7806C96.6226 17.5802 96.3681 17.304 96.1785 16.952C95.9944 16.5945 95.9023 16.191 95.9023 15.7414ZM99.5664 15.7577C99.5664 15.449 99.5014 15.1809 99.3714 14.9534C99.2468 14.7259 99.0816 14.5526 98.8758 14.4334C98.67 14.3143 98.4479 14.2547 98.2096 14.2547C97.9713 14.2547 97.7492 14.3143 97.5434 14.4334C97.3376 14.5472 97.1697 14.7178 97.0397 14.9453C96.9151 15.1673 96.8528 15.4327 96.8528 15.7414C96.8528 16.0502 96.9151 16.321 97.0397 16.5539C97.1697 16.7868 97.3376 16.9655 97.5434 17.0901C97.7546 17.2092 97.9767 17.2688 98.2096 17.2688C98.4479 17.2688 98.67 17.2092 98.8758 17.0901C99.0816 16.9709 99.2468 16.7976 99.3714 16.5701C99.5014 16.3372 99.5664 16.0664 99.5664 15.7577ZM105.769 18.0731C105.347 18.0731 104.965 17.9783 104.624 17.7888C104.283 17.5938 104.014 17.323 103.819 16.9763C103.624 16.6243 103.527 16.2181 103.527 15.7577C103.527 15.3027 103.627 14.8992 103.828 14.5472C104.028 14.1951 104.301 13.9243 104.648 13.7347C104.995 13.5452 105.382 13.4504 105.81 13.4504C106.238 13.4504 106.625 13.5452 106.972 13.7347C107.318 13.9243 107.592 14.1951 107.792 14.5472C107.993 14.8992 108.093 15.3027 108.093 15.7577C108.093 16.2127 107.99 16.6162 107.784 16.9682C107.578 17.3203 107.297 17.5938 106.939 17.7888C106.587 17.9783 106.197 18.0731 105.769 18.0731ZM105.769 17.2688C106.008 17.2688 106.23 17.2119 106.435 17.0982C106.647 16.9845 106.817 16.8139 106.947 16.5864C107.077 16.3589 107.142 16.0827 107.142 15.7577C107.142 15.4327 107.08 15.1592 106.955 14.9371C106.831 14.7097 106.666 14.539 106.46 14.4253C106.254 14.3116 106.032 14.2547 105.794 14.2547C105.555 14.2547 105.333 14.3116 105.127 14.4253C104.927 14.539 104.767 14.7097 104.648 14.9371C104.529 15.1592 104.469 15.4327 104.469 15.7577C104.469 16.2397 104.591 16.6135 104.835 16.8788C105.084 17.1388 105.396 17.2688 105.769 17.2688ZM111.267 13.4504C111.619 13.4504 111.933 13.5235 112.209 13.6697C112.491 13.816 112.71 14.0326 112.867 14.3197C113.025 14.6067 113.103 14.9534 113.103 15.3596V18H112.185V15.4977C112.185 15.0969 112.085 14.7909 111.884 14.5797C111.684 14.363 111.41 14.2547 111.064 14.2547C110.717 14.2547 110.441 14.363 110.235 14.5797C110.035 14.7909 109.935 15.0969 109.935 15.4977V18H109.008V13.5235H109.935V14.0353C110.086 13.8512 110.278 13.7077 110.511 13.6047C110.75 13.5018 111.002 13.4504 111.267 13.4504ZM117.475 14.2791V16.757C117.475 16.9249 117.513 17.0467 117.589 17.1226C117.67 17.193 117.806 17.2282 117.995 17.2282H118.564V18H117.833C117.416 18 117.096 17.9025 116.874 17.7075C116.652 17.5125 116.541 17.1957 116.541 16.757V14.2791H116.013V13.5235H116.541V12.4105H117.475V13.5235H118.564V14.2791H117.475ZM121.733 13.4504C122.074 13.4504 122.378 13.5235 122.643 13.6697C122.914 13.816 123.125 14.0326 123.277 14.3197C123.434 14.6067 123.512 14.9534 123.512 15.3596V18H122.594V15.4977C122.594 15.0969 122.494 14.7909 122.294 14.5797C122.093 14.363 121.82 14.2547 121.473 14.2547C121.126 14.2547 120.85 14.363 120.644 14.5797C120.444 14.7909 120.344 15.0969 120.344 15.4977V18H119.418V11.988H120.344V14.0435C120.501 13.8539 120.699 13.7077 120.937 13.6047C121.181 13.5018 121.446 13.4504 121.733 13.4504ZM128.796 15.6521C128.796 15.82 128.786 15.9716 128.764 16.107H125.344C125.371 16.4645 125.503 16.7516 125.742 16.9682C125.98 17.1849 126.273 17.2932 126.619 17.2932C127.117 17.2932 127.47 17.0847 127.675 16.6676H128.675C128.539 17.0792 128.293 17.4178 127.935 17.6832C127.583 17.9431 127.145 18.0731 126.619 18.0731C126.191 18.0731 125.807 17.9783 125.466 17.7888C125.13 17.5938 124.864 17.323 124.669 16.9763C124.48 16.6243 124.385 16.2181 124.385 15.7577C124.385 15.2973 124.477 14.8938 124.661 14.5472C124.851 14.1951 125.113 13.9243 125.449 13.7347C125.79 13.5452 126.18 13.4504 126.619 13.4504C127.042 13.4504 127.418 13.5425 127.748 13.7266C128.079 13.9108 128.336 14.1707 128.52 14.5065C128.704 14.8369 128.796 15.2188 128.796 15.6521ZM127.83 15.3596C127.824 15.0184 127.702 14.7449 127.464 14.539C127.226 14.3332 126.931 14.2303 126.579 14.2303C126.259 14.2303 125.985 14.3332 125.758 14.539C125.531 14.7394 125.395 15.013 125.352 15.3596H127.83Z"
    fill="#ffffff"/>
  <path
    d="M66.9865 29.9759H62.7835L62.0614 32.0269H60.3426L63.939 21.9744H65.8455L69.4419 32.0269H67.7087L66.9865 29.9759ZM66.5243 28.6327L64.8922 23.9675L63.2457 28.6327H66.5243ZM72.6521 25.2385C72.9313 24.8727 73.3117 24.5645 73.7931 24.3142C74.2745 24.0638 74.8186 23.9387 75.4252 23.9387C76.1185 23.9387 76.7491 24.112 77.3172 24.4586C77.895 24.7956 78.3475 25.2722 78.6749 25.8885C79.0023 26.5047 79.166 27.2125 79.166 28.0116C79.166 28.8108 79.0023 29.5282 78.6749 30.1637C78.3475 30.7896 77.895 31.2806 77.3172 31.6369C76.7491 31.9835 76.1185 32.1568 75.4252 32.1568C74.8186 32.1568 74.2794 32.0365 73.8075 31.7958C73.3357 31.5454 72.9506 31.2373 72.6521 30.8714V35.811H71.0056V24.0686H72.6521V25.2385ZM77.4906 28.0116C77.4906 27.4628 77.375 26.991 77.1439 26.5962C76.9225 26.1918 76.624 25.8885 76.2484 25.6863C75.8826 25.4745 75.4878 25.3685 75.0641 25.3685C74.6501 25.3685 74.2553 25.4745 73.8798 25.6863C73.5139 25.8981 73.2154 26.2062 72.9843 26.6106C72.7628 27.0151 72.6521 27.4917 72.6521 28.0405C72.6521 28.5894 72.7628 29.0708 72.9843 29.4848C73.2154 29.8893 73.5139 30.1974 73.8798 30.4092C74.2553 30.621 74.6501 30.727 75.0641 30.727C75.4878 30.727 75.8826 30.621 76.2484 30.4092C76.624 30.1878 76.9225 29.87 77.1439 29.456C77.375 29.0419 77.4906 28.5605 77.4906 28.0116ZM82.4407 25.2385C82.72 24.8727 83.1003 24.5645 83.5818 24.3142C84.0632 24.0638 84.6072 23.9387 85.2138 23.9387C85.9071 23.9387 86.5378 24.112 87.1059 24.4586C87.6836 24.7956 88.1362 25.2722 88.4636 25.8885C88.7909 26.5047 88.9546 27.2125 88.9546 28.0116C88.9546 28.8108 88.7909 29.5282 88.4636 30.1637C88.1362 30.7896 87.6836 31.2806 87.1059 31.6369C86.5378 31.9835 85.9071 32.1568 85.2138 32.1568C84.6072 32.1568 84.068 32.0365 83.5962 31.7958C83.1244 31.5454 82.7392 31.2373 82.4407 30.8714V35.811H80.7942V24.0686H82.4407V25.2385ZM87.2792 28.0116C87.2792 27.4628 87.1637 26.991 86.9326 26.5962C86.7111 26.1918 86.4126 25.8885 86.0371 25.6863C85.6712 25.4745 85.2764 25.3685 84.8528 25.3685C84.4387 25.3685 84.0439 25.4745 83.6684 25.6863C83.3025 25.8981 83.004 26.2062 82.7729 26.6106C82.5515 27.0151 82.4407 27.4917 82.4407 28.0405C82.4407 28.5894 82.5515 29.0708 82.7729 29.4848C83.004 29.8893 83.3025 30.1974 83.6684 30.4092C84.0439 30.621 84.4387 30.727 84.8528 30.727C85.2764 30.727 85.6712 30.621 86.0371 30.4092C86.4126 30.1878 86.7111 29.87 86.9326 29.456C87.1637 29.0419 87.2792 28.5605 87.2792 28.0116ZM97.6422 32.128C96.9682 32.128 96.3616 32.0124 95.8224 31.7813C95.2832 31.5406 94.8595 31.2036 94.5514 30.7703C94.2433 30.337 94.0892 29.8315 94.0892 29.2538H95.8513C95.8898 29.6871 96.0583 30.0433 96.3568 30.3226C96.6649 30.6018 97.0934 30.7414 97.6422 30.7414C98.2103 30.7414 98.6533 30.6066 98.971 30.337C99.2888 30.0578 99.4476 29.7015 99.4476 29.2682C99.4476 28.9312 99.3465 28.6568 99.1443 28.4449C98.9517 28.2331 98.7062 28.0694 98.4077 27.9539C98.1189 27.8383 97.7144 27.7131 97.1945 27.5783C96.5397 27.405 96.0053 27.2317 95.5913 27.0584C95.1869 26.8754 94.8402 26.5962 94.5514 26.2207C94.2625 25.8452 94.1181 25.3445 94.1181 24.7186C94.1181 24.1409 94.2625 23.6353 94.5514 23.2021C94.8402 22.7688 95.2447 22.4366 95.7646 22.2055C96.2846 21.9744 96.8864 21.8588 97.57 21.8588C98.5425 21.8588 99.3369 22.1044 99.9531 22.5954C100.579 23.0769 100.926 23.7413 100.993 24.5886H99.1732C99.1443 24.2227 98.971 23.9098 98.6533 23.6498C98.3355 23.3898 97.9166 23.2598 97.3967 23.2598C96.9249 23.2598 96.5397 23.3802 96.2412 23.6209C95.9427 23.8616 95.7935 24.2083 95.7935 24.6608C95.7935 24.9689 95.885 25.2241 96.0679 25.4263C96.2605 25.6189 96.5012 25.7729 96.7901 25.8885C97.0789 26.004 97.4737 26.1292 97.9744 26.264C98.6388 26.447 99.178 26.6299 99.5921 26.8129C100.016 26.9958 100.372 27.2799 100.661 27.665C100.959 28.0405 101.109 28.546 101.109 29.1815C101.109 29.6919 100.969 30.1733 100.69 30.6259C100.42 31.0784 100.021 31.4443 99.491 31.7235C98.971 31.9932 98.3548 32.128 97.6422 32.128ZM104.972 25.4119V29.817C104.972 30.1155 105.04 30.3322 105.175 30.467C105.319 30.5922 105.56 30.6548 105.897 30.6548H106.908V32.0269H105.608C104.866 32.0269 104.298 31.8535 103.904 31.5069C103.509 31.1603 103.311 30.597 103.311 29.817V25.4119H102.373V24.0686H103.311V22.0899H104.972V24.0686H106.908V25.4119H104.972ZM111.877 32.1568C111.126 32.1568 110.447 31.9883 109.841 31.6513C109.234 31.3047 108.758 30.8233 108.411 30.207C108.064 29.5811 107.891 28.859 107.891 28.0405C107.891 27.2317 108.069 26.5144 108.425 25.8885C108.782 25.2626 109.268 24.7812 109.884 24.4442C110.5 24.1072 111.189 23.9387 111.949 23.9387C112.71 23.9387 113.399 24.1072 114.015 24.4442C114.631 24.7812 115.117 25.2626 115.474 25.8885C115.83 26.5144 116.008 27.2317 116.008 28.0405C116.008 28.8493 115.825 29.5667 115.459 30.1926C115.093 30.8184 114.593 31.3047 113.957 31.6513C113.331 31.9883 112.638 32.1568 111.877 32.1568ZM111.877 30.727C112.301 30.727 112.696 30.6259 113.062 30.4237C113.437 30.2215 113.74 29.9181 113.972 29.5137C114.203 29.1093 114.318 28.6183 114.318 28.0405C114.318 27.4628 114.207 26.9765 113.986 26.5818C113.765 26.1774 113.471 25.874 113.105 25.6718C112.739 25.4696 112.344 25.3685 111.921 25.3685C111.497 25.3685 111.102 25.4696 110.736 25.6718C110.38 25.874 110.096 26.1774 109.884 26.5818C109.672 26.9765 109.566 27.4628 109.566 28.0405C109.566 28.8975 109.783 29.5619 110.216 30.0337C110.659 30.4959 111.213 30.727 111.877 30.727ZM119.282 25.2241C119.523 24.8197 119.841 24.5068 120.235 24.2853C120.64 24.0542 121.117 23.9387 121.665 23.9387V25.643H121.247C120.601 25.643 120.11 25.8066 119.773 26.134C119.446 26.4614 119.282 27.0295 119.282 27.8383V32.0269H117.636V24.0686H119.282V25.2241ZM130.473 27.8528C130.473 28.1513 130.453 28.4209 130.415 28.6616H124.334C124.382 29.2971 124.618 29.8074 125.042 30.1926C125.466 30.5777 125.986 30.7703 126.602 30.7703C127.488 30.7703 128.114 30.3996 128.48 29.6582H130.256C130.015 30.39 129.577 30.9918 128.942 31.4636C128.316 31.9258 127.536 32.1568 126.602 32.1568C125.841 32.1568 125.158 31.9883 124.551 31.6513C123.954 31.3047 123.482 30.8233 123.136 30.207C122.799 29.5811 122.63 28.859 122.63 28.0405C122.63 27.2221 122.794 26.5047 123.121 25.8885C123.458 25.2626 123.925 24.7812 124.522 24.4442C125.129 24.1072 125.822 23.9387 126.602 23.9387C127.353 23.9387 128.022 24.1023 128.609 24.4297C129.197 24.7571 129.654 25.2193 129.982 25.8163C130.309 26.4036 130.473 27.0825 130.473 27.8528ZM128.754 27.3328C128.744 26.7262 128.528 26.2399 128.104 25.874C127.68 25.5082 127.156 25.3252 126.53 25.3252C125.962 25.3252 125.475 25.5082 125.071 25.874C124.666 26.2303 124.426 26.7166 124.349 27.3328H128.754Z"
    fill="#ffffff"/>
  <rect x="0.5" y="0.5" width="159" height="41" rx="5.5" stroke="#ffffff"/>
</svg>
