<svg width="25" height="24" xmlns="http://www.w3.org/2000/svg" xmlns:xlink="http://www.w3.org/1999/xlink" xmlns:svgjs="http://svgjs.com/svgjs" viewBox="1564 20 25 24"><svg width="25" height="24" xmlns="http://www.w3.org/2000/svg" xmlns:xlink="http://www.w3.org/1999/xlink" xmlns:svgjs="http://svgjs.com/svgjs" viewBox="1564 20 25 24" x="1564" y="20"><svg width="4" height="3" xmlns="http://www.w3.org/2000/svg" xmlns:xlink="http://www.w3.org/1999/xlink" xmlns:svgjs="http://svgjs.com/svgjs" viewBox="0 0.032 4 2.936" fill="#161616" x="1566" y="26"><svg xmlns="http://www.w3.org/2000/svg" xmlns:xlink="http://www.w3.org/1999/xlink" width="4" height="3" viewBox="0.5 0.012 3.234 2.373"><path paint-order="stroke fill markers" fill-rule="evenodd" d="M.777.972l1.34.774h.001l.515.297.592.342c.002.001.004 0 .005-.001.151-.301.32-.592.504-.87.001-.002 0-.005-.001-.006L2.625.868 1.26.08A.507.507 0 0 0 .529.35C.443.584.56.847.777.972z"/></svg></svg><svg width="3" height="5" xmlns="http://www.w3.org/2000/svg" xmlns:xlink="http://www.w3.org/1999/xlink" xmlns:svgjs="http://svgjs.com/svgjs" viewBox="0 0.45 3 4.099" fill="#161616" x="1570" y="21"><svg xmlns="http://www.w3.org/2000/svg" xmlns:xlink="http://www.w3.org/1999/xlink" width="3" height="5" viewBox="0.604 0.915 2.367 3.235"><path paint-order="stroke fill markers" fill-rule="evenodd" d="M2.099 4.149c.279-.185.57-.353.87-.504.002 0 .003-.003.002-.005l-.64-1.107-.788-1.365a.507.507 0 0 0-.767-.133c-.192.16-.222.447-.097.664l1.414 2.449c.001.001.004.002.006.001z"/></svg></svg><svg width="4" height="3" xmlns="http://www.w3.org/2000/svg" xmlns:xlink="http://www.w3.org/1999/xlink" xmlns:svgjs="http://svgjs.com/svgjs" viewBox="0 0.031 4 2.938" fill="#161616" x="1583" y="26"><svg xmlns="http://www.w3.org/2000/svg" xmlns:xlink="http://www.w3.org/1999/xlink" width="4" height="3" viewBox="0.67 0.012 3.234 2.375"><path paint-order="stroke fill markers" fill-rule="evenodd" d="M1.176 2.387l.101-.058L3.627.972c.217-.125.335-.388.248-.623a.507.507 0 0 0-.73-.269L1.782.867l-.003.001-1.107.64a.004.004 0 0 0-.001.005c.185.28.354.572.505.874z"/></svg></svg><svg width="2" height="4" xmlns="http://www.w3.org/2000/svg" xmlns:xlink="http://www.w3.org/1999/xlink" xmlns:svgjs="http://svgjs.com/svgjs" viewBox="0.397 0 1.205 4" fill="#161616" x="1576" y="20"><svg xmlns="http://www.w3.org/2000/svg" xmlns:xlink="http://www.w3.org/1999/xlink" width="2" height="4" viewBox="0.195 0.415 1.013 3.363"><path paint-order="stroke fill markers" fill-rule="evenodd" d="M.702 3.761c.17 0 .336.007.503.017a.004.004 0 0 0 .004-.004V2.498.95C1.209.7 1.04.466.794.423a.507.507 0 0 0-.599.499V3.774c0 .002.002.004.004.004.167-.01.334-.017.503-.017z"/></svg></svg><svg width="3" height="5" xmlns="http://www.w3.org/2000/svg" xmlns:xlink="http://www.w3.org/1999/xlink" xmlns:svgjs="http://svgjs.com/svgjs" viewBox="0 0.45 3 4.1" fill="#161616" x="1580" y="21"><svg xmlns="http://www.w3.org/2000/svg" xmlns:xlink="http://www.w3.org/1999/xlink" width="3" height="5" viewBox="0.433 0.915 2.367 3.235"><path paint-order="stroke fill markers" fill-rule="evenodd" d="M1.306 4.149l.005-.001.111-.193 1.303-2.256c.125-.217.096-.503-.097-.664a.507.507 0 0 0-.767.133l-.788 1.365-.317.55-.322.557c-.001.002 0 .004.001.005.301.151.592.319.87.504z"/></svg></svg><svg width="5" height="2" xmlns="http://www.w3.org/2000/svg" xmlns:xlink="http://www.w3.org/1999/xlink" xmlns:svgjs="http://svgjs.com/svgjs" viewBox="0 0.247 5 1.507" fill="#161616" x="1564" y="31"><svg xmlns="http://www.w3.org/2000/svg" xmlns:xlink="http://www.w3.org/1999/xlink" width="5" height="2" viewBox="1 0.61 3.363 1.014"><path paint-order="stroke fill markers" fill-rule="evenodd" d="M3.083 1.624H4.36c.002 0 .003-.002.003-.004a8.614 8.614 0 0 1-.016-.503c0-.169.006-.336.016-.503A.004.004 0 0 0 4.36.61h-.962-1.864c-.25 0-.483.169-.526.416a.507.507 0 0 0 .499.598h1.576z"/></svg></svg><svg width="4" height="4" xmlns="http://www.w3.org/2000/svg" xmlns:xlink="http://www.w3.org/1999/xlink" xmlns:svgjs="http://svgjs.com/svgjs" viewBox="0 0.531 4 2.938" fill="#161616" x="1583" y="35"><svg xmlns="http://www.w3.org/2000/svg" xmlns:xlink="http://www.w3.org/1999/xlink" width="4" height="4" viewBox="0.67 0.848 3.231 2.373"><path paint-order="stroke fill markers" fill-rule="evenodd" d="M3.627 2.262l-1.339-.773-.002-.001-.918-.53-.188-.11c-.002 0-.005 0-.006.002-.15.301-.318.592-.503.87-.002.003 0 .005 0 .006l2.473 1.428a.505.505 0 0 0 .703-.204c.129-.245.02-.55-.22-.688z"/></svg></svg><svg width="3" height="4" xmlns="http://www.w3.org/2000/svg" xmlns:xlink="http://www.w3.org/1999/xlink" xmlns:svgjs="http://svgjs.com/svgjs" viewBox="0.036 0 2.928 4" fill="#161616" x="1580" y="39"><svg xmlns="http://www.w3.org/2000/svg" xmlns:xlink="http://www.w3.org/1999/xlink" width="3" height="4" viewBox="0.434 0.083 2.369 3.236"><path paint-order="stroke fill markers" fill-rule="evenodd" d="M1.952 1.196l-.001-.002L1.329.117l-.02-.034C1.03.27.739.438.437.59.434.59.433.592.434.594l1.427 2.472a.507.507 0 0 0 .78.123.52.52 0 0 0 .088-.647l-.777-1.346z"/></svg></svg><svg width="4" height="2" xmlns="http://www.w3.org/2000/svg" xmlns:xlink="http://www.w3.org/1999/xlink" xmlns:svgjs="http://svgjs.com/svgjs" viewBox="0 0.397 4 1.206" fill="#161616" x="1585" y="31"><svg xmlns="http://www.w3.org/2000/svg" xmlns:xlink="http://www.w3.org/1999/xlink" width="4" height="2" viewBox="0.041 0.61 3.363 1.014"><path paint-order="stroke fill markers" fill-rule="evenodd" d="M2.87.61H1.324 1.32.046C.043.61.04.612.042.614a8.407 8.407 0 0 1 0 1.005c0 .003 0 .005.004.005h2.852c.31 0 .555-.278.499-.599C3.353.78 3.12.61 2.87.61z"/></svg></svg><svg width="3" height="4" xmlns="http://www.w3.org/2000/svg" xmlns:xlink="http://www.w3.org/1999/xlink" xmlns:svgjs="http://svgjs.com/svgjs" viewBox="0.033 0 2.933 4" fill="#161616" x="1570" y="39"><svg xmlns="http://www.w3.org/2000/svg" xmlns:xlink="http://www.w3.org/1999/xlink" width="3" height="4" viewBox="0.598 0.083 2.373 3.236"><path paint-order="stroke fill markers" fill-rule="evenodd" d="M2.096.083l-.084.145L.666 2.56a.506.506 0 1 0 .877.506l.788-1.363.001-.002.327-.566.312-.54c0-.003 0-.005-.002-.006a8.366 8.366 0 0 1-.873-.506z"/></svg></svg><svg width="2" height="4" xmlns="http://www.w3.org/2000/svg" xmlns:xlink="http://www.w3.org/1999/xlink" xmlns:svgjs="http://svgjs.com/svgjs" viewBox="0.397 0 1.206 4" fill="#161616" x="1576" y="40"><svg xmlns="http://www.w3.org/2000/svg" xmlns:xlink="http://www.w3.org/1999/xlink" width="2" height="4" viewBox="0.195 0.456 1.014 3.364"><path paint-order="stroke fill markers" fill-rule="evenodd" d="M1.209.456C1.04.466.872.473.702.473.532.473.363.466.195.456V3.285c0 .25.169.483.416.527a.507.507 0 0 0 .598-.5V1.74v-.003V.61.456z"/></svg></svg><svg width="4" height="4" xmlns="http://www.w3.org/2000/svg" xmlns:xlink="http://www.w3.org/1999/xlink" xmlns:svgjs="http://svgjs.com/svgjs" viewBox="0 0.531 4 2.938" fill="#161616" x="1566" y="35"><svg xmlns="http://www.w3.org/2000/svg" xmlns:xlink="http://www.w3.org/1999/xlink" width="4" height="4" viewBox="0.503 0.849 3.232 2.373"><path paint-order="stroke fill markers" fill-rule="evenodd" d="M3.23.85c0-.001-.003-.002-.005-.001l-.41.237L.777 2.262c-.24.138-.35.443-.22.688a.506.506 0 0 0 .702.204l1.364-.788h.002l.412-.239.695-.4a.004.004 0 0 0 .001-.006 8.335 8.335 0 0 1-.503-.87z"/></svg></svg></svg><svg width="16" height="16" xmlns="http://www.w3.org/2000/svg" xmlns:xlink="http://www.w3.org/1999/xlink" xmlns:svgjs="http://svgjs.com/svgjs" fill="#161616" x="1569" y="24"><svg xmlns="http://www.w3.org/2000/svg" width="16" height="16" viewBox="0.064 0.477 15.28 15.28"><path paint-order="stroke fill markers" fill-rule="evenodd" d="M7.704 15.757c-4.212 0-7.64-3.427-7.64-7.64 0-4.213 3.428-7.64 7.64-7.64 4.213 0 7.64 3.427 7.64 7.64 0 4.213-3.427 7.64-7.64 7.64zm0-14.606A6.974 6.974 0 0 0 .738 8.117a6.974 6.974 0 0 0 6.966 6.967 6.975 6.975 0 0 0 6.967-6.967 6.975 6.975 0 0 0-6.967-6.966z"/></svg></svg></svg>