<svg width="24" height="24" viewBox="0 0 24 24" fill="none" xmlns="http://www.w3.org/2000/svg">
<path d="M14 1.284C13.3502 1.09481 12.6768 0.999184 12 0.999996C11.0864 0.994332 10.1806 1.16868 9.33438 1.51308C8.48815 1.85747 7.71804 2.36518 7.06803 3.00721C6.41801 3.64924 5.90082 4.41301 5.54599 5.25492C5.19116 6.09683 5.00563 7.00038 5 7.914V13C4.97026 15.47 4.27968 17.8871 3 20H21C20.34 18.9103 19.8368 17.7397 19.5 16.5227C19.452 16.3494 19.4075 16.1751 19.3663 16" stroke="#FFA000" stroke-miterlimit="10" stroke-linecap="round" stroke-linejoin="round"/>
<path d="M9.17401 22C9.3818 22.5832 9.76496 23.0879 10.2709 23.4447C10.7769 23.8016 11.3809 23.9932 12 23.9932C12.6192 23.9932 13.2231 23.8016 13.7291 23.4447C14.2351 23.0879 14.6182 22.5832 14.826 22H9.17401Z" fill="#FFA000"/>
<path d="M18 13C20.7614 13 23 10.7614 23 8C23 5.23858 20.7614 3 18 3C15.2386 3 13 5.23858 13 8C13 10.7614 15.2386 13 18 13Z" stroke="#FFA000" stroke-miterlimit="10" stroke-linecap="round" stroke-linejoin="round"/>
<path d="M18 6V8.00001H20" stroke="#FFA000" stroke-miterlimit="10" stroke-linecap="round" stroke-linejoin="round"/>
</svg>
