<svg width="24" height="24" viewBox="0 0 24 24" fill="none" xmlns="http://www.w3.org/2000/svg">
<path d="M12 12C14.7614 12 17 9.76142 17 7C17 4.23858 14.7614 2 12 2C9.23858 2 7 4.23858 7 7C7 9.76142 9.23858 12 12 12Z" stroke="#1574F6" stroke-width="1.5" stroke-linecap="round" stroke-linejoin="round"/>
<path d="M3.41016 22C3.41016 18.13 7.26018 15 12.0002 15" stroke="#1574F6" stroke-width="1.5" stroke-linecap="round" stroke-linejoin="round"/>
<path d="M18 20.25C18.6904 20.25 19.25 19.6904 19.25 19C19.25 18.3096 18.6904 17.75 18 17.75C17.3096 17.75 16.75 18.3096 16.75 19C16.75 19.6904 17.3096 20.25 18 20.25Z" stroke="#1574F6" stroke-miterlimit="10" stroke-linecap="round" stroke-linejoin="round"/>
<path d="M13.833 19.3667V18.6333C13.833 18.2 14.1872 17.8417 14.6247 17.8417C15.3788 17.8417 15.6872 17.3083 15.308 16.6542C15.0913 16.2792 15.2205 15.7917 15.5997 15.575L16.3205 15.1625C16.6497 14.9667 17.0747 15.0833 17.2705 15.4125L17.3163 15.4917C17.6913 16.1458 18.308 16.1458 18.6872 15.4917L18.733 15.4125C18.9288 15.0833 19.3538 14.9667 19.683 15.1625L20.4038 15.575C20.783 15.7917 20.9122 16.2792 20.6955 16.6542C20.3163 17.3083 20.6247 17.8417 21.3788 17.8417C21.8122 17.8417 22.1705 18.1958 22.1705 18.6333V19.3667C22.1705 19.8 21.8163 20.1583 21.3788 20.1583C20.6247 20.1583 20.3163 20.6917 20.6955 21.3458C20.9122 21.725 20.783 22.2083 20.4038 22.425L19.683 22.8375C19.3538 23.0333 18.9288 22.9167 18.733 22.5875L18.6872 22.5083C18.3122 21.8542 17.6955 21.8542 17.3163 22.5083L17.2705 22.5875C17.0747 22.9167 16.6497 23.0333 16.3205 22.8375L15.5997 22.425C15.2205 22.2083 15.0913 21.7208 15.308 21.3458C15.6872 20.6917 15.3788 20.1583 14.6247 20.1583C14.1872 20.1583 13.833 19.8 13.833 19.3667Z" stroke="#1574F6" stroke-miterlimit="10" stroke-linecap="round" stroke-linejoin="round"/>
</svg>
