<svg width="39" height="60" viewBox="0 0 39 60" fill="none" xmlns="http://www.w3.org/2000/svg">
<rect x="4" y="4" width="29" height="52" fill="#FD7B38"/>
<path d="M32.7273 60H5.45455C2.44208 60 0 57.5579 0 54.5455V5.45455C0 2.44208 2.44208 0 5.45455 0H32.7273C35.7397 0 38.1818 2.44208 38.1818 5.45455V54.5455C38.1818 57.5579 35.7397 60 32.7273 60ZM5.45455 5.45455V54.5455H32.7273V5.45455H5.45455ZM19.0909 51.8182C17.5847 51.8182 16.3636 50.5971 16.3636 49.0909C16.3636 47.5847 17.5847 46.3636 19.0909 46.3636C20.5971 46.3636 21.8182 47.5847 21.8182 49.0909C21.8182 50.5971 20.5971 51.8182 19.0909 51.8182Z" fill="#8B5135"/>
</svg>
