<svg width="60" height="45" viewBox="0 0 60 45" fill="none" xmlns="http://www.w3.org/2000/svg">
<path opacity="0.4" d="M57.9928 7.32727C56.7358 6.53539 55.1908 6.46534 53.8737 7.13539L49.4277 9.38006C47.7837 10.2085 46.7637 11.8836 46.7637 13.7476V31.2481C46.7637 33.112 47.7837 34.7841 49.4277 35.6186L53.8707 37.8603C54.4738 38.1709 55.1188 38.3202 55.7638 38.3202C56.5378 38.3202 57.3058 38.1009 57.9928 37.6714C59.2498 36.8826 59.9998 35.5151 59.9998 34.0166V10.9851C59.9998 9.48666 59.2498 8.11915 57.9928 7.32727Z" fill="#4AA541"/>
<path d="M29.7153 45H12.3391C5.07305 45 0 39.9898 0 32.8173V12.1827C0 5.00711 5.07305 0 12.3391 0H29.7153C36.9814 0 42.0544 5.00711 42.0544 12.1827V32.8173C42.0544 39.9898 36.9814 45 29.7153 45Z" fill="#4AA541"/>
<path d="M10.9395 25.3525H15.2939V27H8.88867V17.0469H10.9395V25.3525ZM18.4316 27H16.4492V19.6035H18.4316V27ZM16.333 17.6895C16.333 17.3932 16.431 17.1494 16.627 16.958C16.8275 16.7666 17.0986 16.6709 17.4404 16.6709C17.7777 16.6709 18.0465 16.7666 18.2471 16.958C18.4476 17.1494 18.5479 17.3932 18.5479 17.6895C18.5479 17.9902 18.4453 18.2363 18.2402 18.4277C18.0397 18.6191 17.7731 18.7148 17.4404 18.7148C17.1077 18.7148 16.8389 18.6191 16.6338 18.4277C16.4333 18.2363 16.333 17.9902 16.333 17.6895ZM22.834 24.5869L24.208 19.6035H26.2725L23.7773 27H21.8906L19.3955 19.6035H21.46L22.834 24.5869ZM30.4561 27.1367C29.3714 27.1367 28.4873 26.804 27.8037 26.1387C27.1247 25.4733 26.7852 24.5869 26.7852 23.4795V23.2881C26.7852 22.5452 26.9287 21.8822 27.2158 21.2988C27.5029 20.7109 27.9085 20.2598 28.4326 19.9453C28.9613 19.6263 29.5628 19.4668 30.2373 19.4668C31.249 19.4668 32.0443 19.7858 32.623 20.4238C33.2064 21.0618 33.498 21.9665 33.498 23.1377V23.9443H28.7881C28.8519 24.4274 29.0433 24.8148 29.3623 25.1064C29.6859 25.3981 30.0938 25.5439 30.5859 25.5439C31.347 25.5439 31.9417 25.2682 32.3701 24.7168L33.3408 25.8037C33.0446 26.223 32.6436 26.5511 32.1377 26.7881C31.6318 27.0205 31.0713 27.1367 30.4561 27.1367ZM30.2305 21.0664C29.8385 21.0664 29.5195 21.1986 29.2734 21.4629C29.0319 21.7272 28.877 22.1055 28.8086 22.5977H31.5566V22.4404C31.5475 22.0029 31.429 21.6657 31.2012 21.4287C30.9733 21.1872 30.6497 21.0664 30.2305 21.0664Z" fill="#3A6539"/>
</svg>
