<svg width="11" height="14" viewBox="0 0 11 14" fill="none" xmlns="http://www.w3.org/2000/svg">
<path d="M5.44332 14C4.46114 13.1622 3.55075 12.2438 2.72166 11.2542C1.47747 9.76821 6.87151e-07 7.55511 6.87151e-07 5.44621C-0.0011021 3.24364 1.32525 1.25749 3.36014 0.414555C5.39502 -0.428376 7.73734 0.0380666 9.29408 1.59622C10.3178 2.61538 10.8912 4.0017 10.8867 5.44621C10.8867 7.55511 9.40917 9.76821 8.16498 11.2542C7.3359 12.2438 6.42551 13.1622 5.44332 14ZM5.44332 1.55812C3.29706 1.56069 1.55781 3.29994 1.55524 5.44621C1.55524 6.35291 1.96504 7.92292 3.9153 10.2565C4.39598 10.8305 4.906 11.3792 5.44332 11.9004C5.98069 11.3798 6.49096 10.8319 6.97212 10.2589C8.92161 7.92214 9.33141 6.35213 9.33141 5.44621C9.32884 3.29994 7.58959 1.56069 5.44332 1.55812ZM5.44332 7.77906C4.15492 7.77906 3.11047 6.73461 3.11047 5.44621C3.11047 4.15781 4.15492 3.11336 5.44332 3.11336C6.73172 3.11336 7.77618 4.15781 7.77618 5.44621C7.77618 6.06492 7.53039 6.65829 7.0929 7.09579C6.6554 7.53328 6.06203 7.77906 5.44332 7.77906Z" fill="white"/>
</svg>
