<svg width="60" height="45" viewBox="0 0 60 45" fill="none" xmlns="http://www.w3.org/2000/svg">
<path opacity="0.4" d="M57.9928 8.32727C56.7358 7.53539 55.1908 7.46534 53.8737 8.13539L49.4277 10.3801C47.7837 11.2085 46.7637 12.8836 46.7637 14.7476V32.2481C46.7637 34.112 47.7837 35.7841 49.4277 36.6186L53.8707 38.8603C54.4738 39.1709 55.1188 39.3202 55.7638 39.3202C56.5378 39.3202 57.3058 39.1009 57.9928 38.6714C59.2498 37.8826 59.9998 36.5151 59.9998 35.0166V11.9851C59.9998 10.4867 59.2498 9.11915 57.9928 8.32727Z" fill="#E0A818"/>
<path d="M29.7153 45H12.3391C5.07305 45 0 39.9898 0 32.8173V12.1827C0 5.00711 5.07305 0 12.3391 0H29.7153C36.9814 0 42.0544 5.00711 42.0544 12.1827V32.8173C42.0544 39.9898 36.9814 45 29.7153 45Z" fill="#E0A818"/>
<path d="M21.0113 15C16.8526 14.9943 13.383 18.176 13.0293 22.3197C12.6757 26.4634 15.5559 30.187 19.6555 30.8862C23.7551 31.5853 27.7066 29.0267 28.7463 25H26.6653C25.6481 27.8771 22.6334 29.5324 19.6598 28.8465C16.6862 28.1605 14.7012 25.3519 15.0471 22.3199C15.3931 19.2879 17.9597 16.9986 21.0113 17C22.6009 17.0023 24.1227 17.6438 25.2343 18.78L22.0163 22H29.0163V15L26.6653 17.35C25.1691 15.8446 23.1338 14.9987 21.0113 15Z" fill="#806727"/>
</svg>
