<svg width="48" height="61" viewBox="0 0 48 61" fill="none" xmlns="http://www.w3.org/2000/svg">
<path d="M48 51.5H0V45.5L6 42.5V26C5.84195 21.7674 6.79781 17.5674 8.772 13.82C10.7371 10.3445 14.0961 7.87663 18 7.04V0.5H30V7.04C37.737 8.882 42 15.614 42 26V42.5L48 45.5V51.5Z" fill="#FD413C"/>
<path opacity="0.4" d="M17.97 54.5C18.0027 57.8117 20.6881 60.4838 24 60.5C24.3559 60.4927 24.7104 60.4526 25.059 60.38H25.086H25.14H25.185H25.2C27.1254 59.9633 28.7329 58.646 29.52 56.84C29.8234 56.0975 29.9763 55.3021 29.97 54.5H17.97Z" fill="#FD413C"/>
</svg>
