<svg width="54" height="60" viewBox="0 0 54 60" fill="none" xmlns="http://www.w3.org/2000/svg">
<path fill-rule="evenodd" clip-rule="evenodd" d="M0 44.6099V21.7709H54V44.7929C54 54.2099 48.0724 59.9999 38.5884 59.9999H15.382C5.98683 59.9999 0 54.0899 0 44.6099ZM14.8782 37.23C13.5148 37.293 12.3886 36.21 12.3293 34.833C12.3293 33.453 13.3963 32.313 14.7596 32.25C16.0933 32.25 17.1899 33.303 17.2195 34.65C17.2788 36.033 16.2119 37.173 14.8782 37.23ZM27.0593 37.23C25.6959 37.293 24.5697 36.21 24.5104 34.833C24.5104 33.453 25.5774 32.313 26.9407 32.25C28.2744 32.25 29.371 33.303 29.4006 34.65C29.4599 36.033 28.393 37.173 27.0593 37.23ZM39.1515 48.27C37.7881 48.24 36.6915 47.1 36.6915 45.72C36.6619 44.34 37.7585 43.203 39.1218 43.173H39.1515C40.5444 43.173 41.6707 44.313 41.6707 45.72C41.6707 47.13 40.5444 48.27 39.1515 48.27ZM24.5104 45.72C24.5697 47.1 25.6959 48.183 27.0593 48.12C28.393 48.063 29.4599 46.923 29.4006 45.543C29.371 44.193 28.2744 43.14 26.9407 43.14C25.5774 43.203 24.5104 44.34 24.5104 45.72ZM12.2997 45.72C12.3589 47.1 13.4852 48.183 14.8485 48.12C16.1822 48.063 17.2492 46.923 17.1899 45.543C17.1602 44.193 16.0636 43.14 14.7299 43.14C13.3666 43.203 12.2997 44.34 12.2997 45.72ZM36.7212 34.803C36.7212 33.423 37.7881 32.313 39.1515 32.283C40.4852 32.283 41.5521 33.36 41.6114 34.683C41.641 36.063 40.5741 37.203 39.2404 37.23C37.877 37.26 36.7508 36.21 36.7212 34.833V34.803Z" fill="#E0A818"/>
<path opacity="0.4" d="M0.0100708 21.7706C0.0485999 20.0096 0.196789 16.5146 0.475384 15.3896C1.898 9.0626 6.72895 5.0426 13.6346 4.4696H40.3678C47.2141 5.0726 52.1044 9.11961 53.527 15.3896C53.8026 16.4846 53.9508 20.0066 53.9893 21.7706H0.0100708Z" fill="#E0A818"/>
<path d="M15.9146 13.77C17.2186 13.77 18.1967 12.783 18.1967 11.46V2.313C18.1967 0.99 17.2186 0 15.9146 0C14.6105 0 13.6325 0.99 13.6325 2.313V11.46C13.6325 12.783 14.6105 13.77 15.9146 13.77Z" fill="#E0A818"/>
<path d="M38.0848 13.77C39.3592 13.77 40.3669 12.783 40.3669 11.46V2.313C40.3669 0.99 39.3592 0 38.0848 0C36.7808 0 35.8027 0.99 35.8027 2.313V11.46C35.8027 12.783 36.7808 13.77 38.0848 13.77Z" fill="#E0A818"/>
</svg>
