<svg width="47" height="60" viewBox="0 0 47 60" fill="none" xmlns="http://www.w3.org/2000/svg">
<path d="M23.3285 60C19.1192 56.4095 15.2175 52.4733 11.6643 48.2324C6.33203 41.8637 2.94493e-06 32.379 2.94493e-06 23.3409C-0.00472329 13.9013 5.67965 5.38923 14.4006 1.77667C23.1215 -1.8359 33.16 0.163142 39.8318 6.84096C44.2191 11.2088 46.6768 17.1501 46.6572 23.3409C46.6572 32.379 40.325 41.8637 34.9928 48.2324C31.4396 52.4733 27.5379 56.4095 23.3285 60ZM23.3285 13.343C19.7566 13.343 16.456 15.2486 14.6701 18.3419C12.8841 21.4353 12.8841 25.2465 14.6701 28.3399C16.456 31.4332 19.7566 33.3388 23.3285 33.3388C28.8502 33.3388 33.3265 28.8626 33.3265 23.3409C33.3265 17.8192 28.8502 13.343 23.3285 13.343Z" fill="#FD7B38"/>
<circle opacity="0.5" cx="23" cy="23" r="4" fill="#FD7B38"/>
</svg>
