<svg width="57" height="60" viewBox="0 0 57 60" fill="none" xmlns="http://www.w3.org/2000/svg">
<path d="M25.9164 4.14118C24.8692 4.14118 24.0202 3.29216 24.0202 2.24497V0H19.2155V2.24497C19.2155 3.29216 18.3664 4.14118 17.3192 4.14118H14.0914V8.08924H29.1443V4.14118H25.9164Z" fill="#4AA541"/>
<g opacity="0.5">
<path d="M55.1146 13.9362C53.7632 12.8958 51.8177 13.1474 50.7773 14.4987L50.0757 15.4089L54.9655 19.1975L55.6771 18.2722C56.7177 16.9222 56.4649 14.9766 55.1146 13.9362Z" fill="#4AA541"/>
</g>
<path d="M10.873 31.419H32.3636C32.5497 31.419 32.7292 31.4468 32.8992 31.497L43.2356 18.0751V9.37841C43.2356 6.53344 40.921 4.21898 38.0762 4.21898H32.9369V9.98544C32.9369 11.0326 32.0879 11.8817 31.0407 11.8817H12.1949C11.1477 11.8817 10.2987 11.0326 10.2987 9.98544V4.21875H5.15942C2.31446 4.21875 0 6.53332 0 9.37817V54.8403C0 57.6853 2.31457 59.9998 5.15942 59.9998H38.0759C40.9209 59.9998 43.2354 57.6852 43.2354 54.8403V40.6419L41.478 42.9236C41.2074 43.2764 40.8206 43.5216 40.3858 43.6176L32.7945 45.2989C32.658 45.3293 32.5215 45.3444 32.3849 45.3444C31.969 45.3444 31.5619 45.2079 31.227 44.9499C30.7821 44.6074 30.5128 44.0852 30.49 43.524L30.1765 35.7544C30.1692 35.5703 30.1904 35.3878 30.2353 35.2115H10.873C9.82584 35.2115 8.97681 34.3625 8.97681 33.3153C8.97681 32.268 9.82572 31.419 10.873 31.419ZM10.873 41.5516H23.3218C24.369 41.5516 25.218 42.4006 25.218 43.4478C25.218 44.495 24.369 45.344 23.3218 45.344H10.873C9.82584 45.344 8.97681 44.495 8.97681 43.4478C8.97681 42.4006 9.82584 41.5516 10.873 41.5516ZM10.873 21.2863H32.3636C33.4108 21.2863 34.2598 22.1353 34.2598 23.1825C34.2598 24.2297 33.4108 25.0788 32.3636 25.0788H10.873C9.82584 25.0788 8.97681 24.2297 8.97681 23.1825C8.97681 22.1353 9.82572 21.2863 10.873 21.2863Z" fill="#4AA541"/>
<g opacity="0.5">
<path d="M47.7623 18.4141L33.9941 36.2907L34.1876 41.1059L38.8941 40.0643L52.6508 22.2015L47.7623 18.4141Z" fill="#4AA541"/>
</g>
</svg>
