<svg width="60" height="50" viewBox="0 0 60 50" fill="none" xmlns="http://www.w3.org/2000/svg">
<path d="M37.5 11.25C36.12 11.25 35 10.13 35 8.75V5H25V8.75C25 10.13 23.88 11.25 22.5 11.25C21.12 11.25 20 10.13 20 8.75V5C20 2.2425 22.2425 0 25 0H35C37.7575 0 40 2.2425 40 5V8.75C40 10.13 38.88 11.25 37.5 11.25Z" fill="#4AA541"/>
<path d="M31.775 33.4498C31.325 33.6248 30.675 33.7498 30 33.7498C29.325 33.7498 28.675 33.6248 28.075 33.3998L0 24.0498V43.1248C0 46.9248 3.075 49.9998 6.875 49.9998H53.125C56.925 49.9998 60 46.9248 60 43.1248V24.0498L31.775 33.4498Z" fill="#4AA541"/>
<path d="M60 14.375V20.1L30.6 29.9C30.4 29.975 30.2 30 30 30C29.8 30 29.6 29.975 29.4 29.9L0 20.1V14.375C0 10.575 3.075 7.5 6.875 7.5H53.125C56.925 7.5 60 10.575 60 14.375Z" fill="#42853D"/>
</svg>
