<svg width="47" height="62" viewBox="0 0 47 62" fill="none" xmlns="http://www.w3.org/2000/svg">
<path d="M23 36C11.6718 36 2 37.995 2 45.9656C2 53.9331 11.613 56 23 56C34.3254 56 44 54.005 44 46.0344C44 38.0638 34.387 36 23 36Z" fill="#E0A818"/>
<path opacity="0.4" d="M23.0517 31.017C30.7183 31.017 36.8639 24.7922 36.8639 17.0268C36.8639 9.26139 30.7183 3.03381 23.0517 3.03381C15.3851 3.03381 9.23956 9.26139 9.23956 17.0268C9.23956 24.7922 15.3851 31.017 23.0517 31.017Z" fill="#E0A818"/>
<path d="M41.678 1H45.7458V5.0678" stroke="#F4B511" stroke-width="1.2"/>
<path d="M1 5.06775L1 0.999952L5.0678 0.999952" stroke="#F4B511" stroke-width="1.2"/>
<path d="M5.06781 61L1.00001 61L1.00001 56.9322" stroke="#F4B511" stroke-width="1.2"/>
<path d="M45.7458 56.8983L45.7458 60.9661L41.678 60.9661" stroke="#F4B511" stroke-width="1.2"/>
<line x1="1" y1="16.5212" x2="45.7458" y2="16.5212" stroke="#F4B511" stroke-width="1.5"/>
</svg>
