<svg width="60" height="60" viewBox="0 0 60 60" fill="none" xmlns="http://www.w3.org/2000/svg">
<line x1="30.1949" y1="23.4775" x2="30.1949" y2="38.4771" stroke="#806029" stroke-width="3"/>
<path d="M29.7814 15.022C24.6219 15.022 20.2169 15.9306 20.2169 19.5609C20.2169 23.1897 24.5951 24.1311 29.7814 24.1311C34.9396 24.1311 39.346 23.2224 39.346 19.5922C39.346 15.9619 34.9677 15.022 29.7814 15.022Z" fill="#E0A818"/>
<path opacity="0.4" d="M29.805 12.7451C33.2968 12.7451 36.0958 9.90999 36.0958 6.37319C36.0958 2.83638 33.2968 0 29.805 0C26.3132 0 23.5142 2.83638 23.5142 6.37319C23.5142 9.90999 26.3132 12.7451 29.805 12.7451Z" fill="#E0A818"/>
<path d="M9.78235 37.8252V31.3472C9.78235 30.2426 10.6778 29.3472 11.7823 29.3472H48.216C49.3206 29.3472 50.216 30.2426 50.216 31.3472V37.8252" stroke="#806029" stroke-width="3"/>
<path d="M9.56456 50.5703C4.40509 50.5703 0 51.4789 0 55.1092C0 58.738 4.37828 59.6794 9.56456 59.6794C14.7228 59.6794 19.1291 58.7708 19.1291 55.1405C19.1291 51.5103 14.7508 50.5703 9.56456 50.5703Z" fill="#E0A818"/>
<path d="M9.58812 48.6137C13.0799 48.6137 15.8789 45.7786 15.8789 42.2418C15.8789 38.705 13.0799 35.8687 9.58812 35.8687C6.09632 35.8687 3.2973 38.705 3.2973 42.2418C3.2973 45.7786 6.09632 48.6137 9.58812 48.6137Z" fill="#E0A818"/>
<path d="M49.9983 50.8906C44.8388 50.8906 40.4337 51.7993 40.4337 55.4295C40.4337 59.0583 44.812 59.9997 49.9983 59.9997C55.1565 59.9997 59.5628 59.0911 59.5628 55.4608C59.5628 51.8306 55.1846 50.8906 49.9983 50.8906Z" fill="#E0A818"/>
<path d="M50.0218 48.6137C53.5136 48.6137 56.3126 45.7786 56.3126 42.2418C56.3126 38.705 53.5136 35.8687 50.0218 35.8687C46.53 35.8687 43.731 38.705 43.731 42.2418C43.731 45.7786 46.53 48.6137 50.0218 48.6137Z" fill="#E0A818"/>
<path d="M29.7814 50.5703C24.6219 50.5703 20.2169 51.4789 20.2169 55.1092C20.2169 58.738 24.5951 59.6794 29.7814 59.6794C34.9396 59.6794 39.346 58.7708 39.346 55.1405C39.346 51.5103 34.9677 50.5703 29.7814 50.5703Z" fill="#E0A818"/>
<path d="M29.805 48.6137C33.2968 48.6137 36.0958 45.7786 36.0958 42.2418C36.0958 38.705 33.2968 35.8687 29.805 35.8687C26.3132 35.8687 23.5142 38.705 23.5142 42.2418C23.5142 45.7786 26.3132 48.6137 29.805 48.6137Z" fill="#E0A818"/>
</svg>
