<svg width="57" height="60" viewBox="0 0 57 60" fill="none" xmlns="http://www.w3.org/2000/svg">
<path fill-rule="evenodd" clip-rule="evenodd" d="M53.707 34.74C54.7801 35.31 55.6079 36.21 56.1904 37.11C57.3248 38.97 57.2328 41.25 56.1291 43.26L53.983 46.86C52.8486 48.78 50.7331 49.98 48.5564 49.98C47.4833 49.98 46.2876 49.68 45.3065 49.08C44.5094 48.57 43.5897 48.39 42.6086 48.39C39.5734 48.39 37.0287 50.88 36.9367 53.85C36.9367 57.3 34.1161 60 30.5904 60H26.4208C22.8644 60 20.0438 57.3 20.0438 53.85C19.9824 50.88 17.4378 48.39 14.4026 48.39C13.3908 48.39 12.4711 48.57 11.7046 49.08C10.7235 49.68 9.49716 49.98 8.45476 49.98C6.24734 49.98 4.13188 48.78 2.99751 46.86L0.882059 43.26C-0.252313 41.31 -0.313631 38.97 0.820742 37.11C1.31128 36.21 2.23104 35.31 3.27344 34.74C4.13188 34.32 4.68374 33.63 5.20494 32.82C6.73788 30.24 5.81811 26.85 3.21212 25.32C0.176909 23.61 -0.80417 19.8 0.943377 16.83L2.99751 13.29C4.77572 10.32 8.5774 9.27 11.6433 11.01C14.3106 12.45 17.775 11.49 19.3386 8.94C19.8291 8.1 20.1051 7.2 20.0438 6.3C19.9824 5.13 20.3197 4.02 20.9022 3.12C22.0366 1.26 24.0907 0.06 26.3288 0H30.6517C32.9204 0 34.9746 1.26 36.1089 3.12C36.6608 4.02 37.0287 5.13 36.9367 6.3C36.8754 7.2 37.1513 8.1 37.6419 8.94C39.2055 11.49 42.6699 12.45 45.3679 11.01C48.4031 9.27 52.2354 10.32 53.983 13.29L56.0371 16.83C57.8153 19.8 56.8342 23.61 53.7684 25.32C51.1624 26.85 50.2426 30.24 51.8062 32.82C52.2967 33.63 52.8486 34.32 53.707 34.74ZM19.8292 30.0302C19.8292 34.7402 23.7228 38.4902 28.5362 38.4902C33.3497 38.4902 37.1513 34.7402 37.1513 30.0302C37.1513 25.3202 33.3497 21.5402 28.5362 21.5402C23.7228 21.5402 19.8292 25.3202 19.8292 30.0302Z" fill="#4AA541"/>
<path opacity="0.7" d="M28.5362 38.4902C23.7228 38.4902 19.8292 34.7402 19.8292 30.0302C19.8292 25.3202 23.7228 21.5402 28.5362 21.5402C33.3497 21.5402 37.1513 25.3202 37.1513 30.0302C37.1513 34.7402 33.3497 38.4902 28.5362 38.4902Z" fill="#4AA541"/>
</svg>
