<svg width="60" height="45" viewBox="0 0 60 45" fill="none" xmlns="http://www.w3.org/2000/svg">
<path opacity="0.4" d="M57.9929 7.32727C56.7359 6.53539 55.1909 6.46534 53.8739 7.13539L49.4278 9.38006C47.7838 10.2085 46.7638 11.8836 46.7638 13.7476V31.2481C46.7638 33.112 47.7838 34.7841 49.4278 35.6186L53.8709 37.8603C54.4739 38.1709 55.1189 38.3202 55.7639 38.3202C56.5379 38.3202 57.3059 38.1009 57.9929 37.6714C59.2499 36.8826 59.9999 35.5151 59.9999 34.0166V10.9851C59.9999 9.48666 59.2499 8.11915 57.9929 7.32727Z" fill="#FD7B38"/>
<path d="M29.7153 45H12.3391C5.07305 45 0 39.9898 0 32.8173V12.1827C0 5.00711 5.07305 0 12.3391 0H29.7153C36.9814 0 42.0544 5.00711 42.0544 12.1827V32.8173C42.0544 39.9898 36.9814 45 29.7153 45Z" fill="#FD7B38"/>
</svg>
