<svg width="24" height="26" viewBox="0 0 24 26" fill="none" xmlns="http://www.w3.org/2000/svg">
<path d="M1.68359 7.09274L11.6883 1L21.8892 7.09274L11.6883 12.4371L1.68359 7.09274Z" fill="#E0A818"/>
<path d="M1 18.9683V7.34766L11.6887 13.0301V24.9064L1 18.9683Z" fill="#E0A818"/>
<path d="M12.1269 24.8115L11.6895 13.0319L22.3782 7.09375V18.8115L12.1269 24.8115Z" fill="#E0A818"/>
<path d="M22.3774 17.7788V8.27768C22.377 7.86114 22.2671 7.45204 22.0586 7.09142C21.8502 6.7308 21.5505 6.43133 21.1898 6.22307L12.8764 1.47252C12.5153 1.26405 12.1057 1.1543 11.6887 1.1543C11.2718 1.1543 10.8622 1.26405 10.5011 1.47252L2.18764 6.22307C1.82691 6.43133 1.52729 6.7308 1.31883 7.09142C1.11038 7.45204 1.00043 7.86114 1 8.27768V17.7788C1.00043 18.1953 1.11038 18.6044 1.31883 18.965C1.52729 19.3256 1.82691 19.6251 2.18764 19.8334L10.5011 24.5839C10.8622 24.7924 11.2718 24.9021 11.6887 24.9021C12.1057 24.9021 12.5153 24.7924 12.8764 24.5839L21.1898 19.8334C21.5505 19.6251 21.8502 19.3256 22.0586 18.965C22.2671 18.6044 22.377 18.1953 22.3774 17.7788Z" stroke="#806727" stroke-width="2" stroke-linecap="round" stroke-linejoin="round"/>
<path d="M1.32031 7.04297L11.6884 13.0405L22.0564 7.04297" stroke="#806727" stroke-width="2" stroke-linecap="round" stroke-linejoin="round"/>
<path d="M11.6895 24.9987V13.0273" stroke="#806727" stroke-width="2" stroke-linecap="round" stroke-linejoin="round"/>
</svg>
