<svg width="80" height="80" viewBox="0 0 80 80" fill="none" xmlns="http://www.w3.org/2000/svg">
<rect width="80" height="80" rx="16" fill="#404447"/>
<path d="M16.1707 44.6824L24.9512 39.4141L34.9024 45.2677L25.5366 50.536L16.1707 44.6824Z" fill="#806727"/>
<path d="M15 56.9755L16.1707 45.8535L25.5366 51.1218V62.8291L15 56.9755Z" fill="#806727"/>
<path d="M26.1219 62.8286L25.5366 51.1212L36.0731 45.2676V56.3895L26.1219 62.8286Z" fill="#806727"/>
<path d="M36.0732 55.8019V46.4361C36.0728 46.0254 35.9644 45.6222 35.7589 45.2667C35.5534 44.9112 35.258 44.616 34.9024 44.4107L26.7073 39.7278C26.3514 39.5223 25.9476 39.4141 25.5366 39.4141C25.1256 39.4141 24.7218 39.5223 24.3659 39.7278L16.1707 44.4107C15.8151 44.616 15.5198 44.9112 15.3143 45.2667C15.1088 45.6222 15.0004 46.0254 15 46.4361V55.8019C15.0004 56.2125 15.1088 56.6158 15.3143 56.9713C15.5198 57.3268 15.8151 57.622 16.1707 57.8273L24.3659 62.5102C24.7218 62.7157 25.1256 62.8239 25.5366 62.8239C25.9476 62.8239 26.3514 62.7157 26.7073 62.5102L34.9024 57.8273C35.258 57.622 35.5534 57.3268 35.7589 56.9713C35.9644 56.6158 36.0728 56.2125 36.0732 55.8019Z" stroke="#E0A818" stroke-width="2" stroke-linecap="round" stroke-linejoin="round"/>
<path d="M15.3161 45.2207L25.5366 51.1329L35.7571 45.2207" stroke="#E0A818" stroke-width="2" stroke-linecap="round" stroke-linejoin="round"/>
<path d="M25.5366 62.9201V51.1191" stroke="#E0A818" stroke-width="2" stroke-linecap="round" stroke-linejoin="round"/>
<path d="M43.0975 44.6824L51.878 39.4141L61.8292 45.2677L52.4634 50.536L43.0975 44.6824Z" fill="#806727"/>
<path d="M41.9268 56.9755L43.0976 45.8535L52.4634 51.1218V62.8291L41.9268 56.9755Z" fill="#806727"/>
<path d="M53.0488 62.8286L52.4634 51.1212L63 45.2676V56.3895L53.0488 62.8286Z" fill="#806727"/>
<path d="M63 55.8019V46.4361C62.9996 46.0254 62.8912 45.6222 62.6857 45.2667C62.4802 44.9112 62.1849 44.616 61.8293 44.4107L53.6341 39.7278C53.2782 39.5223 52.8744 39.4141 52.4634 39.4141C52.0524 39.4141 51.6486 39.5223 51.2927 39.7278L43.0976 44.4107C42.742 44.616 42.4466 44.9112 42.2411 45.2667C42.0356 45.6222 41.9272 46.0254 41.9268 46.4361V55.8019C41.9272 56.2125 42.0356 56.6158 42.2411 56.9713C42.4466 57.3268 42.742 57.622 43.0976 57.8273L51.2927 62.5102C51.6486 62.7157 52.0524 62.8239 52.4634 62.8239C52.8744 62.8239 53.2782 62.7157 53.6341 62.5102L61.8293 57.8273C62.1849 57.622 62.4802 57.3268 62.6857 56.9713C62.8912 56.6158 62.9996 56.2125 63 55.8019Z" stroke="#E0A818" stroke-width="2" stroke-linecap="round" stroke-linejoin="round"/>
<path d="M42.2429 45.2207L52.4634 51.1329L62.6839 45.2207" stroke="#E0A818" stroke-width="2" stroke-linecap="round" stroke-linejoin="round"/>
<path d="M52.4634 62.9201V51.1191" stroke="#E0A818" stroke-width="2" stroke-linecap="round" stroke-linejoin="round"/>
<path d="M30.2195 21.2683L39 16L48.9512 21.8537L39.5853 27.122L30.2195 21.2683Z" fill="#806727"/>
<path d="M29.0488 33.5614L30.2195 22.4395L39.5854 27.7077V39.4151L29.0488 33.5614Z" fill="#806727"/>
<path d="M40.1708 39.4145L39.5854 27.7072L50.122 21.8535V32.9755L40.1708 39.4145Z" fill="#806727"/>
<path d="M50.1219 32.3878V23.022C50.1215 22.6114 50.0131 22.2081 49.8076 21.8526C49.6022 21.4971 49.3068 21.2019 48.9512 20.9966L40.7561 16.3137C40.4001 16.1082 39.9964 16 39.5854 16C39.1743 16 38.7706 16.1082 38.4146 16.3137L30.2195 20.9966C29.8639 21.2019 29.5685 21.4971 29.3631 21.8526C29.1576 22.2081 29.0492 22.6114 29.0488 23.022V32.3878C29.0492 32.7985 29.1576 33.2017 29.3631 33.5572C29.5685 33.9127 29.8639 34.2079 30.2195 34.4132L38.4146 39.0961C38.7706 39.3016 39.1743 39.4098 39.5854 39.4098C39.9964 39.4098 40.4001 39.3016 40.7561 39.0961L48.9512 34.4132C49.3068 34.2079 49.6022 33.9127 49.8076 33.5572C50.0131 33.2017 50.1215 32.7985 50.1219 32.3878Z" stroke="#E0A818" stroke-width="2" stroke-linecap="round" stroke-linejoin="round"/>
<path d="M29.3649 21.8047L39.5854 27.7169L49.8059 21.8047" stroke="#E0A818" stroke-width="2" stroke-linecap="round" stroke-linejoin="round"/>
<path d="M39.5854 39.5061V27.7051" stroke="#E0A818" stroke-width="2" stroke-linecap="round" stroke-linejoin="round"/>
</svg>
