<svg width="32" height="25" viewBox="0 0 32 25" fill="none" xmlns="http://www.w3.org/2000/svg">
<path opacity="0.4" d="M30.9303 3.93574C30.2599 3.51341 29.4359 3.47605 28.7334 3.83341L26.3622 5.03056C25.4854 5.47239 24.9414 6.36579 24.9414 7.3599V16.6935C24.9414 17.6876 25.4854 18.5794 26.3622 19.0245L28.7318 20.22C29.0534 20.3857 29.3975 20.4653 29.7415 20.4653C30.1543 20.4653 30.5639 20.3483 30.9303 20.1193C31.6007 19.6986 32.0007 18.9692 32.0007 18.1701V5.88661C32.0007 5.08742 31.6007 4.35808 30.9303 3.93574Z" fill="#FD7B38"/>
<path d="M15.8482 24.0273H6.58086C2.70563 24.0273 0 21.3553 0 17.5299V6.52481C0 2.6978 2.70563 0.0273438 6.58086 0.0273438H15.8482C19.7234 0.0273438 22.429 2.6978 22.429 6.52481V17.5299C22.429 21.3553 19.7234 24.0273 15.8482 24.0273Z" fill="#FD7B38"/>
</svg>
