<svg width="80" height="80" viewBox="0 0 80 80" fill="none" xmlns="http://www.w3.org/2000/svg">
<rect width="80" height="80" rx="16" fill="#404447"/>
<path opacity="0.4" d="M62.3945 27.8626C61.3889 27.2291 60.1528 27.1731 59.0992 27.7091L55.5424 29.5048C54.2272 30.1676 53.4112 31.5077 53.4112 32.9989V46.9993C53.4112 48.4904 54.2272 49.8281 55.5424 50.4957L59.0968 52.289C59.5792 52.5376 60.0952 52.657 60.6113 52.657C61.2305 52.657 61.8449 52.4815 62.3945 52.138C63.4001 51.5069 64.0001 50.4129 64.0001 49.2141V30.7889C64.0001 29.5901 63.4001 28.4961 62.3945 27.8626Z" fill="#FD7B38"/>
<path d="M39.7723 58.0001H25.8713C20.0584 58.0001 16 53.9919 16 48.2539V31.7462C16 26.0057 20.0584 22 25.8713 22H39.7723C45.5851 22 49.6436 26.0057 49.6436 31.7462V48.2539C49.6436 53.9919 45.5851 58.0001 39.7723 58.0001Z" fill="#FD7B38"/>
</svg>
