<svg width="74" height="75" viewBox="0 0 74 75" fill="none" xmlns="http://www.w3.org/2000/svg">
<circle cx="37" cy="37.9512" r="37" fill="#404447"/>
<path opacity="0.4" d="M55.0847 28.511C54.3025 28.0182 53.3412 27.9747 52.5217 28.3916L49.7553 29.7883C48.7323 30.3037 48.0977 31.346 48.0977 32.5058V43.395C48.0977 44.5548 48.7323 45.5952 49.7553 46.1145L52.5198 47.5093C52.895 47.7026 53.2964 47.7954 53.6977 47.7954C54.1793 47.7954 54.6572 47.659 55.0847 47.3918C55.8668 46.901 56.3335 46.0501 56.3335 45.1177V30.787C56.3335 29.8546 55.8668 29.0037 55.0847 28.511Z" fill="#818181"/>
<path d="M37.4895 51.9512H26.6777C22.1566 51.9512 19 48.8337 19 44.3708V31.5315C19 27.0667 22.1566 23.9512 26.6777 23.9512H37.4895C42.0106 23.9512 45.1672 27.0667 45.1672 31.5315V44.3708C45.1672 48.8337 42.0106 51.9512 37.4895 51.9512Z" fill="#818181"/>
</svg>