<svg width="140" height="141" viewBox="0 0 140 141" fill="none" xmlns="http://www.w3.org/2000/svg">
<rect y="0.0490723" width="140" height="140" rx="70" fill="#FD413C"/>
<path opacity="0.4" d="M102.993 55.3764C101.736 54.5845 100.191 54.5145 98.8739 55.1845L94.4278 57.4292C92.7838 58.2576 91.7638 59.9328 91.7638 61.7967V79.2972C91.7638 81.1612 92.7838 82.8333 94.4278 83.6678L98.8709 85.9094C99.4739 86.2201 100.119 86.3693 100.764 86.3693C101.538 86.3693 102.306 86.15 102.993 85.7206C104.25 84.9317 105 83.5642 105 82.0657V59.0343C105 57.5358 104.25 56.1683 102.993 55.3764" fill="#ffffff"/>
<path d="M74.7153 93.0491H57.3391C50.0731 93.0491 45 88.0389 45 80.8663V60.2318C45 53.0562 50.0731 48.0491 57.3391 48.0491H74.7153C81.9814 48.0491 87.0544 53.0562 87.0544 60.2318V80.8663C87.0544 88.0389 81.9814 93.0491 74.7153 93.0491" fill="#ffffff"/>
</svg>
