<svg width="82" height="73" viewBox="0 0 82 73" fill="none" xmlns="http://www.w3.org/2000/svg">
<g opacity="0.4">
<path d="M78.3237 21.771C76.6477 20.7152 74.5877 20.6218 72.8317 21.5152L66.9036 24.5081C64.7116 25.6126 63.3516 27.8461 63.3516 30.3314V53.6654C63.3516 56.1507 64.7116 58.3801 66.9036 59.4928L72.8277 62.4816C73.6317 62.8959 74.4917 63.0948 75.3517 63.0948C76.3837 63.0948 77.4077 62.8024 78.3237 62.2299C79.9997 61.1781 80.9997 59.3547 80.9997 57.3568V26.6482C80.9997 24.6502 79.9997 22.8268 78.3237 21.771Z" fill="#818181"/>
<path d="M78.3237 21.771C76.6477 20.7152 74.5877 20.6218 72.8317 21.5152L66.9036 24.5081C64.7116 25.6126 63.3516 27.8461 63.3516 30.3314V53.6654C63.3516 56.1507 64.7116 58.3801 66.9036 59.4928L72.8277 62.4816C73.6317 62.8959 74.4917 63.0948 75.3517 63.0948C76.3837 63.0948 77.4077 62.8025 78.3237 62.2299C79.9997 61.1781 80.9997 59.3547 80.9997 57.3568V26.6482C80.9997 24.6502 79.9997 22.8268 78.3237 21.771" stroke="#D5D5D5"/>
</g>
<path d="M40.6204 72H17.4522C7.76406 72 1 65.3198 1 55.7563V28.2437C1 18.6761 7.76406 12 17.4522 12H40.6204C50.3085 12 57.0725 18.6761 57.0725 28.2437V55.7563C57.0725 65.3198 50.3085 72 40.6204 72Z" fill="#818181"/>
<path d="M40.6204 72H17.4522C7.76406 72 1 65.3198 1 55.7563V28.2437C1 18.6761 7.76406 12 17.4522 12H40.6204C50.3085 12 57.0725 18.6761 57.0725 28.2437V55.7563C57.0725 65.3198 50.3085 72 40.6204 72" stroke="#D5D5D5"/>
<path d="M19 54C23.7547 49.9994 35.6415 50.0006 40 54" stroke="white" stroke-width="2" stroke-linecap="round" stroke-linejoin="round"/>
<rect x="43.3643" y="31" width="2" height="9" rx="1" transform="rotate(45 43.3643 31)" fill="white"/>
<rect x="44.7783" y="37.3633" width="2" height="9" rx="1" transform="rotate(135 44.7783 37.3633)" fill="white"/>
<rect x="19.8398" y="30.4746" width="2" height="9" rx="1" transform="rotate(45 19.8398 30.4746)" fill="white"/>
<rect x="21.2539" y="36.8379" width="2" height="9" rx="1" transform="rotate(135 21.2539 36.8379)" fill="white"/>
<path d="M42 11L42.495 12.505L44 13L42.495 13.495L42 15L41.505 13.495L40 13L41.505 12.505L42 11Z" fill="#C4C4C4"/>
<path d="M74 1L74.2475 1.75251L75 2L74.2475 2.24749L74 3L73.7525 2.24749L73 2L73.7525 1.75251L74 1Z" fill="#C4C4C4"/>
<path d="M63.5 12L64.3662 14.6338L67 15.5L64.3662 16.3662L63.5 19L62.6338 16.3662L60 15.5L62.6338 14.6338L63.5 12Z" fill="#C4C4C4"/>
<circle cx="39" cy="2" r="1.5" stroke="#C4C4C4"/>
<circle cx="62.5" cy="23.5" r="1" stroke="#C4C4C4"/>
</svg>
