<svg width="18" height="12" viewBox="0 0 18 12" fill="none" xmlns="http://www.w3.org/2000/svg">
<path d="M8.57011 11.9989C7.16451 12.0164 5.77343 11.713 4.50274 11.1119C3.51777 10.6313 2.6333 9.96756 1.89657 9.15616C1.1162 8.31725 0.501752 7.33815 0.0857011 6.27061L0 5.99979L0.0899862 5.72898C0.506335 4.66237 1.11946 3.68352 1.89742 2.84342C2.63389 2.0321 3.51806 1.36839 4.50274 0.887721C5.77344 0.286603 7.16451 -0.0167594 8.57011 0.000714208C9.97571 -0.0167292 11.3668 0.286632 12.6375 0.887721C13.6225 1.36828 14.507 2.032 15.2437 2.84342C16.0255 3.6812 16.6401 4.6606 17.0545 5.72898L17.1402 5.99979L17.0502 6.27061C15.7058 9.77046 12.3188 12.0583 8.57011 11.9989ZM8.57011 1.71474C5.65273 1.62332 2.97504 3.32171 1.81429 5.99979C2.97485 8.67803 5.65267 10.3765 8.57011 10.2848C11.4874 10.376 14.165 8.67771 15.3259 5.99979C14.1667 3.32041 11.488 1.62139 8.57011 1.71474ZM8.57011 8.57083C7.33372 8.57901 6.26421 7.71155 6.01705 6.50009C5.76988 5.28863 6.4141 4.07154 7.55488 3.59473C8.69566 3.11792 10.0144 3.51458 10.7028 4.54159C11.3913 5.56861 11.2572 6.93914 10.3827 7.81323C9.90389 8.29766 9.25123 8.57045 8.57011 8.57083Z" fill="white"/>
</svg>
