<svg width="24" height="17" viewBox="0 0 24 17" fill="none" xmlns="http://www.w3.org/2000/svg">
<path d="M12 16.801C10.0318 16.8255 8.08404 16.4007 6.3048 15.559C4.92563 14.8861 3.68718 13.9567 2.6556 12.8206C1.56292 11.6459 0.702561 10.275 0.12 8.7802L0 8.401L0.126 8.0218C0.708978 6.52832 1.56748 5.15772 2.6568 3.9814C3.68801 2.84538 4.92605 1.91604 6.3048 1.243C8.08406 0.401306 10.0319 -0.0234667 12 0.00100004C13.9681 -0.0234245 15.9159 0.401346 17.6952 1.243C19.0744 1.91588 20.3129 2.84523 21.3444 3.9814C22.4392 5.15447 23.2998 6.52584 23.88 8.0218L24 8.401L23.874 8.7802C21.9915 13.6807 17.249 16.8842 12 16.801ZM12 2.401C7.91504 2.273 4.1657 4.65111 2.5404 8.401C4.16544 12.1511 7.91495 14.5293 12 14.401C16.0849 14.5287 19.834 12.1507 21.4596 8.401C19.8364 4.6493 16.0857 2.27029 12 2.401ZM12 12.001C10.2688 12.0125 8.77124 10.7978 8.42516 9.10153C8.07908 7.40523 8.98112 5.70103 10.5785 5.03339C12.1758 4.36576 14.0223 4.92116 14.9863 6.35921C15.9502 7.79725 15.7624 9.71629 14.538 10.9402C13.8676 11.6185 12.9537 12.0005 12 12.001Z" fill="white"/>
</svg>
