<svg width="24" height="24" viewBox="0 0 24 24" fill="none" xmlns="http://www.w3.org/2000/svg">
<path opacity="0.7" d="M21.3333 24H2.66667C1.19391 24 0 22.8061 0 21.3333V2.66667C0 1.19391 1.19391 0 2.66667 0H21.3333C22.8061 0 24 1.19391 24 2.66667V21.3333C24 22.8061 22.8061 24 21.3333 24ZM2.66667 2.66667V21.3333H21.3333V2.66667H2.66667ZM20 18.6667H4L8 13.3333L9.33333 14.6667L13.3333 9.33333L20 18.6667ZM7.33333 10.6667C6.22876 10.6667 5.33333 9.77124 5.33333 8.66667C5.33333 7.5621 6.22876 6.66667 7.33333 6.66667C8.4379 6.66667 9.33333 7.5621 9.33333 8.66667C9.33333 9.77124 8.4379 10.6667 7.33333 10.6667Z" fill="white"/>
</svg>
