<svg width="17" height="18" viewBox="0 0 17 18" fill="none" xmlns="http://www.w3.org/2000/svg">
<path d="M8.33342 17.3327C7.07346 17.3362 5.82943 17.0512 4.69675 16.4993C4.28221 16.2977 3.88502 16.0622 3.50925 15.7952L3.39508 15.7119C2.3616 14.949 1.51664 13.9595 0.925083 12.8193C0.313197 11.6392 -0.0041606 10.3286 4.11858e-05 8.99935C4.11858e-05 4.39698 3.73104 0.666016 8.33342 0.666016C12.9358 0.666016 16.6668 4.39698 16.6668 8.99935C16.6709 10.328 16.3539 11.638 15.7426 12.8177C15.1518 13.9572 14.3081 14.9464 13.2759 15.7093C12.8865 15.9944 12.4734 16.2453 12.0409 16.4593L11.9742 16.4927C10.8409 17.0474 9.5953 17.3348 8.33342 17.3327ZM8.33342 13.166C7.08465 13.1636 5.9398 13.861 5.36925 14.9718C7.23708 15.897 9.42975 15.897 11.2976 14.9718V14.9677C10.7263 13.8581 9.58143 13.1622 8.33342 13.166ZM8.33342 11.4993C10.1385 11.5017 11.8029 12.4744 12.6909 14.046L12.7034 14.0352L12.7151 14.0252L12.7009 14.0377L12.6926 14.0444C14.8001 12.2236 15.5537 9.28463 14.5823 6.67444C13.6109 4.06425 11.1193 2.33294 8.33425 2.33294C5.54917 2.33294 3.05758 4.06425 2.08621 6.67444C1.11484 9.28463 1.86842 12.2236 3.97592 14.0444C4.86447 12.4735 6.52872 11.5015 8.33342 11.4993ZM8.33342 10.666C6.49247 10.666 5.00008 9.17363 5.00008 7.33268C5.00008 5.49173 6.49247 3.99935 8.33342 3.99935C10.1744 3.99935 11.6667 5.49173 11.6667 7.33268C11.6667 8.21674 11.3156 9.06458 10.6904 9.68971C10.0653 10.3148 9.21747 10.666 8.33342 10.666ZM8.33342 5.66602C7.41294 5.66602 6.66675 6.41221 6.66675 7.33268C6.66675 8.25316 7.41294 8.99935 8.33342 8.99935C9.25389 8.99935 10.0001 8.25316 10.0001 7.33268C10.0001 6.41221 9.25389 5.66602 8.33342 5.66602Z" fill="white"/>
</svg>
