<svg width="24" height="18" viewBox="0 0 24 18" fill="none" xmlns="http://www.w3.org/2000/svg">
<path d="M23.1972 2.9313C22.6944 2.61455 22.0764 2.58653 21.5496 2.85455L19.7712 3.75242C19.1136 4.08379 18.7056 4.75384 18.7056 5.49942V12.4996C18.7056 13.2452 19.1136 13.914 19.7712 14.2478L21.5484 15.1445C21.7896 15.2688 22.0476 15.3285 22.3056 15.3285C22.6152 15.3285 22.9224 15.2407 23.1972 15.069C23.7 14.7534 24 14.2064 24 13.607V4.39445C24 3.79506 23.7 3.24805 23.1972 2.9313Z" fill="white"/>
<path d="M11.8861 18H4.93565C2.02922 18 0 15.9959 0 13.1269V4.8731C0 2.00284 2.02922 0 4.93565 0H11.8861C14.7925 0 16.8218 2.00284 16.8218 4.8731V13.1269C16.8218 15.9959 14.7925 18 11.8861 18Z" fill="white"/>
</svg>
