<svg width="24" height="25" viewBox="0 0 24 25" fill="none" xmlns="http://www.w3.org/2000/svg">
<path d="M11.8899 10.5586C13.2481 10.5586 14.3515 11.663 14.3515 13.0281C14.3515 14.3933 13.2481 15.4976 11.8899 15.4976C10.5316 15.4976 9.42822 14.3933 9.42822 13.0281C9.42822 11.663 10.5316 10.5586 11.8899 10.5586Z" stroke="white"/>
<path fill-rule="evenodd" clip-rule="evenodd" d="M11.8899 9.24805C9.80501 9.24805 8.1217 10.9416 8.1217 13.0223C8.1217 15.1029 9.80501 16.7965 11.8899 16.7965C13.9747 16.7965 15.658 15.1029 15.658 13.0223C15.658 10.9416 13.9747 9.24805 11.8899 9.24805Z" fill="white"/>
<path fill-rule="evenodd" clip-rule="evenodd" d="M12.8404 1.41742C12.6647 1.10659 12.3535 0.951172 12.0424 0.951172C11.7312 0.951172 11.4201 1.10659 11.2444 1.41742L8.71742 5.8887C8.37094 6.50177 8.81262 7.26174 9.5154 7.26174H14.5694C15.2722 7.26174 15.7138 6.50177 15.3674 5.8887L12.8404 1.41742Z" fill="white"/>
<path fill-rule="evenodd" clip-rule="evenodd" d="M11.2448 24.4849C11.4205 24.7958 11.7317 24.9512 12.0428 24.9512C12.354 24.9512 12.6651 24.7958 12.8408 24.4849L15.3678 20.0136C15.7143 19.4006 15.2726 18.6406 14.5698 18.6406H9.51582C8.81304 18.6406 8.37136 19.4006 8.71784 20.0136L11.2448 24.4849Z" fill="white"/>
<path fill-rule="evenodd" clip-rule="evenodd" d="M0.465011 12.376C0.155003 12.5522 0 12.8642 0 13.1761C0 13.4881 0.155003 13.8001 0.465011 13.9762L4.9244 16.51C5.53584 16.8574 6.29379 16.4145 6.29379 15.7099V10.6424C6.29379 9.93776 5.53584 9.49491 4.9244 9.84231L0.465011 12.376Z" fill="white"/>
<path fill-rule="evenodd" clip-rule="evenodd" d="M23.4695 13.9789C23.6107 13.8987 23.7281 13.7824 23.8098 13.6419C23.8915 13.5013 23.9345 13.3415 23.9345 13.1789C23.9345 13.0162 23.8915 12.8564 23.8098 12.7159C23.7281 12.5753 23.6107 12.459 23.4695 12.3788L19.0074 9.84609C18.8679 9.76681 18.71 9.72561 18.5497 9.72658C18.3893 9.72755 18.232 9.77067 18.0934 9.85162C17.9549 9.93258 17.8399 10.0486 17.76 10.188C17.6801 10.3274 17.638 10.4854 17.638 10.6462V15.7171C17.638 15.8779 17.6801 16.0358 17.76 16.1753C17.8399 16.3147 17.9549 16.4306 18.0934 16.5116C18.232 16.5926 18.3893 16.6357 18.5497 16.6367C18.71 16.6376 18.8679 16.5964 19.0074 16.5171L23.4695 13.9789Z" fill="white"/>
<path d="M22.0868 13.1813L19.0162 11.4366V14.9259L22.0868 13.1813ZM23.9342 13.1813C23.9342 13.4933 23.7792 13.8052 23.4692 13.9814L19.0098 16.5151C18.3984 16.8625 17.6404 16.4197 17.6404 15.715V10.6475C17.6404 9.94289 18.3984 9.50004 19.0098 9.84744L23.4692 12.3812C23.7792 12.5573 23.9342 12.8693 23.9342 13.1813Z" fill="white"/>
<path fill-rule="evenodd" clip-rule="evenodd" d="M19.0162 11.4366V14.9259L22.0868 13.1813L19.0162 11.4366ZM23.4692 13.9814C23.7792 13.8052 23.9342 13.4933 23.9342 13.1813C23.9342 12.8693 23.7792 12.5573 23.4692 12.3812L19.0098 9.84744C18.3984 9.50004 17.6404 9.94289 17.6404 10.6475V15.715C17.6404 16.4197 18.3984 16.8625 19.0098 16.5151L23.4692 13.9814Z" fill="white"/>
</svg>
