<svg width="19" height="24" viewBox="0 0 19 24" fill="none" xmlns="http://www.w3.org/2000/svg">
<path opacity="0.7" d="M16.625 24H2.375C1.06332 24 0 22.9255 0 21.6001V2.40094C0 1.07552 1.06332 0.00104572 2.375 0.00104572H10.6875C10.6981 -0.000348574 10.7089 -0.000348574 10.7196 0.00104572H10.7267C10.7379 0.00459524 10.7494 0.00700704 10.7611 0.00824541C10.8658 0.015029 10.9692 0.035602 11.0687 0.0694427H11.0865H11.1043H11.1186C11.1405 0.084953 11.1611 0.102207 11.1803 0.12104C11.3097 0.179146 11.4276 0.260456 11.5282 0.36103L18.6532 7.56072C18.7528 7.66246 18.8332 7.78157 18.8908 7.9123C18.9014 7.9387 18.9097 7.9639 18.9181 7.9915L18.9299 8.0251C18.9631 8.12516 18.9827 8.2293 18.9881 8.33468C18.9892 8.34664 18.992 8.35837 18.9964 8.36948V8.37668C18.9984 8.38455 18.9996 8.39258 19 8.40068V21.6001C19 22.2366 18.7498 22.847 18.3044 23.2971C17.859 23.7472 17.2549 24 16.625 24ZM5.9375 16.8003L2.375 21.6001H16.625L10.6875 13.2005L7.125 18.0003L5.9375 16.8003ZM5.34375 10.8006C4.37235 10.8019 3.58112 11.5895 3.56515 12.5709C3.54918 13.5524 4.31436 14.3658 5.2852 14.3994C6.25603 14.433 7.07449 13.6744 7.125 12.6941V13.0421V12.6005C7.125 11.6064 6.32751 10.8006 5.34375 10.8006ZM10.6875 2.40094V8.40068H16.625L10.6875 2.40094Z" fill="white"/>
</svg>
