<svg width="20" height="16" viewBox="0 0 20 16" fill="none" xmlns="http://www.w3.org/2000/svg">
<rect x="0.75" y="0.75" width="18.5" height="14.5" rx="2.25" stroke="#818181" stroke-width="1.5"/>
<path d="M4.03906 5.3125L5.5 9.4375L6.95312 5.3125H8.49219V11H7.31641V9.44531L7.43359 6.76172L5.89844 11H5.09375L3.5625 6.76562L3.67969 9.44531V11H2.50781V5.3125H4.03906ZM11.8906 11C11.8385 10.8984 11.8008 10.7721 11.7773 10.6211C11.5039 10.9258 11.1484 11.0781 10.7109 11.0781C10.2969 11.0781 9.95312 10.9583 9.67969 10.7188C9.40885 10.4792 9.27344 10.1771 9.27344 9.8125C9.27344 9.36458 9.4388 9.02083 9.76953 8.78125C10.1029 8.54167 10.5833 8.42057 11.2109 8.41797H11.7305V8.17578C11.7305 7.98047 11.6797 7.82422 11.5781 7.70703C11.4792 7.58984 11.3216 7.53125 11.1055 7.53125C10.9154 7.53125 10.7656 7.57682 10.6562 7.66797C10.5495 7.75911 10.4961 7.88411 10.4961 8.04297H9.36719C9.36719 7.79818 9.44271 7.57161 9.59375 7.36328C9.74479 7.15495 9.95833 6.99219 10.2344 6.875C10.5104 6.75521 10.8203 6.69531 11.1641 6.69531C11.6849 6.69531 12.0977 6.82682 12.4023 7.08984C12.7096 7.35026 12.8633 7.71745 12.8633 8.19141V10.0234C12.8659 10.4245 12.9219 10.7279 13.0312 10.9336V11H11.8906ZM10.957 10.2148C11.1237 10.2148 11.2773 10.1784 11.418 10.1055C11.5586 10.0299 11.6628 9.92969 11.7305 9.80469V9.07812H11.3086C10.7435 9.07812 10.4427 9.27344 10.4062 9.66406L10.4023 9.73047C10.4023 9.87109 10.4518 9.98698 10.5508 10.0781C10.6497 10.1693 10.7852 10.2148 10.957 10.2148ZM15.4883 10.168C15.6966 10.168 15.8659 10.1107 15.9961 9.99609C16.1263 9.88151 16.194 9.72917 16.1992 9.53906H17.2578C17.2552 9.82552 17.1771 10.0885 17.0234 10.3281C16.8698 10.5651 16.6589 10.75 16.3906 10.8828C16.125 11.013 15.8307 11.0781 15.5078 11.0781C14.9036 11.0781 14.4271 10.8867 14.0781 10.5039C13.7292 10.1185 13.5547 9.58724 13.5547 8.91016V8.83594C13.5547 8.1849 13.7279 7.66536 14.0742 7.27734C14.4206 6.88932 14.8958 6.69531 15.5 6.69531C16.0286 6.69531 16.4518 6.84635 16.7695 7.14844C17.0898 7.44792 17.2526 7.84766 17.2578 8.34766H16.1992C16.194 8.12891 16.1263 7.95182 15.9961 7.81641C15.8659 7.67839 15.694 7.60938 15.4805 7.60938C15.2174 7.60938 15.0182 7.70573 14.8828 7.89844C14.75 8.08854 14.6836 8.39844 14.6836 8.82812V8.94531C14.6836 9.38021 14.75 9.69271 14.8828 9.88281C15.0156 10.0729 15.2174 10.168 15.4883 10.168Z" fill="#818181"/>
</svg>
