<svg width="16" height="17" viewBox="0 0 16 17" fill="none" xmlns="http://www.w3.org/2000/svg">
<path d="M0 7.61111V0.5H7.11111V7.61111H0ZM2.66667 3.16667V4.94444H4.44444V3.16667H2.66667Z" fill="white"/>
<path d="M8.88889 7.61111V0.5H16V7.61111H8.88889ZM11.5556 3.16667V4.94444H13.3333V3.16667H11.5556Z" fill="white"/>
<path d="M0 9.38889V16.5H7.11111V9.38889H0ZM4.44444 12.0556V13.8333H2.66667V12.0556H4.44444Z" fill="white"/>
<path d="M11.5556 9.38889H8.88889V11.1667H11.5556V14.7222H10.6667V12.9444H8.88889V16.5H12.4444V14.7222H14.2222V16.5H16V13.8333H14.2222V12.9444H13.3333V12.0556H16V9.38889H13.3333V11.1667H11.5556V9.38889Z" fill="white"/>
</svg>
