<svg width="80" height="80" viewBox="0 0 80 80" fill="none" xmlns="http://www.w3.org/2000/svg">
<rect width="80" height="80" rx="16" fill="#404447"/>
<path d="M59.2034 43H20.8004C18.1492 43 16 45.1492 16 47.8004V57.4011C16 60.0523 18.1492 62.2015 20.8004 62.2015H59.2034C61.8546 62.2015 64.0038 60.0523 64.0038 57.4011V47.8004C64.0038 45.1492 61.8546 43 59.2034 43Z" fill="#4BA541"/>
<path d="M59.2034 18H20.8004C18.1492 18 16 20.1492 16 22.8004V32.4011C16 35.0523 18.1492 37.2015 20.8004 37.2015H59.2034C61.8546 37.2015 64.0038 35.0523 64.0038 32.4011V22.8004C64.0038 20.1492 61.8546 18 59.2034 18Z" fill="#4BA541"/>
<circle cx="26.4006" cy="28" r="2" fill="#3A6539"/>
<circle cx="26.4006" cy="53" r="2" fill="#3A6539"/>
<rect x="33" y="26" width="21" height="4" rx="1" fill="#3A6539"/>
<rect x="33" y="51" width="21" height="4" rx="1" fill="#3A6539"/>
</svg>
