<svg width="27" height="24" viewBox="0 0 27 24" fill="none" xmlns="http://www.w3.org/2000/svg">
<path d="M23.4581 13.5742H2.60645C1.16695 13.5742 0 14.7412 0 16.1807V21.3936C0 22.8331 1.16695 24 2.60645 24H23.4581C24.8976 24 26.0645 22.8331 26.0645 21.3936V16.1807C26.0645 14.7412 24.8976 13.5742 23.4581 13.5742Z" fill="#4BA541"/>
<path d="M23.4581 0H2.60645C1.16695 0 0 1.16695 0 2.60645V7.81935C0 9.25886 1.16695 10.4258 2.60645 10.4258H23.4581C24.8976 10.4258 26.0645 9.25886 26.0645 7.81935V2.60645C26.0645 1.16695 24.8976 0 23.4581 0Z" fill="#4BA541"/>
<circle cx="5.64648" cy="5.42969" r="1.08594" fill="#3A6539"/>
<circle cx="5.64648" cy="19.0039" r="1.08594" fill="#3A6539"/>
<rect x="9.23047" y="4.34375" width="11.4023" height="2.17187" rx="1" fill="#3A6539"/>
<rect x="9.23047" y="17.918" width="11.4023" height="2.17187" rx="1" fill="#3A6539"/>
</svg>
