<svg width="20" height="16" viewBox="0 0 20 16" fill="none" xmlns="http://www.w3.org/2000/svg">
<rect x="0.75" y="0.75" width="18.5" height="14.5" rx="2.25" stroke="#818181" stroke-width="1.5"/>
<path d="M6.45703 9.50781C6.45703 9.28646 6.37891 9.11719 6.22266 9C6.06641 8.88021 5.78516 8.75521 5.37891 8.625C4.97266 8.49219 4.65104 8.36198 4.41406 8.23438C3.76823 7.88542 3.44531 7.41536 3.44531 6.82422C3.44531 6.51693 3.53125 6.24349 3.70312 6.00391C3.8776 5.76172 4.1263 5.57292 4.44922 5.4375C4.77474 5.30208 5.13932 5.23438 5.54297 5.23438C5.94922 5.23438 6.3112 5.30859 6.62891 5.45703C6.94661 5.60286 7.19271 5.8099 7.36719 6.07812C7.54427 6.34635 7.63281 6.65104 7.63281 6.99219H6.46094C6.46094 6.73177 6.37891 6.52995 6.21484 6.38672C6.05078 6.24089 5.82031 6.16797 5.52344 6.16797C5.23698 6.16797 5.01432 6.22917 4.85547 6.35156C4.69661 6.47135 4.61719 6.63021 4.61719 6.82812C4.61719 7.01302 4.70964 7.16797 4.89453 7.29297C5.08203 7.41797 5.35677 7.53516 5.71875 7.64453C6.38542 7.84505 6.87109 8.09375 7.17578 8.39062C7.48047 8.6875 7.63281 9.05729 7.63281 9.5C7.63281 9.99219 7.44661 10.3789 7.07422 10.6602C6.70182 10.9388 6.20052 11.0781 5.57031 11.0781C5.13281 11.0781 4.73438 10.9987 4.375 10.8398C4.01562 10.6784 3.74089 10.4583 3.55078 10.1797C3.36328 9.90104 3.26953 9.57812 3.26953 9.21094H4.44531C4.44531 9.83854 4.82031 10.1523 5.57031 10.1523C5.84896 10.1523 6.06641 10.0964 6.22266 9.98438C6.37891 9.86979 6.45703 9.71094 6.45703 9.50781ZM10.3008 11.0781C9.68099 11.0781 9.17578 10.888 8.78516 10.5078C8.39714 10.1276 8.20312 9.62109 8.20312 8.98828V8.87891C8.20312 8.45443 8.28516 8.07552 8.44922 7.74219C8.61328 7.40625 8.84505 7.14844 9.14453 6.96875C9.44661 6.78646 9.79036 6.69531 10.1758 6.69531C10.7539 6.69531 11.2083 6.8776 11.5391 7.24219C11.8724 7.60677 12.0391 8.1237 12.0391 8.79297V9.25391H9.34766C9.38411 9.52995 9.49349 9.7513 9.67578 9.91797C9.86068 10.0846 10.0938 10.168 10.375 10.168C10.8099 10.168 11.1497 10.0104 11.3945 9.69531L11.9492 10.3164C11.7799 10.556 11.5508 10.7435 11.2617 10.8789C10.9727 11.0117 10.6523 11.0781 10.3008 11.0781ZM10.1719 7.60938C9.94792 7.60938 9.76562 7.6849 9.625 7.83594C9.48698 7.98698 9.39844 8.20312 9.35938 8.48438H10.9297V8.39453C10.9245 8.14453 10.8568 7.95182 10.7266 7.81641C10.5964 7.67839 10.4115 7.60938 10.1719 7.60938ZM15.0586 7.83203C14.9049 7.8112 14.7695 7.80078 14.6523 7.80078C14.2253 7.80078 13.9453 7.94531 13.8125 8.23438V11H12.6836V6.77344H13.75L13.7812 7.27734C14.0078 6.88932 14.3216 6.69531 14.7227 6.69531C14.8477 6.69531 14.9648 6.71224 15.0742 6.74609L15.0586 7.83203ZM16.7969 11H15.6641V6.77344H16.7969V11ZM15.5977 5.67969C15.5977 5.51042 15.6536 5.37109 15.7656 5.26172C15.8802 5.15234 16.0352 5.09766 16.2305 5.09766C16.4232 5.09766 16.5768 5.15234 16.6914 5.26172C16.806 5.37109 16.8633 5.51042 16.8633 5.67969C16.8633 5.85156 16.8047 5.99219 16.6875 6.10156C16.5729 6.21094 16.4206 6.26562 16.2305 6.26562C16.0404 6.26562 15.8867 6.21094 15.7695 6.10156C15.6549 5.99219 15.5977 5.85156 15.5977 5.67969Z" fill="#818181"/>
</svg>
