<svg width="16" height="16" viewBox="0 0 16 16" fill="none" xmlns="http://www.w3.org/2000/svg">
<path d="M9.21804 16H6.30605C5.93014 16 5.60489 15.7384 5.52444 15.3712L5.19884 13.864C4.76449 13.6737 4.35262 13.4357 3.97084 13.1544L2.50124 13.6224C2.14284 13.7367 1.75323 13.5858 1.56524 13.26L0.106044 10.7392C-0.0798856 10.4132 -0.015829 10.002 0.260444 9.748L1.40044 8.708C1.3486 8.23689 1.3486 7.76151 1.40044 7.2904L0.260444 6.2528C-0.016236 5.99869 -0.0803179 5.58698 0.106044 5.2608L1.56204 2.7384C1.75003 2.41256 2.13964 2.26171 2.49804 2.376L3.96764 2.844C4.16289 2.69932 4.36615 2.56578 4.57644 2.444C4.77832 2.33016 4.98607 2.22708 5.19884 2.1352L5.52524 0.6296C5.6053 0.262375 5.9302 0.000395514 6.30605 0H9.21804C9.59389 0.000395514 9.91879 0.262375 9.99885 0.6296L10.3284 2.136C10.5531 2.23481 10.7718 2.34646 10.9836 2.4704C11.1812 2.58465 11.3722 2.70991 11.5556 2.8456L13.026 2.3776C13.3842 2.26374 13.7733 2.41453 13.9612 2.74L15.4172 5.2624C15.6032 5.58839 15.5391 5.99961 15.2628 6.2536L14.1228 7.2936C14.1747 7.76471 14.1747 8.24009 14.1228 8.7112L15.2628 9.7512C15.5391 10.0052 15.6032 10.4164 15.4172 10.7424L13.9612 13.2648C13.7733 13.5903 13.3842 13.7411 13.026 13.6272L11.5556 13.1592C11.3696 13.2962 11.1762 13.4231 10.9764 13.5392C10.7667 13.6607 10.5504 13.7705 10.3284 13.868L9.99885 15.3712C9.91846 15.7381 9.59365 15.9997 9.21804 16ZM4.25804 11.3832L4.91404 11.8632C5.06192 11.9721 5.21606 12.0723 5.37564 12.1632C5.52581 12.2502 5.68042 12.3292 5.83884 12.4L6.58524 12.7272L6.95084 14.4H8.57484L8.94044 12.7264L9.68684 12.3992C10.0127 12.2555 10.322 12.0769 10.6092 11.8664L11.266 11.3864L12.8988 11.9064L13.7108 10.5L12.4444 9.3456L12.534 8.536C12.5734 8.18189 12.5734 7.82451 12.534 7.4704L12.4444 6.6608L13.7116 5.504L12.8988 4.0968L11.266 4.6168L10.6092 4.1368C10.3219 3.92537 10.0126 3.7454 9.68684 3.6L8.94044 3.2728L8.57484 1.6H6.95084L6.58364 3.2736L5.83884 3.6C5.68029 3.66964 5.52566 3.74789 5.37564 3.8344C5.21703 3.92506 5.06372 4.02469 4.91644 4.1328L4.25964 4.6128L2.62764 4.0928L1.81404 5.504L3.08044 6.6568L2.99084 7.4672C2.95149 7.82131 2.95149 8.17869 2.99084 8.5328L3.08044 9.3424L1.81404 10.4968L2.62604 11.9032L4.25804 11.3832ZM7.75884 11.2C5.99153 11.2 4.55884 9.76731 4.55884 8C4.55884 6.23269 5.99153 4.8 7.75884 4.8C9.52616 4.8 10.9588 6.23269 10.9588 8C10.9566 9.7664 9.52524 11.1978 7.75884 11.2ZM7.75884 6.4C6.88476 6.40089 6.17315 7.10308 6.16063 7.97707C6.1481 8.85107 6.8393 9.57336 7.713 9.5993C8.58669 9.62523 9.31951 8.9452 9.35884 8.072V8.392V8C9.35884 7.11634 8.6425 6.4 7.75884 6.4Z" fill="#FD7B38"/>
</svg>
