<svg width="17" height="17" viewBox="0 0 17 17" fill="none" xmlns="http://www.w3.org/2000/svg">
<path d="M11.2469 16.0195H1.64521C0.761394 16.0195 0.0449219 15.303 0.0449219 14.4192V4.81746H1.64521V14.4192H11.2469V16.0195ZM14.4475 12.8189H4.84578C3.96196 12.8189 3.24549 12.1024 3.24549 11.2186V1.61689C3.24549 0.733074 3.96196 0.0166016 4.84578 0.0166016H14.4475C15.3313 0.0166016 16.0478 0.733074 16.0478 1.61689V11.2186C16.0478 12.1024 15.3313 12.8189 14.4475 12.8189ZM4.84578 1.61689V11.2186H14.4475V1.61689H4.84578ZM10.4468 9.61831H8.84649V7.21789H6.44606V5.6176H8.84649V3.21717H10.4468V5.6176H12.8472V7.21789H10.4468V9.61831Z" fill="#818181"/>
</svg>
