<svg width="25" height="17" viewBox="0 0 25 17" fill="none" xmlns="http://www.w3.org/2000/svg">
<path d="M19.4137 16.1173H6.41373C3.2881 16.1192 0.684627 13.7212 0.430097 10.6059C0.175567 7.49065 2.35526 4.70184 5.43973 4.1963C6.85945 1.67919 9.52385 0.120813 12.4137 0.117244C14.2157 0.110433 15.9662 0.718602 17.3757 1.8413C18.7598 2.93916 19.7438 4.46228 20.1757 6.1753C22.7596 6.57233 24.6015 8.89282 24.4018 11.4994C24.202 14.106 22.028 16.1187 19.4137 16.1173ZM12.4137 2.11729C10.2454 2.11986 8.24641 3.2894 7.18173 5.1783L6.71373 6.0173L5.76473 6.1723C3.71502 6.5157 2.26974 8.3716 2.43895 10.443C2.60815 12.5144 4.33546 14.1111 6.41373 14.1173H19.4137C20.9823 14.1189 22.2873 12.9119 22.4079 11.348C22.5286 9.78404 21.424 8.3912 19.8737 8.1523L18.5577 7.9523L18.2357 6.6603C17.571 3.98711 15.1683 2.11226 12.4137 2.11729ZM13.8637 12.1173H10.9637V9.1173H8.41373L12.4137 5.1173L16.4137 9.1173H13.8637V12.1173Z" fill="#FD7B38"/>
</svg>
