<svg width="41" height="41" viewBox="0 0 41 41" fill="none" xmlns="http://www.w3.org/2000/svg">
<path d="M35.6439 40.3262H4.53282C2.07822 40.3262 0.0883789 38.3363 0.0883789 35.8817V4.77062C0.0883789 2.31602 2.07822 0.326172 4.53282 0.326172H35.6439C38.0985 0.326172 40.0884 2.31602 40.0884 4.77062V35.8817C40.0884 38.3363 38.0985 40.3262 35.6439 40.3262ZM4.53282 4.77062V35.8817H35.6439V4.77062H4.53282ZM33.4217 31.4373H6.75505L13.4217 22.5484L15.6439 24.7706L22.3106 15.8817L33.4217 31.4373ZM12.3106 18.104C10.4697 18.104 8.97727 16.6116 8.97727 14.7706C8.97727 12.9297 10.4697 11.4373 12.3106 11.4373C14.1516 11.4373 15.6439 12.9297 15.6439 14.7706C15.6439 16.6116 14.1516 18.104 12.3106 18.104Z" fill="#FD7B38"/>
</svg>
