<svg width="13" height="16" viewBox="0 0 13 16" fill="none" xmlns="http://www.w3.org/2000/svg">
<path d="M6.4 16C5.51634 16 4.8 15.2837 4.8 14.4H8C8 15.2837 7.28366 16 6.4 16ZM12.8 13.6H0V12L1.6 11.2V6.8C1.6 4.0304 2.7368 2.2344 4.8 1.744V0H8V1.744C10.0632 2.2336 11.2 4.0288 11.2 6.8V11.2L12.8 12V13.6ZM6.4 3C5.42374 2.93696 4.48223 3.37382 3.9 4.16C3.40204 4.94765 3.15771 5.86911 3.2 6.8V12H9.6V6.8C9.64224 5.86911 9.39792 4.94767 8.9 4.16C8.31777 3.37382 7.37626 2.93696 6.4 3Z" fill="white"/>
</svg>
