<svg width="12" height="15" viewBox="0 0 12 15" fill="none" xmlns="http://www.w3.org/2000/svg">
<path d="M5.7062 14.0557C4.933 14.0557 4.3062 13.4289 4.3062 12.6557H7.1062C7.1062 13.4289 6.4794 14.0557 5.7062 14.0557ZM11.3062 11.9557H0.106201V10.5557L1.5062 9.85566V6.00566C1.5062 3.58226 2.5009 2.01076 4.3062 1.58166V0.0556641H7.1062V1.58166C8.9115 2.01006 9.9062 3.58086 9.9062 6.00566V9.85566L11.3062 10.5557V11.9557ZM5.7062 2.68066C4.85197 2.62551 4.02815 3.00776 3.5187 3.69566C3.08298 4.38485 2.8692 5.19113 2.9062 6.00566V10.5557H8.5062V6.00566C8.54316 5.19114 8.32938 4.38487 7.8937 3.69566C7.38425 3.00776 6.56043 2.62551 5.7062 2.68066Z" fill="#FD7B38"/>
</svg>
