<svg width="43" height="34" viewBox="0 0 43 34" fill="none" xmlns="http://www.w3.org/2000/svg">
<mask id="path-1-inside-1" fill="white">
<path d="M41.4456 6.44949C40.5915 5.9114 39.5416 5.8638 38.6467 6.31911L35.6255 7.84439C34.5084 8.40732 33.8153 9.54559 33.8153 10.8122V22.704C33.8153 23.9706 34.5084 25.1068 35.6255 25.6738L38.6447 27.1971C39.0544 27.4082 39.4927 27.5096 39.931 27.5096C40.4569 27.5096 40.9788 27.3605 41.4456 27.0687C42.2998 26.5327 42.8094 25.6035 42.8094 24.5852V8.93506C42.8094 7.91683 42.2998 6.98759 41.4456 6.44949Z"/>
</mask>
<path d="M38.6467 6.31911L39.9988 8.99717L40.0071 8.99295L38.6467 6.31911ZM35.6255 7.84439L36.9755 10.5235L36.9776 10.5224L35.6255 7.84439ZM35.6255 25.6738L34.2676 28.3489L34.2742 28.3523L35.6255 25.6738ZM38.6447 27.1971L40.0186 24.5302L40.0073 24.5244L39.996 24.5186L38.6447 27.1971ZM41.4456 27.0687L43.0358 29.6126L43.0403 29.6098L41.4456 27.0687ZM43.0447 3.91118C41.2985 2.81112 39.1246 2.71001 37.2863 3.64527L40.0071 8.99295C39.9907 9.00127 39.9603 9.01031 39.9229 9.00857C39.8853 9.00684 39.8582 8.99512 39.8466 8.9878L43.0447 3.91118ZM37.2946 3.64106L34.2735 5.16635L36.9776 10.5224L39.9988 8.99716L37.2946 3.64106ZM34.2755 5.16531C32.1278 6.24757 30.8153 8.43392 30.8153 10.8122H36.8153C36.8153 10.7296 36.837 10.6688 36.863 10.6261C36.8887 10.5839 36.9247 10.5491 36.9755 10.5235L34.2755 5.16531ZM30.8153 10.8122V22.704H36.8153V10.8122H30.8153ZM30.8153 22.704C30.8153 25.086 32.1304 27.2641 34.2676 28.3489L36.9834 22.9988C36.9272 22.9702 36.8891 22.9324 36.863 22.8896C36.8367 22.8465 36.8153 22.7861 36.8153 22.704H30.8153ZM34.2742 28.3523L37.2933 29.8755L39.996 24.5186L36.9769 22.9954L34.2742 28.3523ZM37.2707 29.8639C38.1138 30.2983 39.0243 30.5096 39.931 30.5096V24.5096C39.9438 24.5096 39.9598 24.5111 39.9772 24.5153C39.995 24.5196 40.0093 24.5254 40.0186 24.5302L37.2707 29.8639ZM39.931 30.5096C41.03 30.5096 42.1013 30.1968 43.0358 29.6126L39.8555 24.5248C39.8541 24.5257 39.8609 24.5214 39.8759 24.517C39.8909 24.5127 39.9099 24.5096 39.931 24.5096V30.5096ZM43.0403 29.6098C44.7811 28.5174 45.8094 26.6215 45.8094 24.5852H39.8094C39.8094 24.591 39.8087 24.5811 39.818 24.5642C39.8223 24.5564 39.8278 24.5487 39.8344 24.5418C39.8411 24.5346 39.8472 24.53 39.851 24.5277L43.0403 29.6098ZM45.8094 24.5852V8.93506H39.8094V24.5852H45.8094ZM45.8094 8.93506C45.8094 6.89786 44.7806 5.00474 43.0447 3.91118L39.8466 8.9878C39.844 8.98616 39.8387 8.98231 39.8327 8.9759C39.8268 8.96963 39.8217 8.96252 39.8177 8.95519C39.8088 8.93901 39.8094 8.92948 39.8094 8.93506H45.8094Z" fill="#818181" mask="url(#path-1-inside-1)"/>
<mask id="path-3-inside-2" fill="white">
<path d="M22.2305 32.0488H10.4232C5.48578 32.0488 2.03857 28.6443 2.03857 23.7705V9.74903C2.03857 4.8731 5.48578 1.4707 10.4232 1.4707H22.2305C27.1679 1.4707 30.6151 4.8731 30.6151 9.74903V23.7705C30.6151 28.6443 27.1679 32.0488 22.2305 32.0488Z"/>
</mask>
<path d="M22.2305 29.0488H10.4232V35.0488H22.2305V29.0488ZM10.4232 29.0488C8.65969 29.0488 7.34771 28.4523 6.48719 27.6026C5.6294 26.7556 5.03857 25.4788 5.03857 23.7705H-0.961426C-0.961426 26.936 0.171352 29.7983 2.27151 31.872C4.36894 33.943 7.24926 35.0488 10.4232 35.0488V29.0488ZM5.03857 23.7705V9.74903H-0.961426V23.7705H5.03857ZM5.03857 9.74903C5.03857 8.03943 5.62956 6.76279 6.487 5.9163C7.34726 5.06702 8.65917 4.4707 10.4232 4.4707V-1.5293C7.24977 -1.5293 4.36939 -0.424417 2.2717 1.64649C0.171191 3.72018 -0.961426 6.5827 -0.961426 9.74903H5.03857ZM10.4232 4.4707H22.2305V-1.5293H10.4232V4.4707ZM22.2305 4.4707C23.9945 4.4707 25.3064 5.06702 26.1667 5.9163C27.0241 6.76279 27.6151 8.03943 27.6151 9.74903H33.6151C33.6151 6.5827 32.4825 3.72018 30.382 1.64649C28.2843 -0.424417 25.4039 -1.5293 22.2305 -1.5293V4.4707ZM27.6151 9.74903V23.7705H33.6151V9.74903H27.6151ZM27.6151 23.7705C27.6151 25.4788 27.0243 26.7556 26.1665 27.6026C25.306 28.4523 23.994 29.0488 22.2305 29.0488V35.0488C25.4044 35.0488 28.2847 33.943 30.3822 31.872C32.4823 29.7983 33.6151 26.936 33.6151 23.7705H27.6151Z" fill="#818181" mask="url(#path-3-inside-2)"/>
<line x1="32.041" y1="1.10949" x2="1.06064" y2="32.0899" stroke="#818181" stroke-width="3"/>
</svg>
