<svg width="19" height="14" viewBox="0 0 19 14" fill="none" xmlns="http://www.w3.org/2000/svg">
<mask id="path-1-inside-1" fill="white">
<path d="M18.0423 2.2799C17.6512 2.03354 17.1705 2.01174 16.7608 2.2202L15.3776 2.91855C14.8661 3.17628 14.5488 3.69743 14.5488 4.27733V9.72193C14.5488 10.3018 14.8661 10.822 15.3776 11.0817L16.7599 11.7791C16.9475 11.8757 17.1481 11.9221 17.3488 11.9221C17.5896 11.9221 17.8285 11.8539 18.0423 11.7203C18.4333 11.4749 18.6667 11.0494 18.6667 10.5833V3.4179C18.6667 2.95171 18.4333 2.52626 18.0423 2.2799Z"/>
</mask>
<path d="M16.7608 2.2202L17.4368 3.55923L17.441 3.55712L16.7608 2.2202ZM15.3776 2.91855L16.0526 4.25809L16.0536 4.25757L15.3776 2.91855ZM15.3776 11.0817L14.6986 12.4192L14.7019 12.4209L15.3776 11.0817ZM16.7599 11.7791L17.4469 10.4456L17.4355 10.4398L16.7599 11.7791ZM18.0423 11.7203L18.8374 12.9923L18.8396 12.9908L18.0423 11.7203ZM18.8418 1.01074C18.0047 0.483395 16.962 0.434848 16.0806 0.883283L17.441 3.55712C17.4139 3.57088 17.3782 3.5797 17.3392 3.57789C17.3002 3.57609 17.2666 3.56406 17.2427 3.54905L18.8418 1.01074ZM16.0848 0.881181L14.7015 1.57952L16.0536 4.25757L17.4368 3.55923L16.0848 0.881181ZM14.7026 1.579C13.6758 2.0964 13.0488 3.1416 13.0488 4.27733H16.0488C16.0488 4.26946 16.0498 4.26458 16.0505 4.26207C16.0512 4.25942 16.052 4.25819 16.0521 4.25796C16.0522 4.25774 16.0521 4.25808 16.0515 4.25858C16.0508 4.25921 16.0508 4.25896 16.0526 4.25809L14.7026 1.579ZM13.0488 4.27733V9.72193H16.0488V4.27733H13.0488ZM13.0488 9.72193C13.0488 10.8596 13.6771 11.9007 14.6986 12.4192L16.0565 9.74411C16.0549 9.74327 16.0539 9.74263 16.0534 9.74228C16.0529 9.74192 16.0526 9.7417 16.0525 9.74163C16.0525 9.74156 16.0524 9.74146 16.0521 9.74106C16.0519 9.74066 16.0512 9.73942 16.0505 9.73691C16.0498 9.73453 16.0488 9.72977 16.0488 9.72193H13.0488ZM14.7019 12.4209L16.0842 13.1183L17.4355 10.4398L16.0532 9.74245L14.7019 12.4209ZM16.0729 13.1125C16.4771 13.3208 16.9139 13.4221 17.3488 13.4221V10.4221C17.3823 10.4221 17.4178 10.4306 17.4468 10.4456L16.0729 13.1125ZM17.3488 13.4221C17.8761 13.4221 18.3898 13.272 18.8374 12.9923L17.2472 10.4484C17.2673 10.4358 17.3031 10.4221 17.3488 10.4221V13.4221ZM18.8396 12.9908C19.674 12.4672 20.1667 11.5584 20.1667 10.5833H17.1667C17.1667 10.5646 17.1717 10.5392 17.1862 10.5127C17.2008 10.4861 17.222 10.4641 17.2449 10.4498L18.8396 12.9908ZM20.1667 10.5833V3.4179H17.1667V10.5833H20.1667ZM20.1667 3.4179C20.1667 2.44222 19.6737 1.53484 18.8418 1.01074L17.2427 3.54905C17.221 3.53537 17.2004 3.51415 17.186 3.48795C17.1717 3.46186 17.1667 3.43657 17.1667 3.4179H20.1667Z" fill="#4AA541" mask="url(#path-1-inside-1)"/>
<mask id="path-3-inside-2" fill="white">
<path d="M9.24476 14H3.83884C1.57828 14 0 12.4413 0 10.2098V3.79019C0 1.55777 1.57828 0 3.83884 0H9.24476C11.5053 0 13.0836 1.55777 13.0836 3.79019V10.2098C13.0836 12.4413 11.5053 14 9.24476 14Z"/>
</mask>
<path d="M9.24476 12.5H3.83884V15.5H9.24476V12.5ZM3.83884 12.5C3.06117 12.5 2.49354 12.2376 2.12563 11.8743C1.75908 11.5124 1.5 10.9612 1.5 10.2098H-1.5C-1.5 11.6899 -0.969941 13.0338 0.0177925 14.0091C1.00416 14.983 2.35595 15.5 3.83884 15.5V12.5ZM1.5 10.2098V3.79019H-1.5V10.2098H1.5ZM1.5 3.79019C1.5 3.03816 1.75916 2.48708 2.12553 2.12539C2.49332 1.7623 3.06091 1.5 3.83884 1.5V-1.5C2.35621 -1.5 1.00438 -0.983417 0.0178872 -0.00951746C-0.970022 0.965777 -1.5 2.30979 -1.5 3.79019H1.5ZM3.83884 1.5H9.24476V-1.5H3.83884V1.5ZM9.24476 1.5C10.0227 1.5 10.5903 1.7623 10.9581 2.12539C11.3244 2.48708 11.5836 3.03816 11.5836 3.79019H14.5836C14.5836 2.30979 14.0536 0.965777 13.0657 -0.00951746C12.0792 -0.983417 10.7274 -1.5 9.24476 -1.5V1.5ZM11.5836 3.79019V10.2098H14.5836V3.79019H11.5836ZM11.5836 10.2098C11.5836 10.9612 11.3245 11.5124 10.958 11.8743C10.5901 12.2376 10.0224 12.5 9.24476 12.5V15.5C10.7276 15.5 12.0794 14.983 13.0658 14.0091C14.0535 13.0338 14.5836 11.6899 14.5836 10.2098H11.5836Z" fill="#4AA541" mask="url(#path-3-inside-2)"/>
</svg>
