<svg width="41" height="32" viewBox="0 0 41 32" fill="none" xmlns="http://www.w3.org/2000/svg">
<mask id="path-1-inside-1" fill="#FD7B38">
<path d="M39.4456 5.44949C38.5915 4.9114 37.5416 4.8638 36.6467 5.31911L33.6255 6.84439C32.5084 7.40732 31.8153 8.54559 31.8153 9.81217V21.704C31.8153 22.9706 32.5084 24.1068 33.6255 24.6738L36.6447 26.1971C37.0544 26.4082 37.4927 26.5096 37.931 26.5096C38.4569 26.5096 38.9788 26.3605 39.4456 26.0687C40.2998 25.5327 40.8094 24.6035 40.8094 23.5852V7.93506C40.8094 6.91683 40.2998 5.98759 39.4456 5.44949Z"/>
</mask>
<path d="M36.6467 5.31911L37.9988 7.99717L38.0071 7.99295L36.6467 5.31911ZM33.6255 6.84439L34.9755 9.52348L34.9776 9.52244L33.6255 6.84439ZM33.6255 24.6738L32.2676 27.3489L32.2742 27.3523L33.6255 24.6738ZM36.6447 26.1971L38.0186 23.5302L38.0073 23.5244L37.996 23.5186L36.6447 26.1971ZM39.4456 26.0687L41.0358 28.6126L41.0403 28.6098L39.4456 26.0687ZM41.0447 2.91118C39.2985 1.81112 37.1246 1.71001 35.2863 2.64527L38.0071 7.99295C37.9907 8.00127 37.9603 8.01031 37.9229 8.00857C37.8853 8.00684 37.8582 7.99512 37.8466 7.9878L41.0447 2.91118ZM35.2946 2.64106L32.2735 4.16635L34.9776 9.52244L37.9988 7.99716L35.2946 2.64106ZM32.2755 4.16531C30.1278 5.24757 28.8153 7.43392 28.8153 9.81217H34.8153C34.8153 9.72963 34.837 9.66875 34.863 9.62608C34.8887 9.58389 34.9247 9.5491 34.9755 9.52348L32.2755 4.16531ZM28.8153 9.81217V21.704H34.8153V9.81217H28.8153ZM28.8153 21.704C28.8153 24.086 30.1304 26.2641 32.2676 27.3489L34.9834 21.9988C34.9272 21.9702 34.8891 21.9324 34.863 21.8896C34.8367 21.8465 34.8153 21.7861 34.8153 21.704H28.8153ZM32.2742 27.3523L35.2933 28.8755L37.996 23.5186L34.9769 21.9954L32.2742 27.3523ZM35.2707 28.8639C36.1138 29.2983 37.0243 29.5096 37.931 29.5096V23.5096C37.9438 23.5096 37.9598 23.5111 37.9772 23.5153C37.995 23.5196 38.0093 23.5254 38.0186 23.5302L35.2707 28.8639ZM37.931 29.5096C39.03 29.5096 40.1013 29.1968 41.0358 28.6126L37.8555 23.5248C37.8541 23.5257 37.8609 23.5214 37.8759 23.517C37.8909 23.5127 37.9099 23.5096 37.931 23.5096V29.5096ZM41.0403 28.6098C42.7811 27.5174 43.8094 25.6215 43.8094 23.5852H37.8094C37.8094 23.591 37.8087 23.5811 37.818 23.5642C37.8223 23.5564 37.8278 23.5487 37.8344 23.5418C37.8411 23.5346 37.8472 23.53 37.851 23.5277L41.0403 28.6098ZM43.8094 23.5852V7.93506H37.8094V23.5852H43.8094ZM43.8094 7.93506C43.8094 5.89786 42.7806 4.00474 41.0447 2.91118L37.8466 7.9878C37.844 7.98616 37.8387 7.98231 37.8327 7.9759C37.8268 7.96963 37.8217 7.96252 37.8177 7.95519C37.8088 7.93901 37.8094 7.92948 37.8094 7.93506H43.8094Z" fill="#FD7B38" mask="url(#path-1-inside-1)"/>
<mask id="path-3-inside-2" fill="#FD7B38">
<path d="M20.2305 31.0488H8.42317C3.48578 31.0488 0.0385742 27.6443 0.0385742 22.7705V8.74903C0.0385742 3.8731 3.48578 0.470703 8.42317 0.470703H20.2305C25.1679 0.470703 28.6151 3.8731 28.6151 8.74903V22.7705C28.6151 27.6443 25.1679 31.0488 20.2305 31.0488Z"/>
</mask>
<path d="M20.2305 28.0488H8.42317V34.0488H20.2305V28.0488ZM8.42317 28.0488C6.65969 28.0488 5.34771 27.4523 4.48719 26.6026C3.6294 25.7556 3.03857 24.4788 3.03857 22.7705H-2.96143C-2.96143 25.936 -1.82865 28.7983 0.271513 30.872C2.36894 32.943 5.24926 34.0488 8.42317 34.0488V28.0488ZM3.03857 22.7705V8.74903H-2.96143V22.7705H3.03857ZM3.03857 8.74903C3.03857 7.03943 3.62956 5.76279 4.487 4.9163C5.34726 4.06702 6.65917 3.4707 8.42317 3.4707V-2.5293C5.24977 -2.5293 2.36939 -1.42442 0.271702 0.646485C-1.82881 2.72018 -2.96143 5.5827 -2.96143 8.74903H3.03857ZM8.42317 3.4707H20.2305V-2.5293H8.42317V3.4707ZM20.2305 3.4707C21.9945 3.4707 23.3064 4.06702 24.1667 4.9163C25.0241 5.76279 25.6151 7.03943 25.6151 8.74903H31.6151C31.6151 5.5827 30.4825 2.72018 28.382 0.646485C26.2843 -1.42442 23.4039 -2.5293 20.2305 -2.5293V3.4707ZM25.6151 8.74903V22.7705H31.6151V8.74903H25.6151ZM25.6151 22.7705C25.6151 24.4788 25.0243 25.7556 24.1665 26.6026C23.306 27.4523 21.994 28.0488 20.2305 28.0488V34.0488C23.4044 34.0488 26.2847 32.943 28.3822 30.872C30.4823 28.7983 31.6151 25.936 31.6151 22.7705H25.6151Z" fill="#FD7B38" mask="url(#path-3-inside-2)"/>
</svg>
