<svg width="21" height="18" viewBox="0 0 21 18" fill="none" xmlns="http://www.w3.org/2000/svg">
<mask id="path-1-inside-1" fill="white">
<path d="M20.0484 4.03599C19.6721 3.79889 19.2095 3.77791 18.8151 3.97853L17.4839 4.65062C16.9917 4.89867 16.6863 5.40022 16.6863 5.95832V11.1982C16.6863 11.7563 16.9917 12.257 17.4839 12.5069L18.8142 13.178C18.9948 13.271 19.1879 13.3157 19.381 13.3157C19.6128 13.3157 19.8427 13.2501 20.0484 13.1215C20.4248 12.8853 20.6494 12.4758 20.6494 12.0272V5.13121C20.6494 4.68254 20.4248 4.27309 20.0484 4.03599Z"/>
</mask>
<path d="M18.8151 3.97853L19.4912 5.31756L19.4953 5.31546L18.8151 3.97853ZM17.4839 4.65062L18.1589 5.99017L18.16 5.98965L17.4839 4.65062ZM17.4839 12.5069L16.805 13.8444L16.8083 13.8461L17.4839 12.5069ZM18.8142 13.178L19.5012 11.8445L19.4899 11.8388L18.8142 13.178ZM20.0484 13.1215L20.8435 14.3934L20.8458 14.392L20.0484 13.1215ZM20.848 2.76683C20.0256 2.24874 19.001 2.20102 18.135 2.64161L19.4953 5.31546C19.4606 5.33313 19.4165 5.3437 19.3692 5.34151C19.3219 5.33932 19.2801 5.32477 19.2489 5.30514L20.848 2.76683ZM18.1391 2.63951L16.8079 3.3116L18.16 5.98965L19.4912 5.31756L18.1391 2.63951ZM16.8089 3.31108C15.8014 3.81879 15.1863 4.84439 15.1863 5.95832H18.1863C18.1863 5.95465 18.1868 5.9599 18.1813 5.96904C18.1787 5.97324 18.1752 5.97761 18.1708 5.98166C18.1664 5.98582 18.162 5.98862 18.1589 5.99017L16.8089 3.31108ZM15.1863 5.95832V11.1982H18.1863V5.95832H15.1863ZM15.1863 11.1982C15.1863 12.3141 15.8027 13.3356 16.805 13.8444L18.1629 11.1693C18.1646 11.1702 18.168 11.1723 18.1719 11.1759C18.1756 11.1793 18.1788 11.1833 18.1813 11.1873C18.1837 11.1913 18.1851 11.1949 18.1858 11.1974C18.1866 11.2001 18.1863 11.2006 18.1863 11.1982H15.1863ZM16.8083 13.8461L18.1386 14.5172L19.4899 11.8388L18.1596 11.1676L16.8083 13.8461ZM18.1273 14.5115C18.5245 14.7161 18.9537 14.8157 19.381 14.8157V11.8157C19.4221 11.8157 19.4651 11.826 19.5012 11.8446L18.1273 14.5115ZM19.381 14.8157C19.8993 14.8157 20.404 14.6682 20.8435 14.3934L19.2534 11.8495C19.2815 11.832 19.3263 11.8157 19.381 11.8157V14.8157ZM20.8458 14.392C21.6655 13.8776 22.1494 12.9848 22.1494 12.0272H19.1494C19.1494 11.9998 19.1566 11.966 19.1751 11.9322C19.1938 11.8982 19.2209 11.8699 19.2511 11.8509L20.8458 14.392ZM22.1494 12.0272V5.13121H19.1494V12.0272H22.1494ZM22.1494 5.13121C22.1494 4.17306 21.6652 3.28166 20.848 2.76683L19.2489 5.30514C19.2198 5.28682 19.1934 5.25929 19.175 5.22574C19.1566 5.19231 19.1494 5.15864 19.1494 5.13121H22.1494Z" fill="#818181" mask="url(#path-1-inside-1)"/>
<mask id="path-3-inside-2" fill="white">
<path d="M11.581 15.3155H6.37836C4.20279 15.3155 2.68384 13.8154 2.68384 11.6678V5.4895C2.68384 3.341 4.20279 1.8418 6.37836 1.8418H11.581C13.7566 1.8418 15.2756 3.341 15.2756 5.4895V11.6678C15.2756 13.8154 13.7566 15.3155 11.581 15.3155Z"/>
</mask>
<path d="M11.581 13.8155H6.37836V16.8155H11.581V13.8155ZM6.37836 13.8155C5.64318 13.8155 5.11164 13.5678 4.76918 13.2296C4.42809 12.8928 4.18384 12.3773 4.18384 11.6678H1.18384C1.18384 13.1059 1.69906 14.4142 2.66134 15.3643C3.62225 16.3131 4.93797 16.8155 6.37836 16.8155V13.8155ZM4.18384 11.6678V5.4895H1.18384V11.6678H4.18384ZM4.18384 5.4895C4.18384 4.77943 4.42817 4.26398 4.76908 3.92741C5.11141 3.58946 5.64292 3.3418 6.37836 3.3418V0.341797C4.93822 0.341797 3.62247 0.843739 2.66144 1.79251C1.69898 2.74267 1.18384 4.05106 1.18384 5.4895H4.18384ZM6.37836 3.3418H11.581V0.341797H6.37836V3.3418ZM11.581 3.3418C12.3165 3.3418 12.848 3.58946 13.1903 3.92741C13.5312 4.26398 13.7756 4.77943 13.7756 5.4895H16.7756C16.7756 4.05106 16.2604 2.74267 15.298 1.79251C14.3369 0.843739 13.0212 0.341797 11.581 0.341797V3.3418ZM13.7756 5.4895V11.6678H16.7756V5.4895H13.7756ZM13.7756 11.6678C13.7756 12.3773 13.5313 12.8928 13.1902 13.2296C12.8478 13.5678 12.3162 13.8155 11.581 13.8155V16.8155C13.0214 16.8155 14.3372 16.3131 15.2981 15.3643C16.2603 14.4142 16.7756 13.1059 16.7756 11.6678H13.7756Z" fill="#818181" mask="url(#path-3-inside-2)"/>
<path d="M17.8421 1L1 17" stroke="#818181" stroke-width="1.5"/>
</svg>
