<svg width="17" height="16" viewBox="0 0 17 16" fill="none" xmlns="http://www.w3.org/2000/svg">
<path d="M8.00314 16C4.76671 16.0018 1.84811 14.0531 0.609325 11.0631C-0.629461 8.07316 0.0557509 4.63133 2.3452 2.34377C4.36659 0.32239 7.31282 -0.467051 10.0741 0.272828C12.8353 1.01271 14.9921 3.1695 15.732 5.93076C16.4719 8.69202 15.6825 11.6383 13.6611 13.6596C12.1634 15.1641 10.126 16.0068 8.00314 16ZM1.60457 8.13928C1.64241 11.6595 4.5168 14.4879 8.03716 14.4691C11.5575 14.45 14.4013 11.5909 14.4013 8.07049C14.4013 4.55008 11.5575 1.69094 8.03716 1.67192C4.5168 1.6531 1.64241 4.4815 1.60457 8.00171V8.13928ZM5.9308 11.201L4.80385 10.0732L6.87539 8.00171L4.80385 5.93017L5.9316 4.80242L8.00314 6.87396L10.0747 4.80242L11.2024 5.93017L9.13088 8.00171L11.2024 10.0732L10.0755 11.201L8.00314 9.12945L5.9316 11.201H5.9308Z" fill="white"/>
</svg>
