<svg width="11" height="7" viewBox="0 0 11 7" fill="none" xmlns="http://www.w3.org/2000/svg">
<path d="M10.7056 1.40606C10.6002 1.33143 10.4595 1.32991 10.3529 1.40148L8.56244 2.58119C8.4936 2.62719 8.44548 2.69876 8.42963 2.78009C8.41319 2.8611 8.43024 2.94548 8.47655 3.01433C8.5795 3.16785 8.63373 3.34695 8.63373 3.53246C8.63373 4.04844 8.21398 4.46819 7.69799 4.46819C7.18201 4.46819 6.76226 4.04844 6.76226 3.53246C6.76226 3.22907 6.91212 2.94305 7.16251 2.76699C7.30324 2.6683 7.33734 2.47396 7.23865 2.33293L5.76987 0.23456C5.65413 0.0676465 5.37511 0.0676465 5.25935 0.23456L3.79058 2.33295C3.69189 2.47398 3.72602 2.66832 3.86673 2.76701C4.11711 2.94307 4.26698 3.22909 4.26698 3.53248C4.26698 4.04846 3.84723 4.46821 3.33124 4.46821C2.81526 4.46821 2.39551 4.04846 2.39551 3.53248C2.39551 3.34697 2.44972 3.16787 2.55269 3.01435C2.599 2.9455 2.61605 2.86114 2.5996 2.78011C2.58376 2.69878 2.53564 2.62719 2.46679 2.58121L0.676382 1.4015C0.569168 1.32993 0.429037 1.33145 0.323653 1.40608C0.218268 1.48039 0.169527 1.61169 0.200593 1.73658L1.46893 6.72715C1.50792 6.88433 1.66021 6.98941 1.82286 6.95925C4.27307 6.55109 6.75617 6.55109 9.20637 6.95925C9.22343 6.96229 9.2411 6.96352 9.25755 6.96352C9.39828 6.96352 9.52498 6.86786 9.56033 6.72715L10.8287 1.73658C10.8597 1.61167 10.811 1.48037 10.7056 1.40606Z" fill="white"/>
</svg>
