<svg width="24" height="24" viewBox="0 0 24 24" fill="none" xmlns="http://www.w3.org/2000/svg">
<rect width="24" height="24" rx="12" fill="white"/>
<path d="M12.0027 19C9.17087 19.0016 6.6171 17.2965 5.53316 14.6802C4.44922 12.064 5.04878 9.05241 7.05205 7.0508C8.82076 5.28209 11.3987 4.59133 13.8148 5.23872C16.2309 5.88612 18.1181 7.77331 18.7655 10.1894C19.4129 12.6055 18.7221 15.1835 16.9534 16.9522C15.6429 18.2686 13.8602 19.006 12.0027 19ZM6.404 12.1219C6.43711 15.202 8.9522 17.6769 12.0325 17.6604C15.1128 17.6438 17.6012 15.142 17.6012 12.0617C17.6012 8.98132 15.1128 6.47957 12.0325 6.46293C8.9522 6.44646 6.43711 8.92132 6.404 12.0015V12.1219ZM10.1895 14.8009L9.20337 13.8141L11.016 12.0015L9.20337 10.1889L10.1901 9.20212L12.0027 11.0147L13.8153 9.20212L14.8021 10.1889L12.9895 12.0015L14.8021 13.8141L13.816 14.8009L12.0027 12.9883L10.1895 14.8009Z" fill="#FD413C"/>
</svg>
