<svg width="16" height="17" viewBox="0 0 16 17" fill="none" xmlns="http://www.w3.org/2000/svg">
<path d="M11.9764 16.0626H3.97637C3.09272 16.0626 2.37637 15.3434 2.37637 14.4563V4.01564H0.776367V2.40938H3.97637V1.60626C3.97637 0.719145 4.69272 0 5.57638 0H10.3764C11.26 0 11.9764 0.719145 11.9764 1.60626V2.40938H15.1764V4.01564H13.5764V14.4563C13.5764 15.3434 12.86 16.0626 11.9764 16.0626ZM3.97637 4.01564V14.4563H11.9764V4.01564H3.97637ZM5.57638 1.60626V2.40938H10.3764V1.60626H5.57638ZM10.3764 12.85H8.77638V5.6219H10.3764V12.85ZM7.17638 12.85H5.57638V5.6219H7.17638V12.85Z" fill="#FD413C"/>
</svg>
