<svg width="24" height="24" viewBox="0 0 24 24" fill="none" xmlns="http://www.w3.org/2000/svg">
<rect width="24" height="24" rx="12" fill="white"/>
<path d="M8.44072 16C8.31758 15.9998 8.20019 15.9478 8.1172 15.8569C8.03267 15.7666 7.99067 15.6446 8.00175 15.5214L8.1093 14.3385L13.0776 9.37054L14.6303 10.9232L9.66327 15.8907L8.48067 15.9982C8.46706 15.9996 8.45345 16 8.44072 16ZM14.9402 10.6127L13.388 9.0601L14.319 8.12878C14.4014 8.04633 14.5131 8 14.6296 8C14.7461 8 14.8578 8.04633 14.9402 8.12878L15.8713 9.0601C15.9537 9.14246 16 9.25422 16 9.37076C16 9.4873 15.9537 9.59906 15.8713 9.68142L14.9402 10.6127Z" fill="#4AA541"/>
</svg>
