<svg width="17" height="17" viewBox="0 0 17 17" fill="none" xmlns="http://www.w3.org/2000/svg">
<path d="M0.5 16.0431V9.04305H7.5L4.283 12.2631C5.39296 13.3981 6.91246 14.0395 8.5 14.0431C11.0394 14.0393 13.3015 12.4373 14.148 10.0431H14.166C14.2805 9.71767 14.3672 9.38313 14.425 9.04305H16.437C15.9331 13.043 12.5315 16.0429 8.5 16.0431H8.49C6.36876 16.0494 4.33316 15.2068 2.837 13.7031L0.5 16.0431ZM2.574 7.04305H0.562C1.06575 3.04466 4.465 0.0451936 8.495 0.0430094H8.5C10.6216 0.036221 12.6577 0.878891 14.154 2.38305L16.5 0.0430094V7.04305H9.5L12.722 3.82305C11.6109 2.6867 10.0893 2.04519 8.5 2.04305C5.96055 2.0468 3.69848 3.64883 2.852 6.04305H2.834C2.71856 6.36816 2.63189 6.70278 2.575 7.04305H2.574Z" fill="#FD7B38"/>
</svg>
