<svg width="20" height="15" viewBox="0 0 20 15" fill="none" xmlns="http://www.w3.org/2000/svg">
<g clip-path="url(#clip0)">
<path d="M-5.02002 0H25.0605V15.0403H-5.02002V0Z" fill="#000066"/>
<path d="M-5.02002 0V1.68154L21.6975 15.0404H25.0605V13.3589L-1.65703 0H-5.02002ZM25.0605 0V1.68151L-1.65703 15.0403H-5.02002V13.3588L21.6975 0H25.0605Z" fill="white"/>
<path d="M7.51353 0V15.0403H12.527V0H7.51353ZM-5.02002 5.01343V10.0269H25.0605V5.01343H-5.02002Z" fill="white"/>
<path d="M-5.02002 6.01612V9.02418H25.0605V6.01612H-5.02002ZM8.51625 0V15.0403H11.5242V0H8.51625ZM-5.02002 15.0403L5.00682 10.0269H7.24884L-2.77801 15.0403H-5.02002ZM-5.02002 0L5.00682 5.01343H2.76481L-5.02002 1.12107V0ZM12.7917 5.01343L22.8185 0H25.0605L15.0337 5.01343H12.7917ZM25.0605 15.0403L15.0337 10.0269H17.2757L25.0605 13.9193V15.0403Z" fill="#CC0000"/>
</g>
<defs>
<clipPath id="clip0">
<rect width="20" height="15" fill="white"/>
</clipPath>
</defs>
</svg>
