<svg width="17" height="17" viewBox="0 0 17 17" fill="none" xmlns="http://www.w3.org/2000/svg">
<mask id="path-1-inside-1" fill="white">
<path d="M-0.00012207 1.00391V6.35806H5.33325"/>
</mask>
<path d="M-0.00012207 6.35806H-1.50012V7.85806H-0.00012207V6.35806ZM-1.50012 1.00391V6.35806H1.49988V1.00391H-1.50012ZM-0.00012207 7.85806H5.33325V4.85806H-0.00012207V7.85806Z" fill="#E0A818" mask="url(#path-1-inside-1)"/>
<mask id="path-3-inside-2" fill="white">
<path d="M1.23101 10.7C1.80736 12.3423 2.89975 13.752 4.34358 14.7168C5.78742 15.6816 7.50448 16.1492 9.23606 16.0492C10.9676 15.9491 12.6199 15.2869 13.944 14.1621C15.268 13.0374 16.1921 11.5111 16.5769 9.8133C16.9618 8.11548 16.7866 6.33809 16.0777 4.74893C15.3689 3.15977 14.1648 1.84492 12.6468 1.00251C11.1289 0.160094 9.37934 -0.164253 7.66181 0.0783382C5.94429 0.320929 4.35181 1.11732 3.12434 2.3475L0.962769 4.51757"/>
</mask>
<path d="M3.12434 2.3475L2.06251 1.28801L2.0616 1.28892L3.12434 2.3475ZM-0.184357 11.1967C0.499319 13.1448 1.79554 14.8182 3.51019 15.964L5.17698 13.4696C4.00396 12.6858 3.1154 11.5397 2.64638 10.2033L-0.184357 11.1967ZM3.51019 15.964C5.22493 17.1098 7.26488 17.6656 9.32259 17.5467L9.14954 14.5517C7.74408 14.6329 6.34991 14.2534 5.17698 13.4696L3.51019 15.964ZM9.32259 17.5467C11.3803 17.4278 13.343 16.6408 14.9151 15.3053L12.9728 13.0189C11.8969 13.9329 10.555 14.4705 9.14954 14.5517L9.32259 17.5467ZM14.9151 15.3053C16.4871 13.9699 17.5834 12.1586 18.0398 10.1449L15.114 9.48169C14.8008 10.8636 14.0489 12.1048 12.9728 13.0189L14.9151 15.3053ZM18.0398 10.1449C18.4963 8.13123 18.2886 6.02311 17.4476 4.13788L14.7078 5.35998C15.2846 6.65307 15.4273 8.09974 15.114 9.48169L18.0398 10.1449ZM17.4476 4.13788C16.6067 2.25256 15.1776 0.691516 13.3747 -0.309054L11.9189 2.31407C13.1519 2.99833 14.1311 4.06697 14.7078 5.35998L17.4476 4.13788ZM13.3747 -0.309054C11.5717 -1.30968 9.49298 -1.69519 7.45203 -1.40692L7.8716 1.5636C9.2657 1.36669 10.6861 1.62987 11.9189 2.31407L13.3747 -0.309054ZM7.45203 -1.40692C5.41112 -1.11865 3.51973 -0.172429 2.06251 1.28801L4.18617 3.40699C5.1839 2.40706 6.47745 1.76051 7.8716 1.5636L7.45203 -1.40692ZM2.0616 1.28892L-0.0999701 3.45899L2.02551 5.57615L4.18708 3.40608L2.0616 1.28892Z" fill="#E0A818" mask="url(#path-3-inside-2)"/>
<path d="M7.77771 5.3457V9.36136H11.7777" stroke="#E0A818" stroke-width="1.5"/>
</svg>
