<svg width="85" height="75" viewBox="0 0 85 75" fill="none" xmlns="http://www.w3.org/2000/svg">
<circle cx="37.3333" cy="37.3333" r="37.3333" fill="#FD7B38"/>
<circle cx="67" cy="56" r="18" fill="white"/>
<path d="M67.1935 49.3669C68.1233 49.3669 68.877 48.6132 68.877 47.6835C68.877 46.7537 68.1233 46 67.1935 46C66.2638 46 65.5101 46.7537 65.5101 47.6835C65.5101 48.6132 66.2638 49.3669 67.1935 49.3669Z" fill="#4D4D4D"/>
<path d="M67.78 50.1681C67.3605 50.083 66.9044 50.0867 66.4924 50.1838C63.6936 50.5118 62.7848 53.7513 63.0415 56.2214C63.1528 57.2894 64.8362 57.3006 64.7238 56.2214C64.6304 55.3213 64.6704 53.9628 65.1489 52.9972C65.1489 54.1708 65.1489 55.3444 65.1489 56.5177C65.1489 56.5591 65.153 56.598 65.1549 56.6379C65.1537 56.657 65.1493 56.673 65.1493 56.6925C65.1493 59.486 65.1444 62.2785 65.029 65.0698C64.9778 66.3107 66.9018 66.3058 66.9526 65.0698C67.043 62.8821 67.0658 60.6933 67.071 58.5041C67.1622 58.51 67.2533 58.51 67.3444 58.5048C67.3501 60.694 67.3721 62.8829 67.4617 65.0698C67.5129 66.3058 69.4369 66.3107 69.3854 65.0698C69.27 62.2785 69.2659 59.486 69.2659 56.6925C69.2659 56.6058 69.2543 56.527 69.2367 56.4512C69.2341 55.2383 69.1878 54.0244 69.202 52.8123C69.775 53.7823 69.8273 55.2619 69.7279 56.2207C69.6151 57.2991 71.2989 57.2882 71.4103 56.2207C71.6728 53.6994 70.7204 50.3758 67.78 50.1681Z" fill="#4D4D4D"/>
<path d="M39.7844 46.6745C41.7983 47.3642 43.5765 47.8034 46.1315 48.5885C45.1499 60.9907 33.4223 56.0654 39.7844 46.6745ZM50.2554 35.2815C50.1232 31.5577 49.4673 26.6728 44.2427 27.4382C41.7936 28.0774 39.984 30.7671 39.1329 35.4078C38.6654 37.9593 38.9373 41.5408 39.4886 43.6877C39.9921 45.2006 39.8209 45.1076 40.362 45.3949C42.4563 45.8667 44.5296 46.389 46.6409 46.9215C48.7858 45.4069 50.5474 37.3655 50.2554 35.2815ZM34.1321 34.9957C34.683 32.8485 34.9548 29.2671 34.4876 26.7158C33.6372 22.0749 31.8273 19.3848 29.3778 18.746C24.1532 17.9806 23.4973 22.8654 23.3651 26.5895C23.0731 28.6731 24.8349 36.715 26.98 38.2294C29.0912 37.6968 31.1642 37.175 33.2592 36.7028C33.7996 36.4157 33.6284 36.5087 34.1321 34.9957ZM27.4888 39.8968C28.47 52.2988 40.1976 47.3736 33.8356 37.9828C31.8218 38.6725 30.0437 39.1117 27.4888 39.8968Z" fill="white"/>
</svg>
