<svg width="20" height="20" viewBox="0 0 20 20" fill="none" xmlns="http://www.w3.org/2000/svg">
<g clip-path="url(#clip0)">
<path d="M0.809708 3.78852L2.55562 3.5626C5.05886 3.23868 7.27685 5.18816 7.27685 7.71226C7.27685 8.38159 6.68865 8.89857 6.02485 8.81269L4.10541 8.56429C2.09096 8.30359 0.499475 6.82881 0.0278302 4.93326C-0.106169 4.39479 0.259398 3.85973 0.809708 3.78852Z" fill="url(#paint0_linear)"/>
<path d="M7.27685 7.71243C7.27685 8.33282 6.77176 8.82223 6.16901 8.82223C6.12156 8.82223 6.07333 8.81909 6.0247 8.81282L5.11373 8.69478L4.1055 8.56419C3.85177 8.53125 3.60511 8.47949 3.36629 8.40968C3.54723 7.74898 3.84111 7.13483 4.22573 6.58918C4.79189 5.78601 4.55961 4.67119 3.72448 4.15335C3.2906 3.88434 2.80531 3.69289 2.28943 3.59716L2.5557 3.56265C3.95413 3.38148 5.26392 3.91049 6.14705 4.85245C6.84509 5.5964 7.27685 6.59836 7.27685 7.71243Z" fill="url(#paint1_linear)"/>
<path d="M1.7729 5.40938L2.83697 5.46848C4.36261 5.55319 5.58452 6.62114 5.43797 7.74168C5.39911 8.03882 5.01503 8.21462 4.62045 8.11592L3.47944 7.83043C2.28199 7.53078 1.40961 6.73079 1.23576 5.84624C1.18639 5.59491 1.43749 5.39076 1.7729 5.40938Z" fill="url(#paint2_linear)"/>
<path d="M4.48933 6.00781C4.4407 6.21091 4.35388 6.40863 4.2258 6.59032C3.95243 6.97816 3.72518 7.40071 3.55145 7.84988L4.62047 8.11737C5.01505 8.21611 5.39913 8.04031 5.43799 7.74318C5.52438 7.0829 5.13536 6.44114 4.48933 6.00781Z" fill="url(#paint3_linear)"/>
<path d="M19.1903 3.79047L17.4444 3.56455C14.9412 3.24063 12.7232 5.19011 12.7232 7.71421C12.7232 8.38354 13.3114 8.90052 13.9752 8.81464L15.8946 8.56625C17.9091 8.30558 19.5006 6.83077 19.9722 4.93521C20.1062 4.39674 19.7406 3.86169 19.1903 3.79047Z" fill="url(#paint4_linear)"/>
<path d="M19.1904 3.79036L17.4445 3.56444C16.9976 3.50659 16.5599 3.52157 16.1422 3.59898L17.621 3.79036C18.1713 3.86157 18.5368 4.39663 18.4028 4.93509C17.9312 6.83065 16.3397 8.30543 14.3253 8.56613L13.3174 8.69656C13.5116 8.79884 13.7385 8.84515 13.9752 8.81452L15.8947 8.56613C17.9091 8.30547 19.5006 6.83065 19.9722 4.93509C20.1062 4.39663 19.7406 3.86157 19.1904 3.79036Z" fill="url(#paint5_linear)"/>
<path d="M18.2271 5.41134L17.1631 5.47044C15.6374 5.55514 14.4155 6.62309 14.562 7.74364C14.6009 8.04077 14.985 8.21658 15.3796 8.11787L16.5206 7.83238C17.718 7.53274 18.5904 6.73274 18.7643 5.8482C18.8136 5.59687 18.5625 5.39271 18.2271 5.41134Z" fill="url(#paint6_linear)"/>
<path d="M18.2573 5.41025C17.8787 6.45601 17.1497 7.34004 16.2021 7.91141L16.5206 7.83169C17.7181 7.53204 18.5905 6.73205 18.7643 5.8475C18.8122 5.6039 18.5773 5.40519 18.2573 5.41025Z" fill="url(#paint7_linear)"/>
<path d="M8.94501 3.99735C7.29663 3.99735 5.96032 2.66104 5.96032 1.01266C5.96032 0.865953 5.97091 0.721719 5.99138 0.5807C6.05181 0.164389 5.61271 -0.141413 5.24758 0.0674089C4.32382 0.59572 3.70955 1.60344 3.74406 2.75163C3.79143 4.32833 5.08182 5.60828 6.65883 5.64365C7.86992 5.67079 8.92168 4.97632 9.41434 3.96033C9.2614 3.98444 9.10473 3.99735 8.94501 3.99735Z" fill="url(#paint8_linear)"/>
<path d="M9.41452 3.96042C8.92159 4.97649 7.86983 5.671 6.65885 5.64355C6.5165 5.64041 6.37611 5.62708 6.23925 5.60394C5.71219 5.51649 5.23023 5.28904 4.83337 4.96159C5.00643 4.785 5.19059 4.61932 5.38466 4.46571C5.88913 4.06646 5.97792 3.33093 5.58819 2.81909C5.20635 2.31764 4.97965 1.69165 4.97965 1.01259C4.97965 0.865928 4.99024 0.721615 5.01063 0.580831C5.02788 0.461616 5.00435 0.351421 4.95298 0.260049C5.0471 0.190246 5.14553 0.125932 5.24749 0.0675012C5.61259 -0.141517 6.0518 0.164363 5.99141 0.580831C5.97101 0.721615 5.96043 0.865928 5.96043 1.01259C5.96043 2.03376 6.47297 2.93533 7.25532 3.47297C7.73571 3.80395 8.31767 3.99728 8.94511 3.99728C9.10472 3.99728 9.26158 3.98473 9.41452 3.96042Z" fill="url(#paint9_linear)"/>
<path d="M11.055 3.99735C12.7034 3.99735 14.0397 2.66104 14.0397 1.01266C14.0397 0.865953 14.0291 0.721719 14.0087 0.5807C13.9482 0.164389 14.3873 -0.141413 14.7525 0.0674089C15.6762 0.59572 16.2905 1.60344 16.256 2.75163C16.2086 4.32833 14.9182 5.60828 13.3412 5.64365C12.1301 5.67079 11.0784 4.97632 10.5857 3.96033C10.7386 3.98444 10.8953 3.99735 11.055 3.99735Z" fill="url(#paint10_linear)"/>
<path d="M14.7525 0.0674071C14.4917 -0.0817293 14.1934 0.0316426 14.0661 0.260151C14.8231 0.820657 15.3058 1.73042 15.2752 2.75159C15.2321 4.1857 14.1605 5.37396 12.7804 5.60385C12.9623 5.63404 13.1498 5.64788 13.3412 5.64361C14.9182 5.60824 16.2086 4.32828 16.256 2.75159C16.2905 1.6034 15.6762 0.595718 14.7525 0.0674071Z" fill="url(#paint11_linear)"/>
<path d="M14.6773 12.5969C15.4204 11.6147 15.8613 10.3911 15.8613 9.06451C15.8613 5.82433 13.2472 3.20693 10.0071 3.20313C6.76672 3.19933 4.13873 5.82496 4.13873 9.06439C4.13873 10.3928 4.58069 11.6178 5.32555 12.6007C6.20743 13.7644 6.33641 15.3277 5.67272 16.6282C5.51018 16.9467 5.40884 17.2638 5.4172 17.5522C5.45559 18.8807 6.53876 19.9623 7.86722 19.9991C8.23012 20.0092 8.5762 19.9425 8.89059 19.8141C9.60317 19.5232 10.3969 19.5232 11.1095 19.8141C11.4239 19.9425 11.7699 20.0092 12.1328 19.9991C13.4613 19.9623 14.5445 18.8807 14.5829 17.5522C14.5912 17.2638 14.4899 16.9468 14.3273 16.6283C13.6628 15.3262 13.7953 13.7627 14.6773 12.5969Z" fill="url(#paint12_linear)"/>
<path d="M15.8613 9.0645C15.8613 5.82433 13.2472 3.20693 10.007 3.20313C9.7389 3.20282 9.47514 3.22089 9.21655 3.2554C12.0866 3.63819 14.2919 6.08852 14.2919 9.06447C14.2918 10.3911 13.851 11.6147 13.1079 12.5969C12.2259 13.7626 12.0934 15.3262 12.7579 16.6282C12.9204 16.9467 13.0217 17.2637 13.0134 17.5522C12.9822 18.6328 12.2596 19.55 11.2761 19.8745C11.5447 19.9625 11.8329 20.0074 12.1328 19.9991C13.4613 19.9623 14.5444 18.8806 14.5828 17.5522C14.5912 17.2637 14.4899 16.9467 14.3273 16.6282C13.6628 15.3262 13.7954 13.7626 14.6773 12.5969C15.4204 11.6147 15.8612 10.3911 15.8613 9.0645Z" fill="url(#paint13_linear)"/>
<path d="M14.5828 17.5515C14.5443 18.8797 13.4612 19.9616 12.133 19.9985C11.7698 20.0083 11.4239 19.9416 11.1094 19.8134C10.3969 19.5224 9.60317 19.5224 8.89063 19.8134C8.57612 19.9416 8.23024 20.0083 7.86711 19.9985C6.53888 19.9616 5.45575 18.8797 5.41732 17.5515C5.40869 17.2628 5.51026 16.946 5.67261 16.6276C5.67351 16.6258 5.67442 16.6241 5.67528 16.6223C5.89849 16.183 6.30763 15.8656 6.79292 15.7801C6.95205 15.7521 7.11531 15.7366 7.28162 15.7346C7.85103 15.7276 8.38514 15.8766 8.84396 16.1413C9.56239 16.5562 10.4377 16.5562 11.1561 16.1413C11.6149 15.8766 12.149 15.7276 12.7184 15.7346C12.8848 15.7366 13.0482 15.7521 13.2075 15.7803C13.6925 15.8659 14.1015 16.183 14.3246 16.6221C14.3256 16.6239 14.3265 16.6257 14.3274 16.6276C14.4898 16.946 14.5914 17.2628 14.5828 17.5515Z" fill="url(#paint14_linear)"/>
<path d="M7.03888 17.2056C6.84438 17.4001 7.02292 17.894 7.43767 18.3087C7.85241 18.7235 8.34629 18.902 8.54076 18.7075C8.73527 18.513 8.55672 18.0191 8.14197 17.6044C7.72727 17.1897 7.23339 17.0111 7.03888 17.2056Z" fill="url(#paint15_linear)"/>
<path d="M14.3275 16.6276C14.3267 16.6256 14.3255 16.624 14.3248 16.6221C14.1016 16.1828 13.6926 15.866 13.2075 15.7801C13.0483 15.7523 12.8848 15.7366 12.7185 15.7346C12.6232 15.7334 12.5291 15.7366 12.4361 15.744C12.5055 16.0464 12.613 16.3432 12.7581 16.6276C12.8623 16.8319 12.9412 17.0356 12.9823 17.2315C12.9756 17.2226 12.9692 17.2134 12.9613 17.2054C12.7668 17.0109 12.2729 17.1894 11.8582 17.6042C11.4434 18.0189 11.2649 18.5128 11.4594 18.7073C11.6539 18.9018 12.1478 18.7232 12.5625 18.3085C12.5648 18.3062 12.5671 18.3039 12.5694 18.3016C12.6856 18.1843 12.8767 18.3126 12.8116 18.4644C12.5272 19.1268 11.9659 19.646 11.2762 19.8738C11.2789 19.8746 11.2817 19.8757 11.2848 19.8773C11.5511 19.9636 11.8362 20.0063 12.133 19.9985C13.4613 19.9616 14.5444 18.8797 14.5828 17.5514C14.5914 17.2628 14.4899 16.946 14.3275 16.6276Z" fill="url(#paint16_linear)"/>
<path d="M7.20546 10.9695C7.74069 10.9695 8.17459 10.5356 8.17459 10.0004C8.17459 9.46515 7.74069 9.03125 7.20546 9.03125C6.67022 9.03125 6.23633 9.46515 6.23633 10.0004C6.23633 10.5356 6.67022 10.9695 7.20546 10.9695Z" fill="url(#paint17_linear)"/>
<path d="M12.7947 10.9695C13.3299 10.9695 13.7638 10.5356 13.7638 10.0004C13.7638 9.46515 13.3299 9.03125 12.7947 9.03125C12.2595 9.03125 11.8256 9.46515 11.8256 10.0004C11.8256 10.5356 12.2595 10.9695 12.7947 10.9695Z" fill="url(#paint18_linear)"/>
<path d="M10.6703 3.24023L10.3176 3.58549C9.82642 4.06643 9.83819 4.86069 10.3434 5.32689C10.6845 5.64163 10.8138 6.12473 10.6755 6.56778L10.638 6.6879C10.4313 7.35037 10.8272 8.04973 11.5016 8.21338L12.7284 8.51103C13.5473 8.70973 14.3057 9.10443 14.9382 9.66121L15.7195 10.349C15.8122 9.93525 15.8613 9.5051 15.8613 9.06342C15.8613 6.04759 13.5966 3.57172 10.6703 3.24023Z" fill="url(#paint19_linear)"/>
<path d="M14.9382 9.66321L15.7196 10.351C15.8122 9.93725 15.8613 9.50709 15.8614 9.06541C15.8614 6.04958 13.5966 3.57371 10.6703 3.24219L10.3736 3.53273C12.6585 4.33238 14.292 6.50413 14.292 9.06541C14.292 9.1029 14.2915 9.14027 14.2908 9.17756C14.5181 9.32203 14.7347 9.48411 14.9382 9.66321Z" fill="url(#paint20_linear)"/>
</g>
<defs>
<linearGradient id="paint0_linear" x1="-0.313658" y1="6.1747" x2="9.3146" y2="6.1747" gradientUnits="userSpaceOnUse">
<stop stop-color="#F5F8F9"/>
<stop offset="0.5213" stop-color="#D9E7EC"/>
<stop offset="1" stop-color="#B6C4CF"/>
</linearGradient>
<linearGradient id="paint1_linear" x1="-3.09799" y1="6.17479" x2="7.50062" y2="6.17479" gradientUnits="userSpaceOnUse">
<stop stop-color="#F5F8F9"/>
<stop offset="0.5213" stop-color="#D9E7EC"/>
<stop offset="1" stop-color="#B6C4CF"/>
</linearGradient>
<linearGradient id="paint2_linear" x1="0.941216" y1="6.77585" x2="7.00185" y2="6.77585" gradientUnits="userSpaceOnUse">
<stop stop-color="#F8A5AF"/>
<stop offset="0.5341" stop-color="#F07281"/>
<stop offset="0.765" stop-color="#EE6677"/>
<stop offset="1" stop-color="#EB5569"/>
</linearGradient>
<linearGradient id="paint3_linear" x1="-3.41164" y1="7.07639" x2="4.27466" y2="7.07639" gradientUnits="userSpaceOnUse">
<stop stop-color="#F8A5AF"/>
<stop offset="0.5341" stop-color="#F07281"/>
<stop offset="0.765" stop-color="#EE6677"/>
<stop offset="1" stop-color="#EB5569"/>
</linearGradient>
<linearGradient id="paint4_linear" x1="12.5286" y1="6.17665" x2="20.9028" y2="6.17665" gradientUnits="userSpaceOnUse">
<stop stop-color="#918291"/>
<stop offset="0.2667" stop-color="#766A75"/>
<stop offset="0.4488" stop-color="#685E68"/>
<stop offset="0.5104" stop-color="#625962"/>
<stop offset="0.81" stop-color="#4C464C"/>
<stop offset="1" stop-color="#433F43"/>
</linearGradient>
<linearGradient id="paint5_linear" x1="9.5687" y1="6.17658" x2="20.3947" y2="6.17658" gradientUnits="userSpaceOnUse">
<stop stop-color="#918291"/>
<stop offset="0.2667" stop-color="#766A75"/>
<stop offset="0.4488" stop-color="#685E68"/>
<stop offset="0.5104" stop-color="#625962"/>
<stop offset="0.81" stop-color="#4C464C"/>
<stop offset="1" stop-color="#433F43"/>
</linearGradient>
<linearGradient id="paint6_linear" x1="14.3922" y1="6.7778" x2="20.5223" y2="6.7778" gradientUnits="userSpaceOnUse">
<stop stop-color="#F8A5AF"/>
<stop offset="0.5341" stop-color="#F07281"/>
<stop offset="0.765" stop-color="#EE6677"/>
<stop offset="1" stop-color="#EB5569"/>
</linearGradient>
<linearGradient id="paint7_linear" x1="11.8693" y1="6.66079" x2="17.8303" y2="6.66079" gradientUnits="userSpaceOnUse">
<stop stop-color="#F8A5AF"/>
<stop offset="0.5341" stop-color="#F07281"/>
<stop offset="0.765" stop-color="#EE6677"/>
<stop offset="1" stop-color="#EB5569"/>
</linearGradient>
<linearGradient id="paint8_linear" x1="4.28406" y1="2.82218" x2="8.8418" y2="2.82218" gradientUnits="userSpaceOnUse">
<stop stop-color="#FEE97D"/>
<stop offset="0.5341" stop-color="#FED402"/>
<stop offset="0.618" stop-color="#FECD0E"/>
<stop offset="0.7684" stop-color="#FEB92D"/>
<stop offset="0.9666" stop-color="#FD9A5F"/>
<stop offset="1" stop-color="#FD9468"/>
</linearGradient>
<linearGradient id="paint9_linear" x1="0.549086" y1="2.82219" x2="8.00167" y2="2.82219" gradientUnits="userSpaceOnUse">
<stop stop-color="#FEE97D"/>
<stop offset="0.5341" stop-color="#FED402"/>
<stop offset="0.618" stop-color="#FECD0E"/>
<stop offset="0.7684" stop-color="#FEB92D"/>
<stop offset="0.9666" stop-color="#FD9A5F"/>
<stop offset="1" stop-color="#FD9468"/>
</linearGradient>
<linearGradient id="paint10_linear" x1="10" y1="2.82218" x2="17.0697" y2="2.82218" gradientUnits="userSpaceOnUse">
<stop stop-color="#FEE97D"/>
<stop offset="0.5341" stop-color="#FED402"/>
<stop offset="0.618" stop-color="#FECD0E"/>
<stop offset="0.7684" stop-color="#FEB92D"/>
<stop offset="0.9666" stop-color="#FD9A5F"/>
<stop offset="1" stop-color="#FD9468"/>
</linearGradient>
<linearGradient id="paint11_linear" x1="9.05885" y1="2.82218" x2="15.6136" y2="2.82218" gradientUnits="userSpaceOnUse">
<stop stop-color="#FEE97D"/>
<stop offset="0.5341" stop-color="#FED402"/>
<stop offset="0.618" stop-color="#FECD0E"/>
<stop offset="0.7684" stop-color="#FEB92D"/>
<stop offset="0.9666" stop-color="#FD9A5F"/>
<stop offset="1" stop-color="#FD9468"/>
</linearGradient>
<linearGradient id="paint12_linear" x1="5.25771" y1="11.6016" x2="14.6779" y2="11.6016" gradientUnits="userSpaceOnUse">
<stop stop-color="#F5F8F9"/>
<stop offset="0.5213" stop-color="#D9E7EC"/>
<stop offset="1" stop-color="#B6C4CF"/>
</linearGradient>
<linearGradient id="paint13_linear" x1="2.76863" y1="11.6016" x2="13.5406" y2="11.6016" gradientUnits="userSpaceOnUse">
<stop stop-color="#F5F8F9"/>
<stop offset="0.5213" stop-color="#D9E7EC"/>
<stop offset="1" stop-color="#B6C4CF"/>
</linearGradient>
<linearGradient id="paint14_linear" x1="6.29174" y1="17.8669" x2="13.6579" y2="17.8669" gradientUnits="userSpaceOnUse">
<stop stop-color="#FFDCBD"/>
<stop offset="0.0028" stop-color="#FFDCBD"/>
<stop offset="1" stop-color="#FFA9B1"/>
</linearGradient>
<linearGradient id="paint15_linear" x1="1.90209" y1="17.9566" x2="12.4125" y2="17.9566" gradientUnits="userSpaceOnUse">
<stop stop-color="#FFC2B5"/>
<stop offset="1" stop-color="#FF89A8"/>
</linearGradient>
<linearGradient id="paint16_linear" x1="1.90208" y1="17.8669" x2="12.4125" y2="17.8669" gradientUnits="userSpaceOnUse">
<stop stop-color="#FFC2B5"/>
<stop offset="1" stop-color="#FF89A8"/>
</linearGradient>
<linearGradient id="paint17_linear" x1="6.3086" y1="10.0004" x2="8.93866" y2="10.0004" gradientUnits="userSpaceOnUse">
<stop stop-color="#918291"/>
<stop offset="0.2667" stop-color="#766A75"/>
<stop offset="0.4488" stop-color="#685E68"/>
<stop offset="0.5104" stop-color="#625962"/>
<stop offset="0.81" stop-color="#4C464C"/>
<stop offset="1" stop-color="#433F43"/>
</linearGradient>
<linearGradient id="paint18_linear" x1="11.8978" y1="10.0004" x2="14.5279" y2="10.0004" gradientUnits="userSpaceOnUse">
<stop stop-color="#918291"/>
<stop offset="0.2667" stop-color="#766A75"/>
<stop offset="0.4488" stop-color="#685E68"/>
<stop offset="0.5104" stop-color="#625962"/>
<stop offset="0.81" stop-color="#4C464C"/>
<stop offset="1" stop-color="#433F43"/>
</linearGradient>
<linearGradient id="paint19_linear" x1="8.3922" y1="6.79461" x2="18.8771" y2="6.79461" gradientUnits="userSpaceOnUse">
<stop stop-color="#918291"/>
<stop offset="0.2667" stop-color="#766A75"/>
<stop offset="0.4488" stop-color="#685E68"/>
<stop offset="0.5104" stop-color="#625962"/>
<stop offset="0.81" stop-color="#4C464C"/>
<stop offset="1" stop-color="#433F43"/>
</linearGradient>
<linearGradient id="paint20_linear" x1="6.15695" y1="6.79664" x2="16.118" y2="6.79664" gradientUnits="userSpaceOnUse">
<stop stop-color="#918291"/>
<stop offset="0.2667" stop-color="#766A75"/>
<stop offset="0.4488" stop-color="#685E68"/>
<stop offset="0.5104" stop-color="#625962"/>
<stop offset="0.81" stop-color="#4C464C"/>
<stop offset="1" stop-color="#433F43"/>
</linearGradient>
<clipPath id="clip0">
<rect width="20" height="20" fill="white"/>
</clipPath>
</defs>
</svg>
