<svg width="20" height="20" viewBox="0 0 20 20" fill="none" xmlns="http://www.w3.org/2000/svg">
<path d="M9.28698 3.89653L9.26394 4.05517C9.19296 4.54398 9.57204 4.98206 10.066 4.98206C10.5736 4.98206 10.9563 4.52085 10.8626 4.022L10.839 3.89648H9.28698V3.89653Z" fill="#FFB69E"/>
<path d="M12.4645 7.74078V11.5671C12.4645 12.0036 12.8184 12.3575 13.2549 12.3575C13.6914 12.3575 14.0452 12.0036 14.0452 11.5671V7.74078L13.2549 7.53125L12.4645 7.74078Z" fill="#FFB69E"/>
<path d="M11.1774 19.9993C10.6536 19.9993 10.2289 19.5747 10.2289 19.0509V11.4699C10.2289 10.9461 10.6536 10.5215 11.1774 10.5215C11.7011 10.5215 12.1258 10.9461 12.1258 11.4699V19.0509C12.1258 19.5747 11.7012 19.9993 11.1774 19.9993Z" fill="#55696E"/>
<path d="M8.87066 19.9993C8.34688 19.9993 7.92224 19.5747 7.92224 19.0509V11.4699C7.92224 10.9461 8.34688 10.5215 8.87066 10.5215C9.39445 10.5215 9.81908 10.9461 9.81908 11.4699V19.0509C9.81912 19.5747 9.39449 19.9993 8.87066 19.9993Z" fill="#748488"/>
<path d="M11.6567 1.8172C11.7064 0.913422 11.0141 0.140431 10.1103 0.0906739C9.20654 0.0409166 8.43355 0.733234 8.38379 1.63701C8.33404 2.54078 9.02636 3.31377 9.93013 3.36353C10.8339 3.41329 11.6069 2.72097 11.6567 1.8172Z" fill="#FFB69E"/>
<path d="M6 7.74099V11.5673C6 12.0038 6.35386 12.3577 6.79035 12.3577C7.22688 12.3577 7.5807 12.0038 7.5807 11.5673V7.74099L6.93784 7.23828L6 7.74099Z" fill="#FFB69E"/>
<path d="M14.0453 5.75753C14.0401 4.73132 13.188 3.89648 12.1457 3.89648H10.839C10.8406 4.30451 10.4594 4.64694 10.0616 4.64694C9.6352 4.64694 9.31796 4.3057 9.28696 3.89648H7.90262C6.85866 3.89648 6.00517 4.73132 6 5.75753V5.76151V7.74171H7.58074V5.76438C7.58222 5.61398 7.73533 5.47727 7.90262 5.47727H7.92227V11.4709H12.1258L12.1184 5.47727H12.1457C12.3113 5.47727 12.4629 5.61381 12.4646 5.76413V7.74171H14.0453V5.76151C14.0453 5.76015 14.0453 5.75884 14.0453 5.75753Z" fill="#E64937"/>
</svg>
