<svg width="20" height="20" viewBox="0 0 20 20" fill="none" xmlns="http://www.w3.org/2000/svg">
<g clip-path="url(#clip0)">
<path d="M16.7951 13.3115L18.2652 13.3027C18.5454 13.3011 18.774 13.5269 18.7757 13.8071L18.7931 16.7262C18.7948 17.0065 18.569 17.235 18.2887 17.2367L16.8186 17.2455C16.5384 17.2471 16.3098 17.0214 16.3081 16.7411L16.2907 13.822C16.289 13.5417 16.5148 13.3132 16.7951 13.3115Z" fill="#2F4859"/>
<path d="M1.83501 13.4014L3.30513 13.3926C3.58534 13.3909 3.81388 13.6167 3.81559 13.897L3.83295 16.8161C3.8346 17.0964 3.60882 17.3249 3.32856 17.3266L1.85844 17.3354C1.57823 17.337 1.34969 17.1113 1.34798 16.831L1.33058 13.9119C1.32892 13.6316 1.55475 13.4031 1.83501 13.4014Z" fill="#2F4859"/>
<path d="M18.4663 6.20222C18.3435 6.21381 18.2501 6.3176 18.2514 6.4409C18.2816 6.68158 18.1274 6.90696 17.8921 6.96595L17.5264 6.96821L17.7142 7.51634C17.7142 7.51634 20.0689 7.5022 19.9984 6.72878C19.9438 6.12853 18.9218 6.15853 18.4663 6.20222Z" fill="#2F4859"/>
<path d="M1.53372 6.20222C1.65652 6.21381 1.74992 6.3176 1.74862 6.4409C1.71837 6.68158 1.87262 6.90696 2.10788 6.96595L2.47362 6.96821L2.28581 7.51634C2.28581 7.51634 -0.0688796 7.5022 0.00154896 6.72878C0.0561261 6.12853 1.07814 6.15853 1.53372 6.20222Z" fill="#2F4859"/>
<path d="M19.4736 10.7956C19.4296 10.2204 19.2634 9.66121 18.9858 9.15547L17.9933 7.33521C17.9933 7.33521 16.2309 3.36272 15.4966 3.0466C14.7867 2.74091 10.2555 2.67218 9.95525 2.66797H9.93865C9.63842 2.67589 5.10837 2.79874 4.40223 3.11286C3.67176 3.43767 1.95594 7.43022 1.95594 7.43022L0.986047 9.26237C0.714716 9.77137 0.555098 10.3323 0.517827 10.908C0.449606 12.1794 0.586601 13.4536 0.923494 14.6815C1.08221 15.2605 1.61108 15.66 2.21152 15.6544L10.0158 15.6092H10.0324L17.8367 15.5628C18.437 15.5612 18.961 15.1554 19.1128 14.5745C19.4354 13.3425 19.5572 12.0664 19.4736 10.7956Z" fill="#FE7058"/>
<path d="M6.20425 13.1567L13.8094 13.1113C13.9455 13.1105 14.0564 13.2202 14.0572 13.3562L14.0649 14.6512C14.0657 14.7873 13.9561 14.8982 13.82 14.899L6.21493 14.9444C6.07884 14.9452 5.96788 14.8356 5.96708 14.6995L5.95935 13.4046C5.95855 13.2685 6.06821 13.1575 6.20425 13.1567Z" fill="#3A556A"/>
<path d="M15.6391 3.64578C15.5597 3.47287 15.3885 3.36056 15.1982 3.3567L9.99798 3.25H9.98162L4.7829 3.41875C4.59284 3.42497 4.42298 3.53924 4.34568 3.713L2.85394 7.06839L10.0036 7.0257H10.02L17.1707 6.98301L15.6391 3.64578Z" fill="#2F4859"/>
<path d="M17.3318 12.8926C16.8306 12.8955 16.4265 13.3042 16.4295 13.8055C16.4324 14.3067 16.841 14.7107 17.3423 14.7078C17.8436 14.7049 18.2476 14.2962 18.2447 13.795C18.2447 13.7948 18.2447 13.7947 18.2447 13.7945C18.2415 13.2934 17.8329 12.8897 17.3318 12.8926Z" fill="#EBF0F3"/>
<path d="M2.75749 12.9785C2.25621 12.9815 1.8523 13.3904 1.85536 13.8916C1.85837 14.3929 2.2672 14.7968 2.76848 14.7938C3.26975 14.7908 3.67361 14.3819 3.6706 13.8807C3.66754 13.3794 3.25877 12.9755 2.75749 12.9785Z" fill="#EBF0F3"/>
<path d="M6.60193 10.8535H13.2214V11.6798H6.60193V10.8535Z" fill="#3A556A"/>
<path d="M18.6055 9.55492C18.5836 9.36154 18.4091 9.22254 18.2157 9.24446C18.2007 9.24617 18.1857 9.24883 18.171 9.25249L15.1439 9.99264C15.053 10.015 14.9747 10.0725 14.9263 10.1527L14.3266 11.1452C14.2262 11.3115 14.2795 11.5278 14.4459 11.6282C14.5007 11.6614 14.5637 11.6789 14.6278 11.6789H17.5854C17.6546 11.6794 17.7223 11.6596 17.7804 11.6221C18.4781 11.16 18.6965 10.4402 18.6055 9.55492Z" fill="#E1E6E9"/>
<path d="M17.1708 9.83649C16.8048 9.85144 16.5202 10.1603 16.5352 10.5263C16.5502 10.8923 16.859 11.1769 17.225 11.1619C17.591 11.1469 17.8755 10.8382 17.8606 10.4722C17.8455 10.1062 17.5368 9.82164 17.1708 9.83649Z" fill="#BDBEC1"/>
<path d="M15.7657 10.4692C15.4873 10.4804 15.2707 10.7151 15.2819 10.9935C15.2931 11.2718 15.5279 11.4884 15.8062 11.4772C16.0846 11.466 16.3012 11.2313 16.29 10.9529C16.29 10.9528 16.29 10.9527 16.29 10.9525C16.2786 10.6743 16.0439 10.458 15.7657 10.4692Z" fill="#BDBEC1"/>
<path d="M1.39452 9.55492C1.4164 9.36154 1.59091 9.22254 1.78424 9.24446C1.79929 9.24617 1.81424 9.24883 1.82898 9.25249L4.85611 9.99264C4.94701 10.015 5.02531 10.0725 5.07372 10.1527L5.67342 11.1452C5.77384 11.3115 5.72047 11.5278 5.55413 11.6282C5.49925 11.6614 5.43635 11.6789 5.37224 11.6789H2.41459C2.34541 11.6794 2.27764 11.6596 2.21955 11.6221C1.52179 11.16 1.30348 10.4402 1.39452 9.55492Z" fill="#E1E6E9"/>
<path d="M2.82919 9.83649C3.19518 9.85144 3.47975 10.1603 3.46475 10.5263C3.44981 10.8923 3.14095 11.1769 2.77497 11.1619C2.40903 11.1469 2.12445 10.8382 2.13935 10.4722C2.15445 10.1062 2.4632 9.82164 2.82919 9.83649Z" fill="#BDBEC1"/>
<path d="M4.23431 10.4692C4.51267 10.4804 4.72927 10.7151 4.71808 10.9935C4.7069 11.2718 4.47213 11.4884 4.19378 11.4772C3.91543 11.466 3.69882 11.2313 3.71001 10.9529C3.71001 10.9528 3.71001 10.9527 3.71001 10.9525C3.7214 10.6743 3.95606 10.458 4.23431 10.4692Z" fill="#BDBEC1"/>
</g>
<defs>
<clipPath id="clip0">
<rect width="20" height="20" fill="white"/>
</clipPath>
</defs>
</svg>
