<svg width="20" height="20" viewBox="0 0 20 20" fill="none" xmlns="http://www.w3.org/2000/svg">
<path d="M16.9172 9.95117H3.07812V15.427C3.07815 15.768 3.21363 16.0951 3.45479 16.3362C3.69595 16.5774 4.02302 16.7129 4.36406 16.7129H15.6359C15.977 16.7129 16.3041 16.5774 16.5452 16.3362C16.7864 16.0951 16.9219 15.768 16.9219 15.427V9.95117H16.9172Z" fill="#FCCA3D"/>
<path d="M9.98594 4.13516V9.95039H9.96602H3.07812V4.08008H3.08867H9.98594V4.13516Z" fill="#B3D1E7"/>
<path d="M16.9219 4.08008V9.95039H16.9172H9.9859V4.13516V4.08008H16.9113H16.9219Z" fill="#A2C6DD"/>
<path d="M15.6359 1.78711H4.36406C4.19521 1.78707 4.02801 1.8203 3.872 1.88489C3.716 1.94947 3.57424 2.04416 3.45483 2.16353C3.33541 2.28291 3.24068 2.42464 3.17605 2.58063C3.11142 2.73662 3.07814 2.90381 3.07812 3.07266V4.08008H16.9219V3.07266C16.9219 2.90381 16.8886 2.73662 16.8239 2.58063C16.7593 2.42464 16.6646 2.28291 16.5452 2.16353C16.4258 2.04416 16.284 1.94947 16.128 1.88489C15.972 1.8203 15.8048 1.78707 15.6359 1.78711Z" fill="#FCCA3D"/>
<path d="M6.20703 1.10156H13.793V2.81601H6.20703V1.10156Z" fill="#6D7486"/>
<path d="M6.73669 13.5762H13.2632V14.3867H6.73669V13.5762Z" fill="#FF5576"/>
<path d="M6.73669 12.7754H13.2632V13.5762H6.73669V12.7754Z" fill="#70C2FF"/>
<path d="M6.73669 11.9648H13.2632V12.7754H6.73669V11.9648Z" fill="#FF5576"/>
<path d="M15.4004 16.7129V18.5129C15.4005 18.5636 15.3905 18.6138 15.3711 18.6606C15.3517 18.7074 15.3233 18.75 15.2875 18.7858C15.2516 18.8217 15.2091 18.8501 15.1622 18.8695C15.1154 18.8889 15.0652 18.8988 15.0145 18.8988H13.709C13.6584 18.8988 13.6082 18.8888 13.5614 18.8694C13.5146 18.85 13.4721 18.8216 13.4363 18.7857C13.4005 18.7499 13.3721 18.7073 13.3528 18.6605C13.3334 18.6137 13.3235 18.5636 13.3235 18.5129V16.7129H15.4004Z" fill="#6D7486"/>
<path d="M6.5695 16.7129V18.5129C6.56952 18.5636 6.55956 18.6138 6.54017 18.6606C6.52078 18.7074 6.49235 18.75 6.45651 18.7858C6.42067 18.8217 6.37812 18.8501 6.33128 18.8695C6.28445 18.8889 6.23425 18.8988 6.18357 18.8988H4.8781C4.82744 18.8988 4.77728 18.8888 4.73049 18.8694C4.68369 18.85 4.64118 18.8216 4.60537 18.7857C4.56957 18.7499 4.54118 18.7073 4.52182 18.6605C4.50246 18.6137 4.49252 18.5636 4.49255 18.5129V16.7129H6.5695Z" fill="#6D7486"/>
<path d="M3.08867 4.08008H3.07812V9.95039H4.25V4.08008H3.08867Z" fill="#9FBBCC"/>
<path d="M4.25 15.427V9.95117H3.07812V15.427C3.07815 15.768 3.21363 16.0951 3.45479 16.3362C3.69595 16.5774 4.02302 16.7129 4.36406 16.7129H5.53594C5.19489 16.7129 4.86782 16.5774 4.62666 16.3362C4.38551 16.0951 4.25002 15.768 4.25 15.427Z" fill="#D8AA39"/>
<path d="M5.53594 1.78711H4.36406C4.19521 1.78707 4.02801 1.8203 3.872 1.88489C3.716 1.94947 3.57424 2.04416 3.45483 2.16353C3.33541 2.28291 3.24068 2.42464 3.17605 2.58063C3.11142 2.73662 3.07814 2.90381 3.07812 3.07266V4.08008H4.25V3.07266C4.25002 2.90381 4.28329 2.73662 4.34792 2.58063C4.41256 2.42464 4.50729 2.28291 4.6267 2.16353C4.74611 2.04416 4.88787 1.94947 5.04388 1.88489C5.19989 1.8203 5.36709 1.78707 5.53594 1.78711Z" fill="#D8AA39"/>
<path d="M15.0043 12.5801C15.1648 12.58 15.3217 12.6276 15.4552 12.7167C15.5887 12.8059 15.6927 12.9326 15.7542 13.0809C15.8156 13.2291 15.8318 13.3923 15.8005 13.5497C15.7692 13.7072 15.6919 13.8518 15.5785 13.9653C15.465 14.0788 15.3204 14.1561 15.163 14.1875C15.0056 14.2188 14.8424 14.2028 14.6941 14.1414C14.5458 14.08 14.4191 13.9761 14.3299 13.8426C14.2407 13.7092 14.193 13.5523 14.193 13.3918C14.193 13.2852 14.2139 13.1797 14.2547 13.0812C14.2955 12.9828 14.3552 12.8933 14.4305 12.8179C14.5059 12.7425 14.5953 12.6827 14.6938 12.6419C14.7922 12.6011 14.8977 12.5801 15.0043 12.5801Z" fill="#ED8115"/>
<path d="M4.99574 12.5801C5.15623 12.5801 5.3131 12.6277 5.44652 12.7169C5.57995 12.8061 5.68393 12.9329 5.74533 13.0811C5.80673 13.2294 5.82278 13.3926 5.79146 13.55C5.76014 13.7074 5.68286 13.8519 5.56938 13.9654C5.45589 14.0789 5.31131 14.1562 5.15391 14.1875C4.99651 14.2188 4.83336 14.2028 4.68508 14.1414C4.5368 14.08 4.41005 13.976 4.32087 13.8426C4.23168 13.7092 4.18406 13.5523 4.18402 13.3918C4.18399 13.2852 4.20496 13.1796 4.24574 13.0811C4.28652 12.9826 4.34631 12.8931 4.42169 12.8177C4.49707 12.7424 4.58657 12.6826 4.68506 12.6418C4.78356 12.601 4.88913 12.58 4.99574 12.5801Z" fill="#ED8115"/>
<path d="M1.6261 4.79723H1.15735V4.31641C1.15735 3.91547 1.58852 3.60156 2.13891 3.60156H3.05012V4.07031H2.13891C1.83063 4.07031 1.6261 4.21855 1.6261 4.31641V4.79723Z" fill="#B0B5CA"/>
<path d="M18.8427 4.79723H18.3739V4.31641C18.3739 4.21836 18.1694 4.07031 17.8611 4.07031H16.9499V3.60156H17.8611C18.4115 3.60156 18.8427 3.91566 18.8427 4.31641V4.79723Z" fill="#B0B5CA"/>
<path d="M3.9453 5.8883C3.89895 5.8883 3.85364 5.87455 3.8151 5.8488C3.77656 5.82305 3.74652 5.78645 3.72878 5.74363C3.71104 5.70081 3.7064 5.65369 3.71544 5.60823C3.72447 5.56277 3.74679 5.52101 3.77956 5.48823L4.29085 4.97686C4.31261 4.9551 4.33845 4.93783 4.36688 4.92605C4.39532 4.91427 4.4258 4.9082 4.45658 4.9082C4.48735 4.9082 4.51783 4.91426 4.54627 4.92604C4.57471 4.93782 4.60055 4.95508 4.62231 4.97684C4.64408 4.9986 4.66134 5.02444 4.67312 5.05288C4.6849 5.08131 4.69097 5.11179 4.69097 5.14257C4.69097 5.17335 4.68491 5.20383 4.67313 5.23226C4.66136 5.2607 4.64409 5.28654 4.62233 5.3083L4.11104 5.81959C4.0893 5.8414 4.06347 5.85869 4.03503 5.87048C4.00658 5.88227 3.97609 5.88833 3.9453 5.8883Z" fill="#8FA9B7"/>
<path d="M4.02347 6.75783C3.97711 6.75783 3.93179 6.74409 3.89324 6.71834C3.85469 6.69259 3.82465 6.65598 3.80691 6.61315C3.78916 6.57032 3.78452 6.52319 3.79357 6.47772C3.80261 6.43225 3.82494 6.39049 3.85772 6.35771L5.3421 4.87334C5.36387 4.85157 5.38971 4.83431 5.41814 4.82253C5.44658 4.81075 5.47706 4.80469 5.50784 4.80469C5.53863 4.80469 5.56911 4.81075 5.59754 4.82253C5.62598 4.83431 5.65182 4.85157 5.67359 4.87334C5.69535 4.89511 5.71262 4.92095 5.7244 4.94938C5.73618 4.97782 5.74224 5.0083 5.74224 5.03908C5.74224 5.06986 5.73618 5.10034 5.7244 5.12878C5.71262 5.15722 5.69535 5.18306 5.67359 5.20482L4.18921 6.6892C4.16746 6.71099 4.14163 6.72827 4.11318 6.74004C4.08474 6.75182 4.05425 6.75787 4.02347 6.75783Z" fill="#8FA9B7"/>
<path d="M15.9288 8.68609C15.8666 8.68609 15.807 8.6614 15.763 8.61745C15.7191 8.57349 15.6944 8.51388 15.6944 8.45172V6.08398C15.6944 6.02182 15.7191 5.96221 15.763 5.91826C15.807 5.8743 15.8666 5.84961 15.9288 5.84961C15.9909 5.84961 16.0505 5.8743 16.0945 5.91826C16.1385 5.96221 16.1631 6.02182 16.1631 6.08398V8.45172C16.1631 8.51388 16.1385 8.57349 16.0945 8.61745C16.0505 8.6614 15.9909 8.68609 15.9288 8.68609Z" fill="#F4F8FC"/>
<path d="M15.9288 5.44391C15.8666 5.44391 15.807 5.41921 15.763 5.37526C15.7191 5.33131 15.6944 5.27169 15.6944 5.20953V4.99023C15.6944 4.92807 15.7191 4.86846 15.763 4.82451C15.807 4.78055 15.8666 4.75586 15.9288 4.75586C15.9909 4.75586 16.0505 4.78055 16.0945 4.82451C16.1385 4.86846 16.1631 4.92807 16.1631 4.99023V5.20953C16.1631 5.27169 16.1385 5.33131 16.0945 5.37526C16.0505 5.41921 15.9909 5.44391 15.9288 5.44391Z" fill="#F4F8FC"/>
<path d="M19.1254 4.75781H17.9926C17.9701 4.75781 17.9478 4.76224 17.927 4.77086C17.9062 4.77947 17.8872 4.7921 17.8713 4.80803C17.8554 4.82395 17.8428 4.84286 17.8341 4.86367C17.8255 4.88447 17.8211 4.90678 17.8211 4.9293V6.91211C17.8211 6.93463 17.8255 6.95693 17.8341 6.97774C17.8428 6.99854 17.8554 7.01745 17.8713 7.03338C17.8872 7.0493 17.9062 7.06193 17.927 7.07055C17.9478 7.07916 17.9701 7.0836 17.9926 7.08359H19.1254C19.1479 7.08363 19.1703 7.07922 19.1911 7.07061C19.2119 7.06201 19.2308 7.04938 19.2467 7.03344C19.2627 7.01751 19.2753 6.99859 19.2839 6.97777C19.2925 6.95695 19.2969 6.93464 19.2969 6.91211V4.9293C19.2969 4.90677 19.2925 4.88445 19.2839 4.86363C19.2753 4.84281 19.2627 4.82389 19.2467 4.80796C19.2308 4.79203 19.2119 4.7794 19.1911 4.77079C19.1703 4.76219 19.1479 4.75778 19.1254 4.75781Z" fill="#6D7486"/>
<path d="M2.00742 4.75781H0.87461C0.85208 4.75778 0.829764 4.76219 0.808943 4.77079C0.788121 4.7794 0.769202 4.79203 0.753272 4.80796C0.737341 4.82389 0.72471 4.84281 0.716105 4.86363C0.7075 4.88445 0.703089 4.90677 0.703125 4.9293V6.91211C0.703089 6.93464 0.7075 6.95695 0.716105 6.97777C0.72471 6.99859 0.737341 7.01751 0.753272 7.03344C0.769202 7.04938 0.788121 7.06201 0.808943 7.07061C0.829764 7.07922 0.85208 7.08363 0.87461 7.08359H2.00742C2.02994 7.0836 2.05224 7.07916 2.07305 7.07055C2.09386 7.06193 2.11277 7.0493 2.12869 7.03338C2.14462 7.01745 2.15725 6.99854 2.16586 6.97774C2.17448 6.95693 2.17891 6.93463 2.17891 6.91211V4.9293C2.17891 4.90678 2.17448 4.88447 2.16586 4.86367C2.15725 4.84286 2.14462 4.82395 2.12869 4.80803C2.11277 4.7921 2.09386 4.77947 2.07305 4.77086C2.05224 4.76224 2.02994 4.75781 2.00742 4.75781Z" fill="#6D7486"/>
</svg>
