<svg width="24" height="24" viewBox="0 0 24 24" fill="none" xmlns="http://www.w3.org/2000/svg">
<path d="M19.2037 9.875C16.5547 9.875 14.4073 12.0224 14.4073 14.6713C14.4073 17.3202 16.5547 19.4676 19.2037 19.4676C21.8526 19.4676 24 17.3202 24 14.6713C24 12.0223 21.8526 9.875 19.2037 9.875ZM19.2037 18.2514C17.2265 18.2514 15.6236 16.6486 15.6236 14.6713C15.6236 12.6942 17.2265 11.0913 19.2037 11.0913C21.1809 11.0913 22.7838 12.6942 22.7838 14.6713C22.7838 16.6485 21.1809 18.2514 19.2037 18.2514Z" fill="#365E7D"/>
<path d="M16.2624 16.7115C15.8601 16.1326 15.6236 15.4297 15.6236 14.6713C15.6236 13.913 15.8601 13.2101 16.2624 12.6312C16.9341 11.2044 18.288 10.1624 19.9039 9.92605C19.6753 9.89263 19.4416 9.875 19.2037 9.875C16.5547 9.875 14.4073 12.0224 14.4073 14.6713C14.4073 17.3202 16.5547 19.4676 19.2037 19.4676C19.4416 19.4676 19.6753 19.4501 19.9039 19.4166C18.2881 19.1802 16.9341 18.1383 16.2624 16.7115Z" fill="#294B64"/>
<path d="M4.79634 9.875C2.14739 9.875 0 12.0224 0 14.6713C0 17.3203 2.14739 19.4677 4.79634 19.4677C7.44525 19.4677 9.59264 17.3203 9.59264 14.6713C9.59264 12.0224 7.44525 9.875 4.79634 9.875ZM4.79634 18.2514C2.81911 18.2514 1.21627 16.6486 1.21627 14.6713C1.21627 12.6942 2.81911 11.0913 4.79634 11.0913C6.77353 11.0913 8.37642 12.6942 8.37642 14.6713C8.37642 16.6485 6.77353 18.2514 4.79634 18.2514Z" fill="#365E7D"/>
<path d="M1.85508 16.7115C1.45275 16.1326 1.21627 15.4297 1.21627 14.6713C1.21627 13.913 1.45275 13.2101 1.85508 12.6312C2.5267 11.2044 3.88069 10.1624 5.49656 9.92605C5.26795 9.89263 5.03423 9.875 4.79634 9.875C2.14739 9.875 0 12.0224 0 14.6713C0 17.3203 2.14739 19.4677 4.79634 19.4677C5.03419 19.4677 5.26795 19.4501 5.49656 19.4166C3.88073 19.1803 2.5267 18.1383 1.85508 16.7115Z" fill="#294B64"/>
<path d="M19.2036 18.615C17.0299 18.615 15.2614 16.8465 15.2614 14.6727C15.2614 12.499 17.0299 10.7305 19.2036 10.7305C21.3774 10.7305 23.1459 12.499 23.1459 14.6727C23.1459 16.8465 21.3774 18.615 19.2036 18.615ZM19.2036 11.4548C17.4293 11.4548 15.9858 12.8984 15.9858 14.6727C15.9858 16.4471 17.4293 17.8906 19.2036 17.8906C20.978 17.8906 22.4216 16.4471 22.4216 14.6727C22.4215 12.8983 20.978 11.4548 19.2036 11.4548Z" fill="#DBEDFF"/>
<path d="M4.79635 18.615C2.62257 18.615 0.854065 16.8465 0.854065 14.6727C0.854065 12.499 2.62257 10.7305 4.79635 10.7305C6.97013 10.7305 8.73863 12.499 8.73863 14.6727C8.73858 16.8465 6.97013 18.615 4.79635 18.615ZM4.79635 11.4548C3.02199 11.4548 1.57842 12.8984 1.57842 14.6727C1.57842 16.4471 3.02199 17.8906 4.79635 17.8906C6.57071 17.8906 8.01427 16.4471 8.01427 14.6727C8.01427 12.8983 6.57071 11.4548 4.79635 11.4548Z" fill="#DBEDFF"/>
<path d="M18.8207 6.404H15.9809C15.7809 6.404 15.6187 6.24186 15.6187 6.04185C15.6187 5.84183 15.7809 5.67969 15.9809 5.67969H18.8207C19.0207 5.67969 19.1829 5.84183 19.1829 6.04185C19.1829 6.24186 19.0208 6.404 18.8207 6.404Z" fill="#DBEDFF"/>
<path d="M19.4629 8.83155H19.0221C18.6937 8.83155 18.4274 8.5653 18.4274 8.23685C18.4274 7.90839 18.6937 7.64214 19.0221 7.64214H19.4629C19.7402 7.64214 19.9657 7.41663 19.9657 7.13941C19.9657 6.86219 19.7402 6.63667 19.4629 6.63667C19.1345 6.63667 18.8682 6.37042 18.8682 6.04197C18.8682 5.71352 19.1345 5.44727 19.4629 5.44727C20.396 5.44727 21.1551 6.20636 21.1551 7.13941C21.1551 8.07245 20.396 8.83155 19.4629 8.83155Z" fill="#477B9E"/>
<path d="M19.463 8.11919H19.0222C18.8275 8.11919 18.6553 8.0252 18.5467 7.88064C18.4722 7.97997 18.4275 8.10302 18.4275 8.2368C18.4275 8.56525 18.6937 8.8315 19.0222 8.8315H19.463C20.3961 8.8315 21.1552 8.07241 21.1552 7.13936C21.1552 7.0172 21.1419 6.89809 21.1172 6.7832C20.9531 7.54577 20.2739 8.11919 19.463 8.11919Z" fill="#365E7D"/>
<path d="M19.3012 13.8975L16.3202 5.91519C16.2503 5.72783 16.0417 5.63277 15.8542 5.70262C15.6669 5.7726 15.5717 5.98124 15.6416 6.16865L16.009 7.15227H8.62282L8.27632 6.22448C8.20638 6.03716 7.99783 5.94205 7.81033 6.0119C7.62292 6.08188 7.52777 6.29052 7.59775 6.47793L7.97707 7.49357L4.68607 14.0818C4.60985 14.2344 4.65171 14.4147 4.77644 14.52C4.75511 14.5661 4.74292 14.6173 4.74292 14.6715C4.74292 14.8715 4.90507 15.0336 5.10508 15.0336H10.0297C10.2297 15.0336 10.3918 14.8715 10.3918 14.6715C10.3918 14.4714 10.2297 14.3093 10.0297 14.3093H5.38211L8.32347 8.42104L10.3343 13.8053C10.3886 13.951 10.5268 14.0409 10.6736 14.0409C10.7157 14.0409 10.7585 14.0335 10.8003 14.0179C10.9876 13.9479 11.0828 13.7393 11.0128 13.5519L8.89333 7.87658H16.2795L16.3704 8.1201L11.429 13.5932C11.295 13.7417 11.3067 13.9707 11.4551 14.1048C11.5244 14.1673 11.6112 14.1981 11.6977 14.1981C11.7966 14.1981 11.8952 14.1579 11.9666 14.0787L16.656 8.88482L18.6226 14.1509C18.677 14.2966 18.8151 14.3865 18.9619 14.3865C19.004 14.3865 19.0468 14.3791 19.0886 14.3635C19.276 14.2935 19.3712 14.0849 19.3012 13.8975Z" fill="#F87C68"/>
<path d="M19.2036 13.9805C18.8221 13.9805 18.5128 14.2898 18.5128 14.6714C18.5128 15.0529 18.8221 15.3623 19.2036 15.3623C19.5852 15.3623 19.8945 15.0529 19.8945 14.6714C19.8945 14.2898 19.5852 13.9805 19.2036 13.9805Z" fill="#365E7D"/>
<path d="M4.79636 13.9805C4.4148 13.9805 4.10547 14.2898 4.10547 14.6714C4.10547 15.0529 4.4148 15.3623 4.79636 15.3623C5.17792 15.3623 5.48725 15.0529 5.48725 14.6714C5.48725 14.2898 5.17792 13.9805 4.79636 13.9805Z" fill="#365E7D"/>
<path d="M19.2037 14.6714C19.2037 14.4158 19.3428 14.1932 19.5491 14.0737C19.4474 14.0147 19.3297 13.9805 19.2037 13.9805C18.8221 13.9805 18.5128 14.2898 18.5128 14.6714C18.5128 15.0529 18.8221 15.3623 19.2037 15.3623C19.3297 15.3623 19.4474 15.328 19.5491 15.2691C19.3428 15.1495 19.2037 14.9269 19.2037 14.6714Z" fill="#294B64"/>
<path d="M4.79635 14.6714C4.79635 14.4158 4.93547 14.1932 5.14177 14.0737C5.04005 14.0147 4.9223 13.9805 4.7963 13.9805C4.41474 13.9805 4.10541 14.2898 4.10541 14.6714C4.10541 15.0529 4.41474 15.3623 4.7963 15.3623C4.9223 15.3623 5.04005 15.328 5.14177 15.2691C4.93547 15.1495 4.79635 14.9269 4.79635 14.6714Z" fill="#294B64"/>
<path d="M10.9744 13.291C10.2113 13.291 9.59265 13.9096 9.59265 14.6728C9.59265 15.4359 10.2113 16.0546 10.9744 16.0546C11.7376 16.0546 12.3562 15.4359 12.3562 14.6728C12.3562 13.9096 11.7376 13.291 10.9744 13.291Z" fill="#F4DD45"/>
<path d="M10.8153 14.6708C10.8153 14.1273 11.1294 13.6572 11.5858 13.4316C11.4014 13.3405 11.194 13.2891 10.9744 13.2891C10.2113 13.2891 9.59265 13.9077 9.59265 14.6708C9.59265 15.434 10.2113 16.0526 10.9744 16.0526C11.194 16.0526 11.4014 16.0012 11.5858 15.9101C11.1294 15.6845 10.8153 15.2144 10.8153 14.6708Z" fill="#FCC101"/>
<path d="M10.9744 17.7935C10.7744 17.7935 10.6122 17.6314 10.6122 17.4314V14.6708C10.6122 14.4707 10.7744 14.3086 10.9744 14.3086C11.1744 14.3086 11.3366 14.4707 11.3366 14.6708V17.4314C11.3366 17.6314 11.1744 17.7935 10.9744 17.7935Z" fill="#365E7D"/>
<path d="M11.6538 17.8415H10.295C10.0949 17.8415 9.9328 17.6794 9.9328 17.4793C9.9328 17.2793 10.0949 17.1172 10.295 17.1172H11.6538C11.8538 17.1172 12.016 17.2793 12.016 17.4793C12.016 17.6794 11.8538 17.8415 11.6538 17.8415Z" fill="#477B9E"/>
<path d="M10.7975 5.30544C10.6067 4.8373 10.1515 4.53125 9.64601 4.53125H5.93567C5.64008 4.53125 5.40045 4.77088 5.40045 5.06647C5.40045 5.76496 5.9667 6.33121 6.66519 6.33121H7.83786C8.08587 6.33121 8.31481 6.19799 8.43734 5.98232C8.55987 5.76669 8.78881 5.63342 9.03683 5.63342H10.5769C10.7461 5.63347 10.8613 5.4621 10.7975 5.30544Z" fill="#477B9E"/>
<path d="M6.69219 5.06647C6.69219 4.77087 6.93181 4.53125 7.22741 4.53125H5.93567C5.64008 4.53125 5.40045 4.77087 5.40045 5.06647C5.40045 5.76495 5.9667 6.3312 6.66519 6.3312H7.83786C7.85469 6.3312 7.87138 6.33045 7.88797 6.32928C7.2216 6.29342 6.69219 5.7418 6.69219 5.06647Z" fill="#365E7D"/>
</svg>
