<svg width="20" height="20" viewBox="0 0 20 20" fill="none" xmlns="http://www.w3.org/2000/svg">
<path d="M17.0968 1.7757H13.871C12.7016 2.23941 12.4424 1.45312 10 1.45312C7.55764 1.45312 7.29842 2.23941 6.12904 1.7757H2.90326L2.47314 9.88059C2.74197 13.0661 4.71775 14.7999 6.27693 15.4316H13.7231C15.2823 14.7999 17.2581 13.0661 17.5269 9.88059L17.0968 1.7757Z" fill="#F5DCB4"/>
<path d="M13.871 1.77406C17.503 2.86121 15.5258 8.46762 17.8644 10.891C18.2002 11.2389 18.7934 11.0844 18.9335 10.6217C19.1187 10.0103 19.3036 9.04312 19.2742 7.66117C19.2339 5.76602 20 5.64508 20 5.64508C20 5.64508 19.0323 1.12891 16.129 1.12891C15.1613 1.12891 13.871 1.77406 13.871 1.77406Z" fill="#965A50"/>
<path d="M6.61291 10.161C5.99193 10.161 5.48389 9.65297 5.48389 9.03199V8.38684C5.48389 7.76586 5.99193 7.25781 6.61291 7.25781C7.23389 7.25781 7.74193 7.76586 7.74193 8.38684V9.03199C7.74197 9.65301 7.23389 10.161 6.61291 10.161Z" fill="#4B3F4E"/>
<path d="M6.61289 7.25781C6.55769 7.25781 6.50472 7.26645 6.4516 7.27418V8.8707C6.4516 9.22699 6.74047 9.51586 7.09676 9.51586C7.45308 9.51586 7.74191 9.22699 7.74191 8.8707V8.38688C7.74195 7.76594 7.23386 7.25781 6.61289 7.25781Z" fill="#5D5360"/>
<path d="M6.6129 8.54781C6.88013 8.54781 7.09676 8.33118 7.09676 8.06395C7.09676 7.79671 6.88013 7.58008 6.6129 7.58008C6.34566 7.58008 6.12903 7.79671 6.12903 8.06395C6.12903 8.33118 6.34566 8.54781 6.6129 8.54781Z" fill="white"/>
<path d="M13.3871 10.161C12.7661 10.161 12.2581 9.65297 12.2581 9.03199V8.38684C12.2581 7.76586 12.7661 7.25781 13.3871 7.25781C14.0081 7.25781 14.5161 7.76586 14.5161 8.38684V9.03199C14.5161 9.65301 14.008 10.161 13.3871 10.161Z" fill="#4B3F4E"/>
<path d="M13.3871 7.25781C13.3319 7.25781 13.279 7.26645 13.2258 7.27418V8.8707C13.2258 9.22699 13.5147 9.51586 13.871 9.51586C14.2273 9.51586 14.5161 9.22699 14.5161 8.8707V8.38688C14.5161 7.76594 14.0081 7.25781 13.3871 7.25781Z" fill="#5D5360"/>
<path d="M13.3871 8.54781C13.6544 8.54781 13.871 8.33118 13.871 8.06395C13.871 7.79671 13.6544 7.58008 13.3871 7.58008C13.1199 7.58008 12.9033 7.79671 12.9033 8.06395C12.9033 8.33118 13.1199 8.54781 13.3871 8.54781Z" fill="white"/>
<path d="M17.8644 10.8907C18.2002 11.2386 18.7934 11.0841 18.9335 10.6213C19.0397 10.2707 19.1444 9.79867 19.2101 9.20285C18.5759 8.88676 18.0346 7.87824 17.7016 6.16891C17.0968 3.06406 16.25 1.33019 13.871 1.77371C17.503 2.86086 15.5258 8.4673 17.8644 10.8907Z" fill="#824641"/>
<path d="M6.27693 15.4293H7.80588C7.80588 15.4293 5.12104 13.6283 4.67748 10.4428C3.81463 4.24578 5.45705 2.39168 6.87764 1.91855C6.6526 1.92617 6.41885 1.88832 6.12908 1.77344H2.90326L2.47314 9.87828C2.74197 13.0638 4.71775 14.7976 6.27693 15.4293Z" fill="#E7C9A5"/>
<path d="M6.12902 1.77406C2.49695 2.86121 4.47426 8.46766 2.13555 10.891C1.7998 11.2389 1.2066 11.0844 1.06648 10.6217C0.881328 10.0103 0.696406 9.04312 0.72582 7.66117C0.766133 5.76602 0 5.64508 0 5.64508C0 5.64508 0.967734 1.12891 3.87098 1.12891C4.83871 1.12891 6.12902 1.77406 6.12902 1.77406Z" fill="#965A50"/>
<path d="M6.02106 1.7227C5.69371 1.57082 4.67277 1.12891 3.87098 1.12891C0.967734 1.12891 0 5.64508 0 5.64508C0 5.64508 0.766133 5.76606 0.72582 7.66121C0.725273 7.68652 0.726016 7.7093 0.725625 7.73434C2.58191 0.691875 5.43434 1.47539 6.02106 1.7227Z" fill="#824641"/>
<path d="M9.99998 18.2254C11.9597 18.2254 13.5484 17.0701 13.5484 15.6449C13.5484 14.2198 11.9597 13.0645 9.99998 13.0645C8.04023 13.0645 6.45154 14.2198 6.45154 15.6449C6.45154 17.0701 8.04023 18.2254 9.99998 18.2254Z" fill="#BC8E78"/>
<path d="M8.38708 15.6445V17.2574C8.38708 18.1482 9.10919 18.8703 9.99997 18.8703C10.8907 18.8703 11.6129 18.1482 11.6129 17.2574V15.6445H8.38708Z" fill="#FF8087"/>
<path d="M8.38708 16.9044C8.85353 16.846 9.29364 16.7041 9.67739 16.4895V16.9349C9.67739 17.113 9.82184 17.2575 9.99997 17.2575C10.1781 17.2575 10.3225 17.113 10.3225 16.9349V16.4854C10.7026 16.7023 11.1439 16.8457 11.6129 16.9045V15.6445H8.38708V16.9044Z" fill="#E6646E"/>
<path d="M12.0967 12.7422H7.90322C6.56705 12.7422 5.48389 13.5365 5.48389 14.5164C5.48389 15.4962 6.56709 16.2905 7.90322 16.2905C8.57607 16.2905 9.18377 16.0886 9.62178 15.7633C9.73268 15.6809 9.86639 15.6398 9.99986 15.6398C10.1336 15.6398 10.2673 15.6809 10.3782 15.7633C10.8162 16.0886 11.4239 16.2905 12.0967 16.2905C13.4329 16.2905 14.5161 15.4962 14.5161 14.5164C14.5161 13.5365 13.4329 12.7422 12.0967 12.7422Z" fill="#D4AF91"/>
<path d="M9.99999 11.4531C11.0689 11.4531 11.9355 12.0308 11.9355 12.7434C11.9355 13.4307 11.122 13.7926 10.535 14.0602C10.1946 14.2153 9.80527 14.2153 9.46496 14.0602C8.87789 13.7926 8.06445 13.4307 8.06445 12.7434C8.06453 12.0309 8.93105 11.4531 9.99999 11.4531Z" fill="#5D5360"/>
<path d="M9.02217 12.3889C8.97705 11.983 9.26303 11.5488 9.26303 11.5488C8.55979 11.7421 8.06451 12.2032 8.06451 12.7418C8.06451 13.429 8.87795 13.7909 9.46502 14.0585C9.8053 14.2135 10.1947 14.2135 10.535 14.0585C10.6613 14.0009 10.798 13.9386 10.9348 13.87C10.1411 13.7297 9.11287 13.2055 9.02217 12.3889Z" fill="#4B3F4E"/>
</svg>
