<svg width="20" height="20" viewBox="0 0 20 20" fill="none" xmlns="http://www.w3.org/2000/svg">
<path d="M17.3585 0.146131C17.7815 -0.197541 18.4139 0.103474 18.4139 0.648435V9.3207L11.2944 5.11371L17.3585 0.146131Z" fill="#FFC850"/>
<path d="M17.7667 8.93745L13.4318 6.37596L17.0436 2.30405C17.2962 2.01936 17.7667 2.19795 17.7667 2.57854V8.93745Z" fill="#EBAF4B"/>
<path d="M2.64139 0.146131C2.21838 -0.197541 1.586 0.103474 1.586 0.648435V9.3207L8.70553 5.11371L2.64139 0.146131Z" fill="#FFC850"/>
<path d="M2.23322 8.93745L6.5681 6.37596L2.9563 2.30405C2.70376 2.01936 2.23322 2.19795 2.23322 2.57854V8.93745Z" fill="#EBAF4B"/>
<path d="M9.99999 19.9992C15.0044 19.9992 19.0613 16.1597 19.0613 11.4234C19.0613 6.68717 15.0044 2.84766 9.99999 2.84766C4.99555 2.84766 0.93866 6.68717 0.93866 11.4234C0.93866 16.1597 4.99555 19.9992 9.99999 19.9992Z" fill="#FFDC64"/>
<path d="M11.2944 16.7644V17.4116C11.2944 18.1266 10.7149 18.7061 9.99996 18.7061C9.28504 18.7061 8.70551 18.1266 8.70551 17.4116V16.7644L9.99996 16.1172L11.2944 16.7644Z" fill="#FF8087"/>
<path d="M10.7146 13.4316H9.28535C8.9768 13.4316 8.80594 13.7893 8.99993 14.0293L9.71457 14.9134C9.86145 15.0951 10.1385 15.0951 10.2854 14.9134L11 14.0293C11.194 13.7893 11.0232 13.4316 10.7146 13.4316Z" fill="#5D5360"/>
<path d="M18.7372 17.0871C18.687 17.0871 18.6359 17.0755 18.5882 17.0506C16.6315 16.0332 13.569 15.4286 13.5382 15.4226C13.3628 15.3885 13.2484 15.2185 13.2825 15.043C13.3168 14.8675 13.4851 14.7529 13.6621 14.7874C13.791 14.8125 16.8463 15.4153 18.8869 16.4764C19.0453 16.5589 19.1071 16.7542 19.0246 16.9128C18.967 17.0236 18.8542 17.0871 18.7372 17.0871Z" fill="#E1A546"/>
<path d="M19.385 14.8227C19.3571 14.8227 19.3289 14.819 19.3007 14.8115C17.4869 14.3238 14.1886 14.4164 14.1561 14.4178C13.9744 14.4231 13.828 14.2827 13.8228 14.1041C13.8175 13.9254 13.958 13.7763 14.1365 13.7709C14.2756 13.7665 17.5637 13.6742 19.4689 14.1863C19.6414 14.2328 19.7437 14.4102 19.6974 14.5829C19.6585 14.7274 19.5278 14.8225 19.385 14.8227Z" fill="#E1A546"/>
<path d="M12.2653 19.3524C7.26093 19.3524 3.20409 15.5129 3.20409 10.7766C3.20409 7.29867 5.39292 4.30652 8.53683 2.96094C4.22847 3.62313 0.938782 7.15918 0.938782 11.4238C0.938782 16.1601 4.99562 19.9996 9.99999 19.9996C11.3296 19.9996 12.5909 19.7264 13.7285 19.2395C13.252 19.3127 12.7636 19.3524 12.2653 19.3524Z" fill="#FFC850"/>
<path d="M1.26266 17.0873C1.14574 17.0873 1.03289 17.024 0.975235 16.913C0.892735 16.7544 0.954532 16.5591 1.11301 16.4766C3.15364 15.4155 6.20883 14.8127 6.33778 14.7876C6.51332 14.7523 6.68305 14.8679 6.71735 15.0432C6.75149 15.2186 6.63708 15.3887 6.46168 15.4228C6.43086 15.4288 3.36836 16.0334 1.41168 17.0509C1.36395 17.0757 1.31293 17.0873 1.26266 17.0873Z" fill="#E1A546"/>
<path d="M0.614962 14.8225C0.47211 14.8225 0.341446 14.7272 0.302579 14.5828C0.25629 14.4101 0.358517 14.2326 0.531056 14.1862C2.43641 13.6739 5.72406 13.7668 5.86344 13.7707C6.04199 13.7761 6.18246 13.9253 6.17711 14.104C6.17172 14.2825 6.01703 14.4241 5.84387 14.4176C5.8107 14.4165 2.51195 14.3236 0.69922 14.8113C0.671056 14.8189 0.642774 14.8225 0.614962 14.8225Z" fill="#E1A546"/>
<path d="M6.27835 12.5551C5.65538 12.5551 5.14569 12.0454 5.14569 11.4225V10.7752C5.14569 10.1523 5.65538 9.64258 6.27835 9.64258C6.90132 9.64258 7.41101 10.1523 7.41101 10.7752V11.4225C7.41101 12.0454 6.90132 12.5551 6.27835 12.5551Z" fill="#4B3F4E"/>
<path d="M6.27837 9.64258C6.22298 9.64258 6.16986 9.65121 6.11658 9.65902V11.2607C6.11658 11.6181 6.40634 11.9079 6.7638 11.9079C7.12126 11.9079 7.41103 11.6181 7.41103 11.2607V10.7752C7.41103 10.1523 6.9013 9.64258 6.27837 9.64258Z" fill="#5D5360"/>
<path d="M6.27846 10.9377C6.54655 10.9377 6.76389 10.7203 6.76389 10.4522C6.76389 10.1841 6.54655 9.9668 6.27846 9.9668C6.01036 9.9668 5.79303 10.1841 5.79303 10.4522C5.79303 10.7203 6.01036 10.9377 6.27846 10.9377Z" fill="white"/>
<path d="M13.7215 12.5551C13.0986 12.5551 12.5889 12.0454 12.5889 11.4225V10.7752C12.5889 10.1523 13.0986 9.64258 13.7215 9.64258C14.3445 9.64258 14.8542 10.1523 14.8542 10.7752V11.4225C14.8542 12.0454 14.3445 12.5551 13.7215 12.5551Z" fill="#4B3F4E"/>
<path d="M13.7216 9.64258C13.6662 9.64258 13.613 9.65121 13.5598 9.65902V11.2607C13.5598 11.6181 13.8495 11.9079 14.207 11.9079C14.5644 11.9079 14.8542 11.6181 14.8542 11.2607V10.7752C14.8542 10.1523 14.3445 9.64258 13.7216 9.64258Z" fill="#5D5360"/>
<path d="M13.7215 10.9377C13.9895 10.9377 14.2069 10.7203 14.2069 10.4522C14.2069 10.1841 13.9895 9.9668 13.7215 9.9668C13.4534 9.9668 13.236 10.1841 13.236 10.4522C13.236 10.7203 13.4534 10.9377 13.7215 10.9377Z" fill="white"/>
<path d="M10.2503 14.9273L9.53568 13.5127C9.52271 13.487 9.51545 13.4588 9.50564 13.4316H9.28537C8.97681 13.4316 8.80595 13.7893 8.9999 14.0293L9.71455 14.9134C9.85322 15.0849 10.1044 15.0886 10.2561 14.9364C10.2544 14.933 10.2521 14.9308 10.2503 14.9273Z" fill="#4B3F4E"/>
<path d="M9.99996 16.1172L8.70551 16.7644V17.4116C8.70551 17.5143 8.72047 17.613 8.74304 17.7087C9.06871 17.6684 9.38324 17.574 9.67633 17.4293V17.7352C9.67633 17.9139 9.82121 18.0589 9.99996 18.0589C10.1787 18.0589 10.3236 17.914 10.3236 17.7352V17.4294C10.6167 17.5741 10.9312 17.6684 11.2569 17.7087C11.2795 17.613 11.2944 17.5143 11.2944 17.4116V16.7644L9.99996 16.1172Z" fill="#E6646E"/>
<path d="M11.618 17.0881C11.1603 17.0881 10.7191 16.9521 10.3425 16.6947C10.1409 16.5569 9.85917 16.5569 9.65722 16.6947C9.28081 16.9521 8.83964 17.0881 8.38186 17.0881C7.82487 17.0881 7.28839 16.8821 6.87124 16.5081C6.73819 16.3886 6.72714 16.184 6.84644 16.0509C6.96573 15.9179 7.16991 15.9068 7.30358 16.0261C7.84698 16.5137 8.69745 16.567 9.29206 16.1602C9.71553 15.8711 10.2846 15.8711 10.7077 16.1602C11.3025 16.5668 12.1531 16.5134 12.6965 16.0263C12.8294 15.9071 13.0339 15.9179 13.1535 16.0512C13.2728 16.1843 13.2616 16.3889 13.1285 16.5082C12.7113 16.8822 12.175 17.0881 11.618 17.0881Z" fill="#EBAF4B"/>
</svg>
