<svg width="20" height="20" viewBox="0 0 20 20" fill="none" xmlns="http://www.w3.org/2000/svg">
<g clip-path="url(#clip0)">
<path d="M2.44455 0H17.5554C18.0412 0 18.4352 0.393911 18.4352 0.879793V14.1641C18.4352 14.65 18.0412 15.0439 17.5554 15.0439H2.44455C1.95867 15.0439 1.56476 14.65 1.56476 14.1641V0.879793C1.56476 0.393911 1.95867 0 2.44455 0V0Z" fill="#D5D6DB"/>
<path d="M2.91741 7.95423H2.49609V5.83784C2.49723 5.46347 2.80089 5.16051 3.17521 5.16016H16.7315C17.1054 5.16111 17.4082 5.46394 17.4092 5.83784V7.75093H16.9887V5.83784C16.9881 5.69619 16.8732 5.58165 16.7315 5.58153H3.17521C3.03302 5.58171 2.9177 5.69685 2.91741 5.83903V7.95423Z" fill="#3E6B82"/>
<path d="M16.7188 6.40234H17.6802C17.8639 6.40234 18.0129 6.55126 18.0129 6.73496V9.80185C18.0129 9.98555 17.8639 10.1345 17.6802 10.1345H16.7188C16.5351 10.1345 16.3862 9.98555 16.3862 9.80185V6.73502C16.3862 6.55126 16.5351 6.40234 16.7188 6.40234Z" fill="#3A556A"/>
<path d="M2.31931 6.40234H3.28071C3.46441 6.40234 3.61333 6.55126 3.61333 6.73496V9.80185C3.61333 9.98555 3.46441 10.1345 3.28071 10.1345H2.31931C2.13561 10.1345 1.98669 9.98555 1.98669 9.80185V6.73502C1.98669 6.55126 2.13561 6.40234 2.31931 6.40234Z" fill="#3A556A"/>
<path d="M14.794 14.9434H16.4997C16.7578 14.9434 16.967 15.1526 16.967 15.4107V19.5326C16.9668 19.7906 16.7576 19.9995 16.4997 19.9993H14.7937C14.5358 19.9993 14.3267 19.7903 14.3267 19.5323V15.4104C14.3267 15.1524 14.5358 14.9434 14.7937 14.9434H14.794Z" fill="#2F4859"/>
<path d="M3.50019 14.9434H5.20617C5.46409 14.9434 5.67317 15.1524 5.67317 15.4104V19.5323C5.67317 19.7903 5.46409 19.9993 5.20617 19.9993H3.50019C3.24209 19.9993 3.0329 19.7901 3.0329 19.532V15.4104C3.0329 15.1524 3.24198 14.9434 3.4999 14.9434H3.50019Z" fill="#2F4859"/>
<path d="M15.094 3.1978C11.7375 2.46532 8.26251 2.46532 4.90596 3.1978C4.49978 3.28941 4.21178 3.65092 4.21332 4.06729V18.0558H15.7867V4.06729C15.7882 3.65092 15.5002 3.28941 15.094 3.1978Z" fill="#EA6453"/>
<path d="M15.7866 12.2051C14.9803 12.2051 14.3267 12.8587 14.3267 13.665V18.0551H17.2463V13.665C17.2462 12.8589 16.5928 12.2053 15.7866 12.2051Z" fill="#FE7058"/>
<path d="M4.21333 12.2051C3.40716 12.2053 2.75372 12.8588 2.75372 13.665V18.0551H5.6733V13.665C5.67324 12.8588 5.01962 12.2051 4.21333 12.2051Z" fill="#FE7058"/>
<path d="M6.9826 12.5273H13.0171V13.0029H6.9826V12.5273Z" fill="#2F4859"/>
<path d="M6.9826 13.6836H13.0171V14.1591H6.9826V13.6836Z" fill="#2F4859"/>
<path d="M6.9826 14.8418H13.0171V15.3173H6.9826V14.8418Z" fill="#2F4859"/>
<path d="M6.9826 16.002H13.0171V16.4775H6.9826V16.002Z" fill="#2F4859"/>
<path d="M17.5669 17.4492H2.4331C2.16088 17.4492 1.94019 17.6699 1.94019 17.9421C1.94019 18.2143 2.16088 18.435 2.4331 18.435H17.5669C17.8391 18.435 18.0598 18.2143 18.0598 17.9421C18.0598 17.6699 17.8391 17.4492 17.5669 17.4492Z" fill="#3E6B82"/>
<path d="M5.67352 5.50977H14.3271V10.2178H5.67352V5.50977Z" fill="#3A556A"/>
<path d="M7.42841 3.83789H12.5716V4.65139H7.42841V3.83789Z" fill="#3A556A"/>
<path d="M15.8338 12.8945C15.3973 12.8945 15.0436 13.2484 15.0436 13.6847C15.0436 14.1211 15.3973 14.4749 15.8338 14.4749C16.2702 14.4749 16.624 14.1212 16.624 13.6847C16.624 13.2484 16.2702 12.8945 15.8338 12.8945Z" fill="#EBF0F3"/>
<path d="M4.16612 12.8945C3.72968 12.8945 3.37592 13.2484 3.37592 13.6847C3.37592 14.1211 3.72968 14.4749 4.16612 14.4749C4.60256 14.4749 4.95633 14.1212 4.95633 13.6847C4.95633 13.2484 4.60256 12.8945 4.16612 12.8945Z" fill="#EBF0F3"/>
<path d="M15.8338 14.8438C15.3973 14.8438 15.0436 15.1976 15.0436 15.634C15.0436 16.0704 15.3973 16.4242 15.8338 16.4242C16.2702 16.4242 16.624 16.0704 16.624 15.634C16.624 15.1975 16.2702 14.8438 15.8338 14.8438Z" fill="#EBF0F3"/>
<path d="M4.16612 14.8438C3.72968 14.8438 3.37592 15.1976 3.37592 15.634C3.37592 16.0704 3.72968 16.4242 4.16612 16.4242C4.60256 16.4242 4.95633 16.0704 4.95633 15.634C4.95633 15.1975 4.60256 14.8438 4.16612 14.8438Z" fill="#EBF0F3"/>
</g>
<defs>
<clipPath id="clip0">
<rect width="20" height="20" fill="white"/>
</clipPath>
</defs>
</svg>
