<svg width="20" height="20" viewBox="0 0 20 20" fill="none" xmlns="http://www.w3.org/2000/svg">
<path d="M4.80469 2.73438H2.96875C2.64516 2.73438 2.38281 2.47203 2.38281 2.14844C2.38281 1.82484 2.64516 1.5625 2.96875 1.5625H4.33594L4.80469 2.73438Z" fill="#7F6D67"/>
<path d="M15.6641 1.5625H17.0312C17.3548 1.5625 17.6172 1.82484 17.6172 2.14844C17.6172 2.47203 17.3548 2.73438 17.0312 2.73438H15.1172L15.6641 1.5625Z" fill="#504541"/>
<path d="M6.07023 6.44922C5.23516 7.3825 4.72656 8.61371 4.72656 9.96168V15.5086C4.72656 16.6932 5.69035 17.657 6.875 17.657H13.125C14.3096 17.657 15.2734 16.6932 15.2734 15.5086V9.96168C15.2734 8.61371 14.7648 7.3825 13.9298 6.44922H6.07023Z" fill="#FF1F3D"/>
<path d="M10 6.44922V17.657H13.125C14.3096 17.657 15.2734 16.6932 15.2734 15.5086V9.96168C15.2734 8.61371 14.7648 7.3825 13.9298 6.44922H10Z" fill="#C6001C"/>
<path d="M9.99996 9.375C11.8533 9.375 13.4233 8.13922 13.9297 6.44848C12.9634 5.36848 11.5598 4.6875 9.99996 4.6875C8.44012 4.6875 7.03652 5.36848 6.07019 6.44848C6.57668 8.13922 8.1466 9.375 9.99996 9.375Z" fill="#FFF5F5"/>
<path d="M13.9298 6.44848C12.9634 5.36848 11.5598 4.6875 10 4.6875V9.375C11.8534 9.375 13.4233 8.13922 13.9298 6.44848Z" fill="#E1EBF0"/>
<path d="M11.3171 4.67289H8.68293C8.62453 4.67289 8.56644 4.66414 8.51062 4.64695L4.74957 3.48969C4.50371 3.41406 4.33594 3.18691 4.33594 2.92969V1.5625H15.6641V2.92969C15.6641 3.18691 15.4963 3.41406 15.2504 3.48973L11.4894 4.64695C11.4336 4.66414 11.3755 4.67289 11.3171 4.67289Z" fill="#FF1F3D"/>
<path d="M10 4.67289H11.3171C11.3755 4.67289 11.4336 4.66414 11.4894 4.64695L15.2504 3.48973C15.4963 3.41406 15.6641 3.18691 15.6641 2.92969V1.5625H10V4.67289Z" fill="#C6001C"/>
<path d="M10 5.07812C8.59996 5.07812 7.46094 3.9391 7.46094 2.53906C7.46094 1.13902 8.59996 0 10 0C11.4 0 12.5391 1.13902 12.5391 2.53906C12.5391 3.9391 11.4 5.07812 10 5.07812Z" fill="#FF6378"/>
<path d="M12.5391 2.53906C12.5391 1.13902 11.4 0 10 0V5.07812C11.4 5.07812 12.5391 3.9391 12.5391 2.53906Z" fill="#FF1F3D"/>
<path d="M10 3.90625C10.7551 3.90625 11.3672 3.29414 11.3672 2.53906C11.3672 1.78399 10.7551 1.17188 10 1.17188C9.24492 1.17188 8.63281 1.78399 8.63281 2.53906C8.63281 3.29414 9.24492 3.90625 10 3.90625Z" fill="#FFF68E"/>
<path d="M11.3672 2.53906C11.3672 1.7852 10.7539 1.17188 10 1.17188V3.90625C10.7539 3.90625 11.3672 3.29293 11.3672 2.53906Z" fill="#FFD422"/>
<path d="M10 20C9.24492 20 8.63281 19.3879 8.63281 18.6328V14.1406H11.3672V18.6328C11.3672 19.3879 10.7551 20 10 20Z" fill="#7F6D67"/>
<path d="M11.3672 18.6328V14.1406H10V20C10.7551 20 11.3672 19.3879 11.3672 18.6328Z" fill="#504541"/>
<path d="M12.5391 13.5547V14.7266C12.5391 15.0502 12.2767 15.3125 11.9531 15.3125H8.04688C7.72328 15.3125 7.46094 15.0502 7.46094 14.7266V13.5547C7.46094 12.1524 8.5977 11.0156 10 11.0156C11.4023 11.0156 12.5391 12.1524 12.5391 13.5547Z" fill="#FF6378"/>
<path d="M10 11.0156V15.3125H11.9531C12.2767 15.3125 12.5391 15.0502 12.5391 14.7266V13.5547C12.5391 12.1524 11.4023 11.0156 10 11.0156Z" fill="#FF1F3D"/>
</svg>
