<svg width="11" height="15" viewBox="0 0 11 15" fill="none" xmlns="http://www.w3.org/2000/svg">
<path d="M5.55752 14.6338C4.57534 13.796 3.66494 12.8776 2.83586 11.888C1.59167 10.402 0.114197 8.1889 0.114197 6.08C0.113095 3.87743 1.43945 1.89128 3.47434 1.04834C5.50922 0.205413 7.85154 0.671856 9.40828 2.23001C10.432 3.24917 11.0054 4.63549 11.0009 6.08C11.0009 8.1889 9.52337 10.402 8.27918 11.888C7.4501 12.8776 6.5397 13.796 5.55752 14.6338ZM5.55752 2.19191C3.41125 2.19448 1.672 3.93373 1.66943 6.08C1.66943 6.9867 2.07924 8.55671 4.0295 10.8903C4.51018 11.4643 5.0202 12.013 5.55752 12.5342C6.09489 12.0136 6.60516 11.4657 7.08632 10.8927C9.0358 8.55593 9.44561 6.98592 9.44561 6.08C9.44304 3.93373 7.70379 2.19448 5.55752 2.19191ZM5.55752 8.41285C4.26912 8.41285 3.22467 7.3684 3.22467 6.08C3.22467 4.7916 4.26912 3.74715 5.55752 3.74715C6.84592 3.74715 7.89037 4.7916 7.89037 6.08C7.89037 6.69871 7.64459 7.29208 7.2071 7.72957C6.7696 8.16707 6.17623 8.41285 5.55752 8.41285Z" fill="#4AA541"/>
</svg>
