<svg width="188" height="19" viewBox="0 0 188 19" fill="none" xmlns="http://www.w3.org/2000/svg">
<path d="M1.28 18C1.12 18 0.976 17.944 0.848 17.832C0.736 17.704 0.68 17.56 0.68 17.4V1.8C0.68 1.624 0.736 1.48 0.848 1.368C0.976 1.256 1.12 1.2 1.28 1.2H8C10.048 1.2 11.656 1.672 12.824 2.616C14.008 3.56 14.6 4.936 14.6 6.744C14.6 8.536 14.016 9.888 12.848 10.8C11.68 11.696 10.064 12.144 8 12.144H5.144V17.4C5.144 17.576 5.08 17.72 4.952 17.832C4.84 17.944 4.696 18 4.52 18H1.28ZM7.88 8.832C8.584 8.832 9.136 8.656 9.536 8.304C9.936 7.936 10.136 7.4 10.136 6.696C10.136 6.04 9.944 5.52 9.56 5.136C9.192 4.736 8.632 4.536 7.88 4.536H5.072V8.832H7.88ZM22.3981 18.24C20.4141 18.24 18.8861 17.768 17.8141 16.824C16.7421 15.88 16.1581 14.552 16.0621 12.84C16.0461 12.632 16.0381 12.272 16.0381 11.76C16.0381 11.248 16.0461 10.888 16.0621 10.68C16.1581 8.984 16.7581 7.664 17.8621 6.72C18.9661 5.76 20.4781 5.28 22.3981 5.28C24.3341 5.28 25.8541 5.76 26.9581 6.72C28.0621 7.664 28.6621 8.984 28.7581 10.68C28.7741 10.888 28.7821 11.248 28.7821 11.76C28.7821 12.272 28.7741 12.632 28.7581 12.84C28.6621 14.552 28.0781 15.88 27.0061 16.824C25.9341 17.768 24.3981 18.24 22.3981 18.24ZM22.3981 15.312C23.1021 15.312 23.6221 15.104 23.9581 14.688C24.2941 14.256 24.4861 13.6 24.5341 12.72C24.5501 12.56 24.5581 12.24 24.5581 11.76C24.5581 11.28 24.5501 10.96 24.5341 10.8C24.4861 9.936 24.2861 9.288 23.9341 8.856C23.5981 8.424 23.0861 8.208 22.3981 8.208C21.0701 8.208 20.3661 9.072 20.2861 10.8L20.2621 11.76L20.2861 12.72C20.3181 13.6 20.5021 14.256 20.8381 14.688C21.1901 15.104 21.7101 15.312 22.3981 15.312ZM36.902 18.24C35.094 18.24 33.63 17.76 32.51 16.8C31.39 15.824 30.79 14.472 30.71 12.744L30.686 11.784L30.71 10.8C30.774 9.072 31.366 7.72 32.486 6.744C33.622 5.768 35.094 5.28 36.902 5.28C38.262 5.28 39.406 5.528 40.334 6.024C41.278 6.504 41.974 7.088 42.422 7.776C42.886 8.448 43.134 9.064 43.166 9.624C43.182 9.784 43.126 9.928 42.998 10.056C42.886 10.168 42.742 10.224 42.566 10.224H39.518C39.342 10.224 39.206 10.184 39.11 10.104C39.014 10.024 38.926 9.904 38.846 9.744C38.654 9.248 38.406 8.896 38.102 8.688C37.814 8.48 37.438 8.376 36.974 8.376C35.662 8.376 34.982 9.224 34.934 10.92L34.91 11.832L34.934 12.624C34.966 13.488 35.15 14.128 35.486 14.544C35.838 14.944 36.334 15.144 36.974 15.144C37.47 15.144 37.862 15.04 38.15 14.832C38.438 14.624 38.67 14.272 38.846 13.776C38.926 13.616 39.014 13.496 39.11 13.416C39.206 13.336 39.342 13.296 39.518 13.296H42.566C42.726 13.296 42.862 13.352 42.974 13.464C43.102 13.56 43.166 13.688 43.166 13.848C43.166 14.36 42.942 14.96 42.494 15.648C42.062 16.336 41.374 16.944 40.43 17.472C39.486 17.984 38.31 18.24 36.902 18.24ZM45.9223 18C45.7623 18 45.6183 17.944 45.4902 17.832C45.3783 17.704 45.3223 17.56 45.3223 17.4V1.56C45.3223 1.384 45.3783 1.24 45.4902 1.128C45.6183 1.016 45.7623 0.959999 45.9223 0.959999H48.7063C48.8823 0.959999 49.0263 1.016 49.1383 1.128C49.2503 1.24 49.3063 1.384 49.3063 1.56V9.6L52.6423 5.928C52.6743 5.896 52.7303 5.84 52.8103 5.76C52.9063 5.68 53.0023 5.624 53.0983 5.592C53.1943 5.544 53.3063 5.52 53.4343 5.52H56.6503C56.7943 5.52 56.9143 5.576 57.0103 5.688C57.1223 5.784 57.1783 5.904 57.1783 6.048C57.1783 6.224 57.1143 6.36 56.9863 6.456L52.6663 11.112L57.5863 17.088C57.7143 17.216 57.7783 17.336 57.7783 17.448C57.7783 17.608 57.7223 17.744 57.6103 17.856C57.5143 17.952 57.3863 18 57.2263 18H53.9383C53.7303 18 53.5703 17.968 53.4583 17.904C53.3623 17.84 53.2423 17.736 53.0983 17.592L49.3063 13.032V17.4C49.3063 17.56 49.2503 17.704 49.1383 17.832C49.0263 17.944 48.8823 18 48.7063 18H45.9223ZM64.5588 18.24C62.6388 18.24 61.1268 17.72 60.0228 16.68C58.9188 15.64 58.3428 14.128 58.2948 12.144V11.304C58.3588 9.416 58.9428 7.944 60.0468 6.888C61.1668 5.816 62.6628 5.28 64.5348 5.28C65.8948 5.28 67.0388 5.56 67.9668 6.12C68.9108 6.664 69.6148 7.416 70.0788 8.376C70.5588 9.336 70.7988 10.44 70.7988 11.688V12.264C70.7988 12.424 70.7428 12.568 70.6308 12.696C70.5188 12.808 70.3748 12.864 70.1988 12.864H62.5188V13.032C62.5508 13.784 62.7348 14.392 63.0708 14.856C63.4068 15.32 63.8948 15.552 64.5348 15.552C64.9348 15.552 65.2628 15.472 65.5188 15.312C65.7748 15.136 66.0068 14.928 66.2148 14.688C66.3588 14.512 66.4708 14.408 66.5508 14.376C66.6468 14.328 66.7908 14.304 66.9828 14.304H69.9588C70.1028 14.304 70.2228 14.352 70.3188 14.448C70.4308 14.528 70.4868 14.64 70.4868 14.784C70.4868 15.2 70.2468 15.68 69.7668 16.224C69.3028 16.768 68.6228 17.24 67.7268 17.64C66.8308 18.04 65.7748 18.24 64.5588 18.24ZM66.5748 10.488V10.44C66.5748 9.656 66.3908 9.04 66.0228 8.592C65.6708 8.128 65.1748 7.896 64.5348 7.896C63.9108 7.896 63.4148 8.128 63.0468 8.592C62.6948 9.04 62.5188 9.656 62.5188 10.44V10.488H66.5748ZM79.3859 18C76.0739 18 74.4179 16.424 74.4179 13.272V8.664H72.5459C72.3699 8.664 72.2179 8.608 72.0899 8.496C71.9779 8.384 71.9219 8.24 71.9219 8.064V6.12C71.9219 5.944 71.9779 5.8 72.0899 5.688C72.2179 5.576 72.3699 5.52 72.5459 5.52H74.4179V1.56C74.4179 1.384 74.4739 1.24 74.5859 1.128C74.7139 1.016 74.8579 0.959999 75.0179 0.959999H77.8019C77.9779 0.959999 78.1219 1.016 78.2339 1.128C78.3459 1.24 78.4019 1.384 78.4019 1.56V5.52H81.4019C81.5779 5.52 81.7219 5.576 81.8339 5.688C81.9619 5.8 82.0259 5.944 82.0259 6.12V8.064C82.0259 8.24 81.9619 8.384 81.8339 8.496C81.7219 8.608 81.5779 8.664 81.4019 8.664H78.4019V12.936C78.4019 14.12 78.8579 14.712 79.7699 14.712H81.6179C81.7939 14.712 81.9379 14.768 82.0499 14.88C82.1619 14.992 82.2179 15.136 82.2179 15.312V17.4C82.2179 17.56 82.1619 17.704 82.0499 17.832C81.9379 17.944 81.7939 18 81.6179 18H79.3859Z" fill="#FD7B38"/>
<path d="M95.8424 18.24C94.3224 18.24 93.0184 18.016 91.9304 17.568C90.8424 17.12 90.0184 16.536 89.4584 15.816C88.9144 15.08 88.6264 14.28 88.5944 13.416C88.5944 13.288 88.6424 13.176 88.7384 13.08C88.8504 12.968 88.9784 12.912 89.1224 12.912H92.1464C92.3384 12.912 92.4904 12.952 92.6024 13.032C92.7304 13.096 92.8584 13.2 92.9864 13.344C93.1944 13.76 93.5304 14.104 93.9944 14.376C94.4584 14.648 95.0744 14.784 95.8424 14.784C96.7544 14.784 97.4504 14.64 97.9304 14.352C98.4104 14.064 98.6504 13.672 98.6504 13.176C98.6504 12.824 98.5224 12.536 98.2664 12.312C98.0264 12.088 97.6424 11.888 97.1144 11.712C96.5864 11.536 95.8024 11.336 94.7624 11.112C92.8424 10.712 91.4024 10.128 90.4424 9.36C89.4984 8.576 89.0264 7.464 89.0264 6.024C89.0264 5.048 89.2984 4.176 89.8424 3.408C90.3864 2.64 91.1624 2.04 92.1704 1.608C93.1784 1.176 94.3544 0.959999 95.6984 0.959999C97.0904 0.959999 98.2984 1.2 99.3224 1.68C100.346 2.16 101.122 2.768 101.65 3.504C102.194 4.224 102.482 4.936 102.514 5.64C102.514 5.784 102.466 5.904 102.37 6C102.274 6.096 102.154 6.144 102.01 6.144H98.8424C98.6504 6.144 98.4904 6.112 98.3624 6.048C98.2504 5.984 98.1464 5.88 98.0504 5.736C97.9544 5.368 97.6904 5.056 97.2584 4.8C96.8424 4.544 96.3224 4.416 95.6984 4.416C94.9784 4.416 94.4264 4.544 94.0424 4.8C93.6584 5.056 93.4664 5.432 93.4664 5.928C93.4664 6.264 93.5704 6.544 93.7784 6.768C94.0024 6.992 94.3544 7.2 94.8344 7.392C95.3304 7.568 96.0344 7.752 96.9464 7.944C98.4344 8.216 99.6184 8.56 100.498 8.976C101.394 9.376 102.05 9.904 102.466 10.56C102.882 11.2 103.09 12.008 103.09 12.984C103.09 14.056 102.778 14.992 102.154 15.792C101.546 16.576 100.69 17.184 99.5864 17.616C98.4984 18.032 97.2504 18.24 95.8424 18.24ZM111.133 18.24C109.149 18.24 107.621 17.768 106.549 16.824C105.477 15.88 104.893 14.552 104.797 12.84C104.781 12.632 104.773 12.272 104.773 11.76C104.773 11.248 104.781 10.888 104.797 10.68C104.893 8.984 105.493 7.664 106.597 6.72C107.701 5.76 109.213 5.28 111.133 5.28C113.069 5.28 114.589 5.76 115.693 6.72C116.797 7.664 117.397 8.984 117.493 10.68C117.509 10.888 117.517 11.248 117.517 11.76C117.517 12.272 117.509 12.632 117.493 12.84C117.397 14.552 116.813 15.88 115.741 16.824C114.669 17.768 113.133 18.24 111.133 18.24ZM111.133 15.312C111.837 15.312 112.357 15.104 112.693 14.688C113.029 14.256 113.221 13.6 113.269 12.72C113.285 12.56 113.293 12.24 113.293 11.76C113.293 11.28 113.285 10.96 113.269 10.8C113.221 9.936 113.021 9.288 112.669 8.856C112.333 8.424 111.821 8.208 111.133 8.208C109.805 8.208 109.101 9.072 109.021 10.8L108.997 11.76L109.021 12.72C109.053 13.6 109.237 14.256 109.573 14.688C109.925 15.104 110.445 15.312 111.133 15.312ZM120.5 18C120.34 18 120.196 17.944 120.068 17.832C119.956 17.704 119.9 17.56 119.9 17.4V1.56C119.9 1.384 119.956 1.24 120.068 1.128C120.196 1.016 120.34 0.959999 120.5 0.959999H123.332C123.508 0.959999 123.652 1.016 123.764 1.128C123.876 1.24 123.932 1.384 123.932 1.56V17.4C123.932 17.576 123.876 17.72 123.764 17.832C123.652 17.944 123.508 18 123.332 18H120.5ZM131.352 18.24C129.944 18.24 128.808 17.768 127.944 16.824C127.08 15.864 126.648 14.528 126.648 12.816V6.12C126.648 5.944 126.704 5.8 126.816 5.688C126.928 5.576 127.072 5.52 127.248 5.52H130.248C130.424 5.52 130.568 5.576 130.68 5.688C130.808 5.8 130.872 5.944 130.872 6.12V12.672C130.872 14.24 131.568 15.024 132.96 15.024C133.632 15.024 134.16 14.816 134.544 14.4C134.928 13.984 135.12 13.408 135.12 12.672V6.12C135.12 5.944 135.176 5.8 135.288 5.688C135.416 5.576 135.56 5.52 135.72 5.52H138.72C138.896 5.52 139.04 5.576 139.152 5.688C139.264 5.8 139.32 5.944 139.32 6.12V17.4C139.32 17.56 139.264 17.704 139.152 17.832C139.04 17.944 138.896 18 138.72 18H135.936C135.776 18 135.632 17.944 135.504 17.832C135.392 17.704 135.336 17.56 135.336 17.4V16.488C134.504 17.656 133.176 18.24 131.352 18.24ZM148.527 18C145.215 18 143.559 16.424 143.559 13.272V8.664H141.687C141.511 8.664 141.359 8.608 141.231 8.496C141.119 8.384 141.063 8.24 141.063 8.064V6.12C141.063 5.944 141.119 5.8 141.231 5.688C141.359 5.576 141.511 5.52 141.687 5.52H143.559V1.56C143.559 1.384 143.615 1.24 143.727 1.128C143.855 1.016 143.999 0.959999 144.159 0.959999H146.943C147.119 0.959999 147.263 1.016 147.375 1.128C147.487 1.24 147.543 1.384 147.543 1.56V5.52H150.543C150.719 5.52 150.863 5.576 150.975 5.688C151.103 5.8 151.167 5.944 151.167 6.12V8.064C151.167 8.24 151.103 8.384 150.975 8.496C150.863 8.608 150.719 8.664 150.543 8.664H147.543V12.936C147.543 14.12 147.999 14.712 148.911 14.712H150.759C150.935 14.712 151.079 14.768 151.191 14.88C151.303 14.992 151.359 15.136 151.359 15.312V17.4C151.359 17.56 151.303 17.704 151.191 17.832C151.079 17.944 150.935 18 150.759 18H148.527ZM153.922 3.72C153.746 3.72 153.602 3.664 153.49 3.552C153.378 3.44 153.322 3.296 153.322 3.12V0.959999C153.322 0.783999 153.378 0.639999 153.49 0.527999C153.602 0.415999 153.746 0.36 153.922 0.36H156.802C156.978 0.36 157.122 0.415999 157.234 0.527999C157.346 0.639999 157.402 0.783999 157.402 0.959999V3.12C157.402 3.296 157.346 3.44 157.234 3.552C157.122 3.664 156.978 3.72 156.802 3.72H153.922ZM153.946 18C153.77 18 153.626 17.944 153.514 17.832C153.402 17.72 153.346 17.576 153.346 17.4V6.12C153.346 5.944 153.402 5.8 153.514 5.688C153.626 5.576 153.77 5.52 153.946 5.52H156.778C156.954 5.52 157.098 5.576 157.21 5.688C157.322 5.8 157.378 5.944 157.378 6.12V17.4C157.378 17.56 157.322 17.704 157.21 17.832C157.098 17.944 156.954 18 156.778 18H153.946ZM166.117 18.24C164.133 18.24 162.605 17.768 161.533 16.824C160.461 15.88 159.877 14.552 159.781 12.84C159.765 12.632 159.757 12.272 159.757 11.76C159.757 11.248 159.765 10.888 159.781 10.68C159.877 8.984 160.477 7.664 161.581 6.72C162.685 5.76 164.197 5.28 166.117 5.28C168.053 5.28 169.573 5.76 170.677 6.72C171.781 7.664 172.381 8.984 172.477 10.68C172.493 10.888 172.501 11.248 172.501 11.76C172.501 12.272 172.493 12.632 172.477 12.84C172.381 14.552 171.797 15.88 170.725 16.824C169.653 17.768 168.117 18.24 166.117 18.24ZM166.117 15.312C166.821 15.312 167.341 15.104 167.677 14.688C168.013 14.256 168.205 13.6 168.253 12.72C168.269 12.56 168.277 12.24 168.277 11.76C168.277 11.28 168.269 10.96 168.253 10.8C168.205 9.936 168.005 9.288 167.653 8.856C167.317 8.424 166.805 8.208 166.117 8.208C164.789 8.208 164.085 9.072 164.005 10.8L163.981 11.76L164.005 12.72C164.037 13.6 164.221 14.256 164.557 14.688C164.909 15.104 165.429 15.312 166.117 15.312ZM175.485 18C175.309 18 175.165 17.944 175.053 17.832C174.941 17.72 174.885 17.576 174.885 17.4V6.12C174.885 5.944 174.941 5.8 175.053 5.688C175.165 5.576 175.309 5.52 175.485 5.52H178.245C178.421 5.52 178.565 5.576 178.677 5.688C178.805 5.8 178.869 5.944 178.869 6.12V7.032C179.301 6.504 179.853 6.08 180.525 5.76C181.213 5.44 181.989 5.28 182.853 5.28C184.261 5.28 185.405 5.76 186.285 6.72C187.165 7.664 187.605 8.992 187.605 10.704V17.4C187.605 17.56 187.549 17.704 187.437 17.832C187.325 17.944 187.181 18 187.005 18H183.981C183.821 18 183.677 17.944 183.549 17.832C183.437 17.704 183.381 17.56 183.381 17.4V10.848C183.381 10.096 183.197 9.52 182.829 9.12C182.461 8.704 181.933 8.496 181.245 8.496C180.573 8.496 180.045 8.704 179.661 9.12C179.277 9.52 179.085 10.096 179.085 10.848V17.4C179.085 17.56 179.029 17.704 178.917 17.832C178.805 17.944 178.661 18 178.485 18H175.485Z" fill="#DCDCDC"/>
</svg>
