
<svg width="193" height="25" viewBox="0 0 193 25" fill="none" xmlns="http://www.w3.org/2000/svg">
<mask id="path-1-outside-1" maskUnits="userSpaceOnUse" x="0" y="0" width="193" height="26" fill="black">
<rect fill="white" width="193" height="26"/>
<path d="M6.709 1.594C9.305 1.594 11.23 2.122 12.484 3.178C13.76 4.212 14.398 5.697 14.398 7.633V8.425C14.398 10.493 13.782 12.088 12.55 13.21C11.318 14.332 9.459 14.893 6.973 14.893C5.983 14.893 4.927 14.805 3.805 14.629V23.605H1V1.759C2.87 1.649 4.773 1.594 6.709 1.594ZM6.643 3.97C5.675 3.97 4.729 3.992 3.805 4.036V12.22C5.125 12.396 6.137 12.484 6.841 12.484C10.009 12.484 11.593 11.087 11.593 8.293V7.732C11.593 6.478 11.197 5.543 10.405 4.927C9.613 4.289 8.359 3.97 6.643 3.97Z"/>
<path d="M23.1675 7.105C25.1255 7.105 26.5775 7.633 27.5235 8.689C28.4915 9.723 28.9755 11.197 28.9755 13.111V17.995C28.9755 19.909 28.4915 21.394 27.5235 22.45C26.5775 23.484 25.1255 24.001 23.1675 24.001C21.2095 24.001 19.7465 23.484 18.7785 22.45C17.8325 21.394 17.3595 19.909 17.3595 17.995V13.111C17.3595 11.197 17.8325 9.723 18.7785 8.689C19.7465 7.633 21.2095 7.105 23.1675 7.105ZM23.1675 9.448C22.2215 9.448 21.4845 9.745 20.9565 10.339C20.4285 10.933 20.1645 11.78 20.1645 12.88V18.226C20.1645 19.326 20.4285 20.173 20.9565 20.767C21.4845 21.361 22.2215 21.658 23.1675 21.658C24.1135 21.658 24.8505 21.361 25.3785 20.767C25.9065 20.173 26.1705 19.326 26.1705 18.226V12.847C26.1705 11.747 25.9065 10.911 25.3785 10.339C24.8505 9.745 24.1135 9.448 23.1675 9.448Z"/>
<path d="M38.8979 7.105C39.8879 7.105 41.0099 7.248 42.2639 7.534L42.1979 10.009C40.9219 9.723 39.8219 9.58 38.8979 9.58C37.8639 9.58 37.0719 9.866 36.5219 10.438C35.9939 11.01 35.7299 11.824 35.7299 12.88V18.193C35.7299 19.293 36.0049 20.129 36.5549 20.701C37.1269 21.251 37.9079 21.526 38.8979 21.526C39.5139 21.526 40.0529 21.493 40.5149 21.427C40.9769 21.361 41.5379 21.251 42.1979 21.097L42.2639 23.572C40.9219 23.858 39.7889 24.001 38.8649 24.001C34.9049 24.001 32.9249 21.999 32.9249 17.995V13.111C32.9249 9.107 34.9159 7.105 38.8979 7.105Z"/>
<path d="M48.9183 1.066V14.563L54.1983 7.501H57.3333L51.8553 14.563L57.7293 23.605H54.3633L48.9183 14.959V23.605H46.1133V1.066H48.9183Z"/>
<path d="M64.9929 7.105C66.8409 7.105 68.2489 7.611 69.2169 8.623C70.1849 9.635 70.6689 11.098 70.6689 13.012V16.411H62.1879V18.358C62.1879 19.48 62.4519 20.294 62.9799 20.8C63.5299 21.284 64.3879 21.526 65.5539 21.526C66.6979 21.526 68.1279 21.35 69.8439 20.998L69.9099 23.44C67.8639 23.814 66.4009 24.001 65.5209 24.001C63.3429 24.001 61.7699 23.528 60.8019 22.582C59.8559 21.636 59.3829 20.173 59.3829 18.193V13.012C59.3829 11.098 59.8449 9.635 60.7689 8.623C61.7149 7.611 63.1229 7.105 64.9929 7.105ZM64.9929 9.448C64.1349 9.448 63.4529 9.723 62.9469 10.273C62.4409 10.801 62.1879 11.571 62.1879 12.583V14.167H67.8639V12.682C67.8639 11.626 67.5999 10.823 67.0719 10.273C66.5659 9.723 65.8729 9.448 64.9929 9.448Z"/>
<path d="M77.7727 7.501H82.0627V9.811H77.7727V19.249C77.7727 20.085 77.9377 20.69 78.2677 21.064C78.6197 21.416 79.1587 21.592 79.8847 21.592C80.8087 21.592 81.7107 21.482 82.5907 21.262L82.6567 23.605C81.6887 23.869 80.8087 24.001 80.0167 24.001C78.2567 24.001 76.9697 23.616 76.1557 22.846C75.3637 22.054 74.9677 20.778 74.9677 19.018V9.811H72.6577V7.501H74.9677L75.4957 3.211H77.7727V7.501Z"/>
<path d="M97.1298 1.594C98.3178 1.594 99.8688 1.77 101.783 2.122L101.717 4.597C99.9128 4.245 98.3838 4.069 97.1298 4.069C95.8538 4.069 94.9298 4.322 94.3578 4.828C93.8078 5.334 93.5328 6.104 93.5328 7.138V7.996C93.5328 8.546 93.5988 8.986 93.7308 9.316C93.8848 9.624 94.1488 9.899 94.5228 10.141C94.8968 10.361 95.4578 10.592 96.2058 10.834L99.2748 11.857C100.749 12.363 101.783 13.034 102.377 13.87C102.993 14.706 103.301 15.927 103.301 17.533V18.16C103.301 20.118 102.729 21.581 101.585 22.549C100.463 23.517 98.6148 24.001 96.0408 24.001C94.7868 24.001 93.1808 23.781 91.2228 23.341L91.2888 20.8C93.1148 21.24 94.6768 21.46 95.9748 21.46C97.6248 21.46 98.7908 21.218 99.4728 20.734C100.155 20.228 100.496 19.447 100.496 18.391V17.302C100.496 16.532 100.32 15.949 99.9678 15.553C99.6378 15.135 99.0438 14.783 98.1858 14.497L94.7868 13.375C93.2688 12.869 92.2128 12.22 91.6188 11.428C91.0248 10.614 90.7278 9.393 90.7278 7.765V7.402C90.7278 5.488 91.2338 4.047 92.2458 3.079C93.2798 2.089 94.9078 1.594 97.1298 1.594Z"/>
<path d="M112.242 7.105C114.2 7.105 115.652 7.633 116.598 8.689C117.566 9.723 118.05 11.197 118.05 13.111V17.995C118.05 19.909 117.566 21.394 116.598 22.45C115.652 23.484 114.2 24.001 112.242 24.001C110.284 24.001 108.821 23.484 107.853 22.45C106.907 21.394 106.434 19.909 106.434 17.995V13.111C106.434 11.197 106.907 9.723 107.853 8.689C108.821 7.633 110.284 7.105 112.242 7.105ZM112.242 9.448C111.296 9.448 110.559 9.745 110.031 10.339C109.503 10.933 109.239 11.78 109.239 12.88V18.226C109.239 19.326 109.503 20.173 110.031 20.767C110.559 21.361 111.296 21.658 112.242 21.658C113.188 21.658 113.925 21.361 114.453 20.767C114.981 20.173 115.245 19.326 115.245 18.226V12.847C115.245 11.747 114.981 10.911 114.453 10.339C113.925 9.745 113.188 9.448 112.242 9.448Z"/>
<path d="M125.134 1.066V23.605H122.329V1.066H125.134Z"/>
<path d="M140.961 23.605H138.321V21.295C137.727 22.175 137.067 22.846 136.341 23.308C135.615 23.77 134.845 24.001 134.031 24.001C132.689 24.001 131.633 23.539 130.863 22.615C130.115 21.669 129.741 20.294 129.741 18.49V7.501H132.546V17.995C132.546 19.161 132.722 20.019 133.074 20.569C133.448 21.119 133.954 21.394 134.592 21.394C135.186 21.394 135.802 21.163 136.44 20.701C137.1 20.217 137.672 19.557 138.156 18.721V7.501H140.961V23.605Z"/>
<path d="M148.897 7.501H153.187V9.811H148.897V19.249C148.897 20.085 149.062 20.69 149.392 21.064C149.744 21.416 150.283 21.592 151.009 21.592C151.933 21.592 152.835 21.482 153.715 21.262L153.781 23.605C152.813 23.869 151.933 24.001 151.141 24.001C149.381 24.001 148.094 23.616 147.28 22.846C146.488 22.054 146.092 20.778 146.092 19.018V9.811H143.782V7.501H146.092L146.62 3.211H148.897V7.501Z"/>
<path d="M159.552 7.501V23.605H156.747V7.501H159.552ZM158.133 1C158.727 1 159.178 1.132 159.486 1.396C159.816 1.66 159.981 2.034 159.981 2.518V3.475C159.981 3.959 159.816 4.333 159.486 4.597C159.178 4.839 158.727 4.96 158.133 4.96C157.561 4.96 157.11 4.839 156.78 4.597C156.472 4.333 156.318 3.959 156.318 3.475V2.518C156.318 2.034 156.472 1.66 156.78 1.396C157.11 1.132 157.561 1 158.133 1Z"/>
<path d="M169.637 7.105C171.595 7.105 173.047 7.633 173.993 8.689C174.961 9.723 175.445 11.197 175.445 13.111V17.995C175.445 19.909 174.961 21.394 173.993 22.45C173.047 23.484 171.595 24.001 169.637 24.001C167.679 24.001 166.216 23.484 165.248 22.45C164.302 21.394 163.829 19.909 163.829 17.995V13.111C163.829 11.197 164.302 9.723 165.248 8.689C166.216 7.633 167.679 7.105 169.637 7.105ZM169.637 9.448C168.691 9.448 167.954 9.745 167.426 10.339C166.898 10.933 166.634 11.78 166.634 12.88V18.226C166.634 19.326 166.898 20.173 167.426 20.767C167.954 21.361 168.691 21.658 169.637 21.658C170.583 21.658 171.32 21.361 171.848 20.767C172.376 20.173 172.64 19.326 172.64 18.226V12.847C172.64 11.747 172.376 10.911 171.848 10.339C171.32 9.745 170.583 9.448 169.637 9.448Z"/>
<path d="M186.754 7.105C188.162 7.105 189.24 7.589 189.988 8.557C190.758 9.503 191.143 10.856 191.143 12.616V23.605H188.338V13.012C188.338 10.812 187.623 9.712 186.193 9.712C185.555 9.712 184.906 9.954 184.246 10.438C183.586 10.922 183.014 11.582 182.53 12.418V23.605H179.725V7.501H182.365V9.91C182.959 9.008 183.619 8.315 184.345 7.831C185.093 7.347 185.896 7.105 186.754 7.105Z"/>
</mask>
<path d="M6.709 1.594C9.305 1.594 11.23 2.122 12.484 3.178C13.76 4.212 14.398 5.697 14.398 7.633V8.425C14.398 10.493 13.782 12.088 12.55 13.21C11.318 14.332 9.459 14.893 6.973 14.893C5.983 14.893 4.927 14.805 3.805 14.629V23.605H1V1.759C2.87 1.649 4.773 1.594 6.709 1.594ZM6.643 3.97C5.675 3.97 4.729 3.992 3.805 4.036V12.22C5.125 12.396 6.137 12.484 6.841 12.484C10.009 12.484 11.593 11.087 11.593 8.293V7.732C11.593 6.478 11.197 5.543 10.405 4.927C9.613 4.289 8.359 3.97 6.643 3.97Z" fill="#FD7B38"/>
<path d="M23.1675 7.105C25.1255 7.105 26.5775 7.633 27.5235 8.689C28.4915 9.723 28.9755 11.197 28.9755 13.111V17.995C28.9755 19.909 28.4915 21.394 27.5235 22.45C26.5775 23.484 25.1255 24.001 23.1675 24.001C21.2095 24.001 19.7465 23.484 18.7785 22.45C17.8325 21.394 17.3595 19.909 17.3595 17.995V13.111C17.3595 11.197 17.8325 9.723 18.7785 8.689C19.7465 7.633 21.2095 7.105 23.1675 7.105ZM23.1675 9.448C22.2215 9.448 21.4845 9.745 20.9565 10.339C20.4285 10.933 20.1645 11.78 20.1645 12.88V18.226C20.1645 19.326 20.4285 20.173 20.9565 20.767C21.4845 21.361 22.2215 21.658 23.1675 21.658C24.1135 21.658 24.8505 21.361 25.3785 20.767C25.9065 20.173 26.1705 19.326 26.1705 18.226V12.847C26.1705 11.747 25.9065 10.911 25.3785 10.339C24.8505 9.745 24.1135 9.448 23.1675 9.448Z" fill="#FD7B38"/>
<path d="M38.8979 7.105C39.8879 7.105 41.0099 7.248 42.2639 7.534L42.1979 10.009C40.9219 9.723 39.8219 9.58 38.8979 9.58C37.8639 9.58 37.0719 9.866 36.5219 10.438C35.9939 11.01 35.7299 11.824 35.7299 12.88V18.193C35.7299 19.293 36.0049 20.129 36.5549 20.701C37.1269 21.251 37.9079 21.526 38.8979 21.526C39.5139 21.526 40.0529 21.493 40.5149 21.427C40.9769 21.361 41.5379 21.251 42.1979 21.097L42.2639 23.572C40.9219 23.858 39.7889 24.001 38.8649 24.001C34.9049 24.001 32.9249 21.999 32.9249 17.995V13.111C32.9249 9.107 34.9159 7.105 38.8979 7.105Z" fill="#FD7B38"/>
<path d="M48.9183 1.066V14.563L54.1983 7.501H57.3333L51.8553 14.563L57.7293 23.605H54.3633L48.9183 14.959V23.605H46.1133V1.066H48.9183Z" fill="#FD7B38"/>
<path d="M64.9929 7.105C66.8409 7.105 68.2489 7.611 69.2169 8.623C70.1849 9.635 70.6689 11.098 70.6689 13.012V16.411H62.1879V18.358C62.1879 19.48 62.4519 20.294 62.9799 20.8C63.5299 21.284 64.3879 21.526 65.5539 21.526C66.6979 21.526 68.1279 21.35 69.8439 20.998L69.9099 23.44C67.8639 23.814 66.4009 24.001 65.5209 24.001C63.3429 24.001 61.7699 23.528 60.8019 22.582C59.8559 21.636 59.3829 20.173 59.3829 18.193V13.012C59.3829 11.098 59.8449 9.635 60.7689 8.623C61.7149 7.611 63.1229 7.105 64.9929 7.105ZM64.9929 9.448C64.1349 9.448 63.4529 9.723 62.9469 10.273C62.4409 10.801 62.1879 11.571 62.1879 12.583V14.167H67.8639V12.682C67.8639 11.626 67.5999 10.823 67.0719 10.273C66.5659 9.723 65.8729 9.448 64.9929 9.448Z" fill="#FD7B38"/>
<path d="M77.7727 7.501H82.0627V9.811H77.7727V19.249C77.7727 20.085 77.9377 20.69 78.2677 21.064C78.6197 21.416 79.1587 21.592 79.8847 21.592C80.8087 21.592 81.7107 21.482 82.5907 21.262L82.6567 23.605C81.6887 23.869 80.8087 24.001 80.0167 24.001C78.2567 24.001 76.9697 23.616 76.1557 22.846C75.3637 22.054 74.9677 20.778 74.9677 19.018V9.811H72.6577V7.501H74.9677L75.4957 3.211H77.7727V7.501Z" fill="#FD7B38"/>
<path d="M97.1298 1.594C98.3178 1.594 99.8688 1.77 101.783 2.122L101.717 4.597C99.9128 4.245 98.3838 4.069 97.1298 4.069C95.8538 4.069 94.9298 4.322 94.3578 4.828C93.8078 5.334 93.5328 6.104 93.5328 7.138V7.996C93.5328 8.546 93.5988 8.986 93.7308 9.316C93.8848 9.624 94.1488 9.899 94.5228 10.141C94.8968 10.361 95.4578 10.592 96.2058 10.834L99.2748 11.857C100.749 12.363 101.783 13.034 102.377 13.87C102.993 14.706 103.301 15.927 103.301 17.533V18.16C103.301 20.118 102.729 21.581 101.585 22.549C100.463 23.517 98.6148 24.001 96.0408 24.001C94.7868 24.001 93.1808 23.781 91.2228 23.341L91.2888 20.8C93.1148 21.24 94.6768 21.46 95.9748 21.46C97.6248 21.46 98.7908 21.218 99.4728 20.734C100.155 20.228 100.496 19.447 100.496 18.391V17.302C100.496 16.532 100.32 15.949 99.9678 15.553C99.6378 15.135 99.0438 14.783 98.1858 14.497L94.7868 13.375C93.2688 12.869 92.2128 12.22 91.6188 11.428C91.0248 10.614 90.7278 9.393 90.7278 7.765V7.402C90.7278 5.488 91.2338 4.047 92.2458 3.079C93.2798 2.089 94.9078 1.594 97.1298 1.594Z" fill="#FD7B38"/>
<path d="M112.242 7.105C114.2 7.105 115.652 7.633 116.598 8.689C117.566 9.723 118.05 11.197 118.05 13.111V17.995C118.05 19.909 117.566 21.394 116.598 22.45C115.652 23.484 114.2 24.001 112.242 24.001C110.284 24.001 108.821 23.484 107.853 22.45C106.907 21.394 106.434 19.909 106.434 17.995V13.111C106.434 11.197 106.907 9.723 107.853 8.689C108.821 7.633 110.284 7.105 112.242 7.105ZM112.242 9.448C111.296 9.448 110.559 9.745 110.031 10.339C109.503 10.933 109.239 11.78 109.239 12.88V18.226C109.239 19.326 109.503 20.173 110.031 20.767C110.559 21.361 111.296 21.658 112.242 21.658C113.188 21.658 113.925 21.361 114.453 20.767C114.981 20.173 115.245 19.326 115.245 18.226V12.847C115.245 11.747 114.981 10.911 114.453 10.339C113.925 9.745 113.188 9.448 112.242 9.448Z" fill="#FD7B38"/>
<path d="M125.134 1.066V23.605H122.329V1.066H125.134Z" fill="#FD7B38"/>
<path d="M140.961 23.605H138.321V21.295C137.727 22.175 137.067 22.846 136.341 23.308C135.615 23.77 134.845 24.001 134.031 24.001C132.689 24.001 131.633 23.539 130.863 22.615C130.115 21.669 129.741 20.294 129.741 18.49V7.501H132.546V17.995C132.546 19.161 132.722 20.019 133.074 20.569C133.448 21.119 133.954 21.394 134.592 21.394C135.186 21.394 135.802 21.163 136.44 20.701C137.1 20.217 137.672 19.557 138.156 18.721V7.501H140.961V23.605Z" fill="#FD7B38"/>
<path d="M148.897 7.501H153.187V9.811H148.897V19.249C148.897 20.085 149.062 20.69 149.392 21.064C149.744 21.416 150.283 21.592 151.009 21.592C151.933 21.592 152.835 21.482 153.715 21.262L153.781 23.605C152.813 23.869 151.933 24.001 151.141 24.001C149.381 24.001 148.094 23.616 147.28 22.846C146.488 22.054 146.092 20.778 146.092 19.018V9.811H143.782V7.501H146.092L146.62 3.211H148.897V7.501Z" fill="#FD7B38"/>
<path d="M159.552 7.501V23.605H156.747V7.501H159.552ZM158.133 1C158.727 1 159.178 1.132 159.486 1.396C159.816 1.66 159.981 2.034 159.981 2.518V3.475C159.981 3.959 159.816 4.333 159.486 4.597C159.178 4.839 158.727 4.96 158.133 4.96C157.561 4.96 157.11 4.839 156.78 4.597C156.472 4.333 156.318 3.959 156.318 3.475V2.518C156.318 2.034 156.472 1.66 156.78 1.396C157.11 1.132 157.561 1 158.133 1Z" fill="#FD7B38"/>
<path d="M169.637 7.105C171.595 7.105 173.047 7.633 173.993 8.689C174.961 9.723 175.445 11.197 175.445 13.111V17.995C175.445 19.909 174.961 21.394 173.993 22.45C173.047 23.484 171.595 24.001 169.637 24.001C167.679 24.001 166.216 23.484 165.248 22.45C164.302 21.394 163.829 19.909 163.829 17.995V13.111C163.829 11.197 164.302 9.723 165.248 8.689C166.216 7.633 167.679 7.105 169.637 7.105ZM169.637 9.448C168.691 9.448 167.954 9.745 167.426 10.339C166.898 10.933 166.634 11.78 166.634 12.88V18.226C166.634 19.326 166.898 20.173 167.426 20.767C167.954 21.361 168.691 21.658 169.637 21.658C170.583 21.658 171.32 21.361 171.848 20.767C172.376 20.173 172.64 19.326 172.64 18.226V12.847C172.64 11.747 172.376 10.911 171.848 10.339C171.32 9.745 170.583 9.448 169.637 9.448Z" fill="#FD7B38"/>
<path d="M186.754 7.105C188.162 7.105 189.24 7.589 189.988 8.557C190.758 9.503 191.143 10.856 191.143 12.616V23.605H188.338V13.012C188.338 10.812 187.623 9.712 186.193 9.712C185.555 9.712 184.906 9.954 184.246 10.438C183.586 10.922 183.014 11.582 182.53 12.418V23.605H179.725V7.501H182.365V9.91C182.959 9.008 183.619 8.315 184.345 7.831C185.093 7.347 185.896 7.105 186.754 7.105Z" fill="#FD7B38"/>
<path d="M6.709 1.594C9.305 1.594 11.23 2.122 12.484 3.178C13.76 4.212 14.398 5.697 14.398 7.633V8.425C14.398 10.493 13.782 12.088 12.55 13.21C11.318 14.332 9.459 14.893 6.973 14.893C5.983 14.893 4.927 14.805 3.805 14.629V23.605H1V1.759C2.87 1.649 4.773 1.594 6.709 1.594ZM6.643 3.97C5.675 3.97 4.729 3.992 3.805 4.036V12.22C5.125 12.396 6.137 12.484 6.841 12.484C10.009 12.484 11.593 11.087 11.593 8.293V7.732C11.593 6.478 11.197 5.543 10.405 4.927C9.613 4.289 8.359 3.97 6.643 3.97Z" stroke="#795A49" stroke-width="2" mask="url(#path-1-outside-1)"/>
<path d="M23.1675 7.105C25.1255 7.105 26.5775 7.633 27.5235 8.689C28.4915 9.723 28.9755 11.197 28.9755 13.111V17.995C28.9755 19.909 28.4915 21.394 27.5235 22.45C26.5775 23.484 25.1255 24.001 23.1675 24.001C21.2095 24.001 19.7465 23.484 18.7785 22.45C17.8325 21.394 17.3595 19.909 17.3595 17.995V13.111C17.3595 11.197 17.8325 9.723 18.7785 8.689C19.7465 7.633 21.2095 7.105 23.1675 7.105ZM23.1675 9.448C22.2215 9.448 21.4845 9.745 20.9565 10.339C20.4285 10.933 20.1645 11.78 20.1645 12.88V18.226C20.1645 19.326 20.4285 20.173 20.9565 20.767C21.4845 21.361 22.2215 21.658 23.1675 21.658C24.1135 21.658 24.8505 21.361 25.3785 20.767C25.9065 20.173 26.1705 19.326 26.1705 18.226V12.847C26.1705 11.747 25.9065 10.911 25.3785 10.339C24.8505 9.745 24.1135 9.448 23.1675 9.448Z" stroke="#795A49" stroke-width="2" mask="url(#path-1-outside-1)"/>
<path d="M38.8979 7.105C39.8879 7.105 41.0099 7.248 42.2639 7.534L42.1979 10.009C40.9219 9.723 39.8219 9.58 38.8979 9.58C37.8639 9.58 37.0719 9.866 36.5219 10.438C35.9939 11.01 35.7299 11.824 35.7299 12.88V18.193C35.7299 19.293 36.0049 20.129 36.5549 20.701C37.1269 21.251 37.9079 21.526 38.8979 21.526C39.5139 21.526 40.0529 21.493 40.5149 21.427C40.9769 21.361 41.5379 21.251 42.1979 21.097L42.2639 23.572C40.9219 23.858 39.7889 24.001 38.8649 24.001C34.9049 24.001 32.9249 21.999 32.9249 17.995V13.111C32.9249 9.107 34.9159 7.105 38.8979 7.105Z" stroke="#795A49" stroke-width="2" mask="url(#path-1-outside-1)"/>
<path d="M48.9183 1.066V14.563L54.1983 7.501H57.3333L51.8553 14.563L57.7293 23.605H54.3633L48.9183 14.959V23.605H46.1133V1.066H48.9183Z" stroke="#795A49" stroke-width="2" mask="url(#path-1-outside-1)"/>
<path d="M64.9929 7.105C66.8409 7.105 68.2489 7.611 69.2169 8.623C70.1849 9.635 70.6689 11.098 70.6689 13.012V16.411H62.1879V18.358C62.1879 19.48 62.4519 20.294 62.9799 20.8C63.5299 21.284 64.3879 21.526 65.5539 21.526C66.6979 21.526 68.1279 21.35 69.8439 20.998L69.9099 23.44C67.8639 23.814 66.4009 24.001 65.5209 24.001C63.3429 24.001 61.7699 23.528 60.8019 22.582C59.8559 21.636 59.3829 20.173 59.3829 18.193V13.012C59.3829 11.098 59.8449 9.635 60.7689 8.623C61.7149 7.611 63.1229 7.105 64.9929 7.105ZM64.9929 9.448C64.1349 9.448 63.4529 9.723 62.9469 10.273C62.4409 10.801 62.1879 11.571 62.1879 12.583V14.167H67.8639V12.682C67.8639 11.626 67.5999 10.823 67.0719 10.273C66.5659 9.723 65.8729 9.448 64.9929 9.448Z" stroke="#795A49" stroke-width="2" mask="url(#path-1-outside-1)"/>
<path d="M77.7727 7.501H82.0627V9.811H77.7727V19.249C77.7727 20.085 77.9377 20.69 78.2677 21.064C78.6197 21.416 79.1587 21.592 79.8847 21.592C80.8087 21.592 81.7107 21.482 82.5907 21.262L82.6567 23.605C81.6887 23.869 80.8087 24.001 80.0167 24.001C78.2567 24.001 76.9697 23.616 76.1557 22.846C75.3637 22.054 74.9677 20.778 74.9677 19.018V9.811H72.6577V7.501H74.9677L75.4957 3.211H77.7727V7.501Z" stroke="#795A49" stroke-width="2" mask="url(#path-1-outside-1)"/>
<path d="M97.1298 1.594C98.3178 1.594 99.8688 1.77 101.783 2.122L101.717 4.597C99.9128 4.245 98.3838 4.069 97.1298 4.069C95.8538 4.069 94.9298 4.322 94.3578 4.828C93.8078 5.334 93.5328 6.104 93.5328 7.138V7.996C93.5328 8.546 93.5988 8.986 93.7308 9.316C93.8848 9.624 94.1488 9.899 94.5228 10.141C94.8968 10.361 95.4578 10.592 96.2058 10.834L99.2748 11.857C100.749 12.363 101.783 13.034 102.377 13.87C102.993 14.706 103.301 15.927 103.301 17.533V18.16C103.301 20.118 102.729 21.581 101.585 22.549C100.463 23.517 98.6148 24.001 96.0408 24.001C94.7868 24.001 93.1808 23.781 91.2228 23.341L91.2888 20.8C93.1148 21.24 94.6768 21.46 95.9748 21.46C97.6248 21.46 98.7908 21.218 99.4728 20.734C100.155 20.228 100.496 19.447 100.496 18.391V17.302C100.496 16.532 100.32 15.949 99.9678 15.553C99.6378 15.135 99.0438 14.783 98.1858 14.497L94.7868 13.375C93.2688 12.869 92.2128 12.22 91.6188 11.428C91.0248 10.614 90.7278 9.393 90.7278 7.765V7.402C90.7278 5.488 91.2338 4.047 92.2458 3.079C93.2798 2.089 94.9078 1.594 97.1298 1.594Z" stroke="#795A49" stroke-width="2" mask="url(#path-1-outside-1)"/>
<path d="M112.242 7.105C114.2 7.105 115.652 7.633 116.598 8.689C117.566 9.723 118.05 11.197 118.05 13.111V17.995C118.05 19.909 117.566 21.394 116.598 22.45C115.652 23.484 114.2 24.001 112.242 24.001C110.284 24.001 108.821 23.484 107.853 22.45C106.907 21.394 106.434 19.909 106.434 17.995V13.111C106.434 11.197 106.907 9.723 107.853 8.689C108.821 7.633 110.284 7.105 112.242 7.105ZM112.242 9.448C111.296 9.448 110.559 9.745 110.031 10.339C109.503 10.933 109.239 11.78 109.239 12.88V18.226C109.239 19.326 109.503 20.173 110.031 20.767C110.559 21.361 111.296 21.658 112.242 21.658C113.188 21.658 113.925 21.361 114.453 20.767C114.981 20.173 115.245 19.326 115.245 18.226V12.847C115.245 11.747 114.981 10.911 114.453 10.339C113.925 9.745 113.188 9.448 112.242 9.448Z" stroke="#795A49" stroke-width="2" mask="url(#path-1-outside-1)"/>
<path d="M125.134 1.066V23.605H122.329V1.066H125.134Z" stroke="#795A49" stroke-width="2" mask="url(#path-1-outside-1)"/>
<path d="M140.961 23.605H138.321V21.295C137.727 22.175 137.067 22.846 136.341 23.308C135.615 23.77 134.845 24.001 134.031 24.001C132.689 24.001 131.633 23.539 130.863 22.615C130.115 21.669 129.741 20.294 129.741 18.49V7.501H132.546V17.995C132.546 19.161 132.722 20.019 133.074 20.569C133.448 21.119 133.954 21.394 134.592 21.394C135.186 21.394 135.802 21.163 136.44 20.701C137.1 20.217 137.672 19.557 138.156 18.721V7.501H140.961V23.605Z" stroke="#795A49" stroke-width="2" mask="url(#path-1-outside-1)"/>
<path d="M148.897 7.501H153.187V9.811H148.897V19.249C148.897 20.085 149.062 20.69 149.392 21.064C149.744 21.416 150.283 21.592 151.009 21.592C151.933 21.592 152.835 21.482 153.715 21.262L153.781 23.605C152.813 23.869 151.933 24.001 151.141 24.001C149.381 24.001 148.094 23.616 147.28 22.846C146.488 22.054 146.092 20.778 146.092 19.018V9.811H143.782V7.501H146.092L146.62 3.211H148.897V7.501Z" stroke="#795A49" stroke-width="2" mask="url(#path-1-outside-1)"/>
<path d="M159.552 7.501V23.605H156.747V7.501H159.552ZM158.133 1C158.727 1 159.178 1.132 159.486 1.396C159.816 1.66 159.981 2.034 159.981 2.518V3.475C159.981 3.959 159.816 4.333 159.486 4.597C159.178 4.839 158.727 4.96 158.133 4.96C157.561 4.96 157.11 4.839 156.78 4.597C156.472 4.333 156.318 3.959 156.318 3.475V2.518C156.318 2.034 156.472 1.66 156.78 1.396C157.11 1.132 157.561 1 158.133 1Z" stroke="#795A49" stroke-width="2" mask="url(#path-1-outside-1)"/>
<path d="M169.637 7.105C171.595 7.105 173.047 7.633 173.993 8.689C174.961 9.723 175.445 11.197 175.445 13.111V17.995C175.445 19.909 174.961 21.394 173.993 22.45C173.047 23.484 171.595 24.001 169.637 24.001C167.679 24.001 166.216 23.484 165.248 22.45C164.302 21.394 163.829 19.909 163.829 17.995V13.111C163.829 11.197 164.302 9.723 165.248 8.689C166.216 7.633 167.679 7.105 169.637 7.105ZM169.637 9.448C168.691 9.448 167.954 9.745 167.426 10.339C166.898 10.933 166.634 11.78 166.634 12.88V18.226C166.634 19.326 166.898 20.173 167.426 20.767C167.954 21.361 168.691 21.658 169.637 21.658C170.583 21.658 171.32 21.361 171.848 20.767C172.376 20.173 172.64 19.326 172.64 18.226V12.847C172.64 11.747 172.376 10.911 171.848 10.339C171.32 9.745 170.583 9.448 169.637 9.448Z" stroke="#795A49" stroke-width="2" mask="url(#path-1-outside-1)"/>
<path d="M186.754 7.105C188.162 7.105 189.24 7.589 189.988 8.557C190.758 9.503 191.143 10.856 191.143 12.616V23.605H188.338V13.012C188.338 10.812 187.623 9.712 186.193 9.712C185.555 9.712 184.906 9.954 184.246 10.438C183.586 10.922 183.014 11.582 182.53 12.418V23.605H179.725V7.501H182.365V9.91C182.959 9.008 183.619 8.315 184.345 7.831C185.093 7.347 185.896 7.105 186.754 7.105Z" stroke="#795A49" stroke-width="2" mask="url(#path-1-outside-1)"/>
</svg>
