<svg width="48" height="61" viewBox="0 0 48 61" fill="none" xmlns="http://www.w3.org/2000/svg">
<path d="M48 51.5491H0V45.5491L6 42.5491V26.0491C5.84195 21.8164 6.79781 17.6164 8.772 13.8691C10.7371 10.3936 14.0961 7.92571 18 7.08907V0.549072H30V7.08907C37.737 8.93107 42 15.6631 42 26.0491V42.5491L48 45.5491V51.5491Z" fill="#FD7B38"/>
<path opacity="0.4" d="M17.97 54.5491C18.0027 57.8608 20.6881 60.5328 24 60.5491C24.3559 60.5418 24.7104 60.5017 25.059 60.4291H25.086H25.14H25.185H25.2C27.1254 60.0123 28.7329 58.6951 29.52 56.8891C29.8234 56.1465 29.9763 55.3512 29.97 54.5491H17.97Z" fill="#FD7B38"/>
</svg>
