<svg width="48" height="48" viewBox="0 0 48 48" fill="none" xmlns="http://www.w3.org/2000/svg">
<circle cx="24" cy="24" r="24" fill="#FD413C"/>
<path d="M32.9487 26.0517C32.6738 22.4723 31.0073 20.2293 29.5371 18.25C28.1758 16.4175 27 14.8351 27 12.5009C27 12.3134 26.895 12.142 26.7285 12.0561C26.5615 11.9696 26.3608 11.9838 26.209 12.0941C24.001 13.6741 22.1587 16.337 21.5152 18.8778C21.0684 20.6467 21.0093 22.6354 21.001 23.9488C18.9619 23.5132 18.5 20.4632 18.4951 20.4299C18.4722 20.2717 18.3755 20.1341 18.2349 20.0589C18.0928 19.9847 17.9258 19.9793 17.7817 20.0506C17.6748 20.1023 15.1572 21.3816 15.0107 26.4891C15.0005 26.659 15 26.8295 15 26.9999C15 31.9619 19.0376 35.9992 24 35.9992C24.0068 35.9997 24.0142 36.0007 24.02 35.9992C24.022 35.9992 24.0239 35.9992 24.0263 35.9992C28.9766 35.985 33 31.9531 33 26.9999C33 26.7503 32.9487 26.0517 32.9487 26.0517ZM24 34.9993C22.3457 34.9993 21 33.5658 21 31.8037C21 31.7437 20.9995 31.6831 21.0039 31.6089C21.0239 30.8658 21.165 30.3585 21.3198 30.0211C21.6099 30.6441 22.1284 31.2169 22.9707 31.2169C23.2471 31.2169 23.4707 30.9932 23.4707 30.7169C23.4707 30.0051 23.4854 29.1838 23.6626 28.4426C23.8204 27.7854 24.1973 27.0862 24.6749 26.5258C24.8872 27.2533 25.3013 27.8421 25.7056 28.4167C26.2843 29.2389 26.8824 30.089 26.9874 31.5386C26.9937 31.6245 27.0001 31.711 27.0001 31.8037C27 33.5658 25.6543 34.9993 24 34.9993Z" fill="white"/>
</svg>
