<svg width="18" height="20" viewBox="0 0 18 20" fill="none" xmlns="http://www.w3.org/2000/svg">
<path d="M8.97436 20L5.98291 17H1.9943C0.892879 17 0 16.1046 0 15V2C0 0.89543 0.892879 0 1.9943 0H15.9544C17.0558 0 17.9487 0.89543 17.9487 2V15C17.9487 16.1046 17.0558 17 15.9544 17H11.9658L8.97436 20ZM1.9943 2V15H6.98006L8.97436 17L10.9687 15H15.9544V2H1.9943ZM12.963 12.986H4.98575V12.6C5.10377 10.5051 6.88457 8.89779 8.97436 9C11.0641 8.89779 12.8449 10.5051 12.963 12.6V12.985V12.986ZM8.97436 8C8.43996 8.01862 7.92184 7.8139 7.54374 7.43471C7.16563 7.05553 6.96149 6.53593 6.98006 6C6.96179 5.46416 7.16603 4.94474 7.54406 4.56562C7.9221 4.1865 8.44004 3.98168 8.97436 4C9.50867 3.98168 10.0266 4.1865 10.4047 4.56562C10.7827 4.94474 10.9869 5.46416 10.9687 6C10.9872 6.53593 10.7831 7.05553 10.405 7.43471C10.0269 7.8139 9.50876 8.01862 8.97436 8Z" fill="white"/>
</svg>
