<svg width="15" height="15" viewBox="0 0 15 15" fill="none" xmlns="http://www.w3.org/2000/svg">
<path d="M7.33521 14.5039C3.46921 14.5039 0.335205 11.3699 0.335205 7.50391C0.335205 3.63791 3.46921 0.503906 7.33521 0.503906C11.2012 0.503906 14.3352 3.63791 14.3352 7.50391C14.331 11.3681 11.1994 14.4997 7.33521 14.5039ZM7.33521 1.90391C4.24241 1.90391 1.73521 4.41111 1.73521 7.50391C1.73521 10.5967 4.24241 13.1039 7.33521 13.1039C10.428 13.1039 12.9352 10.5967 12.9352 7.50391C12.9317 4.41255 10.4266 1.90738 7.33521 1.90391ZM10.8352 8.20391H6.6352V4.00391H8.0352V6.80391H10.8352V8.20391Z" fill="#FD7B38"/>
</svg>
