<svg width="18" height="18" viewBox="0 0 18 18" fill="none" xmlns="http://www.w3.org/2000/svg">
<path d="M9.00041 17.3333C7.74046 17.3369 6.49643 17.0518 5.36374 16.5C4.9492 16.2983 4.55201 16.0628 4.17624 15.7958L4.06208 15.7125C3.02859 14.9496 2.18364 13.9602 1.59208 12.82C0.980189 11.6399 0.662832 10.3293 0.667033 8.99996C0.667033 4.39759 4.39804 0.666626 9.00041 0.666626C13.6028 0.666626 17.3338 4.39759 17.3338 8.99996C17.3379 10.3286 17.0209 11.6386 16.4096 12.8183C15.8188 13.9578 14.9751 14.947 13.9429 15.71C13.5535 15.995 13.1403 16.2459 12.7079 16.46L12.6412 16.4933C11.5078 17.0481 10.2623 17.3354 9.00041 17.3333ZM9.00041 13.1666C7.75164 13.1642 6.60679 13.8616 6.03624 14.9725C7.90407 15.8976 10.0967 15.8976 11.9646 14.9725V14.9683C11.3933 13.8587 10.2484 13.1628 9.00041 13.1666ZM9.00041 11.5C10.8055 11.5023 12.4699 12.4751 13.3579 14.0466L13.3704 14.0358L13.3821 14.0258L13.3679 14.0383L13.3596 14.045C15.4671 12.2242 16.2207 9.28524 15.2493 6.67505C14.2779 4.06486 11.7863 2.33356 9.00124 2.33356C6.21616 2.33356 3.72457 4.06486 2.7532 6.67505C1.78183 9.28524 2.53541 12.2242 4.64291 14.045C5.53146 12.4742 7.19571 11.5021 9.00041 11.5ZM9.00041 10.6666C7.15946 10.6666 5.66708 9.17424 5.66708 7.33329C5.66708 5.49234 7.15946 3.99996 9.00041 3.99996C10.8414 3.99996 12.3337 5.49234 12.3337 7.33329C12.3337 8.21735 11.9826 9.06519 11.3574 9.69032C10.7323 10.3154 9.88446 10.6666 9.00041 10.6666ZM9.00041 5.66663C8.07993 5.66663 7.33374 6.41282 7.33374 7.33329C7.33374 8.25377 8.07993 8.99996 9.00041 8.99996C9.92088 8.99996 10.6671 8.25377 10.6671 7.33329C10.6671 6.41282 9.92088 5.66663 9.00041 5.66663Z" fill="white"/>
</svg>
