<svg width="14" height="14" viewBox="0 0 14 14" fill="none" xmlns="http://www.w3.org/2000/svg">
<path d="M7.00004 14C5.94169 14.0029 4.89671 13.7635 3.94526 13.2999C3.59704 13.1306 3.26341 12.9327 2.94776 12.7085L2.85186 12.6385C1.98374 11.9977 1.27398 11.1665 0.777067 10.2088C0.263084 9.21748 -0.00349489 8.11658 3.45959e-05 6.99997C3.45959e-05 3.13399 3.13406 0 7.00004 0C10.866 0 14.0001 3.13399 14.0001 6.99997C14.0035 8.11604 13.7372 9.21643 13.2237 10.2074C12.7275 11.1646 12.0187 11.9954 11.1517 12.6364C10.8247 12.8757 10.4776 13.0865 10.1143 13.2663L10.0583 13.2943C9.10628 13.7603 8.06002 14.0017 7.00004 14ZM7.00004 10.4999C5.95108 10.4979 4.98941 11.0838 4.51015 12.0169C6.07912 12.794 7.92096 12.794 9.48993 12.0169V12.0134C9.01008 11.0813 8.04837 10.4968 7.00004 10.4999ZM7.00004 9.09996C8.51632 9.10194 9.91442 9.91904 10.6603 11.2392L10.6708 11.2301L10.6806 11.2217L10.6687 11.2322L10.6617 11.2378C12.432 9.70834 13.065 7.23961 12.2491 5.04706C11.4331 2.8545 9.3402 1.40022 7.00074 1.40022C4.66129 1.40022 2.56836 2.8545 1.75241 5.04706C0.936463 7.23961 1.56947 9.70834 3.33976 11.2378C4.08614 9.91829 5.4841 9.1018 7.00004 9.09996ZM7.00004 8.39997C5.45365 8.39997 4.20005 7.14637 4.20005 5.59998C4.20005 4.05359 5.45365 2.79999 7.00004 2.79999C8.54644 2.79999 9.80003 4.05359 9.80003 5.59998C9.80003 6.34258 9.50504 7.05477 8.97994 7.57987C8.45484 8.10497 7.74265 8.39997 7.00004 8.39997ZM7.00004 4.19998C6.22685 4.19998 5.60005 4.82678 5.60005 5.59998C5.60005 6.37317 6.22685 6.99997 7.00004 6.99997C7.77324 6.99997 8.40004 6.37317 8.40004 5.59998C8.40004 4.82678 7.77324 4.19998 7.00004 4.19998Z" fill="white"/>
</svg>
